<?xml version="1.0" encoding="UTF-8"?>
<svg xmlns="http://www.w3.org/2000/svg" xmlns:xlink="http://www.w3.org/1999/xlink" version="1.2" >
<font id="Afrah Light">
<font-face  font-family="Afrah" units-per-em="1024" ascent="1032" descent="-300" font-style="normal" font-weight="300" font-stretch="normal" cap-height="1086" x-height="516" underline-position="-125" underline-thickness="50" />
<missing-glyph  horiz-adv-x="100" d="" />
<glyph glyph-name="NULL" d="" />
<glyph glyph-name="CR" unicode="&#xd;" horiz-adv-x="256" d="" />
<glyph glyph-name="space" unicode="&#x20;" horiz-adv-x="283" d="" />
<glyph glyph-name="exclam" unicode="&#x21;" horiz-adv-x="201" d="M101 -5 C119 -5 136 12 136 30 C136 48 119 66 101 66 C83 66 66 48 66 30 C66 12 83 -5 101 -5 L101 -5 Z M101 799 C81 799 68 757 70 715 L96 228 L105 228 L131 715 C133 757 121 799 101 799 L101 799 Z " />
<glyph glyph-name="quotedbl" unicode="&#x22;" horiz-adv-x="351" d="M216 794 C206 794 198 772 201 749 L219 604 L225 604 L243 749 C246 772 238 794 228 794 L216 794 L216 794 Z M96 794 C86 794 78 772 81 749 L99 604 L105 604 L123 749 C126 772 118 794 108 794 L96 794 L96 794 Z " />
<glyph glyph-name="numbersign" unicode="&#x23;" horiz-adv-x="568" d="M420 725 L391 523 L222 523 L251 725 L245 725 L216 523 L70 523 L64 485 L211 485 L173 219 L25 219 L19 181 L168 181 L142 0 L148 0 L174 181 L343 181 L317 0 L323 0 L349 181 L492 181 L497 219 L354 219 L392 485 L543 485 L548 523 L397 523 L426 725 L420 725 L420 725 Z M217 485 L386 485 L348 219 L179 219 L217 485 L217 485 Z " />
<glyph glyph-name="dollar" unicode="&#x24;" horiz-adv-x="572" d="M53 195 L53 60 L58 60 C58 65 59 75 59 80 C60 101 84 102 109 84 C145 51 191 23 237 6 L237 -75 L255 -75 L255 0 C277 -6 298 -9 318 -9 L318 -74 L336 -74 L336 -8 C438 3 532 97 532 194 C532 266 445 378 336 429 L336 785 C338 784 358 776 357 775 C404 753 463 691 475 644 L488 644 L488 743 L483 743 C483 740 482 735 482 732 C481 720 458 725 437 741 L437 741 C415 758 388 772 361 785 L361 784 C353 787 344 790 335 793 L335 871 L317 871 L317 798 C296 803 275 806 255 806 L255 871 L237 871 L237 805 C151 793 72 703 72 612 C72 554 141 465 237 403 L237 17 C233 19 176 49 178 51 C139 78 87 143 72 183 C71 187 67 194 66 198 L53 195 L53 195 Z M481 679 L481 679 L481 679 L481 679 Z M256 392 C276 380 297 371 318 360 L318 -1 C298 -1 277 3 255 11 L256 392 L256 392 Z M335 350 C420 300 484 225 484 179 C484 95 413 13 335 1 L335 350 L335 350 Z M255 476 L255 804 C275 804 296 800 317 793 L317 440 C295 451 274 463 255 476 L255 476 Z M237 488 C165 539 117 598 117 635 C117 712 174 788 237 801 L237 488 L237 488 Z " />
<glyph glyph-name="percent" unicode="&#x25;" horiz-adv-x="830" d="M79 597 C79 700 130 800 182 800 C237 800 291 690 291 577 C291 478 239 381 186 381 C132 381 79 488 79 597 L79 597 Z M30 588 C30 481 107 376 185 376 C262 376 338 484 338 594 C338 700 262 804 185 804 C107 804 30 697 30 588 L30 588 Z M552 215 C552 315 604 413 657 413 C715 413 771 305 771 195 C771 94 716 -5 660 -5 C605 -5 552 104 552 215 L552 215 Z M503 205 C503 96 580 -10 659 -10 C739 -10 818 100 818 212 C818 316 739 418 659 418 C580 418 503 313 503 205 L503 205 Z M188 -2 L666 792 L659 796 L181 2 L188 -2 L188 -2 Z " />
<glyph glyph-name="ampersand" unicode="&#x26;" horiz-adv-x="855" d="M311 471 L316 466 C393 489 468 562 468 613 C468 709 392 804 315 804 C233 804 153 705 153 603 C153 573 220 486 289 404 C289 404 377 304 488 173 C412 90 334 36 275 36 C188 36 102 125 102 216 C102 304 179 414 257 438 L248 441 C148 410 50 292 50 201 C50 94 147 -10 246 -10 C316 -10 410 58 499 161 C516 141 533 120 551 99 C597 44 671 -10 701 -10 C757 -10 822 68 832 148 L823 151 C816 90 766 31 722 31 C698 31 635 78 595 125 C573 151 552 176 531 200 C608 298 679 420 724 543 L712 543 C668 422 597 303 521 210 C415 335 333 429 333 429 C264 511 197 598 197 629 C197 711 255 791 315 791 C372 791 427 704 427 615 C427 560 370 488 311 470 L311 471 L311 471 Z " />
<glyph glyph-name="quotesingle" unicode="&#x27;" horiz-adv-x="216" d="M96 794 C86 794 78 772 81 749 L99 604 L105 604 L123 749 C126 772 118 794 108 794 L96 794 L96 794 Z " />
<glyph glyph-name="parenleft" unicode="&#x28;" horiz-adv-x="205" d="M189 804 C124 726 60 528 60 295 C60 62 124 -136 189 -214 L195 -209 C147 -151 99 39 99 295 C99 551 147 741 195 799 L189 804 L189 804 Z " />
<glyph glyph-name="parenright" unicode="&#x29;" horiz-adv-x="159" d="M7 798 C61 763 114 514 114 295 C114 76 61 -174 7 -209 L10 -214 C80 -168 149 84 149 295 C149 506 80 758 10 804 L7 798 L7 798 Z " />
<glyph glyph-name="asterisk" unicode="&#x2a;" horiz-adv-x="268" d="M261 719 C262 719 262 720 263 719 L261 719 L261 719 Z M245 600 C266 586 284 616 262 626 C262 626 251 607 247 600 L245 600 L245 600 Z M263 720 C283 730 268 760 248 745 C248 745 258 727 262 720 L263 720 L263 720 Z M150 673 L39 626 C14 616 36 583 53 600 L148 672 L133 554 C131 530 166 530 164 554 L149 672 L150 673 L150 673 Z M245 601 L260 627 L151 673 L261 720 L246 746 L150 673 L245 601 L245 601 Z M53 747 C31 761 16 729 37 720 C42 725 53 747 53 747 L53 747 Z M38 721 L149 674 L53 747 L38 721 L38 721 Z M149 674 L164 794 C166 818 131 818 133 794 L149 674 L149 674 Z " />
<glyph glyph-name="plus" unicode="&#x2b;" horiz-adv-x="647" d="M304 493 L304 287 L100 287 L100 252 L304 252 L304 46 L343 46 L343 252 L547 252 L547 287 L343 287 L343 493 L304 493 L304 493 Z " />
<glyph glyph-name="comma" unicode="&#x2c;" horiz-adv-x="258" d="M125 115 C95 115 65 85 65 55 C65 25 95 -5 125 -5 C146 -5 167 16 173 40 C177 28 179 15 179 2 C179 -53 123 -107 65 -107 L65 -111 C127 -111 188 -51 188 10 C188 52 165 115 125 115 L125 115 Z " />
<glyph glyph-name="hyphen" unicode="&#x2d;" horiz-adv-x="457" d="M80 289 L377 289 L377 331 L80 331 L80 289 L80 289 Z " />
<glyph glyph-name="period" unicode="&#x2e;" horiz-adv-x="195" d="M125 -5 C143 -5 160 12 160 30 C160 48 143 66 125 66 C107 66 90 48 90 30 C90 12 107 -5 125 -5 L125 -5 Z " />
<glyph glyph-name="slash" unicode="&#x2f;" horiz-adv-x="379" d="M319 814 L37 -80 L67 -80 L349 814 L319 814 L319 814 Z " />
<glyph glyph-name="zero" unicode="0" horiz-adv-x="650" d="M73 272 C73 391 199 533 327 533 C442 533 581 404 581 272 C581 153 455 11 327 11 C212 11 73 140 73 272 L73 272 Z M49 272 C49 130 201 -10 327 -10 C467 -10 605 144 605 272 C605 414 453 554 327 554 C187 554 49 400 49 272 L49 272 Z " />
<glyph glyph-name="one" unicode="1" horiz-adv-x="174" d="M112 0 L112 544 L62 544 L62 0 L112 0 L112 0 Z " />
<glyph glyph-name="two" unicode="2" horiz-adv-x="554" d="M56 317 C76 417 171 516 249 516 C327 516 404 439 404 361 C404 255 196 93 23 5 L29 1 C27 0 25 0 23 0 L452 0 L479 42 C481 45 489 58 489 58 L489 59 L487 56 C483 50 446 44 413 44 L111 44 C282 144 454 284 454 372 C454 464 365 554 275 554 C182 554 68 438 45 320 L56 317 L56 317 Z " />
<glyph glyph-name="three" unicode="3" horiz-adv-x="435" d="M18 -222 L20 -232 C209 -212 395 -94 395 6 C395 93 262 178 122 184 C266 251 399 352 399 419 C399 488 315 555 229 555 C143 555 41 476 22 396 L33 393 C48 457 134 520 208 520 C278 520 346 461 346 401 C346 333 221 236 93 182 L93 172 L93 172 L93 172 C219 154 342 66 342 -7 C342 -98 182 -204 18 -221 L18 -222 L18 -222 Z " />
<glyph glyph-name="four" unicode="4" horiz-adv-x="671" d="M596 38 L442 38 L442 576 L436 576 L15 9 L15 0 L392 0 L392 -220 L442 -220 L442 0 L591 0 C616 0 637 -2 640 -5 L646 -5 L650 19 L649 19 C650 29 653 47 654 57 L652 57 C649 58 648 58 648 58 C644 46 622 38 596 38 L596 38 Z M60 38 L392 487 L392 38 L60 38 L60 38 Z " />
<glyph glyph-name="five" unicode="5" horiz-adv-x="455" d="M320 544 L118 544 L56 239 L65 231 L88 232 C236 232 381 132 381 30 C381 -78 222 -203 59 -223 L60 -232 C244 -209 425 -71 425 47 C425 167 261 284 93 284 L83 284 L128 499 L367 501 L371 522 C372 529 375 542 376 549 L370 549 C367 546 345 544 321 544 L320 544 L320 544 Z " />
<glyph glyph-name="six" unicode="6" horiz-adv-x="594" d="M577 794 C315 794 59 551 59 303 C59 145 182 -10 308 -10 C426 -10 542 120 542 253 C542 379 419 502 293 502 C223 502 154 448 120 379 C170 598 373 787 579 787 L577 794 L577 794 Z M108 277 C108 388 199 497 292 497 C393 497 492 378 492 256 C492 124 400 -6 307 -6 C207 -6 108 134 108 277 L108 277 Z " />
<glyph glyph-name="seven" unicode="7" horiz-adv-x="466" d="M117 504 L441 504 L450 515 L117 -220 L156 -220 L461 528 L461 544 L80 544 C80 544 80 543 79 541 L79 540 L71 524 C67 515 61 503 58 496 C59 496 63 494 63 494 C69 500 90 504 117 504 L117 504 Z " />
<glyph glyph-name="eight" unicode="8" horiz-adv-x="569" d="M247 410 C255 406 263 402 271 399 C382 354 490 280 490 207 C490 99 390 -6 288 -6 C189 -6 91 88 91 184 C91 268 166 373 247 410 L247 410 Z M242 413 C140 370 47 263 47 184 C47 86 166 -10 288 -10 C410 -10 529 87 529 186 C529 292 429 381 319 433 C415 473 502 566 502 633 C502 720 395 805 286 805 C178 805 72 712 72 618 C72 548 153 460 242 413 L242 413 Z M313 435 C305 439 297 443 289 446 C200 482 112 571 112 637 C112 721 200 803 289 803 C375 803 460 716 460 628 C460 559 390 469 313 435 L313 435 Z " />
<glyph glyph-name="nine" unicode="9" horiz-adv-x="594" d="M17 -250 C279 -250 535 -7 535 241 C535 399 412 554 286 554 C168 554 52 424 52 291 C52 165 175 42 301 42 C371 42 440 96 474 165 C424 -54 221 -243 15 -243 L17 -250 L17 -250 Z M486 267 C486 156 395 47 302 47 C201 47 102 166 102 288 C102 420 194 550 287 550 C387 550 486 410 486 267 L486 267 Z " />
<glyph glyph-name="colon" unicode="&#x3a;" horiz-adv-x="135" d="M125 429 C143 429 160 446 160 464 C160 482 143 500 125 500 C107 500 90 482 90 464 C90 446 107 429 125 429 L125 429 Z M125 -5 C143 -5 160 12 160 30 C160 48 143 66 125 66 C107 66 90 48 90 30 C90 12 107 -5 125 -5 L125 -5 Z " />
<glyph glyph-name="semicolon" unicode="&#x3b;" horiz-adv-x="258" d="M125 429 C143 429 160 446 160 464 C160 482 143 500 125 500 C107 500 90 482 90 464 C90 446 107 429 125 429 L125 429 Z M125 115 C95 115 65 85 65 55 C65 25 95 -5 125 -5 C146 -5 167 16 173 40 C177 28 179 15 179 2 C179 -53 123 -107 65 -107 L65 -111 C127 -111 188 -51 188 10 C188 52 165 115 125 115 L125 115 Z " />
<glyph glyph-name="equal" unicode="&#x3d;" horiz-adv-x="554" d="M78 233 L78 211 L484 211 L484 233 L78 233 L78 233 Z M78 333 L78 311 L484 311 L484 333 L78 333 L78 333 Z " />
<glyph glyph-name="question" unicode="&#x3f;" horiz-adv-x="305" d="M125 -5 C143 -5 160 12 160 30 C160 48 143 66 125 66 C107 66 90 48 90 30 C90 12 107 -5 125 -5 L125 -5 Z M121 185 C121 185 123 380 125 381 C196 381 249 430 281 480 C295 502 309 554 309 585 C309 696 228 805 145 805 C121 805 98 787 98 768 C98 755 111 743 125 743 C135 743 153 752 163 752 C230 752 295 666 295 579 C295 561 283 524 270 504 C247 467 196 431 108 431 C111 432 113 185 113 185 L121 185 L121 185 Z " />
<glyph glyph-name="at" unicode="&#x40;" horiz-adv-x="1179" d="M1084 0 C1027 -121 785 -240 594 -240 C342 -240 94 18 94 281 C94 544 340 801 590 801 C840 801 1085 589 1085 373 C1085 187 987 4 888 4 C785 4 708 110 733 218 L803 522 L756 522 L732 417 C718 479 658 533 596 533 C451 533 309 375 309 214 C309 112 400 13 492 13 C562 13 646 82 683 162 C691 67 775 -14 879 -14 C1003 -14 1124 177 1124 372 C1124 595 860 813 590 813 C320 813 55 549 55 280 C55 13 327 -249 605 -249 C797 -249 1042 -126 1100 -1 L1084 0 L1084 0 Z M725 386 L686 217 C665 128 581 40 516 40 C438 40 362 131 362 223 C362 372 477 518 594 518 C660 518 725 453 726 386 L725 386 L725 386 Z " />
<glyph glyph-name="A" unicode="A" horiz-adv-x="633" d="M-29 0 L145 0 L145 3 L132 3 C98 3 78 47 89 94 L157 312 L432 312 L496 99 C509 49 489 3 454 3 L441 3 L441 0 L632 0 L632 3 L625 3 C606 3 572 53 557 103 L557 103 C485 340 413 577 340 814 L334 814 C337 798 317 778 293 775 L296 765 C226 544 157 323 87 103 C71 52 20 3 -16 3 L-29 3 L-29 0 L-29 0 Z M159 317 L298 759 L431 317 L159 317 L159 317 Z " />
<glyph glyph-name="B" unicode="B" horiz-adv-x="619" d="M279 2 L229 2 C196 2 164 18 164 34 L164 408 L297 408 C407 408 514 308 514 206 C514 67 398 2 279 2 L279 2 Z M284 0 C433 0 579 66 579 206 C579 310 446 411 311 412 C444 429 563 515 563 603 C563 700 467 795 260 795 L105 795 L105 1 L284 0 L284 0 Z M262 412 L164 412 L164 791 L253 791 C425 791 505 695 505 597 C505 504 385 412 262 412 L262 412 Z " />
<glyph glyph-name="C" unicode="C" horiz-adv-x="739" d="M693 61 L693 171 L680 171 C679 167 675 161 674 157 C661 126 615 75 577 50 C523 17 458 -6 392 -6 C258 -6 126 193 126 397 C126 601 264 800 404 800 C462 800 518 779 567 749 C612 721 666 664 680 622 L693 622 L693 731 L688 731 C688 727 687 721 687 717 C685 702 661 704 635 720 C575 767 495 804 402 804 C230 804 61 603 61 397 C61 191 224 -10 390 -10 C486 -10 574 26 635 72 C661 88 686 90 687 74 C687 70 688 64 688 60 L693 61 L693 61 Z " />
<glyph glyph-name="D" unicode="D" horiz-adv-x="793" d="M249 4 C185 4 164 19 164 34 L164 790 L286 790 C502 790 674 595 674 397 C674 179 464 4 249 4 L249 4 Z M255 0 C499 0 738 176 738 397 C738 597 543 794 300 794 L105 794 L105 0 L255 0 L255 0 Z " />
<glyph glyph-name="E" unicode="E" horiz-adv-x="573" d="M440 323 L440 408 L441 408 L441 412 L440 412 L440 497 L431 497 L428 484 C421 448 375 412 335 412 L164 412 L164 790 L395 790 C436 790 486 754 497 718 L502 705 L511 705 C508 726 503 767 500 790 L501 790 L501 794 L105 794 L105 0 L526 0 L526 2 C530 21 537 60 540 79 L531 79 L526 67 C513 35 450 4 397 4 L198 4 C172 4 164 19 164 34 L164 408 L335 408 C375 408 421 372 428 336 L431 323 L440 323 L440 323 Z " />
<glyph glyph-name="F" unicode="F" horiz-adv-x="548" d="M421 497 L418 484 C411 448 365 412 325 412 L164 412 L164 791 L395 791 C436 791 486 755 497 719 L502 706 L511 706 C508 727 503 768 500 791 L501 791 L501 794 L105 794 L105 0 L164 0 L164 408 L325 408 C365 408 411 372 418 336 L421 323 L430 323 L430 408 L431 408 L431 412 L430 412 L430 497 L421 497 L421 497 Z " />
<glyph glyph-name="G" unicode="G" horiz-adv-x="765" d="M680 622 L693 622 L693 731 L688 731 C688 727 687 721 687 717 C685 702 661 704 635 720 C575 767 495 804 402 804 C230 804 61 603 61 397 C61 191 225 -10 393 -10 C526 -10 672 26 750 62 L748 65 C729 56 704 47 675 39 L675 344 L616 344 L616 341 C616 341 616 299 616 256 C616 200 616 129 616 80 C609 46 536 14 451 5 C501 9 566 17 598 21 C539 10 472 3 405 3 C265 3 128 199 128 398 C128 602 266 801 406 801 C464 801 520 780 569 750 L569 750 C614 722 668 665 682 623 L680 622 L680 622 Z M452 5 C437 3 421 2 405 2 C417 2 433 3 452 5 L452 5 Z " />
<glyph glyph-name="H" unicode="H" horiz-adv-x="750" d="M656 0 L656 794 L597 794 L597 410 L200 410 L200 794 L141 794 L141 0 L200 0 L200 405 L597 405 L597 0 L656 0 L656 0 Z " />
<glyph glyph-name="I" unicode="I" horiz-adv-x="263" d="M169 0 L169 794 L110 794 L110 0 L169 0 L169 0 Z " />
<glyph glyph-name="J" unicode="J" horiz-adv-x="263" d="M110 -34 C110 -161 28 -214 -17 -214 C-41 -214 -37 -167 -61 -167 C-75 -167 -88 -180 -88 -193 C-88 -207 -55 -220 -21 -220 C46 -220 169 -133 169 78 L169 794 L110 794 L110 -34 L110 -34 Z " />
<glyph glyph-name="K" unicode="K" horiz-adv-x="651" d="M649 3 C629 3 599 22 572 48 L211 434 L477 730 C510 766 555 792 587 792 L587 795 L406 795 L406 792 L422 792 C465 792 465 744 423 695 L164 398 L164 795 L105 795 L105 1 L164 1 L164 398 L538 1 L649 1 L649 3 L649 3 Z " />
<glyph glyph-name="L" unicode="L" horiz-adv-x="561" d="M203 10 C177 10 169 22 169 34 L169 794 L110 794 L110 0 L537 0 C537 23 547 64 551 86 L542 86 L537 74 C524 42 461 11 408 11 L203 10 L203 10 Z " />
<glyph glyph-name="M" unicode="M" horiz-adv-x="795" d="M761 794 L670 794 L424 75 L155 794 L51 794 L51 791 C71 791 94 770 105 742 C98 513 93 282 86 53 C85 28 70 3 56 3 L50 3 L50 0 L141 0 L141 3 L135 3 C121 3 108 25 107 48 L120 704 C213 469 305 233 399 -1 L414 -1 L415 4 L673 737 L690 44 C688 17 676 1 657 1 L657 -2 L785 -2 L785 1 L779 1 C765 1 750 26 749 51 L749 51 L730 748 C732 774 744 789 763 789 L761 794 L761 794 Z " />
<glyph glyph-name="N" unicode="N" horiz-adv-x="698" d="M55 0 L143 0 L143 3 L137 3 C122 3 108 28 108 53 L108 53 L106 706 C267 471 428 236 588 0 L600 0 L604 741 L604 741 C604 766 618 791 633 791 L639 791 L639 794 L587 794 L587 741 L588 110 L582 119 L119 794 L13 794 L13 791 C35 791 63 770 82 741 L82 741 L91 728 L90 53 C90 28 76 3 61 3 L55 3 L55 0 L55 0 Z " />
<glyph glyph-name="O" unicode="O" horiz-adv-x="839" d="M125 397 C125 600 270 799 417 799 C570 799 720 600 720 397 C720 194 566 -5 408 -5 C265 -5 125 194 125 397 L125 397 Z M61 397 C61 191 233 -10 408 -10 C598 -10 784 191 784 397 C784 603 603 804 418 804 C238 804 61 603 61 397 L61 397 Z " />
<glyph glyph-name="P" unicode="P" horiz-adv-x="569" d="M178 0 L178 374 L235 374 C394 374 549 457 549 572 C549 684 421 794 291 794 L120 794 L120 0 L178 0 L178 0 Z M178 386 L178 784 L276 784 C386 784 493 684 493 582 C493 468 365 386 235 386 L178 386 L178 386 Z " />
<glyph glyph-name="Q" unicode="Q" horiz-adv-x="834" d="M1167 -52 L1166 -51 C1141 -72 984 -92 849 -92 C676 -92 444 -51 370 -7 C383 -9 396 -10 409 -10 C599 -10 785 191 785 397 C785 603 604 804 419 804 C239 804 62 603 62 397 C62 226 180 59 320 7 C423 -63 681 -131 842 -131 C959 -131 1119 -92 1167 -52 L1167 -52 Z M125 397 C125 600 270 799 417 799 C570 799 720 600 720 397 C720 192 563 -8 403 -8 C263 -8 125 192 125 397 L125 397 Z " />
<glyph glyph-name="R" unicode="R" horiz-adv-x="651" d="M641 0 C578 0 558 12 534 64 C467 210 402 353 383 394 C474 414 551 482 551 571 C551 683 441 793 329 793 L105 793 L105 -1 L164 -1 L164 387 L325 387 C338 350 403 200 465 62 C489 10 522 -2 641 -2 L641 0 L641 0 Z M164 400 L164 780 L312 780 C400 780 486 681 486 581 C486 476 408 400 329 400 L164 400 L164 400 Z " />
<glyph glyph-name="S" unicode="S" horiz-adv-x="572" d="M362 782 L362 781 C327 795 290 804 257 804 C164 804 73 708 73 610 C73 540 174 425 300 366 C403 318 485 228 485 176 C485 85 402 -4 317 -4 C275 -4 224 17 178 48 L178 48 C139 75 87 140 72 180 C71 184 67 191 66 195 L53 195 L53 60 L58 60 C58 65 59 75 59 80 C60 101 84 102 109 84 C167 31 251 -10 317 -10 C426 -10 532 90 532 193 C532 265 444 377 335 428 C214 484 118 580 118 632 C118 717 187 800 257 800 C288 800 324 790 358 774 L358 774 C405 752 464 690 476 643 L489 643 L489 742 L484 742 C484 739 483 734 483 731 C482 719 459 724 438 740 L438 740 C416 757 389 771 362 784 L362 782 L362 782 Z M481 678 L481 678 L481 678 L481 678 Z " />
<glyph glyph-name="T" unicode="T" horiz-adv-x="801" d="M747 789 L747 792 C747 791 747 790 747 789 L747 786 L747 789 L747 789 Z M777 704 C769 723 755 757 746 779 L746 788 L744 793 L54 793 L51 785 L51 788 C52 792 52 793 54 793 L54 786 C45 765 28 724 20 703 L29 703 L37 715 C57 747 118 778 161 778 L370 778 L370 -1 L429 -1 L429 778 L636 778 C679 778 740 747 760 715 L768 703 L777 704 L777 704 Z M746 791 L746 793 C744 793 745 793 746 791 L746 791 Z " />
<glyph glyph-name="U" unicode="U" horiz-adv-x="630" d="M537 0 L566 8 L566 794 L508 794 L508 184 C471 105 349 28 260 28 C194 28 129 127 129 228 L129 794 L70 794 L70 228 C70 108 152 -10 236 -10 C334 -10 469 73 508 157 L508 0 L537 0 L537 0 Z " />
<glyph glyph-name="V" unicode="V" horiz-adv-x="690" d="M185 794 L9 794 L9 791 L13 791 C23 791 47 750 65 705 C150 466 235 228 319 -11 L330 -11 C419 223 508 457 597 690 C616 740 652 790 669 790 L674 790 L674 793 L512 793 L512 790 L527 790 C569 790 592 740 574 690 L574 690 L350 74 C279 279 207 485 136 690 C118 740 136 790 172 790 L185 790 L185 794 L185 794 Z " />
<glyph glyph-name="W" unicode="W" horiz-adv-x="1037" d="M180 794 L31 794 L31 791 L35 791 C46 791 69 751 82 711 L82 711 C161 471 241 232 318 -9 L333 -9 L334 -4 L563 505 C617 334 671 162 725 -9 L740 -9 L958 714 C970 753 1000 792 1019 792 L1026 792 L1026 795 L864 795 L864 792 L878 792 C917 792 944 755 936 717 L751 83 L559 717 C550 755 571 792 604 792 L616 792 L616 795 L442 795 L442 792 L447 792 C459 792 484 752 497 712 L497 712 L555 530 L353 73 C284 286 215 499 146 712 C133 752 145 792 170 792 L179 792 L180 794 L180 794 Z " />
<glyph glyph-name="X" unicode="X" horiz-adv-x="702" d="M516 0 L659 0 L659 3 C647 3 629 23 610 50 L373 425 C448 529 523 633 598 737 C620 768 656 792 682 792 L682 795 L539 795 L539 792 L557 792 C585 792 594 765 575 737 L575 737 L370 430 C306 532 240 635 176 737 C158 765 163 792 186 792 L194 792 L194 795 L52 795 L52 792 C64 792 82 773 101 747 L329 386 C253 277 178 168 102 60 C80 28 45 5 18 5 L18 2 L159 2 L159 5 L141 5 C113 5 104 32 123 60 L335 375 C401 270 468 164 533 59 C551 31 546 4 523 4 L515 4 L516 0 L516 0 Z " />
<glyph glyph-name="Y" unicode="Y" horiz-adv-x="650" d="M643 794 L516 794 L516 791 L534 791 C560 791 573 767 562 741 L358 363 C286 487 213 612 142 736 C126 764 132 791 155 791 L163 791 L163 794 L20 794 L20 791 C32 791 55 766 72 736 L72 736 L301 349 L301 0 L360 0 L360 357 L571 741 C590 771 618 791 643 791 L643 794 L643 794 Z " />
<glyph glyph-name="Z" unicode="Z" horiz-adv-x="654" d="M71 703 L75 715 C85 746 142 777 194 779 L574 782 L26 12 L26 0 L634 0 L636 9 L656 93 L647 93 L641 81 C626 49 560 18 507 17 L95 13 L637 782 L637 794 L70 794 L69 778 C69 778 64 724 62 703 L71 703 L71 703 Z " />
<glyph glyph-name="bracketleft" unicode="&#x5b;" horiz-adv-x="285" d="M125 779 L335 779 L335 794 L108 794 L108 -195 L335 -195 L335 -180 L125 -180 L125 779 L125 779 Z " />
<glyph glyph-name="backslash" unicode="&#x5c;" horiz-adv-x="337" d="M37 814 L297 -80 L327 -80 L67 814 L37 814 L37 814 Z " />
<glyph glyph-name="bracketright" unicode="&#x5d;" horiz-adv-x="288" d="M161 779 L161 -180 L-49 -180 L-49 -195 L178 -195 L178 794 L-49 794 L-49 779 L161 779 L161 779 Z " />
<glyph glyph-name="asciicircum" unicode="&#x5e;" horiz-adv-x="373" d="M204 809 C201 814 191 827 187 827 C182 827 172 814 169 809 L38 607 L44 602 L186 771 L329 602 L336 607 L204 809 L204 809 Z " />
<glyph glyph-name="underscore" unicode="&#x5f;" horiz-adv-x="515" d="M5 -50 L5 -78 L510 -78 L510 -50 L5 -50 L5 -50 Z " />
<glyph glyph-name="grave" unicode="&#x60;" horiz-adv-x="373" d="M-19 799 C-19 794 16 761 51 730 L190 607 L196 614 L74 753 C44 788 11 823 6 823 C-5 823 -19 810 -19 799 L-19 799 Z " />
<glyph glyph-name="a" unicode="a" horiz-adv-x="538" d="M548 78 L541 81 C537 56 508 31 483 31 C454 31 426 56 426 81 L426 390 C426 485 353 554 278 554 C174 554 73 449 73 404 C73 386 85 369 98 369 C115 369 131 385 131 394 C131 405 111 428 111 436 C111 470 191 549 272 549 C325 549 376 490 376 409 L376 290 C155 251 53 197 53 88 C53 39 114 -10 177 -10 C221 -10 306 28 376 88 L376 81 C376 38 419 -5 462 -5 C498 -5 541 36 548 78 L548 78 Z M376 287 L376 92 C322 47 247 17 204 17 C154 17 104 55 104 94 C104 203 190 254 376 287 L376 287 Z " />
<glyph glyph-name="b" unicode="b" horiz-adv-x="513" d="M10 778 C20 778 25 756 25 731 L25 125 L23 125 C24 123 25 121 26 119 L26 0 L29 0 L49 75 L55 75 C98 28 175 -10 242 -10 C357 -10 469 130 469 273 C469 412 351 549 230 549 C195 549 121 505 76 459 L76 794 L51 794 C41 791 21 786 11 783 L10 778 L10 778 Z M76 112 L76 451 C118 494 184 534 214 534 C315 534 414 403 414 269 C414 132 330 -2 244 -2 C182 -2 104 53 77 113 L76 112 L76 112 Z " />
<glyph glyph-name="c" unicode="c" horiz-adv-x="498" d="M468 136 L466 137 C440 70 343 4 270 4 C182 4 95 143 95 285 C95 419 187 551 280 551 C331 551 399 501 418 449 C423 436 435 424 443 424 C460 424 473 436 468 449 C449 502 356 554 281 554 C162 554 45 408 45 259 C45 123 152 -10 262 -10 C337 -10 439 62 468 136 L468 136 Z " />
<glyph glyph-name="d" unicode="d" horiz-adv-x="567" d="M453 777 L456 777 C462 775 468 752 468 729 L468 442 C436 498 367 553 315 553 C165 553 45 415 45 275 C45 133 165 -6 288 -6 C349 -6 435 33 468 74 L468 -1 L493 -1 C499 1 512 4 518 6 L518 793 L493 793 L468 786 L468 785 C462 783 457 782 453 781 L453 777 L453 777 Z M468 407 L468 79 C441 46 364 15 308 15 C201 15 96 151 96 289 C96 415 196 538 321 538 C375 538 450 467 468 407 L468 407 Z " />
<glyph glyph-name="e" unicode="e" horiz-adv-x="566" d="M110 370 L536 370 C525 482 417 554 315 554 C179 554 45 437 45 256 C45 122 167 -10 291 -10 C384 -10 498 66 522 143 L520 143 C498 73 387 5 296 5 C196 5 98 139 98 276 C98 310 102 341 110 370 L110 370 Z M480 374 L111 373 C143 484 228 551 314 551 C388 551 468 482 481 374 L480 374 L480 374 Z " />
<glyph glyph-name="f" unicode="f" horiz-adv-x="313" d="M128 0 L128 518 L303 518 L303 544 L128 544 C128 665 188 784 263 784 C301 784 357 679 389 679 C412 679 434 701 434 724 C434 762 358 799 281 799 C168 799 78 673 78 544 L-24 524 L-24 518 L78 518 L78 0 L128 0 L128 0 Z " />
<glyph glyph-name="g" unicode="g" horiz-adv-x="547" d="M566 490 C566 505 550 520 534 520 C499 520 457 490 440 456 C406 511 340 553 273 553 C178 553 84 467 84 380 C84 299 161 220 246 206 C148 200 59 158 59 116 C59 71 111 26 169 17 C107 -2 51 -54 51 -94 C51 -163 165 -231 281 -231 C397 -231 510 -156 510 -80 C510 -6 433 66 314 66 L192 66 C139 66 87 98 87 130 C87 167 178 204 271 204 C392 204 506 336 440 451 C453 470 479 486 502 486 C512 486 533 466 543 466 C554 466 564 477 564 488 L566 490 L566 490 Z M271 206 C201 206 132 292 132 379 C132 464 201 548 271 548 C341 548 410 464 410 379 C410 292 341 206 271 206 L271 206 Z M174 16 C179 15 184 15 189 15 L309 15 C406 15 469 -38 469 -92 C469 -161 376 -229 281 -229 C186 -229 92 -157 92 -83 C92 -46 131 -2 174 15 L174 16 L174 16 Z " />
<glyph glyph-name="h" unicode="h" horiz-adv-x="464" d="M42 787 L42 786 C36 784 31 783 27 782 L27 777 L30 777 C36 775 42 752 42 729 L42 0 L92 0 L92 415 C133 468 216 519 260 519 C321 519 370 465 370 409 L370 0 L420 0 L420 409 C420 482 362 554 289 554 C242 554 145 488 92 420 L92 794 L67 794 C61 791 51 787 42 787 L42 787 Z " />
<glyph glyph-name="i" unicode="i" horiz-adv-x="146" d="M77 659 C93 659 109 675 109 691 C109 708 93 724 77 724 C61 724 45 708 45 691 C45 675 61 659 77 659 L77 659 Z M52 537 L52 536 C46 534 41 533 37 532 L37 527 L40 527 C46 525 52 502 52 479 L52 0 L102 0 L102 544 L77 544 C71 541 61 537 52 537 L52 537 Z " />
<glyph glyph-name="j" unicode="j" horiz-adv-x="185" d="M70 660 C86 660 102 676 102 692 C102 709 86 725 70 725 C54 725 38 709 38 692 C38 676 54 660 70 660 L70 660 Z M30 528 C40 528 45 506 45 481 L45 29 C45 -37 25 -114 4 -126 C-25 -126 -81 -100 -110 -100 C-133 -100 -155 -120 -155 -140 C-155 -165 -125 -187 -95 -185 C-90 -185 -38 -157 10 -130 C53 -105 95 -27 95 29 L95 544 L70 544 C60 541 40 536 30 533 L30 528 L30 528 Z " />
<glyph glyph-name="k" unicode="k" horiz-adv-x="410" d="M422 543 L390 543 L391 544 L379 544 L378 543 L254 543 L254 540 L275 540 C322 540 318 498 271 453 L93 305 L93 794 L68 794 C62 791 52 787 43 787 L43 786 C37 784 32 783 28 782 L28 777 L31 777 C37 775 43 752 43 729 L43 0 L93 0 L93 305 L311 42 L310 42 C327 22 338 2 333 2 L331 2 L331 -1 L412 -1 C412 -1 412 -1 412 0 L413 0 L139 332 L310 475 L311 475 C353 511 402 540 424 540 L422 543 L422 543 Z M380 -1 L379 0 L380 -1 L380 -1 Z " />
<glyph glyph-name="l" unicode="l" horiz-adv-x="136" d="M42 787 L42 786 C36 784 31 783 27 782 L27 777 L30 777 C36 775 42 752 42 729 L42 0 L92 0 L92 794 L67 794 C61 791 51 787 42 787 L42 787 Z " />
<glyph glyph-name="m" unicode="m" horiz-adv-x="788" d="M42 537 L42 536 C36 534 31 533 27 532 L27 527 L30 527 C36 525 42 502 42 479 L42 0 L92 0 L92 420 C130 469 209 517 251 517 C322 517 368 464 368 409 L368 0 L418 0 L418 409 C418 414 418 419 418 424 C457 472 535 518 578 518 C649 518 695 465 695 410 L695 0 L745 0 L745 410 C745 483 687 555 598 555 C557 555 469 492 418 428 C409 494 353 554 271 554 C231 554 143 490 92 425 L92 544 L67 544 C61 541 51 537 42 537 L42 537 Z " />
<glyph glyph-name="n" unicode="n" horiz-adv-x="462" d="M42 537 L42 536 C36 534 31 533 27 532 L27 527 L30 527 C36 525 42 502 42 479 L42 0 L92 0 L92 408 C139 469 220 528 255 528 C318 528 368 448 368 367 L368 0 L418 0 L418 367 C418 461 353 554 271 554 C235 554 146 486 92 417 L92 544 L67 544 C61 541 51 537 42 537 L42 537 Z " />
<glyph glyph-name="o" unicode="o" horiz-adv-x="630" d="M100 272 C100 412 206 549 315 549 C424 549 530 412 530 272 C530 132 424 -5 315 -5 C206 -5 100 132 100 272 L100 272 Z M45 272 C45 130 179 -10 315 -10 C451 -10 585 130 585 272 C585 414 451 554 315 554 C179 554 45 414 45 272 L45 272 Z " />
<glyph glyph-name="p" unicode="p" horiz-adv-x="521" d="M27 537 L27 536 C21 534 16 533 12 532 L12 527 L15 527 C21 525 27 502 27 479 L27 -220 L77 -220 L77 63 C115 24 167 -5 210 -5 C344 -5 476 148 476 276 C476 416 358 554 237 554 C180 554 105 515 77 473 L77 544 L52 544 C46 541 36 537 27 537 L27 537 Z M77 137 L77 453 C103 495 166 533 213 533 C318 533 421 398 421 260 C421 145 318 8 213 8 C164 8 97 72 77 137 L77 137 Z " />
<glyph glyph-name="q" unicode="q" horiz-adv-x="533" d="M514 -220 L514 544 L511 544 L495 484 L482 471 C439 517 365 553 301 553 C154 553 37 415 37 275 C37 133 161 -6 288 -6 C358 -6 439 27 464 63 L464 -220 L514 -220 L514 -220 Z M464 432 L464 81 C441 47 370 16 309 16 C198 16 89 152 89 290 C89 418 182 543 298 543 C360 543 438 490 464 432 L464 432 Z " />
<glyph glyph-name="r" unicode="r" horiz-adv-x="344" d="M43 537 L43 536 C37 534 32 533 28 532 L28 527 L31 527 C37 525 43 502 43 479 L43 0 L93 0 L93 412 C125 473 193 531 234 531 C255 531 275 514 275 496 C275 481 290 467 305 467 C320 467 334 481 334 496 C334 525 296 554 257 554 C208 554 128 489 92 420 L92 544 L67 544 C61 541 51 537 42 537 L43 537 L43 537 Z " />
<glyph glyph-name="s" unicode="s" horiz-adv-x="448" d="M60 132 L60 58 L64 58 L64 66 C65 70 87 59 111 42 C149 11 199 -11 240 -11 C319 -11 397 59 397 131 C397 184 332 260 251 290 C165 321 97 392 97 439 C97 495 149 549 202 549 C271 549 344 487 363 438 C364 437 364 433 365 432 L369 432 L369 495 L366 495 C366 493 365 491 365 489 C365 488 341 501 314 516 C311 518 276 538 275 536 C251 546 225 552 202 552 C131 552 61 487 61 421 C61 366 136 285 229 251 C301 225 359 160 359 116 C359 53 300 -8 240 -8 C209 -8 171 8 138 32 C109 56 75 97 64 125 C63 126 63 130 62 131 L60 132 L60 132 Z " />
<glyph glyph-name="t" unicode="t" horiz-adv-x="356" d="M315 544 L148 544 L148 675 L145 675 L33 541 L33 531 L98 531 L98 140 C98 49 159 -10 222 -10 C259 -10 321 32 346 74 L340 77 C321 45 270 14 237 14 C192 14 147 59 147 129 L148 518 L315 518 L315 544 L315 544 Z " />
<glyph glyph-name="u" unicode="u" horiz-adv-x="464" d="M400 0 C406 2 419 5 425 7 L425 544 L375 544 L375 132 C346 76 267 25 206 25 C146 25 88 95 88 167 L88 544 L38 544 L38 167 C38 78 110 -10 183 -10 C251 -10 341 56 375 127 L375 0 L400 0 L400 0 Z " />
<glyph glyph-name="v" unicode="v" horiz-adv-x="443" d="M89 544 L6 544 L6 541 C15 541 25 525 34 501 L189 -10 L204 -10 L385 498 C396 524 406 542 416 542 L416 545 L364 545 L364 542 L366 542 C372 542 368 515 359 487 L359 487 L219 76 L94 487 C94 487 78 542 90 542 L92 542 L89 544 L89 544 Z " />
<glyph glyph-name="w" unicode="w" horiz-adv-x="681" d="M90 544 L6 544 L6 541 C15 541 25 523 34 498 L180 -10 L195 -10 L324 350 L424 -10 L439 -10 L620 492 C631 520 643 541 653 541 L653 544 L601 544 L601 541 L603 541 C608 541 606 519 598 494 L454 79 L339 493 C332 520 331 540 339 540 L339 543 L254 543 L254 540 C263 540 276 515 284 485 L284 485 C293 450 304 414 313 379 L209 77 L91 484 C91 484 75 539 87 539 L89 539 L90 544 L90 544 Z " />
<glyph glyph-name="x" unicode="x" horiz-adv-x="459" d="M416 544 L365 544 L365 541 L367 541 C372 541 362 514 345 486 L345 486 L235 302 L115 494 C101 519 92 541 97 541 L99 541 L99 544 L10 544 L10 541 C19 541 41 515 59 486 L59 486 L201 259 C152 192 104 125 55 58 C34 29 10 3 1 3 L1 0 L51 0 L51 3 L49 3 C44 3 58 30 77 58 L77 58 L209 247 L332 51 C346 26 355 4 350 4 L348 4 L348 1 L437 1 L437 4 C428 4 406 30 388 59 L388 59 L244 290 C285 356 326 422 368 487 C386 516 408 542 417 542 L416 544 L416 544 Z " />
<glyph glyph-name="y" unicode="y" horiz-adv-x="463" d="M442 544 L390 544 L390 541 L392 541 C398 541 395 516 387 489 C341 352 298 212 250 76 C201 213 151 350 103 486 C93 514 89 541 95 541 L97 541 L97 544 L14 544 L14 541 C24 541 35 523 46 497 L223 1 C204 -53 185 -107 166 -161 C160 -177 144 -193 139 -193 C120 -193 109 -174 90 -174 C69 -174 49 -194 49 -215 C49 -237 71 -259 94 -259 C112 -259 161 -213 178 -167 C214 -68 249 31 284 131 C326 250 367 369 409 487 C420 518 433 542 443 542 L442 544 L442 544 Z " />
<glyph glyph-name="z" unicode="z" horiz-adv-x="502" d="M64 544 L62 535 L61 535 L63 544 L64 544 L64 544 Z M59 526 C59 528 60 533 61 535 L59 535 L43 479 L54 479 L59 486 C72 505 120 524 161 528 L402 532 L40 13 L40 1 L457 1 L457 19 L462 66 L451 66 L447 59 C437 39 391 20 350 17 L102 13 L462 532 L462 544 L67 544 L67 535 L62 535 C61 532 60 529 59 526 L59 526 Z " />
<glyph glyph-name="braceleft" unicode="&#x7b;" horiz-adv-x="260" d="M255 794 L215 794 C146 794 78 729 78 663 L78 405 C78 369 50 333 21 333 L15 333 L15 331 L21 331 C50 331 78 287 78 243 L78 1 C78 -65 146 -130 215 -130 L255 -130 L255 -128 L218 -127 C167 -127 117 -64 117 1 L117 215 C117 274 71 332 25 332 C71 332 117 382 117 433 L117 663 C117 728 167 791 218 791 L255 791 L255 794 L255 794 Z " />
<glyph glyph-name="bar" unicode="&#x7c;" horiz-adv-x="159" d="M60 844 L60 -250 L99 -250 L99 844 L60 844 L60 844 Z " />
<glyph glyph-name="braceright" unicode="&#x7d;" horiz-adv-x="260" d="M5 794 L5 791 L42 791 C93 791 143 728 143 663 L143 433 C143 382 189 332 235 332 C189 332 143 274 143 215 L143 1 C143 -64 93 -127 42 -127 L5 -128 L5 -130 L45 -130 C114 -130 182 -65 182 1 L182 243 C182 287 210 331 239 331 L245 331 L245 333 L239 333 C210 333 182 369 182 405 L182 663 C182 729 114 794 45 794 L5 794 L5 794 Z " />
<glyph glyph-name="asciitilde" unicode="&#x7e;" horiz-adv-x="373" d="M25 332 C25 365 51 398 78 398 C129 398 230 333 281 333 C316 333 351 380 351 428 L349 428 C349 398 321 368 293 368 C241 368 141 433 89 433 C55 433 22 383 22 332 L25 332 L25 332 Z " />
<glyph glyph-name="exclamdown" unicode="&#xa1;" horiz-adv-x="201" d="M100 549 C82 549 65 532 65 514 C65 496 82 478 100 478 C118 478 135 496 135 514 C135 532 118 549 100 549 L100 549 Z M100 -255 C120 -255 133 -213 131 -171 C131 -171 105 193 105 316 L96 316 C96 193 70 -171 70 -171 C68 -213 80 -255 100 -255 L100 -255 Z " />
<glyph glyph-name="cent" unicode="&#xa2;" horiz-adv-x="498" d="M257 619 L257 552 C147 534 45 398 45 259 C45 125 149 -6 257 -10 L257 -75 L275 -75 L275 -9 C348 -2 440 66 467 136 L465 137 C440 72 347 7 275 4 L275 551 C329 554 398 502 417 449 C422 436 434 424 442 424 C459 424 472 436 467 449 C448 503 352 557 274 554 L274 619 L257 619 L257 619 Z M256 5 C173 18 94 150 94 285 C94 408 171 529 256 548 L256 5 L256 5 Z " />
<glyph glyph-name="acute" unicode="&#xb4;" horiz-adv-x="373" d="M193 607 L332 730 C367 762 402 795 402 799 C402 810 388 823 377 823 C374 823 341 788 309 753 L187 614 L193 607 L193 607 Z " />
<glyph glyph-name="questiondown" unicode="&#xbf;" horiz-adv-x="305" d="M180 549 C162 549 145 532 145 514 C145 496 162 478 180 478 C198 478 215 496 215 514 C215 532 198 549 180 549 L180 549 Z M184 359 C184 359 182 164 180 163 C109 163 56 114 24 64 C10 42 -4 -10 -4 -41 C-4 -152 77 -261 160 -261 C184 -261 207 -243 207 -224 C207 -211 194 -199 180 -199 C170 -199 152 -208 142 -208 C75 -208 10 -122 10 -35 C10 -17 22 20 35 40 C58 77 109 113 197 113 C194 112 192 359 192 359 L184 359 L184 359 Z " />
<glyph glyph-name="Agrave" unicode="&#xc0;" horiz-adv-x="633" d="M-29 0 L145 0 L145 3 L132 3 C98 3 78 47 89 94 L157 312 L432 312 L496 99 C509 49 489 3 454 3 L441 3 L441 0 L632 0 L632 3 L625 3 C606 3 572 53 557 103 L557 103 C485 340 413 577 340 814 L334 814 C337 798 317 778 293 775 L296 765 C226 544 157 323 87 103 C71 52 20 3 -16 3 L-29 3 L-29 0 L-29 0 Z M117 1049 C117 1044 152 1011 187 980 L326 857 L332 864 L210 1003 C180 1038 147 1073 142 1073 C131 1073 117 1060 117 1049 L117 1049 Z M159 317 L298 759 L431 317 L159 317 L159 317 Z " />
<glyph glyph-name="Aacute" unicode="&#xc1;" horiz-adv-x="633" d="M329 857 L468 980 C503 1012 538 1045 538 1049 C538 1060 524 1073 513 1073 C510 1073 477 1038 445 1003 L323 864 L329 857 L329 857 Z M-29 0 L145 0 L145 3 L132 3 C98 3 78 47 89 94 L157 312 L432 312 L496 99 C509 49 489 3 454 3 L441 3 L441 0 L632 0 L632 3 L625 3 C606 3 572 53 557 103 L557 103 C485 340 413 577 340 814 L334 814 C337 798 317 778 293 775 L296 765 C226 544 157 323 87 103 C71 52 20 3 -16 3 L-29 3 L-29 0 L-29 0 Z M159 317 L298 759 L431 317 L159 317 L159 317 Z " />
<glyph glyph-name="Acircumflex" unicode="&#xc2;" horiz-adv-x="633" d="M-29 0 L145 0 L145 3 L132 3 C98 3 78 47 89 94 L157 312 L432 312 L496 99 C509 49 489 3 454 3 L441 3 L441 0 L632 0 L632 3 L625 3 C606 3 572 53 557 103 L557 103 C485 340 413 577 340 814 L334 814 C337 798 317 778 293 775 L296 765 C226 544 157 323 87 103 C71 52 20 3 -16 3 L-29 3 L-29 0 L-29 0 Z M340 1059 C337 1064 327 1077 323 1077 C318 1077 308 1064 305 1059 L173 857 L180 852 L322 1021 L465 852 L472 857 L340 1059 L340 1059 Z M159 317 L298 759 L431 317 L159 317 L159 317 Z " />
<glyph glyph-name="Atilde" unicode="&#xc3;" horiz-adv-x="633" d="M161 914 C161 947 187 980 214 980 C265 980 366 915 417 915 C452 915 487 962 487 1010 L484 1010 C484 980 457 950 429 950 C377 950 277 1015 225 1015 C191 1015 158 965 158 914 L161 914 L161 914 Z M-29 0 L145 0 L145 3 L132 3 C98 3 78 47 89 94 L157 312 L432 312 L496 99 C509 49 489 3 454 3 L441 3 L441 0 L632 0 L632 3 L625 3 C606 3 572 53 557 103 L557 103 C485 340 413 577 340 814 L334 814 C337 798 317 778 293 775 L296 765 C226 544 157 323 87 103 C71 52 20 3 -16 3 L-29 3 L-29 0 L-29 0 Z M159 317 L298 759 L431 317 L159 317 L159 317 Z " />
<glyph glyph-name="Adieresis" unicode="&#xc4;" horiz-adv-x="633" d="M392 909 C409 909 425 925 425 941 C425 958 409 974 392 974 C376 974 360 958 360 941 C360 925 376 909 392 909 L392 909 Z M253 909 C269 909 285 925 285 941 C285 958 269 974 253 974 C236 974 220 958 220 941 C220 925 236 909 253 909 L253 909 Z M-29 0 L145 0 L145 3 L132 3 C98 3 78 47 89 94 L157 312 L432 312 L496 99 C509 49 489 3 454 3 L441 3 L441 0 L632 0 L632 3 L625 3 C606 3 572 53 557 103 L557 103 C485 340 413 577 340 814 L334 814 C337 798 317 778 293 775 L296 765 C226 544 157 323 87 103 C71 52 20 3 -16 3 L-29 3 L-29 0 L-29 0 Z M159 317 L298 759 L431 317 L159 317 L159 317 Z " />
<glyph glyph-name="Aring" unicode="&#xc5;" horiz-adv-x="633" d="M241 949 C241 991 282 1032 323 1032 C364 1032 404 991 404 949 C404 911 360 866 323 866 C286 866 241 911 241 949 L241 949 Z M226 949 C226 906 279 854 323 854 C367 854 419 906 419 949 C419 997 371 1044 323 1044 C274 1044 226 997 226 949 L226 949 Z M-29 0 L145 0 L145 3 L132 3 C98 3 78 47 89 94 L157 312 L432 312 L496 99 C509 49 489 3 454 3 L441 3 L441 0 L632 0 L632 3 L625 3 C606 3 572 53 557 103 L557 103 C485 340 413 577 340 814 L334 814 C337 798 317 778 293 775 L296 765 C226 544 157 323 87 103 C71 52 20 3 -16 3 L-29 3 L-29 0 L-29 0 Z M159 317 L298 759 L431 317 L159 317 L159 317 Z " />
<glyph glyph-name="Egrave" unicode="&#xc8;" horiz-adv-x="573" d="M97 1049 C97 1044 132 1011 167 980 L306 857 L313 864 L190 1003 C159 1038 126 1073 121 1073 C110 1073 97 1060 97 1049 L97 1049 Z M440 323 L440 408 L441 408 L441 412 L440 412 L440 497 L431 497 L428 484 C421 448 375 412 335 412 L164 412 L164 790 L395 790 C436 790 486 754 497 718 L502 705 L511 705 C508 726 503 767 500 790 L501 790 L501 794 L105 794 L105 0 L526 0 L526 2 C530 21 537 60 540 79 L531 79 L526 67 C513 35 450 4 397 4 L198 4 C172 4 164 19 164 34 L164 408 L335 408 C375 408 421 372 428 336 L431 323 L440 323 L440 323 Z " />
<glyph glyph-name="Eacute" unicode="&#xc9;" horiz-adv-x="573" d="M310 857 L449 980 C484 1012 519 1045 519 1049 C519 1060 506 1073 495 1073 C491 1073 458 1038 426 1003 L303 864 L310 857 L310 857 Z M440 323 L440 408 L441 408 L441 412 L440 412 L440 497 L431 497 L428 484 C421 448 375 412 335 412 L164 412 L164 790 L395 790 C436 790 486 754 497 718 L502 705 L511 705 C508 726 503 767 500 790 L501 790 L501 794 L105 794 L105 0 L526 0 L526 2 C530 21 537 60 540 79 L531 79 L526 67 C513 35 450 4 397 4 L198 4 C172 4 164 19 164 34 L164 408 L335 408 C375 408 421 372 428 336 L431 323 L440 323 L440 323 Z " />
<glyph glyph-name="Ecircumflex" unicode="&#xca;" horiz-adv-x="573" d="M321 1059 C318 1064 308 1077 303 1077 C298 1077 288 1064 285 1059 L154 857 L161 852 L303 1020 L445 852 L452 857 L321 1059 L321 1059 Z M440 323 L440 408 L441 408 L441 412 L440 412 L440 497 L431 497 L428 484 C421 448 375 412 335 412 L164 412 L164 790 L395 790 C436 790 486 754 497 718 L502 705 L511 705 C508 726 503 767 500 790 L501 790 L501 794 L105 794 L105 0 L526 0 L526 2 C530 21 537 60 540 79 L531 79 L526 67 C513 35 450 4 397 4 L198 4 C172 4 164 19 164 34 L164 408 L335 408 C375 408 421 372 428 336 L431 323 L440 323 L440 323 Z " />
<glyph glyph-name="Edieresis" unicode="&#xcb;" horiz-adv-x="573" d="M373 909 C389 909 405 925 405 941 C405 958 389 974 373 974 C357 974 341 958 341 941 C341 925 357 909 373 909 L373 909 Z M233 909 C249 909 265 925 265 941 C265 958 249 974 233 974 C217 974 201 958 201 941 C201 925 217 909 233 909 L233 909 Z M440 323 L440 408 L441 408 L441 412 L440 412 L440 497 L431 497 L428 484 C421 448 375 412 335 412 L164 412 L164 790 L395 790 C436 790 486 754 497 718 L502 705 L511 705 C508 726 503 767 500 790 L501 790 L501 794 L105 794 L105 0 L526 0 L526 2 C530 21 537 60 540 79 L531 79 L526 67 C513 35 450 4 397 4 L198 4 C172 4 164 19 164 34 L164 408 L335 408 C375 408 421 372 428 336 L431 323 L440 323 L440 323 Z " />
<glyph glyph-name="Igrave" unicode="&#xcc;" horiz-adv-x="263" d="M-66 1049 C-66 1044 -31 1011 4 980 L143 857 L150 864 L27 1003 C-4 1038 -37 1073 -42 1073 C-53 1073 -66 1060 -66 1049 L-66 1049 Z M169 0 L169 794 L110 794 L110 0 L169 0 L169 0 Z " />
<glyph glyph-name="Iacute" unicode="&#xcd;" horiz-adv-x="263" d="M147 857 L286 980 C321 1012 356 1045 356 1049 C356 1060 343 1073 332 1073 C328 1073 295 1038 263 1003 L140 864 L147 857 L147 857 Z M169 0 L169 794 L110 794 L110 0 L169 0 L169 0 Z " />
<glyph glyph-name="Icircumflex" unicode="&#xce;" horiz-adv-x="263" d="M158 1059 C155 1064 145 1077 140 1077 C135 1077 125 1064 122 1059 L-9 857 L-2 852 L140 1020 L282 852 L289 857 L158 1059 L158 1059 Z M169 0 L169 794 L110 794 L110 0 L169 0 L169 0 Z " />
<glyph glyph-name="Idieresis" unicode="&#xcf;" horiz-adv-x="263" d="M210 909 C226 909 242 925 242 941 C242 958 226 974 210 974 C194 974 178 958 178 941 C178 925 194 909 210 909 L210 909 Z M70 909 C86 909 102 925 102 941 C102 958 86 974 70 974 C54 974 38 958 38 941 C38 925 54 909 70 909 L70 909 Z M169 0 L169 794 L110 794 L110 0 L169 0 L169 0 Z " />
<glyph glyph-name="Ntilde" unicode="&#xd1;" horiz-adv-x="698" d="M185 914 C185 947 211 980 238 980 C289 980 390 915 441 915 C477 915 512 962 512 1010 L509 1010 C509 980 481 950 453 950 C402 950 301 1015 250 1015 C216 1015 182 965 182 914 L185 914 L185 914 Z M55 0 L143 0 L143 3 L137 3 C122 3 108 28 108 53 L108 53 L106 706 C267 471 428 236 588 0 L600 0 L604 741 L604 741 C604 766 618 791 633 791 L639 791 L639 794 L587 794 L587 741 L588 110 L582 119 L119 794 L13 794 L13 791 C35 791 63 770 82 741 L82 741 L91 728 L90 53 C90 28 76 3 61 3 L55 3 L55 0 L55 0 Z " />
<glyph glyph-name="Ograve" unicode="&#xd2;" horiz-adv-x="839" d="M125 397 C125 600 270 799 417 799 C570 799 720 600 720 397 C720 194 566 -5 408 -5 C265 -5 125 194 125 397 L125 397 Z M61 397 C61 191 233 -10 408 -10 C598 -10 784 191 784 397 C784 603 603 804 418 804 C238 804 61 603 61 397 L61 397 Z M212 1049 C212 1044 247 1011 282 980 L421 857 L428 864 L305 1003 C274 1038 241 1073 236 1073 C225 1073 212 1060 212 1049 L212 1049 Z " />
<glyph glyph-name="Oacute" unicode="&#xd3;" horiz-adv-x="839" d="M425 857 L564 980 C599 1012 634 1045 634 1049 C634 1060 621 1073 610 1073 C606 1073 573 1038 541 1003 L418 864 L425 857 L425 857 Z M125 397 C125 600 270 799 417 799 C570 799 720 600 720 397 C720 194 566 -5 408 -5 C265 -5 125 194 125 397 L125 397 Z M61 397 C61 191 233 -10 408 -10 C598 -10 784 191 784 397 C784 603 603 804 418 804 C238 804 61 603 61 397 L61 397 Z " />
<glyph glyph-name="Ocircumflex" unicode="&#xd4;" horiz-adv-x="839" d="M125 397 C125 600 270 799 417 799 C570 799 720 600 720 397 C720 194 566 -5 408 -5 C265 -5 125 194 125 397 L125 397 Z M61 397 C61 191 233 -10 408 -10 C598 -10 784 191 784 397 C784 603 603 804 418 804 C238 804 61 603 61 397 L61 397 Z M436 1059 C433 1064 423 1077 418 1077 C413 1077 403 1064 400 1059 L269 857 L276 852 L418 1020 L560 852 L567 857 L436 1059 L436 1059 Z " />
<glyph glyph-name="Otilde" unicode="&#xd5;" horiz-adv-x="839" d="M256 914 C256 947 282 980 309 980 C360 980 461 915 512 915 C548 915 583 962 583 1010 L580 1010 C580 980 552 950 524 950 C473 950 372 1015 321 1015 C287 1015 253 965 253 914 L256 914 L256 914 Z M125 397 C125 600 270 799 417 799 C570 799 720 600 720 397 C720 194 566 -5 408 -5 C265 -5 125 194 125 397 L125 397 Z M61 397 C61 191 233 -10 408 -10 C598 -10 784 191 784 397 C784 603 603 804 418 804 C238 804 61 603 61 397 L61 397 Z " />
<glyph glyph-name="Odieresis" unicode="&#xd6;" horiz-adv-x="839" d="M488 909 C504 909 520 925 520 941 C520 958 504 974 488 974 C472 974 456 958 456 941 C456 925 472 909 488 909 L488 909 Z M348 909 C364 909 380 925 380 941 C380 958 364 974 348 974 C332 974 316 958 316 941 C316 925 332 909 348 909 L348 909 Z M125 397 C125 600 270 799 417 799 C570 799 720 600 720 397 C720 194 566 -5 408 -5 C265 -5 125 194 125 397 L125 397 Z M61 397 C61 191 233 -10 408 -10 C598 -10 784 191 784 397 C784 603 603 804 418 804 C238 804 61 603 61 397 L61 397 Z " />
<glyph glyph-name="Oslash" unicode="&#xd8;" horiz-adv-x="839" d="M64 -13 C64 -13 105 33 174 110 C238 37 323 -11 408 -11 C598 -11 784 190 784 396 C784 497 740 597 674 673 C711 715 749 758 787 801 L781 807 C743 764 705 722 668 680 C600 755 509 804 417 804 C237 804 60 603 60 397 C60 294 103 193 167 117 C98 39 57 -8 57 -8 L64 -13 L64 -13 Z M641 650 C466 453 303 270 194 147 C151 218 124 307 124 397 C124 600 269 799 416 799 C500 799 583 739 641 651 L641 650 L641 650 Z M646 644 C691 573 719 486 719 398 C719 195 565 -4 407 -4 C329 -4 252 55 198 141 C307 263 470 447 646 645 L646 644 L646 644 Z " />
<glyph glyph-name="Ugrave" unicode="&#xd9;" horiz-adv-x="630" d="M112 1049 C112 1044 147 1011 182 980 L321 857 L328 864 L205 1003 C174 1038 141 1073 136 1073 C125 1073 112 1060 112 1049 L112 1049 Z M537 0 L566 8 L566 794 L508 794 L508 184 C471 105 349 28 260 28 C194 28 129 127 129 228 L129 794 L70 794 L70 228 C70 108 152 -10 236 -10 C334 -10 469 73 508 157 L508 0 L537 0 L537 0 Z " />
<glyph glyph-name="Uacute" unicode="&#xda;" horiz-adv-x="630" d="M325 857 L464 980 C499 1012 534 1045 534 1049 C534 1060 521 1073 510 1073 C506 1073 473 1038 441 1003 L318 864 L325 857 L325 857 Z M537 0 L566 8 L566 794 L508 794 L508 184 C471 105 349 28 260 28 C194 28 129 127 129 228 L129 794 L70 794 L70 228 C70 108 152 -10 236 -10 C334 -10 469 73 508 157 L508 0 L537 0 L537 0 Z " />
<glyph glyph-name="Ucircumflex" unicode="&#xdb;" horiz-adv-x="630" d="M336 1059 C333 1064 323 1077 318 1077 C313 1077 303 1064 300 1059 L169 857 L176 852 L318 1020 L460 852 L467 857 L336 1059 L336 1059 Z M537 0 L566 8 L566 794 L508 794 L508 184 C471 105 349 28 260 28 C194 28 129 127 129 228 L129 794 L70 794 L70 228 C70 108 152 -10 236 -10 C334 -10 469 73 508 157 L508 0 L537 0 L537 0 Z " />
<glyph glyph-name="Udieresis" unicode="&#xdc;" horiz-adv-x="630" d="M388 909 C404 909 420 925 420 941 C420 958 404 974 388 974 C372 974 356 958 356 941 C356 925 372 909 388 909 L388 909 Z M248 909 C264 909 280 925 280 941 C280 958 264 974 248 974 C232 974 216 958 216 941 C216 925 232 909 248 909 L248 909 Z M537 0 L566 8 L566 794 L508 794 L508 184 C471 105 349 28 260 28 C194 28 129 127 129 228 L129 794 L70 794 L70 228 C70 108 152 -10 236 -10 C334 -10 469 73 508 157 L508 0 L537 0 L537 0 Z " />
<glyph glyph-name="Yacute" unicode="&#xdd;" horiz-adv-x="628" d="M326 857 L465 980 C500 1012 535 1045 535 1049 C535 1060 521 1073 510 1073 C507 1073 474 1038 442 1003 L320 864 L326 857 L326 857 Z M632 794 L505 794 L505 791 L523 791 C549 791 562 767 551 741 L347 363 C275 487 202 612 131 736 C115 764 121 791 144 791 L152 791 L152 794 L9 794 L9 791 C21 791 44 766 61 736 L61 736 L290 349 L290 0 L349 0 L349 357 L560 741 C579 771 607 791 632 791 L632 794 L632 794 Z " />
<glyph glyph-name="agrave" unicode="&#xe0;" horiz-adv-x="538" d="M548 78 L541 81 C537 56 508 31 483 31 C454 31 426 56 426 81 L426 390 C426 485 353 554 278 554 C174 554 73 449 73 404 C73 386 85 369 98 369 C115 369 131 385 131 394 C131 405 111 428 111 436 C111 470 191 549 272 549 C325 549 376 490 376 409 L376 290 C155 251 53 197 53 88 C53 39 114 -10 177 -10 C221 -10 306 28 376 88 L376 81 C376 38 419 -5 462 -5 C498 -5 541 36 548 78 L548 78 Z M72 799 C72 794 107 761 142 730 L281 607 L288 614 L165 753 C134 788 101 823 96 823 C85 823 72 810 72 799 L72 799 Z M376 287 L376 92 C322 47 247 17 204 17 C154 17 104 55 104 94 C104 203 190 254 376 287 L376 287 Z " />
<glyph glyph-name="aacute" unicode="&#xe1;" horiz-adv-x="538" d="M285 607 L424 730 C459 762 494 795 494 799 C494 810 481 823 470 823 C466 823 433 788 401 753 L278 614 L285 607 L285 607 Z M548 78 L541 81 C537 56 508 31 483 31 C454 31 426 56 426 81 L426 390 C426 485 353 554 278 554 C174 554 73 449 73 404 C73 386 85 369 98 369 C115 369 131 385 131 394 C131 405 111 428 111 436 C111 470 191 549 272 549 C325 549 376 490 376 409 L376 290 C155 251 53 197 53 88 C53 39 114 -10 177 -10 C221 -10 306 28 376 88 L376 81 C376 38 419 -5 462 -5 C498 -5 541 36 548 78 L548 78 Z M376 287 L376 92 C322 47 247 17 204 17 C154 17 104 55 104 94 C104 203 190 254 376 287 L376 287 Z " />
<glyph glyph-name="acircumflex" unicode="&#xe2;" horiz-adv-x="538" d="M548 78 L541 81 C537 56 508 31 483 31 C454 31 426 56 426 81 L426 390 C426 485 353 554 278 554 C174 554 73 449 73 404 C73 386 85 369 98 369 C115 369 131 385 131 394 C131 405 111 428 111 436 C111 470 191 549 272 549 C325 549 376 490 376 409 L376 290 C155 251 53 197 53 88 C53 39 114 -10 177 -10 C221 -10 306 28 376 88 L376 81 C376 38 419 -5 462 -5 C498 -5 541 36 548 78 L548 78 Z M296 809 C293 814 283 827 278 827 C273 827 263 814 260 809 L129 607 L136 602 L278 770 L420 602 L427 607 L296 809 L296 809 Z M376 287 L376 92 C322 47 247 17 204 17 C154 17 104 55 104 94 C104 203 190 254 376 287 L376 287 Z " />
<glyph glyph-name="atilde" unicode="&#xe3;" horiz-adv-x="538" d="M116 664 C116 697 142 730 169 730 C220 730 321 665 372 665 C408 665 443 712 443 760 L440 760 C440 730 412 700 384 700 C333 700 232 765 181 765 C147 765 113 715 113 664 L116 664 L116 664 Z M548 78 L541 81 C537 56 508 31 483 31 C454 31 426 56 426 81 L426 390 C426 485 353 554 278 554 C174 554 73 449 73 404 C73 386 85 369 98 369 C115 369 131 385 131 394 C131 405 111 428 111 436 C111 470 191 549 272 549 C325 549 376 490 376 409 L376 290 C155 251 53 197 53 88 C53 39 114 -10 177 -10 C221 -10 306 28 376 88 L376 81 C376 38 419 -5 462 -5 C498 -5 541 36 548 78 L548 78 Z M376 287 L376 92 C322 47 247 17 204 17 C154 17 104 55 104 94 C104 203 190 254 376 287 L376 287 Z " />
<glyph glyph-name="adieresis" unicode="&#xe4;" horiz-adv-x="538" d="M348 659 C364 659 380 675 380 691 C380 708 364 724 348 724 C332 724 316 708 316 691 C316 675 332 659 348 659 L348 659 Z M208 659 C224 659 240 675 240 691 C240 708 224 724 208 724 C192 724 176 708 176 691 C176 675 192 659 208 659 L208 659 Z M548 78 L541 81 C537 56 508 31 483 31 C454 31 426 56 426 81 L426 390 C426 485 353 554 278 554 C174 554 73 449 73 404 C73 386 85 369 98 369 C115 369 131 385 131 394 C131 405 111 428 111 436 C111 470 191 549 272 549 C325 549 376 490 376 409 L376 290 C155 251 53 197 53 88 C53 39 114 -10 177 -10 C221 -10 306 28 376 88 L376 81 C376 38 419 -5 462 -5 C498 -5 541 36 548 78 L548 78 Z M376 287 L376 92 C322 47 247 17 204 17 C154 17 104 55 104 94 C104 203 190 254 376 287 L376 287 Z " />
<glyph glyph-name="aring" unicode="&#xe5;" horiz-adv-x="538" d="M196 699 C196 741 237 782 278 782 C319 782 360 741 360 699 C360 661 315 616 278 616 C241 616 196 661 196 699 L196 699 Z M182 699 C182 656 234 604 278 604 C322 604 374 656 374 699 C374 747 326 794 278 794 C230 794 182 747 182 699 L182 699 Z M548 78 L541 81 C537 56 508 31 483 31 C454 31 426 56 426 81 L426 390 C426 485 353 554 278 554 C174 554 73 449 73 404 C73 386 85 369 98 369 C115 369 131 385 131 394 C131 405 111 428 111 436 C111 470 191 549 272 549 C325 549 376 490 376 409 L376 290 C155 251 53 197 53 88 C53 39 114 -10 177 -10 C221 -10 306 28 376 88 L376 81 C376 38 419 -5 462 -5 C498 -5 541 36 548 78 L548 78 Z M376 287 L376 92 C322 47 247 17 204 17 C154 17 104 55 104 94 C104 203 190 254 376 287 L376 287 Z " />
<glyph glyph-name="egrave" unicode="&#xe8;" horiz-adv-x="566" d="M109 799 C109 794 144 761 179 730 L318 607 L325 614 L202 753 C171 788 138 823 133 823 C122 823 109 810 109 799 L109 799 Z M110 370 L536 370 C525 482 417 554 315 554 C179 554 45 437 45 256 C45 122 167 -10 291 -10 C384 -10 498 66 522 143 L520 143 C498 73 387 5 296 5 C196 5 98 139 98 276 C98 310 102 341 110 370 L110 370 Z M480 374 L111 373 C143 484 228 551 314 551 C388 551 468 482 481 374 L480 374 L480 374 Z " />
<glyph glyph-name="eacute" unicode="&#xe9;" horiz-adv-x="566" d="M322 607 L461 730 C496 762 531 795 531 799 C531 810 518 823 507 823 C503 823 470 788 438 753 L315 614 L322 607 L322 607 Z M110 370 L536 370 C525 482 417 554 315 554 C179 554 45 437 45 256 C45 122 167 -10 291 -10 C384 -10 498 66 522 143 L520 143 C498 73 387 5 296 5 C196 5 98 139 98 276 C98 310 102 341 110 370 L110 370 Z M480 374 L111 373 C143 484 228 551 314 551 C388 551 468 482 481 374 L480 374 L480 374 Z " />
<glyph glyph-name="ecircumflex" unicode="&#xea;" horiz-adv-x="566" d="M333 809 C330 814 320 827 315 827 C310 827 300 814 297 809 L166 607 L173 602 L315 770 L457 602 L464 607 L333 809 L333 809 Z M110 370 L536 370 C525 482 417 554 315 554 C179 554 45 437 45 256 C45 122 167 -10 291 -10 C384 -10 498 66 522 143 L520 143 C498 73 387 5 296 5 C196 5 98 139 98 276 C98 310 102 341 110 370 L110 370 Z M480 374 L111 373 C143 484 228 551 314 551 C388 551 468 482 481 374 L480 374 L480 374 Z " />
<glyph glyph-name="edieresis" unicode="&#xeb;" horiz-adv-x="566" d="M385 659 C401 659 417 675 417 691 C417 708 401 724 385 724 C369 724 353 708 353 691 C353 675 369 659 385 659 L385 659 Z M245 659 C261 659 277 675 277 691 C277 708 261 724 245 724 C229 724 213 708 213 691 C213 675 229 659 245 659 L245 659 Z M110 370 L536 370 C525 482 417 554 315 554 C179 554 45 437 45 256 C45 122 167 -10 291 -10 C384 -10 498 66 522 143 L520 143 C498 73 387 5 296 5 C196 5 98 139 98 276 C98 310 102 341 110 370 L110 370 Z M480 374 L111 373 C143 484 228 551 314 551 C388 551 468 482 481 374 L480 374 L480 374 Z " />
<glyph glyph-name="igrave" unicode="&#xec;" horiz-adv-x="192" d="M-98 798 C-98 793 -63 760 -28 729 L111 606 L118 613 L-5 752 C-36 787 -69 822 -74 822 C-85 822 -98 809 -98 798 L-98 798 Z M83 518 L83 0 L133 0 L133 544 L108 544 L104 542 C97 541 90 538 82 538 L82 520 L83 518 L83 518 Z " />
<glyph glyph-name="iacute" unicode="&#xed;" horiz-adv-x="192" d="M-98 798 C-98 793 -63 760 -28 729 L111 606 L118 613 L-5 752 C-36 787 -69 822 -74 822 C-85 822 -98 809 -98 798 L-98 798 Z M83 518 L83 0 L133 0 L133 544 L108 544 L104 542 C97 541 90 538 82 538 L82 520 L83 518 L83 518 Z " />
<glyph glyph-name="icircumflex" unicode="&#xee;" horiz-adv-x="192" d="M126 808 C123 813 113 826 108 826 C103 826 93 813 90 808 L-41 606 L-34 601 L108 769 L250 601 L257 606 L126 808 L126 808 Z M83 518 L83 0 L133 0 L133 544 L108 544 L104 542 C97 541 90 538 82 538 L82 520 L83 518 L83 518 Z " />
<glyph glyph-name="idieresis" unicode="&#xef;" horiz-adv-x="192" d="M178 658 C194 658 210 674 210 690 C210 707 194 723 178 723 C162 723 146 707 146 690 C146 674 162 658 178 658 L178 658 Z M38 658 C54 658 70 674 70 690 C70 707 54 723 38 723 C22 723 6 707 6 690 C6 674 22 658 38 658 L38 658 Z M83 518 L83 0 L133 0 L133 544 L108 544 L104 542 C97 541 90 538 82 538 L82 520 L83 518 L83 518 Z " />
<glyph glyph-name="ntilde" unicode="&#xf1;" horiz-adv-x="462" d="M68 663 C68 696 94 729 121 729 C172 729 273 664 324 664 C360 664 395 711 395 759 L392 759 C392 729 364 699 336 699 C285 699 184 764 133 764 C99 764 65 714 65 663 L68 663 L68 663 Z M42 537 L42 536 C36 534 31 533 27 532 L27 527 L30 527 C36 525 42 502 42 479 L42 0 L92 0 L92 408 C139 469 220 528 255 528 C318 528 368 448 368 367 L368 0 L418 0 L418 367 C418 461 353 554 271 554 C235 554 146 486 92 417 L92 544 L67 544 C61 541 51 537 42 537 L42 537 Z " />
<glyph glyph-name="ograve" unicode="&#xf2;" horiz-adv-x="630" d="M100 272 C100 412 206 549 315 549 C424 549 530 412 530 272 C530 132 424 -5 315 -5 C206 -5 100 132 100 272 L100 272 Z M45 272 C45 130 179 -10 315 -10 C451 -10 585 130 585 272 C585 414 451 554 315 554 C179 554 45 414 45 272 L45 272 Z M109 799 C109 794 144 761 179 730 L318 607 L325 614 L202 753 C171 788 138 823 133 823 C122 823 109 810 109 799 L109 799 Z " />
<glyph glyph-name="oacute" unicode="&#xf3;" horiz-adv-x="630" d="M322 607 L461 730 C496 762 531 795 531 799 C531 810 518 823 507 823 C503 823 470 788 438 753 L315 614 L322 607 L322 607 Z M100 272 C100 412 206 549 315 549 C424 549 530 412 530 272 C530 132 424 -5 315 -5 C206 -5 100 132 100 272 L100 272 Z M45 272 C45 130 179 -10 315 -10 C451 -10 585 130 585 272 C585 414 451 554 315 554 C179 554 45 414 45 272 L45 272 Z " />
<glyph glyph-name="ocircumflex" unicode="&#xf4;" horiz-adv-x="630" d="M100 272 C100 412 206 549 315 549 C424 549 530 412 530 272 C530 132 424 -5 315 -5 C206 -5 100 132 100 272 L100 272 Z M45 272 C45 130 179 -10 315 -10 C451 -10 585 130 585 272 C585 414 451 554 315 554 C179 554 45 414 45 272 L45 272 Z M333 809 C330 814 320 827 315 827 C310 827 300 814 297 809 L166 607 L173 602 L315 770 L457 602 L464 607 L333 809 L333 809 Z " />
<glyph glyph-name="otilde" unicode="&#xf5;" horiz-adv-x="630" d="M153 664 C153 697 179 730 206 730 C257 730 358 665 409 665 C445 665 480 712 480 760 L477 760 C477 730 449 700 421 700 C370 700 269 765 218 765 C184 765 150 715 150 664 L153 664 L153 664 Z M100 272 C100 412 206 549 315 549 C424 549 530 412 530 272 C530 132 424 -5 315 -5 C206 -5 100 132 100 272 L100 272 Z M45 272 C45 130 179 -10 315 -10 C451 -10 585 130 585 272 C585 414 451 554 315 554 C179 554 45 414 45 272 L45 272 Z " />
<glyph glyph-name="odieresis" unicode="&#xf6;" horiz-adv-x="630" d="M385 659 C401 659 417 675 417 691 C417 708 401 724 385 724 C369 724 353 708 353 691 C353 675 369 659 385 659 L385 659 Z M245 659 C261 659 277 675 277 691 C277 708 261 724 245 724 C229 724 213 708 213 691 C213 675 229 659 245 659 L245 659 Z M100 272 C100 412 206 549 315 549 C424 549 530 412 530 272 C530 132 424 -5 315 -5 C206 -5 100 132 100 272 L100 272 Z M45 272 C45 130 179 -10 315 -10 C451 -10 585 130 585 272 C585 414 451 554 315 554 C179 554 45 414 45 272 L45 272 Z " />
<glyph glyph-name="oslash" unicode="&#xf8;" horiz-adv-x="630" d="M47 -12 C47 -12 79 21 131 76 C181 24 248 -10 315 -10 C451 -10 585 130 585 272 C585 342 552 412 503 465 C531 494 559 523 587 552 L583 556 C555 527 527 498 499 469 C449 521 382 555 315 555 C179 555 45 415 45 273 C45 203 78 133 127 80 C75 25 43 -8 43 -8 L47 -12 L47 -12 Z M476 445 C349 312 231 189 150 105 C119 153 100 212 100 272 C100 412 206 549 315 549 C376 549 436 507 477 445 L476 445 L476 445 Z M480 440 C511 392 530 333 530 273 C530 133 424 -4 315 -4 C254 -4 194 38 153 100 C234 184 352 307 479 440 L480 440 L480 440 Z " />
<glyph glyph-name="ugrave" unicode="&#xf9;" horiz-adv-x="464" d="M26 799 C26 794 61 761 96 730 L235 607 L241 614 L119 753 C89 788 56 823 51 823 C40 823 26 810 26 799 L26 799 Z M400 0 C406 2 419 5 425 7 L425 544 L375 544 L375 132 C346 76 267 25 206 25 C146 25 88 95 88 167 L88 544 L38 544 L38 167 C38 78 110 -10 183 -10 C251 -10 341 56 375 127 L375 0 L400 0 L400 0 Z " />
<glyph glyph-name="uacute" unicode="&#xfa;" horiz-adv-x="464" d="M238 607 L377 730 C412 762 447 795 447 799 C447 810 433 823 422 823 C419 823 386 788 354 753 L232 614 L238 607 L238 607 Z M400 0 C406 2 419 5 425 7 L425 544 L375 544 L375 132 C346 76 267 25 206 25 C146 25 88 95 88 167 L88 544 L38 544 L38 167 C38 78 110 -10 183 -10 C251 -10 341 56 375 127 L375 0 L400 0 L400 0 Z " />
<glyph glyph-name="ucircumflex" unicode="&#xfb;" horiz-adv-x="464" d="M249 809 C246 814 236 827 232 827 C227 827 217 814 214 809 L82 607 L89 602 L231 771 L374 602 L381 607 L249 809 L249 809 Z M400 0 C406 2 419 5 425 7 L425 544 L375 544 L375 132 C346 76 267 25 206 25 C146 25 88 95 88 167 L88 544 L38 544 L38 167 C38 78 110 -10 183 -10 C251 -10 341 56 375 127 L375 0 L400 0 L400 0 Z " />
<glyph glyph-name="udieresis" unicode="&#xfc;" horiz-adv-x="464" d="M301 659 C318 659 334 675 334 691 C334 708 318 724 301 724 C285 724 269 708 269 691 C269 675 285 659 301 659 L301 659 Z M162 659 C178 659 194 675 194 691 C194 708 178 724 162 724 C145 724 129 708 129 691 C129 675 145 659 162 659 L162 659 Z M400 0 C406 2 419 5 425 7 L425 544 L375 544 L375 132 C346 76 267 25 206 25 C146 25 88 95 88 167 L88 544 L38 544 L38 167 C38 78 110 -10 183 -10 C251 -10 341 56 375 127 L375 0 L400 0 L400 0 Z " />
<glyph glyph-name="ydieresis" unicode="&#xff;" horiz-adv-x="439" d="M305 659 C322 659 338 675 338 691 C338 708 322 724 305 724 C289 724 273 708 273 691 C273 675 289 659 305 659 L305 659 Z M166 659 C182 659 198 675 198 691 C198 708 182 724 166 724 C149 724 133 708 133 691 C133 675 149 659 166 659 L166 659 Z M434 544 L382 544 L382 541 L384 541 C390 541 387 516 379 489 C333 352 290 212 242 76 C193 213 143 350 95 486 C85 514 81 541 87 541 L89 541 L89 544 L6 544 L6 541 C16 541 27 523 38 497 L215 1 C196 -53 177 -107 158 -161 C152 -177 136 -193 131 -193 C112 -193 101 -174 82 -174 C61 -174 41 -194 41 -215 C41 -237 63 -259 86 -259 C104 -259 153 -213 170 -167 C206 -68 241 31 276 131 C318 250 359 369 401 487 C412 518 425 542 435 542 L434 544 L434 544 Z " />
<glyph glyph-name="Amacron" unicode="&#x100;" horiz-adv-x="633" d="M153 945 L492 945 L492 980 L153 980 L153 945 L153 945 Z M-29 0 L145 0 L145 3 L132 3 C98 3 78 47 89 94 L157 312 L432 312 L496 99 C509 49 489 3 454 3 L441 3 L441 0 L632 0 L632 3 L625 3 C606 3 572 53 557 103 L557 103 C485 340 413 577 340 814 L334 814 C337 798 317 778 293 775 L296 765 C226 544 157 323 87 103 C71 52 20 3 -16 3 L-29 3 L-29 0 L-29 0 Z M159 317 L298 759 L431 317 L159 317 L159 317 Z " />
<glyph glyph-name="amacron" unicode="&#x101;" horiz-adv-x="538" d="M108 695 L448 695 L448 730 L108 730 L108 695 L108 695 Z M548 78 L541 81 C537 56 508 31 483 31 C454 31 426 56 426 81 L426 390 C426 485 353 554 278 554 C174 554 73 449 73 404 C73 386 85 369 98 369 C115 369 131 385 131 394 C131 405 111 428 111 436 C111 470 191 549 272 549 C325 549 376 490 376 409 L376 290 C155 251 53 197 53 88 C53 39 114 -10 177 -10 C221 -10 306 28 376 88 L376 81 C376 38 419 -5 462 -5 C498 -5 541 36 548 78 L548 78 Z M376 287 L376 92 C322 47 247 17 204 17 C154 17 104 55 104 94 C104 203 190 254 376 287 L376 287 Z " />
<glyph glyph-name="Abreve" unicode="&#x102;" horiz-adv-x="633" d="M183 1039 C186 985 255 933 323 933 C390 933 458 985 461 1038 L451 1039 C449 1003 386 968 323 968 C260 968 196 1004 194 1040 L183 1039 L183 1039 Z M-29 0 L145 0 L145 3 L132 3 C98 3 78 47 89 94 L157 312 L432 312 L496 99 C509 49 489 3 454 3 L441 3 L441 0 L632 0 L632 3 L625 3 C606 3 572 53 557 103 L557 103 C485 340 413 577 340 814 L334 814 C337 798 317 778 293 775 L296 765 C226 544 157 323 87 103 C71 52 20 3 -16 3 L-29 3 L-29 0 L-29 0 Z M159 317 L298 759 L431 317 L159 317 L159 317 Z " />
<glyph glyph-name="abreve" unicode="&#x103;" horiz-adv-x="538" d="M139 789 C142 735 211 683 278 683 C345 683 414 735 417 788 L407 789 C405 753 341 718 278 718 C215 718 151 754 149 790 L139 789 L139 789 Z M548 78 L541 81 C537 56 508 31 483 31 C454 31 426 56 426 81 L426 390 C426 485 353 554 278 554 C174 554 73 449 73 404 C73 386 85 369 98 369 C115 369 131 385 131 394 C131 405 111 428 111 436 C111 470 191 549 272 549 C325 549 376 490 376 409 L376 290 C155 251 53 197 53 88 C53 39 114 -10 177 -10 C221 -10 306 28 376 88 L376 81 C376 38 419 -5 462 -5 C498 -5 541 36 548 78 L548 78 Z M376 287 L376 92 C322 47 247 17 204 17 C154 17 104 55 104 94 C104 203 190 254 376 287 L376 287 Z " />
<glyph glyph-name="Cacute" unicode="&#x106;" horiz-adv-x="739" d="M409 857 L548 980 C583 1012 618 1045 618 1049 C618 1060 605 1073 594 1073 C590 1073 557 1038 525 1003 L402 864 L409 857 L409 857 Z M693 61 L693 171 L680 171 C679 167 675 161 674 157 C661 126 615 75 577 50 C523 17 458 -6 392 -6 C258 -6 126 193 126 397 C126 601 264 800 404 800 C462 800 518 779 567 749 C612 721 666 664 680 622 L693 622 L693 731 L688 731 C688 727 687 721 687 717 C685 702 661 704 635 720 C575 767 495 804 402 804 C230 804 61 603 61 397 C61 191 224 -10 390 -10 C486 -10 574 26 635 72 C661 88 686 90 687 74 C687 70 688 64 688 60 L693 61 L693 61 Z " />
<glyph glyph-name="Ccircumflex" unicode="&#x108;" horiz-adv-x="739" d="M420 1059 C417 1064 407 1077 402 1077 C397 1077 387 1064 384 1059 L253 857 L260 852 L402 1020 L544 852 L551 857 L420 1059 L420 1059 Z M693 61 L693 171 L680 171 C679 167 675 161 674 157 C661 126 615 75 577 50 C523 17 458 -6 392 -6 C258 -6 126 193 126 397 C126 601 264 800 404 800 C462 800 518 779 567 749 C612 721 666 664 680 622 L693 622 L693 731 L688 731 C688 727 687 721 687 717 C685 702 661 704 635 720 C575 767 495 804 402 804 C230 804 61 603 61 397 C61 191 224 -10 390 -10 C486 -10 574 26 635 72 C661 88 686 90 687 74 C687 70 688 64 688 60 L693 61 L693 61 Z " />
<glyph glyph-name="Cdot" unicode="&#x10a;" horiz-adv-x="739" d="M402 909 C418 909 434 925 434 941 C434 958 418 974 402 974 C386 974 370 958 370 941 C370 925 386 909 402 909 L402 909 Z M693 61 L693 171 L680 171 C679 167 675 161 674 157 C661 126 615 75 577 50 C523 17 458 -6 392 -6 C258 -6 126 193 126 397 C126 601 264 800 404 800 C462 800 518 779 567 749 C612 721 666 664 680 622 L693 622 L693 731 L688 731 C688 727 687 721 687 717 C685 702 661 704 635 720 C575 767 495 804 402 804 C230 804 61 603 61 397 C61 191 224 -10 390 -10 C486 -10 574 26 635 72 C661 88 686 90 687 74 C687 70 688 64 688 60 L693 61 L693 61 Z " />
<glyph glyph-name="cdot" unicode="&#x10b;" horiz-adv-x="498" d="M281 659 C297 659 313 675 313 691 C313 708 297 724 281 724 C265 724 249 708 249 691 C249 675 265 659 281 659 L281 659 Z M468 136 L466 137 C440 70 343 4 270 4 C182 4 95 143 95 285 C95 419 187 551 280 551 C331 551 399 501 418 449 C423 436 435 424 443 424 C460 424 473 436 468 449 C449 502 356 554 281 554 C162 554 45 408 45 259 C45 123 152 -10 262 -10 C337 -10 439 62 468 136 L468 136 Z " />
<glyph glyph-name="Ccaron" unicode="&#x10c;" horiz-adv-x="739" d="M544 1086 L402 918 L260 1086 L253 1081 L384 879 C387 874 397 861 402 861 C407 861 417 874 420 879 L551 1081 L544 1086 L544 1086 Z M693 61 L693 171 L680 171 C679 167 675 161 674 157 C661 126 615 75 577 50 C523 17 458 -6 392 -6 C258 -6 126 193 126 397 C126 601 264 800 404 800 C462 800 518 779 567 749 C612 721 666 664 680 622 L693 622 L693 731 L688 731 C688 727 687 721 687 717 C685 702 661 704 635 720 C575 767 495 804 402 804 C230 804 61 603 61 397 C61 191 224 -10 390 -10 C486 -10 574 26 635 72 C661 88 686 90 687 74 C687 70 688 64 688 60 L693 61 L693 61 Z " />
<glyph glyph-name="ccaron" unicode="&#x10d;" horiz-adv-x="498" d="M423 836 L281 668 L139 836 L132 831 L263 629 C266 624 276 611 281 611 C286 611 296 624 299 629 L430 831 L423 836 L423 836 Z M468 136 L466 137 C440 70 343 4 270 4 C182 4 95 143 95 285 C95 419 187 551 280 551 C331 551 399 501 418 449 C423 436 435 424 443 424 C460 424 473 436 468 449 C449 502 356 554 281 554 C162 554 45 408 45 259 C45 123 152 -10 262 -10 C337 -10 439 62 468 136 L468 136 Z " />
<glyph glyph-name="Dcaron" unicode="&#x10e;" horiz-adv-x="793" d="M532 1086 L389 917 L247 1086 L240 1081 L372 879 C375 874 385 861 390 861 C394 861 404 874 407 879 L539 1081 L532 1086 L532 1086 Z M249 4 C185 4 164 19 164 34 L164 790 L286 790 C502 790 674 595 674 397 C674 179 464 4 249 4 L249 4 Z M255 0 C499 0 738 176 738 397 C738 597 543 794 300 794 L105 794 L105 0 L255 0 L255 0 Z " />
<glyph glyph-name="dcaron" unicode="&#x10f;" horiz-adv-x="567" d="M607 802 C597 802 584 733 580 695 L566 584 L574 583 L606 690 C618 727 629 779 629 795 C629 799 618 802 607 802 L607 802 Z M453 777 L456 777 C462 775 468 752 468 729 L468 442 C436 498 367 553 315 553 C165 553 45 415 45 275 C45 133 165 -6 288 -6 C349 -6 435 33 468 74 L468 -1 L493 -1 C499 1 512 4 518 6 L518 793 L493 793 L468 786 L468 785 C462 783 457 782 453 781 L453 777 L453 777 Z M468 407 L468 79 C441 46 364 15 308 15 C201 15 96 151 96 289 C96 415 196 538 321 538 C375 538 450 467 468 407 L468 407 Z " />
<glyph glyph-name="Emacron" unicode="&#x112;" horiz-adv-x="573" d="M133 945 L473 945 L473 980 L133 980 L133 945 L133 945 Z M440 323 L440 408 L441 408 L441 412 L440 412 L440 497 L431 497 L428 484 C421 448 375 412 335 412 L164 412 L164 790 L395 790 C436 790 486 754 497 718 L502 705 L511 705 C508 726 503 767 500 790 L501 790 L501 794 L105 794 L105 0 L526 0 L526 2 C530 21 537 60 540 79 L531 79 L526 67 C513 35 450 4 397 4 L198 4 C172 4 164 19 164 34 L164 408 L335 408 C375 408 421 372 428 336 L431 323 L440 323 L440 323 Z " />
<glyph glyph-name="emacron" unicode="&#x113;" horiz-adv-x="566" d="M145 695 L485 695 L485 730 L145 730 L145 695 L145 695 Z M110 370 L536 370 C525 482 417 554 315 554 C179 554 45 437 45 256 C45 122 167 -10 291 -10 C384 -10 498 66 522 143 L520 143 C498 73 387 5 296 5 C196 5 98 139 98 276 C98 310 102 341 110 370 L110 370 Z M480 374 L111 373 C143 484 228 551 314 551 C388 551 468 482 481 374 L480 374 L480 374 Z " />
<glyph glyph-name="Ebreve" unicode="&#x114;" horiz-adv-x="573" d="M164 1039 C167 985 236 933 303 933 C370 933 439 985 442 1038 L432 1039 C430 1003 366 968 303 968 C240 968 176 1004 174 1040 L164 1039 L164 1039 Z M440 323 L440 408 L441 408 L441 412 L440 412 L440 497 L431 497 L428 484 C421 448 375 412 335 412 L164 412 L164 790 L395 790 C436 790 486 754 497 718 L502 705 L511 705 C508 726 503 767 500 790 L501 790 L501 794 L105 794 L105 0 L526 0 L526 2 C530 21 537 60 540 79 L531 79 L526 67 C513 35 450 4 397 4 L198 4 C172 4 164 19 164 34 L164 408 L335 408 C375 408 421 372 428 336 L431 323 L440 323 L440 323 Z " />
<glyph glyph-name="ebreve" unicode="&#x115;" horiz-adv-x="566" d="M176 789 C179 735 248 683 315 683 C382 683 451 735 454 788 L444 789 C442 753 378 718 315 718 C252 718 188 754 186 790 L176 789 L176 789 Z M110 370 L536 370 C525 482 417 554 315 554 C179 554 45 437 45 256 C45 122 167 -10 291 -10 C384 -10 498 66 522 143 L520 143 C498 73 387 5 296 5 C196 5 98 139 98 276 C98 310 102 341 110 370 L110 370 Z M480 374 L111 373 C143 484 228 551 314 551 C388 551 468 482 481 374 L480 374 L480 374 Z " />
<glyph glyph-name="Edot" unicode="&#x116;" horiz-adv-x="573" d="M303 909 C319 909 335 925 335 941 C335 958 319 974 303 974 C287 974 271 958 271 941 C271 925 287 909 303 909 L303 909 Z M440 323 L440 408 L441 408 L441 412 L440 412 L440 497 L431 497 L428 484 C421 448 375 412 335 412 L164 412 L164 790 L395 790 C436 790 486 754 497 718 L502 705 L511 705 C508 726 503 767 500 790 L501 790 L501 794 L105 794 L105 0 L526 0 L526 2 C530 21 537 60 540 79 L531 79 L526 67 C513 35 450 4 397 4 L198 4 C172 4 164 19 164 34 L164 408 L335 408 C375 408 421 372 428 336 L431 323 L440 323 L440 323 Z " />
<glyph glyph-name="edot" unicode="&#x117;" horiz-adv-x="566" d="M315 659 C331 659 347 675 347 691 C347 708 331 724 315 724 C299 724 283 708 283 691 C283 675 299 659 315 659 L315 659 Z M110 370 L536 370 C525 482 417 554 315 554 C179 554 45 437 45 256 C45 122 167 -10 291 -10 C384 -10 498 66 522 143 L520 143 C498 73 387 5 296 5 C196 5 98 139 98 276 C98 310 102 341 110 370 L110 370 Z M480 374 L111 373 C143 484 228 551 314 551 C388 551 468 482 481 374 L480 374 L480 374 Z " />
<glyph glyph-name="Ecaron" unicode="&#x11a;" horiz-adv-x="573" d="M445 1086 L303 918 L161 1086 L154 1081 L285 879 C288 874 298 861 303 861 C308 861 318 874 321 879 L452 1081 L445 1086 L445 1086 Z M440 323 L440 408 L441 408 L441 412 L440 412 L440 497 L431 497 L428 484 C421 448 375 412 335 412 L164 412 L164 790 L395 790 C436 790 486 754 497 718 L502 705 L511 705 C508 726 503 767 500 790 L501 790 L501 794 L105 794 L105 0 L526 0 L526 2 C530 21 537 60 540 79 L531 79 L526 67 C513 35 450 4 397 4 L198 4 C172 4 164 19 164 34 L164 408 L335 408 C375 408 421 372 428 336 L431 323 L440 323 L440 323 Z " />
<glyph glyph-name="ecaron" unicode="&#x11b;" horiz-adv-x="566" d="M457 836 L315 668 L173 836 L166 831 L297 629 C300 624 310 611 315 611 C320 611 330 624 333 629 L464 831 L457 836 L457 836 Z M110 370 L536 370 C525 482 417 554 315 554 C179 554 45 437 45 256 C45 122 167 -10 291 -10 C384 -10 498 66 522 143 L520 143 C498 73 387 5 296 5 C196 5 98 139 98 276 C98 310 102 341 110 370 L110 370 Z M480 374 L111 373 C143 484 228 551 314 551 C388 551 468 482 481 374 L480 374 L480 374 Z " />
<glyph glyph-name="Gcircumflex" unicode="&#x11c;" horiz-adv-x="765" d="M680 622 L693 622 L693 731 L688 731 C688 727 687 721 687 717 C685 702 661 704 635 720 C575 767 495 804 402 804 C230 804 61 603 61 397 C61 191 225 -10 393 -10 C526 -10 672 26 750 62 L748 65 C729 56 704 47 675 39 L675 344 L616 344 L616 341 C616 341 616 299 616 256 C616 200 616 129 616 80 C609 46 536 14 451 5 C501 9 566 17 598 21 C539 10 472 3 405 3 C265 3 128 199 128 398 C128 602 266 801 406 801 C464 801 520 780 569 750 L569 750 C614 722 668 665 682 623 L680 622 L680 622 Z M422 1060 C419 1065 409 1078 404 1078 C399 1078 389 1065 386 1060 L255 858 L262 853 L404 1021 L546 853 L553 858 L422 1060 L422 1060 Z M452 5 C437 3 421 2 405 2 C417 2 433 3 452 5 L452 5 Z " />
<glyph glyph-name="Gbreve" unicode="&#x11e;" horiz-adv-x="765" d="M263 1039 C266 985 335 933 402 933 C469 933 538 985 541 1038 L531 1039 C529 1003 465 968 402 968 C339 968 275 1004 273 1040 L263 1039 L263 1039 Z M680 622 L693 622 L693 731 L688 731 C688 727 687 721 687 717 C685 702 661 704 635 720 C575 767 495 804 402 804 C230 804 61 603 61 397 C61 191 225 -10 393 -10 C526 -10 672 26 750 62 L748 65 C729 56 704 47 675 39 L675 344 L616 344 L616 341 C616 341 616 299 616 256 C616 200 616 129 616 80 C609 46 536 14 451 5 C501 9 566 17 598 21 C539 10 472 3 405 3 C265 3 128 199 128 398 C128 602 266 801 406 801 C464 801 520 780 569 750 L569 750 C614 722 668 665 682 623 L680 622 L680 622 Z M452 5 C437 3 421 2 405 2 C417 2 433 3 452 5 L452 5 Z " />
<glyph glyph-name="gbreve" unicode="&#x11f;" horiz-adv-x="547" d="M134 789 C137 735 206 683 273 683 C340 683 409 735 412 788 L402 789 C400 753 336 718 273 718 C210 718 146 754 144 790 L134 789 L134 789 Z M566 490 C566 505 550 520 534 520 C499 520 457 490 440 456 C406 511 340 553 273 553 C178 553 84 467 84 380 C84 299 161 220 246 206 C148 200 59 158 59 116 C59 71 111 26 169 17 C107 -2 51 -54 51 -94 C51 -163 165 -231 281 -231 C397 -231 510 -156 510 -80 C510 -6 433 66 314 66 L192 66 C139 66 87 98 87 130 C87 167 178 204 271 204 C392 204 506 336 440 451 C453 470 479 486 502 486 C512 486 533 466 543 466 C554 466 564 477 564 488 L566 490 L566 490 Z M271 206 C201 206 132 292 132 379 C132 464 201 548 271 548 C341 548 410 464 410 379 C410 292 341 206 271 206 L271 206 Z M174 16 C179 15 184 15 189 15 L309 15 C406 15 469 -38 469 -92 C469 -161 376 -229 281 -229 C186 -229 92 -157 92 -83 C92 -46 131 -2 174 15 L174 16 L174 16 Z " />
<glyph glyph-name="Gdot" unicode="&#x120;" horiz-adv-x="765" d="M402 909 C418 909 434 925 434 941 C434 958 418 974 402 974 C386 974 370 958 370 941 C370 925 386 909 402 909 L402 909 Z M680 622 L693 622 L693 731 L688 731 C688 727 687 721 687 717 C685 702 661 704 635 720 C575 767 495 804 402 804 C230 804 61 603 61 397 C61 191 225 -10 393 -10 C526 -10 672 26 750 62 L748 65 C729 56 704 47 675 39 L675 344 L616 344 L616 341 C616 341 616 299 616 256 C616 200 616 129 616 80 C609 46 536 14 451 5 C501 9 566 17 598 21 C539 10 472 3 405 3 C265 3 128 199 128 398 C128 602 266 801 406 801 C464 801 520 780 569 750 L569 750 C614 722 668 665 682 623 L680 622 L680 622 Z M452 5 C437 3 421 2 405 2 C417 2 433 3 452 5 L452 5 Z " />
<glyph glyph-name="gdot" unicode="&#x121;" horiz-adv-x="547" d="M273 659 C289 659 305 675 305 691 C305 708 289 724 273 724 C257 724 241 708 241 691 C241 675 257 659 273 659 L273 659 Z M566 490 C566 505 550 520 534 520 C499 520 457 490 440 456 C406 511 340 553 273 553 C178 553 84 467 84 380 C84 299 161 220 246 206 C148 200 59 158 59 116 C59 71 111 26 169 17 C107 -2 51 -54 51 -94 C51 -163 165 -231 281 -231 C397 -231 510 -156 510 -80 C510 -6 433 66 314 66 L192 66 C139 66 87 98 87 130 C87 167 178 204 271 204 C392 204 506 336 440 451 C453 470 479 486 502 486 C512 486 533 466 543 466 C554 466 564 477 564 488 L566 490 L566 490 Z M271 206 C201 206 132 292 132 379 C132 464 201 548 271 548 C341 548 410 464 410 379 C410 292 341 206 271 206 L271 206 Z M174 16 C179 15 184 15 189 15 L309 15 C406 15 469 -38 469 -92 C469 -161 376 -229 281 -229 C186 -229 92 -157 92 -83 C92 -46 131 -2 174 15 L174 16 L174 16 Z " />
<glyph glyph-name="Hcircumflex" unicode="&#x124;" horiz-adv-x="750" d="M416 1059 C413 1064 403 1077 399 1077 C394 1077 384 1064 381 1059 L249 857 L256 852 L398 1021 L541 852 L548 857 L416 1059 L416 1059 Z M656 0 L656 794 L597 794 L597 410 L200 410 L200 794 L141 794 L141 0 L200 0 L200 405 L597 405 L597 0 L656 0 L656 0 Z " />
<glyph glyph-name="Itilde" unicode="&#x128;" horiz-adv-x="263" d="M-22 914 C-22 947 4 980 31 980 C82 980 183 915 234 915 C270 915 305 962 305 1010 L302 1010 C302 980 274 950 246 950 C195 950 94 1015 43 1015 C9 1015 -25 965 -25 914 L-22 914 L-22 914 Z M169 0 L169 794 L110 794 L110 0 L169 0 L169 0 Z " />
<glyph glyph-name="itilde" unicode="&#x129;" horiz-adv-x="192" d="M-54 663 C-54 696 -28 729 -1 729 C50 729 151 664 202 664 C238 664 273 711 273 759 L270 759 C270 729 242 699 214 699 C163 699 62 764 11 764 C-23 764 -57 714 -57 663 L-54 663 L-54 663 Z M83 518 L83 0 L133 0 L133 544 L108 544 L104 542 C97 541 90 538 82 538 L82 520 L83 518 L83 518 Z " />
<glyph glyph-name="Imacron" unicode="&#x12a;" horiz-adv-x="263" d="M-30 945 L310 945 L310 980 L-30 980 L-30 945 L-30 945 Z M169 0 L169 794 L110 794 L110 0 L169 0 L169 0 Z " />
<glyph glyph-name="imacron" unicode="&#x12b;" horiz-adv-x="192" d="M-62 694 L278 694 L278 729 L-62 729 L-62 694 L-62 694 Z M83 518 L83 0 L133 0 L133 544 L108 544 L104 542 C97 541 90 538 82 538 L82 520 L83 518 L83 518 Z " />
<glyph glyph-name="Ibreve" unicode="&#x12c;" horiz-adv-x="263" d="M1 1039 C4 985 73 933 140 933 C207 933 276 985 279 1038 L269 1039 C267 1003 203 968 140 968 C77 968 13 1004 11 1040 L1 1039 L1 1039 Z M169 0 L169 794 L110 794 L110 0 L169 0 L169 0 Z " />
<glyph glyph-name="ibreve" unicode="&#x12d;" horiz-adv-x="192" d="M-31 788 C-28 734 41 682 108 682 C175 682 244 734 247 787 L237 788 C235 752 171 717 108 717 C45 717 -19 753 -21 789 L-31 788 L-31 788 Z M83 518 L83 0 L133 0 L133 544 L108 544 L104 542 C97 541 90 538 82 538 L82 520 L83 518 L83 518 Z " />
<glyph glyph-name="Idot" unicode="&#x130;" horiz-adv-x="263" d="M140 909 C156 909 172 925 172 941 C172 958 156 974 140 974 C124 974 108 958 108 941 C108 925 124 909 140 909 L140 909 Z M169 0 L169 794 L110 794 L110 0 L169 0 L169 0 Z " />
<glyph glyph-name="dotlessi" unicode="&#x131;" horiz-adv-x="192" d="M83 518 L83 0 L133 0 L133 544 L108 544 L104 542 C97 541 90 538 82 538 L82 520 L83 518 L83 518 Z " />
<glyph glyph-name="Jcircumflex" unicode="&#x134;" horiz-adv-x="263" d="M158 1059 C155 1064 145 1077 140 1077 C135 1077 125 1064 122 1059 L-9 857 L-2 852 L140 1020 L282 852 L289 857 L158 1059 L158 1059 Z M110 -34 C110 -161 28 -214 -17 -214 C-41 -214 -37 -167 -61 -167 C-75 -167 -88 -180 -88 -193 C-88 -207 -55 -220 -21 -220 C46 -220 169 -133 169 78 L169 794 L110 794 L110 -34 L110 -34 Z " />
<glyph glyph-name="Lacute" unicode="&#x139;" horiz-adv-x="561" d="M147 857 L286 980 C321 1012 356 1045 356 1049 C356 1060 343 1073 332 1073 C328 1073 295 1038 263 1003 L140 864 L147 857 L147 857 Z M203 10 C177 10 169 22 169 34 L169 794 L110 794 L110 0 L537 0 C537 23 547 64 551 86 L542 86 L537 74 C524 42 461 11 408 11 L203 10 L203 10 Z " />
<glyph glyph-name="Lcaron" unicode="&#x13d;" horiz-adv-x="561" d="M306 853 C297 853 284 784 280 746 L266 635 L275 634 L306 741 C317 778 328 830 328 846 C328 850 317 853 306 853 L306 853 Z M203 10 C177 10 169 22 169 34 L169 794 L110 794 L110 0 L537 0 C537 23 547 64 551 86 L542 86 L537 74 C524 42 461 11 408 11 L203 10 L203 10 Z " />
<glyph glyph-name="lcaron" unicode="&#x13e;" horiz-adv-x="136" d="M181 802 C171 802 158 733 154 695 L140 584 L148 583 L180 690 C192 727 203 779 203 795 C203 799 192 802 181 802 L181 802 Z M42 787 L42 786 C36 784 31 783 27 782 L27 777 L30 777 C36 775 42 752 42 729 L42 0 L92 0 L92 794 L67 794 C61 791 51 787 42 787 L42 787 Z " />
<glyph glyph-name="Nacute" unicode="&#x143;" horiz-adv-x="698" d="M254 857 L393 980 C428 1012 463 1045 463 1049 C463 1060 450 1073 439 1073 C435 1073 402 1038 370 1003 L247 864 L254 857 L254 857 Z M55 0 L143 0 L143 3 L137 3 C122 3 108 28 108 53 L108 53 L106 706 C267 471 428 236 588 0 L600 0 L604 741 L604 741 C604 766 618 791 633 791 L639 791 L639 794 L587 794 L587 741 L588 110 L582 119 L119 794 L13 794 L13 791 C35 791 63 770 82 741 L82 741 L91 728 L90 53 C90 28 76 3 61 3 L55 3 L55 0 L55 0 Z " />
<glyph glyph-name="Ncaron" unicode="&#x147;" horiz-adv-x="698" d="M489 1086 L347 918 L205 1086 L198 1081 L329 879 C332 874 342 861 347 861 C352 861 362 874 365 879 L496 1081 L489 1086 L489 1086 Z M55 0 L143 0 L143 3 L137 3 C122 3 108 28 108 53 L108 53 L106 706 C267 471 428 236 588 0 L600 0 L604 741 L604 741 C604 766 618 791 633 791 L639 791 L639 794 L587 794 L587 741 L588 110 L582 119 L119 794 L13 794 L13 791 C35 791 63 770 82 741 L82 741 L91 728 L90 53 C90 28 76 3 61 3 L55 3 L55 0 L55 0 Z " />
<glyph glyph-name="ncaron" unicode="&#x148;" horiz-adv-x="462" d="M372 835 L230 667 L88 835 L81 830 L212 628 C215 623 225 610 230 610 C235 610 245 623 248 628 L379 830 L372 835 L372 835 Z M42 537 L42 536 C36 534 31 533 27 532 L27 527 L30 527 C36 525 42 502 42 479 L42 0 L92 0 L92 408 C139 469 220 528 255 528 C318 528 368 448 368 367 L368 0 L418 0 L418 367 C418 461 353 554 271 554 C235 554 146 486 92 417 L92 544 L67 544 C61 541 51 537 42 537 L42 537 Z " />
<glyph glyph-name="Omacron" unicode="&#x14c;" horiz-adv-x="839" d="M248 945 L588 945 L588 980 L248 980 L248 945 L248 945 Z M125 397 C125 600 270 799 417 799 C570 799 720 600 720 397 C720 194 566 -5 408 -5 C265 -5 125 194 125 397 L125 397 Z M61 397 C61 191 233 -10 408 -10 C598 -10 784 191 784 397 C784 603 603 804 418 804 C238 804 61 603 61 397 L61 397 Z " />
<glyph glyph-name="omacron" unicode="&#x14d;" horiz-adv-x="630" d="M145 695 L485 695 L485 730 L145 730 L145 695 L145 695 Z M100 272 C100 412 206 549 315 549 C424 549 530 412 530 272 C530 132 424 -5 315 -5 C206 -5 100 132 100 272 L100 272 Z M45 272 C45 130 179 -10 315 -10 C451 -10 585 130 585 272 C585 414 451 554 315 554 C179 554 45 414 45 272 L45 272 Z " />
<glyph glyph-name="Obreve" unicode="&#x14e;" horiz-adv-x="839" d="M279 1039 C282 985 351 933 418 933 C485 933 554 985 557 1038 L547 1039 C545 1003 481 968 418 968 C355 968 291 1004 289 1040 L279 1039 L279 1039 Z M125 397 C125 600 270 799 417 799 C570 799 720 600 720 397 C720 194 566 -5 408 -5 C265 -5 125 194 125 397 L125 397 Z M61 397 C61 191 233 -10 408 -10 C598 -10 784 191 784 397 C784 603 603 804 418 804 C238 804 61 603 61 397 L61 397 Z " />
<glyph glyph-name="obreve" unicode="&#x14f;" horiz-adv-x="630" d="M176 789 C179 735 248 683 315 683 C382 683 451 735 454 788 L444 789 C442 753 378 718 315 718 C252 718 188 754 186 790 L176 789 L176 789 Z M100 272 C100 412 206 549 315 549 C424 549 530 412 530 272 C530 132 424 -5 315 -5 C206 -5 100 132 100 272 L100 272 Z M45 272 C45 130 179 -10 315 -10 C451 -10 585 130 585 272 C585 414 451 554 315 554 C179 554 45 414 45 272 L45 272 Z " />
<glyph glyph-name="Racute" unicode="&#x154;" horiz-adv-x="651" d="M302 857 L441 980 C476 1012 511 1045 511 1049 C511 1060 497 1073 486 1073 C483 1073 450 1038 418 1003 L296 864 L302 857 L302 857 Z M641 0 C578 0 558 12 534 64 C467 210 402 353 383 394 C474 414 551 482 551 571 C551 683 441 793 329 793 L105 793 L105 -1 L164 -1 L164 387 L325 387 C338 350 403 200 465 62 C489 10 522 -2 641 -2 L641 0 L641 0 Z M164 400 L164 780 L312 780 C400 780 486 681 486 581 C486 476 408 400 329 400 L164 400 L164 400 Z " />
<glyph glyph-name="Rcaron" unicode="&#x158;" horiz-adv-x="651" d="M438 1086 L295 917 L153 1086 L146 1081 L278 879 C281 874 291 861 296 861 C300 861 310 874 313 879 L445 1081 L438 1086 L438 1086 Z M641 0 C578 0 558 12 534 64 C467 210 402 353 383 394 C474 414 551 482 551 571 C551 683 441 793 329 793 L105 793 L105 -1 L164 -1 L164 387 L325 387 C338 350 403 200 465 62 C489 10 522 -2 641 -2 L641 0 L641 0 Z M164 400 L164 780 L312 780 C400 780 486 681 486 581 C486 476 408 400 329 400 L164 400 L164 400 Z " />
<glyph glyph-name="rcaron" unicode="&#x159;" horiz-adv-x="344" d="M326 835 L184 667 L42 835 L35 830 L166 628 C169 623 179 610 184 610 C189 610 199 623 202 628 L333 830 L326 835 L326 835 Z M43 537 L43 536 C37 534 32 533 28 532 L28 527 L31 527 C37 525 43 502 43 479 L43 0 L93 0 L93 412 C125 473 193 531 234 531 C255 531 275 514 275 496 C275 481 290 467 305 467 C320 467 334 481 334 496 C334 525 296 554 257 554 C208 554 128 489 92 420 L92 544 L67 544 C61 541 51 537 42 537 L43 537 L43 537 Z " />
<glyph glyph-name="Sacute" unicode="&#x15a;" horiz-adv-x="572" d="M294 857 L433 980 C468 1012 503 1045 503 1049 C503 1060 490 1073 479 1073 C475 1073 442 1038 410 1003 L287 864 L294 857 L294 857 Z M362 782 L362 781 C327 795 290 804 257 804 C164 804 73 708 73 610 C73 540 174 425 300 366 C403 318 485 228 485 176 C485 85 402 -4 317 -4 C275 -4 224 17 178 48 L178 48 C139 75 87 140 72 180 C71 184 67 191 66 195 L53 195 L53 60 L58 60 C58 65 59 75 59 80 C60 101 84 102 109 84 C167 31 251 -10 317 -10 C426 -10 532 90 532 193 C532 265 444 377 335 428 C214 484 118 580 118 632 C118 717 187 800 257 800 C288 800 324 790 358 774 L358 774 C405 752 464 690 476 643 L489 643 L489 742 L484 742 C484 739 483 734 483 731 C482 719 459 724 438 740 L438 740 C416 757 389 771 362 784 L362 782 L362 782 Z M481 678 L481 678 L481 678 L481 678 Z " />
<glyph glyph-name="Scircumflex" unicode="&#x15c;" horiz-adv-x="572" d="M362 782 L362 781 C327 795 290 804 257 804 C164 804 73 708 73 610 C73 540 174 425 300 366 C403 318 485 228 485 176 C485 85 402 -4 317 -4 C275 -4 224 17 178 48 L178 48 C139 75 87 140 72 180 C71 184 67 191 66 195 L53 195 L53 60 L58 60 C58 65 59 75 59 80 C60 101 84 102 109 84 C167 31 251 -10 317 -10 C426 -10 532 90 532 193 C532 265 444 377 335 428 C214 484 118 580 118 632 C118 717 187 800 257 800 C288 800 324 790 358 774 L358 774 C405 752 464 690 476 643 L489 643 L489 742 L484 742 C484 739 483 734 483 731 C482 719 459 724 438 740 L438 740 C416 757 389 771 362 784 L362 782 L362 782 Z M305 1061 C302 1066 292 1079 287 1079 C282 1079 272 1066 269 1061 L138 859 L145 854 L287 1022 L429 854 L436 859 L305 1061 L305 1061 Z M481 678 L481 678 L481 678 L481 678 Z " />
<glyph glyph-name="Scaron" unicode="&#x160;" horiz-adv-x="572" d="M429 1086 L287 918 L145 1086 L138 1081 L269 879 C272 874 282 861 287 861 C292 861 302 874 305 879 L436 1081 L429 1086 L429 1086 Z M362 782 L362 781 C327 795 290 804 257 804 C164 804 73 708 73 610 C73 540 174 425 300 366 C403 318 485 228 485 176 C485 85 402 -4 317 -4 C275 -4 224 17 178 48 L178 48 C139 75 87 140 72 180 C71 184 67 191 66 195 L53 195 L53 60 L58 60 C58 65 59 75 59 80 C60 101 84 102 109 84 C167 31 251 -10 317 -10 C426 -10 532 90 532 193 C532 265 444 377 335 428 C214 484 118 580 118 632 C118 717 187 800 257 800 C288 800 324 790 358 774 L358 774 C405 752 464 690 476 643 L489 643 L489 742 L484 742 C484 739 483 734 483 731 C482 719 459 724 438 740 L438 740 C416 757 389 771 362 784 L362 782 L362 782 Z M481 678 L481 678 L481 678 L481 678 Z " />
<glyph glyph-name="scaron" unicode="&#x161;" horiz-adv-x="448" d="M383 836 L241 668 L99 836 L92 831 L223 629 C226 624 236 611 241 611 C246 611 256 624 259 629 L390 831 L383 836 L383 836 Z M60 132 L60 58 L64 58 L64 66 C65 70 87 59 111 42 C149 11 199 -11 240 -11 C319 -11 397 59 397 131 C397 184 332 260 251 290 C165 321 97 392 97 439 C97 495 149 549 202 549 C271 549 344 487 363 438 C364 437 364 433 365 432 L369 432 L369 495 L366 495 C366 493 365 491 365 489 C365 488 341 501 314 516 C311 518 276 538 275 536 C251 546 225 552 202 552 C131 552 61 487 61 421 C61 366 136 285 229 251 C301 225 359 160 359 116 C359 53 300 -8 240 -8 C209 -8 171 8 138 32 C109 56 75 97 64 125 C63 126 63 130 62 131 L60 132 L60 132 Z " />
<glyph glyph-name="Tcaron" unicode="&#x164;" horiz-adv-x="801" d="M541 1086 L399 918 L257 1086 L250 1081 L381 879 C384 874 394 861 399 861 C404 861 414 874 417 879 L548 1081 L541 1086 L541 1086 Z M747 789 L747 792 C747 791 747 790 747 789 L747 786 L747 789 L747 789 Z M777 704 C769 723 755 757 746 779 L746 788 L744 793 L54 793 L51 785 L51 788 C52 792 52 793 54 793 L54 786 C45 765 28 724 20 703 L29 703 L37 715 C57 747 118 778 161 778 L370 778 L370 -1 L429 -1 L429 778 L636 778 C679 778 740 747 760 715 L768 703 L777 704 L777 704 Z M746 791 L746 793 C744 793 745 793 746 791 L746 791 Z " />
<glyph glyph-name="tcaron" unicode="&#x165;" horiz-adv-x="356" d="M315 544 L148 544 L148 675 L145 675 L33 541 L33 531 L98 531 L98 140 C98 49 159 -10 222 -10 C259 -10 321 32 346 74 L340 77 C321 45 270 14 237 14 C192 14 147 59 147 129 L148 518 L315 518 L315 544 L315 544 Z M405 803 C395 803 382 734 378 696 L364 585 L372 584 L404 691 C416 728 427 780 427 796 C427 800 416 803 405 803 L405 803 Z " />
<glyph glyph-name="Utilde" unicode="&#x168;" horiz-adv-x="630" d="M156 914 C156 947 182 980 209 980 C260 980 361 915 412 915 C448 915 483 962 483 1010 L480 1010 C480 980 452 950 424 950 C373 950 272 1015 221 1015 C187 1015 153 965 153 914 L156 914 L156 914 Z M537 0 L566 8 L566 794 L508 794 L508 184 C471 105 349 28 260 28 C194 28 129 127 129 228 L129 794 L70 794 L70 228 C70 108 152 -10 236 -10 C334 -10 469 73 508 157 L508 0 L537 0 L537 0 Z " />
<glyph glyph-name="utilde" unicode="&#x169;" horiz-adv-x="464" d="M70 664 C70 697 96 730 123 730 C174 730 275 665 326 665 C361 665 396 712 396 760 L393 760 C393 730 366 700 338 700 C286 700 186 765 134 765 C100 765 67 715 67 664 L70 664 L70 664 Z M400 0 C406 2 419 5 425 7 L425 544 L375 544 L375 132 C346 76 267 25 206 25 C146 25 88 95 88 167 L88 544 L38 544 L38 167 C38 78 110 -10 183 -10 C251 -10 341 56 375 127 L375 0 L400 0 L400 0 Z " />
<glyph glyph-name="Umacron" unicode="&#x16a;" horiz-adv-x="630" d="M148 945 L488 945 L488 980 L148 980 L148 945 L148 945 Z M537 0 L566 8 L566 794 L508 794 L508 184 C471 105 349 28 260 28 C194 28 129 127 129 228 L129 794 L70 794 L70 228 C70 108 152 -10 236 -10 C334 -10 469 73 508 157 L508 0 L537 0 L537 0 Z " />
<glyph glyph-name="umacron" unicode="&#x16b;" horiz-adv-x="464" d="M62 695 L401 695 L401 730 L62 730 L62 695 L62 695 Z M400 0 C406 2 419 5 425 7 L425 544 L375 544 L375 132 C346 76 267 25 206 25 C146 25 88 95 88 167 L88 544 L38 544 L38 167 C38 78 110 -10 183 -10 C251 -10 341 56 375 127 L375 0 L400 0 L400 0 Z " />
<glyph glyph-name="Ubreve" unicode="&#x16c;" horiz-adv-x="630" d="M179 1039 C182 985 251 933 318 933 C385 933 454 985 457 1038 L447 1039 C445 1003 381 968 318 968 C255 968 191 1004 189 1040 L179 1039 L179 1039 Z M537 0 L566 8 L566 794 L508 794 L508 184 C471 105 349 28 260 28 C194 28 129 127 129 228 L129 794 L70 794 L70 228 C70 108 152 -10 236 -10 C334 -10 469 73 508 157 L508 0 L537 0 L537 0 Z " />
<glyph glyph-name="ubreve" unicode="&#x16d;" horiz-adv-x="464" d="M92 789 C95 735 164 683 232 683 C299 683 367 735 370 788 L360 789 C358 753 295 718 232 718 C169 718 105 754 103 790 L92 789 L92 789 Z M400 0 C406 2 419 5 425 7 L425 544 L375 544 L375 132 C346 76 267 25 206 25 C146 25 88 95 88 167 L88 544 L38 544 L38 167 C38 78 110 -10 183 -10 C251 -10 341 56 375 127 L375 0 L400 0 L400 0 Z " />
<glyph glyph-name="Uring" unicode="&#x16e;" horiz-adv-x="630" d="M236 949 C236 991 277 1032 318 1032 C359 1032 400 991 400 949 C400 911 355 866 318 866 C281 866 236 911 236 949 L236 949 Z M222 949 C222 906 274 854 318 854 C362 854 414 906 414 949 C414 997 366 1044 318 1044 C270 1044 222 997 222 949 L222 949 Z M537 0 L566 8 L566 794 L508 794 L508 184 C471 105 349 28 260 28 C194 28 129 127 129 228 L129 794 L70 794 L70 228 C70 108 152 -10 236 -10 C334 -10 469 73 508 157 L508 0 L537 0 L537 0 Z " />
<glyph glyph-name="uring" unicode="&#x16f;" horiz-adv-x="464" d="M150 699 C150 741 191 782 232 782 C273 782 313 741 313 699 C313 661 269 616 232 616 C195 616 150 661 150 699 L150 699 Z M135 699 C135 656 188 604 232 604 C276 604 328 656 328 699 C328 747 280 794 232 794 C183 794 135 747 135 699 L135 699 Z M400 0 C406 2 419 5 425 7 L425 544 L375 544 L375 132 C346 76 267 25 206 25 C146 25 88 95 88 167 L88 544 L38 544 L38 167 C38 78 110 -10 183 -10 C251 -10 341 56 375 127 L375 0 L400 0 L400 0 Z " />
<glyph glyph-name="Wcircumflex" unicode="&#x174;" horiz-adv-x="1015" d="M158 794 L9 794 L9 791 L13 791 C24 791 47 751 60 711 L60 711 C139 471 219 232 296 -9 L311 -9 L312 -4 L541 505 C595 334 649 162 703 -9 L718 -9 L936 714 C948 753 978 792 997 792 L1004 792 L1004 795 L842 795 L842 792 L856 792 C895 792 922 755 914 717 L729 83 L537 717 C528 755 549 792 582 792 L594 792 L594 795 L420 795 L420 792 L425 792 C437 792 462 752 475 712 L475 712 L533 530 L331 73 C262 286 193 499 124 712 C111 752 123 792 148 792 L157 792 L158 794 L158 794 Z M514 1060 C511 1065 501 1078 496 1078 C491 1078 481 1065 478 1060 L347 858 L354 853 L496 1021 L638 853 L645 858 L514 1060 L514 1060 Z " />
<glyph glyph-name="Ycircumflex" unicode="&#x176;" horiz-adv-x="628" d="M632 794 L505 794 L505 791 L523 791 C549 791 562 767 551 741 L347 363 C275 487 202 612 131 736 C115 764 121 791 144 791 L152 791 L152 794 L9 794 L9 791 C21 791 44 766 61 736 L61 736 L290 349 L290 0 L349 0 L349 357 L560 741 C579 771 607 791 632 791 L632 794 L632 794 Z M337 1059 C334 1064 324 1077 320 1077 C315 1077 305 1064 302 1059 L170 857 L177 852 L319 1021 L462 852 L469 857 L337 1059 L337 1059 Z " />
<glyph glyph-name="Ydieresis" unicode="&#x178;" horiz-adv-x="628" d="M389 909 C406 909 422 925 422 941 C422 958 406 974 389 974 C373 974 357 958 357 941 C357 925 373 909 389 909 L389 909 Z M250 909 C266 909 282 925 282 941 C282 958 266 974 250 974 C233 974 217 958 217 941 C217 925 233 909 250 909 L250 909 Z M632 794 L505 794 L505 791 L523 791 C549 791 562 767 551 741 L347 363 C275 487 202 612 131 736 C115 764 121 791 144 791 L152 791 L152 794 L9 794 L9 791 C21 791 44 766 61 736 L61 736 L290 349 L290 0 L349 0 L349 357 L560 741 C579 771 607 791 632 791 L632 794 L632 794 Z " />
<glyph glyph-name="Zacute" unicode="&#x179;" horiz-adv-x="654" d="M360 857 L499 980 C534 1012 569 1045 569 1049 C569 1060 555 1073 544 1073 C541 1073 508 1038 476 1003 L354 864 L360 857 L360 857 Z M71 703 L75 715 C85 746 142 777 194 779 L574 782 L26 12 L26 0 L634 0 L636 9 L656 93 L647 93 L641 81 C626 49 560 18 507 17 L95 13 L637 782 L637 794 L70 794 L69 778 C69 778 64 724 62 703 L71 703 L71 703 Z " />
<glyph glyph-name="Zdot" unicode="&#x17b;" horiz-adv-x="654" d="M354 909 C370 909 386 925 386 941 C386 958 370 974 354 974 C337 974 321 958 321 941 C321 925 337 909 354 909 L354 909 Z M71 703 L75 715 C85 746 142 777 194 779 L574 782 L26 12 L26 0 L634 0 L636 9 L656 93 L647 93 L641 81 C626 49 560 18 507 17 L95 13 L637 782 L637 794 L70 794 L69 778 C69 778 64 724 62 703 L71 703 L71 703 Z " />
<glyph glyph-name="zdot" unicode="&#x17c;" horiz-adv-x="502" d="M261 659 C277 659 293 675 293 691 C293 708 277 724 261 724 C244 724 228 708 228 691 C228 675 244 659 261 659 L261 659 Z M64 544 L62 535 L61 535 L63 544 L64 544 L64 544 Z M59 526 C59 528 60 533 61 535 L59 535 L43 479 L54 479 L59 486 C72 505 120 524 161 528 L402 532 L40 13 L40 1 L457 1 L457 19 L462 66 L451 66 L447 59 C437 39 391 20 350 17 L102 13 L462 532 L462 544 L67 544 L67 535 L62 535 C61 532 60 529 59 526 L59 526 Z " />
<glyph glyph-name="Zcaron" unicode="&#x17d;" horiz-adv-x="654" d="M496 1086 L353 917 L211 1086 L204 1081 L336 879 C339 874 349 861 354 861 C358 861 368 874 371 879 L503 1081 L496 1086 L496 1086 Z M71 703 L75 715 C85 746 142 777 194 779 L574 782 L26 12 L26 0 L634 0 L636 9 L656 93 L647 93 L641 81 C626 49 560 18 507 17 L95 13 L637 782 L637 794 L70 794 L69 778 C69 778 64 724 62 703 L71 703 L71 703 Z " />
<glyph glyph-name="zcaron" unicode="&#x17e;" horiz-adv-x="502" d="M403 836 L260 667 L118 836 L111 831 L243 629 C246 624 256 611 261 611 C265 611 275 624 278 629 L410 831 L403 836 L403 836 Z M64 544 L62 535 L61 535 L63 544 L64 544 L64 544 Z M59 526 C59 528 60 533 61 535 L59 535 L43 479 L54 479 L59 486 C72 505 120 524 161 528 L402 532 L40 13 L40 1 L457 1 L457 19 L462 66 L451 66 L447 59 C437 39 391 20 350 17 L102 13 L462 532 L462 544 L67 544 L67 535 L62 535 C61 532 60 529 59 526 L59 526 Z " />
<glyph glyph-name="oogonek" unicode="&#x1eb;" horiz-adv-x="743" d="M991 -52 L990 -51 C965 -72 835 -92 726 -92 C593 -92 401 -51 328 -8 C339 -10 350 -11 361 -11 C528 -11 691 149 691 313 C691 476 533 636 371 636 C214 636 61 476 61 313 C61 179 161 48 280 5 C382 -63 598 -128 719 -128 C810 -128 944 -90 990 -52 L991 -52 L991 -52 Z M320 -3 C213 25 118 168 118 314 C118 475 243 633 370 633 C503 633 633 475 633 314 C633 151 496 -8 357 -8 C345 -8 333 -6 321 -3 C321 -3 321 -3 320 -3 L320 -3 Z " />
<glyph glyph-name="Adotabove" unicode="&#x226;" horiz-adv-x="633" d="M323 909 C339 909 355 925 355 941 C355 958 339 974 323 974 C306 974 290 958 290 941 C290 925 306 909 323 909 L323 909 Z M-29 0 L145 0 L145 3 L132 3 C98 3 78 47 89 94 L157 312 L432 312 L496 99 C509 49 489 3 454 3 L441 3 L441 0 L632 0 L632 3 L625 3 C606 3 572 53 557 103 L557 103 C485 340 413 577 340 814 L334 814 C337 798 317 778 293 775 L296 765 C226 544 157 323 87 103 C71 52 20 3 -16 3 L-29 3 L-29 0 L-29 0 Z M159 317 L298 759 L431 317 L159 317 L159 317 Z " />
<glyph glyph-name="G_sc" unicode="&#x262;" horiz-adv-x="674" d="M603 484 L603 592 L598 592 C598 588 597 582 597 578 C596 563 569 565 542 581 C494 614 430 638 355 638 C207 638 62 478 62 315 C62 151 206 -9 352 -9 C415 -9 489 5 555 24 L583 31 L583 33 C612 42 638 52 660 62 L658 65 C637 55 611 45 582 36 L582 271 L529 271 L529 183 C530 183 530 71 530 67 C522 37 460 9 390 2 C412 4 439 7 463 10 C428 5 393 2 360 2 C239 2 120 157 120 315 C120 476 237 634 356 634 C402 634 445 621 483 601 C522 578 569 531 582 500 C583 496 587 490 588 486 L603 484 L603 484 Z M390 4 C380 3 370 2 360 2 C368 2 379 3 391 4 L390 4 L390 4 Z " />
<glyph glyph-name="I_sc" unicode="&#x26a;" horiz-adv-x="260" d="M166 0 L166 627 L113 627 L113 0 L166 0 L166 0 Z " />
<glyph glyph-name="N_sc" unicode="&#x274;" horiz-adv-x="611" d="M56 0 L142 0 L142 3 L136 3 C121 3 107 28 107 53 L107 53 L105 553 C238 369 371 185 503 0 L513 0 L517 574 L517 574 C517 599 532 624 546 624 L552 624 L552 627 L501 627 L501 574 L501 574 L503 75 C374 259 245 443 116 627 L19 627 L19 624 C40 624 69 602 89 574 L89 574 L90 573 L90 53 C90 28 76 3 61 3 L55 3 L56 0 L56 0 Z " />
<glyph glyph-name="R_sc" unicode="&#x280;" horiz-adv-x="556" d="M546 0 C488 0 469 10 448 50 C388 164 330 276 312 311 C393 327 462 382 462 453 C462 541 363 628 263 628 L107 628 L107 1 L160 1 L160 306 L260 306 C272 275 330 159 387 51 C408 11 439 1 547 1 L546 0 L546 0 Z M160 319 L160 618 L248 618 C326 618 403 541 403 463 C403 379 334 319 263 319 L160 319 L160 319 Z " />
<glyph glyph-name="Y_sc" unicode="&#x28f;" horiz-adv-x="536" d="M146 627 L11 627 L11 624 C23 624 41 604 59 577 L247 273 L247 -1 L300 -1 L300 281 C355 377 409 473 464 569 C482 601 513 624 539 624 L539 627 L413 627 L413 624 L431 624 C457 624 470 601 460 576 L298 287 L122 575 C109 601 116 624 137 624 L145 624 L146 627 L146 627 Z " />
<glyph glyph-name="B_sc" unicode="&#x299;" horiz-adv-x="515" d="M274 2 L224 2 C191 2 159 18 159 34 L159 322 L294 322 C356 322 416 243 416 163 C416 53 346 2 274 2 L274 2 Z M279 0 C378 0 475 52 475 163 C475 245 390 325 304 325 L295 325 C383 340 460 407 460 476 C460 552 386 627 226 627 L106 627 L106 0 L279 0 L279 0 Z M257 325 L159 325 L159 624 L220 624 C347 624 407 548 407 471 C407 397 333 325 257 325 L257 325 Z " />
<glyph glyph-name="H_sc" unicode="&#x29c;" horiz-adv-x="664" d="M570 0 L570 627 L517 627 L517 324 L195 324 L195 627 L142 627 L142 0 L195 0 L195 320 L517 320 L517 0 L570 0 L570 0 Z " />
<glyph glyph-name="L_sc" unicode="&#x29f;" horiz-adv-x="473" d="M200 9 C174 9 166 21 166 34 L166 627 L113 627 L113 0 L449 0 C449 22 459 63 463 84 L454 84 L449 72 C436 40 373 9 320 9 L200 9 L200 9 Z " />
<glyph glyph-name="circumflex" unicode="&#x2c6;" horiz-adv-x="373" d="M204 809 C201 814 191 827 187 827 C182 827 172 814 169 809 L38 607 L44 602 L186 771 L329 602 L336 607 L204 809 L204 809 Z " />
<glyph glyph-name="caron" unicode="&#x2c7;" horiz-adv-x="373" d="M329 836 L186 667 L44 836 L38 831 L169 629 C172 624 182 611 187 611 C191 611 201 624 204 629 L336 831 L329 836 L329 836 Z " />
<glyph glyph-name="firsttonechinese" unicode="&#x2c9;" horiz-adv-x="373" d="M17 695 L357 695 L357 730 L17 730 L17 695 L17 695 Z " />
<glyph glyph-name="breve" unicode="&#x2d8;" horiz-adv-x="373" d="M48 789 C51 735 120 683 187 683 C254 683 323 735 326 788 L315 789 C313 753 250 718 187 718 C124 718 60 754 58 790 L48 789 L48 789 Z " />
<glyph glyph-name="dotaccent" unicode="&#x2d9;" horiz-adv-x="373" d="M187 659 C203 659 219 675 219 691 C219 708 203 724 187 724 C170 724 154 708 154 691 C154 675 170 659 187 659 L187 659 Z " />
<glyph glyph-name="ring" unicode="&#x2da;" horiz-adv-x="373" d="M105 699 C105 741 146 782 187 782 C228 782 268 741 268 699 C268 661 224 616 187 616 C150 616 105 661 105 699 L105 699 Z M90 699 C90 656 143 604 187 604 C231 604 283 656 283 699 C283 747 235 794 187 794 C138 794 90 747 90 699 L90 699 Z " />
<glyph glyph-name="A_sc" unicode="&#x1d00;" horiz-adv-x="550" d="M365 0 L550 0 L550 3 L543 3 C526 3 495 44 477 89 C416 275 356 462 294 647 L289 647 C291 633 273 617 252 614 L255 604 L255 604 C199 437 144 270 88 103 C71 52 19 3 -17 3 L-30 3 L-30 0 L144 0 L144 3 L131 3 C95 3 76 53 93 103 L140 246 L370 246 L417 100 C432 50 413 3 378 3 L365 3 L365 0 L365 0 Z M142 250 L257 600 L369 250 L142 250 L142 250 Z " />
<glyph glyph-name="C_sc" unicode="&#x1d04;" horiz-adv-x="649" d="M475 23 C436 5 392 -6 347 -6 C233 -6 121 152 121 314 C121 475 238 633 357 633 C403 633 446 620 484 600 L475 23 L475 23 Z M541 581 C493 614 429 638 354 638 C206 638 61 478 61 315 C61 151 202 -9 345 -9 C419 -9 487 13 537 44 L537 44 C565 62 595 64 596 48 C596 44 597 38 597 34 L602 34 L602 103 L541 581 L541 581 Z " />
<glyph glyph-name="D_sc" unicode="&#x1d05;" horiz-adv-x="702" d="M218 3 C173 3 159 18 159 34 L159 624 L241 624 C434 624 589 471 589 314 C589 141 405 3 218 3 L218 3 Z M222 0 C437 0 647 140 647 314 C647 472 472 627 254 627 L106 627 L106 0 L222 0 L222 0 Z " />
<glyph glyph-name="E_sc" unicode="&#x1d07;" horiz-adv-x="500" d="M367 237 L367 322 L368 322 L368 326 L367 326 L367 411 L358 411 L355 398 C348 362 302 326 262 326 L159 326 L159 624 L322 624 C363 624 413 588 424 552 L429 539 L438 539 C435 560 430 601 427 624 L428 624 L428 627 L106 627 L106 0 L453 0 L453 1 C457 20 464 59 467 78 L458 78 L453 66 C440 34 377 3 324 3 L193 3 C167 3 159 18 159 34 L159 322 L262 322 C302 322 348 286 355 250 L358 237 L367 237 L367 237 Z " />
<glyph glyph-name="J_sc" unicode="&#x1d0a;" horiz-adv-x="260" d="M113 -28 C113 -160 41 -214 1 -214 C-21 -214 -17 -172 -39 -172 C-51 -172 -63 -183 -63 -195 C-63 -208 -33 -220 -3 -220 C57 -220 166 -134 166 72 L166 627 L113 627 L113 -28 L113 -28 Z " />
<glyph glyph-name="K_sc" unicode="&#x1d0b;" horiz-adv-x="554" d="M552 3 C532 3 502 22 476 48 L200 347 L384 559 C417 596 463 624 495 624 L495 627 L318 627 L318 624 L334 624 C378 624 379 574 336 524 L336 524 L159 314 L159 627 L106 627 L106 0 L159 0 L159 314 L454 0 L552 0 L552 3 L552 3 Z " />
<glyph glyph-name="M_sc" unicode="&#x1d0d;" horiz-adv-x="705" d="M52 624 C71 624 90 607 104 582 L86 49 C83 26 69 4 55 4 L49 4 L49 1 L138 1 L138 4 C119 4 107 20 105 47 L118 552 C197 369 275 185 355 2 L368 2 L587 582 C592 406 598 229 602 54 C603 29 589 4 575 4 L569 4 L569 1 L692 1 L692 4 L686 4 C672 4 658 26 656 50 C650 225 644 400 638 575 C637 600 650 625 665 625 L671 625 L671 628 L586 628 L381 72 L149 628 L52 628 L52 624 L52 624 Z " />
<glyph glyph-name="O_sc" unicode="&#x1d0f;" horiz-adv-x="748" d="M120 314 C120 475 245 633 372 633 C505 633 635 475 635 314 C635 152 501 -6 364 -6 C241 -6 120 152 120 314 L120 314 Z M63 314 C63 150 212 -10 363 -10 C530 -10 693 150 693 314 C693 477 535 637 373 637 C216 637 63 477 63 314 L63 314 Z " />
<glyph glyph-name="P_sc" unicode="&#x1d18;" horiz-adv-x="455" d="M173 0 L173 294 L213 294 C325 294 435 360 435 452 C435 540 344 627 252 627 L120 627 L120 0 L173 0 L173 0 Z M173 305 L173 618 L239 618 C313 618 386 540 386 461 C386 370 300 305 213 305 L173 305 L173 305 Z " />
<glyph glyph-name="T_sc" unicode="&#x1d1b;" horiz-adv-x="733" d="M682 627 C682 627 683 625 684 622 L684 620 L681 627 L682 627 L682 627 Z M713 539 C704 560 688 600 680 621 L679 621 L679 627 L55 627 C55 627 54 625 53 622 L53 620 L55 625 L55 614 C55 614 27 542 26 539 L35 539 L43 551 C63 583 124 614 167 614 L340 614 L340 0 L393 0 L393 614 L572 614 C615 614 676 583 696 551 L704 539 L713 539 L713 539 Z " />
<glyph glyph-name="U_sc" unicode="&#x1d1c;" horiz-adv-x="536" d="M446 0 L467 6 C469 7 471 7 473 7 L473 627 L420 627 L420 160 C388 91 282 24 205 24 C165 24 125 115 125 207 L125 627 L72 627 L72 207 C72 97 127 -10 183 -10 C268 -10 385 63 420 137 L420 0 L446 0 L446 0 Z " />
<glyph glyph-name="V_sc" unicode="&#x1d20;" horiz-adv-x="598" d="M582 627 L423 627 L423 624 L438 624 C480 624 503 574 483 524 L483 524 L311 78 L131 535 C117 581 133 624 166 624 L179 624 L179 627 L10 627 L10 624 L13 624 C24 624 53 574 72 524 L72 524 C140 346 208 168 276 -10 L287 -10 C359 168 430 347 502 524 C522 574 558 624 575 624 L581 624 L582 627 L582 627 Z " />
<glyph glyph-name="W_sc" unicode="&#x1d21;" horiz-adv-x="872" d="M153 627 L11 627 L11 624 L15 624 C25 624 47 588 61 550 C126 363 191 176 257 -11 L270 -11 L460 395 C505 260 550 124 595 -11 L609 -11 C670 174 730 359 791 543 C804 583 836 623 855 623 L862 623 L862 626 L702 626 L702 623 L716 623 C755 623 781 587 773 549 L621 71 C570 228 519 385 469 542 C456 582 476 622 510 622 L522 622 L522 625 L354 625 L354 622 L359 622 C370 622 392 591 406 556 C421 509 438 462 452 416 L291 62 L120 548 C109 586 120 622 144 622 L153 622 L153 627 L153 627 Z " />
<glyph glyph-name="Z_sc" unicode="&#x1d22;" horiz-adv-x="586" d="M71 538 L75 550 C85 582 146 614 199 614 L511 617 L25 11 L25 0 L565 0 L569 16 L568 16 C571 30 578 60 585 91 L576 91 L570 79 C556 47 491 15 438 15 L89 12 L569 617 L569 627 L524 627 L520 628 L519 627 L70 627 L69 613 L69 613 L62 538 L71 538 L71 538 Z " />
<glyph glyph-name="Wgrave" unicode="&#x1e80;" horiz-adv-x="1015" d="M158 794 L9 794 L9 791 L13 791 C24 791 47 751 60 711 L60 711 C139 471 219 232 296 -9 L311 -9 L312 -4 L541 505 C595 334 649 162 703 -9 L718 -9 L936 714 C948 753 978 792 997 792 L1004 792 L1004 795 L842 795 L842 792 L856 792 C895 792 922 755 914 717 L729 83 L537 717 C528 755 549 792 582 792 L594 792 L594 795 L420 795 L420 792 L425 792 C437 792 462 752 475 712 L475 712 L533 530 L331 73 C262 286 193 499 124 712 C111 752 123 792 148 792 L157 792 L158 794 L158 794 Z M290 1050 C290 1045 325 1012 360 981 L499 858 L506 865 L383 1004 C352 1039 319 1074 314 1074 C303 1074 290 1061 290 1050 L290 1050 Z " />
<glyph glyph-name="Wacute" unicode="&#x1e82;" horiz-adv-x="1015" d="M504 857 L643 980 C678 1012 713 1045 713 1049 C713 1060 700 1073 689 1073 C685 1073 652 1038 620 1003 L497 864 L504 857 L504 857 Z M158 794 L9 794 L9 791 L13 791 C24 791 47 751 60 711 L60 711 C139 471 219 232 296 -9 L311 -9 L312 -4 L541 505 C595 334 649 162 703 -9 L718 -9 L936 714 C948 753 978 792 997 792 L1004 792 L1004 795 L842 795 L842 792 L856 792 C895 792 922 755 914 717 L729 83 L537 717 C528 755 549 792 582 792 L594 792 L594 795 L420 795 L420 792 L425 792 C437 792 462 752 475 712 L475 712 L533 530 L331 73 C262 286 193 499 124 712 C111 752 123 792 148 792 L157 792 L158 794 L158 794 Z " />
<glyph glyph-name="Wdieresis" unicode="&#x1e84;" horiz-adv-x="1015" d="M567 909 C583 909 599 925 599 941 C599 958 583 974 567 974 C551 974 535 958 535 941 C535 925 551 909 567 909 L567 909 Z M427 909 C443 909 459 925 459 941 C459 958 443 974 427 974 C411 974 395 958 395 941 C395 925 411 909 427 909 L427 909 Z M158 794 L9 794 L9 791 L13 791 C24 791 47 751 60 711 L60 711 C139 471 219 232 296 -9 L311 -9 L312 -4 L541 505 C595 334 649 162 703 -9 L718 -9 L936 714 C948 753 978 792 997 792 L1004 792 L1004 795 L842 795 L842 792 L856 792 C895 792 922 755 914 717 L729 83 L537 717 C528 755 549 792 582 792 L594 792 L594 795 L420 795 L420 792 L425 792 C437 792 462 752 475 712 L475 712 L533 530 L331 73 C262 286 193 499 124 712 C111 752 123 792 148 792 L157 792 L158 794 L158 794 Z " />
<glyph glyph-name="Etilde" unicode="&#x1ebc;" horiz-adv-x="573" d="M141 914 C141 947 167 980 194 980 C245 980 346 915 397 915 C433 915 468 962 468 1010 L465 1010 C465 980 437 950 409 950 C358 950 257 1015 206 1015 C172 1015 138 965 138 914 L141 914 L141 914 Z M440 323 L440 408 L441 408 L441 412 L440 412 L440 497 L431 497 L428 484 C421 448 375 412 335 412 L164 412 L164 790 L395 790 C436 790 486 754 497 718 L502 705 L511 705 C508 726 503 767 500 790 L501 790 L501 794 L105 794 L105 0 L526 0 L526 2 C530 21 537 60 540 79 L531 79 L526 67 C513 35 450 4 397 4 L198 4 C172 4 164 19 164 34 L164 408 L335 408 C375 408 421 372 428 336 L431 323 L440 323 L440 323 Z " />
<glyph glyph-name="Ygrave" unicode="&#x1ef2;" horiz-adv-x="628" d="M632 794 L505 794 L505 791 L523 791 C549 791 562 767 551 741 L347 363 C275 487 202 612 131 736 C115 764 121 791 144 791 L152 791 L152 794 L9 794 L9 791 C21 791 44 766 61 736 L61 736 L290 349 L290 0 L349 0 L349 357 L560 741 C579 771 607 791 632 791 L632 794 L632 794 Z M114 1049 C114 1044 149 1011 184 980 L323 857 L329 864 L207 1003 C177 1038 144 1073 139 1073 C128 1073 114 1060 114 1049 L114 1049 Z " />
<glyph glyph-name="quoteleft" unicode="&#x2018;" horiz-adv-x="585" d="M76 676 C75 677 75 678 75 679 C75 729 102 785 130 792 L120 803 C90 795 61 729 61 669 C61 652 75 636 90 636 C102 636 114 647 114 659 C114 678 88 692 76 675 L76 676 L76 676 Z " />
<glyph glyph-name="quoteright" unicode="&#x2019;" horiz-adv-x="63" d="M92 765 C92 710 75 653 58 648 L69 637 C89 642 108 711 108 775 C108 790 93 804 78 804 C66 804 54 792 54 780 C54 761 80 749 92 765 L92 765 Z " />
<glyph glyph-name="quotedblleft" unicode="&#x201c;" horiz-adv-x="585" d="M137 676 C136 677 136 678 136 679 C136 729 163 785 191 792 L181 803 C151 795 122 729 122 669 C122 652 136 636 151 636 C163 636 175 647 175 659 C175 678 149 692 137 675 L137 676 L137 676 Z M64 675 C63 676 63 677 63 678 C63 728 90 784 118 791 L108 802 C78 794 49 728 49 668 C49 651 63 635 78 635 C90 635 102 646 102 658 C102 677 76 691 64 674 L64 675 L64 675 Z " />
<glyph glyph-name="quotedblright" unicode="&#x201d;" horiz-adv-x="585" d="M165 765 C165 710 149 652 132 648 L143 637 C162 642 181 710 181 775 C181 790 166 804 151 804 C139 804 128 792 128 780 C128 761 153 749 165 765 L165 765 Z M92 765 C92 710 75 653 58 648 L69 637 C89 642 108 711 108 775 C108 790 93 804 78 804 C66 804 54 792 54 780 C54 761 80 749 92 765 L92 765 Z " />
<glyph glyph-name="perthousand" unicode="&#x2030;" horiz-adv-x="1178" d="M907 215 C907 315 958 414 1010 414 C1065 414 1119 306 1119 195 C1119 94 1067 -5 1014 -5 C960 -5 907 104 907 215 L907 215 Z M858 206 C858 97 935 -10 1013 -10 C1090 -10 1166 100 1166 212 C1166 316 1090 418 1013 418 C935 418 858 313 858 206 L858 206 Z M79 597 C79 700 130 800 182 800 C237 800 291 690 291 577 C291 478 239 381 186 381 C132 381 79 488 79 597 L79 597 Z M30 588 C30 481 107 376 185 376 C262 376 338 484 338 594 C338 700 262 804 185 804 C107 804 30 697 30 588 L30 588 Z M552 215 C552 315 604 413 657 413 C715 413 771 305 771 195 C771 94 716 -5 660 -5 C605 -5 552 104 552 215 L552 215 Z M503 205 C503 96 580 -10 659 -10 C739 -10 818 100 818 212 C818 316 739 418 659 418 C580 418 503 313 503 205 L503 205 Z M188 -2 L666 792 L659 796 L181 2 L188 -2 L188 -2 Z " />
<glyph glyph-name="fraction" unicode="&#x2044;" horiz-adv-x="517" d="M33 -2 L512 792 L505 796 L27 2 L33 -2 L33 -2 Z " />
<glyph glyph-name="Euro" unicode="&#x20ac;" horiz-adv-x="789" d="M743 61 L743 130 L735 136 C735 137 742 132 743 131 L743 172 L730 172 C729 168 725 162 724 158 C711 127 665 76 627 51 C573 18 508 -5 442 -5 C321 -5 202 156 179 337 L504 337 L509 373 L176 373 C175 390 175 407 176 424 L509 424 L514 460 L179 460 C203 641 327 802 453 802 C511 802 567 781 616 751 C661 723 715 666 729 624 L742 624 L742 733 L737 733 C737 729 736 723 736 719 C734 704 710 706 684 722 C624 769 544 806 451 806 C296 806 144 643 115 460 L59 460 L54 424 L111 424 C110 407 110 390 111 373 L54 373 L49 337 L115 337 C143 154 290 -9 440 -9 C536 -9 624 27 685 73 C711 89 736 91 737 75 C737 71 738 65 738 61 L743 61 L743 61 Z " />
<glyph glyph-name="F_sc" unicode="&#xa730;" horiz-adv-x="475" d="M348 411 L345 398 C338 362 292 326 252 326 L159 326 L159 625 L322 625 C363 625 413 589 424 553 L429 540 L438 540 C435 562 430 603 427 625 L428 625 L428 627 L106 627 L106 0 L159 0 L159 322 L252 322 C292 322 338 286 345 250 L348 237 L357 237 L357 322 L358 322 L358 326 L357 326 L357 411 L348 411 L348 411 Z " />
<glyph glyph-name="S_sc" unicode="&#xa731;" horiz-adv-x="503" d="M53 161 L53 27 L58 27 C58 32 59 42 59 47 C60 68 87 70 115 53 C163 16 227 -11 280 -11 C373 -11 464 69 464 150 C464 206 389 296 296 340 C196 387 116 463 116 502 C116 568 172 632 229 632 C231 632 285 625 284 622 C334 605 396 547 408 498 L421 498 L421 596 L416 596 C416 593 415 588 415 585 C414 573 389 576 366 591 C351 601 334 610 316 617 C306 622 296 626 287 629 L286 627 C267 632 247 635 229 635 C151 635 75 559 75 481 C75 426 159 333 264 284 C352 243 422 172 422 133 C422 62 352 -7 280 -7 C249 -7 213 5 179 23 C138 47 87 105 73 144 C72 148 68 155 67 159 L53 161 L53 161 Z " />
<glyph glyph-name="X_sc" unicode="&#xf078;" horiz-adv-x="590" d="M592 627 L452 627 L452 624 L470 624 C498 624 506 597 486 569 L325 341 L170 575 C156 601 161 624 182 624 L190 624 L190 627 L54 627 L54 624 C66 624 91 599 110 569 L110 569 L286 303 L103 55 C79 25 46 3 21 3 L21 0 L159 0 L159 3 L141 3 C115 3 106 26 121 52 L293 293 L452 52 C466 26 461 3 440 3 L432 3 L432 0 L568 0 L568 3 C556 3 531 28 512 58 L512 58 L327 337 C387 414 446 492 506 569 C529 600 566 624 592 624 L592 627 L592 627 Z " />
</font>
</svg>
