<?xml version="1.0" encoding="UTF-8"?>
<svg xmlns="http://www.w3.org/2000/svg" xmlns:xlink="http://www.w3.org/1999/xlink" version="1.2" >
<font id="Afrah Round">
<font-face  font-family="Afrah" units-per-em="1024" ascent="1032" descent="-300" font-style="normal" font-weight="400" font-stretch="normal" cap-height="1087" x-height="516" underline-position="-125" underline-thickness="50" />
<missing-glyph  horiz-adv-x="100" d="" />
<glyph glyph-name="NULL" d="" />
<glyph glyph-name="CR" unicode="&#xd;" horiz-adv-x="256" d="" />
<glyph glyph-name="space" unicode="&#x20;" horiz-adv-x="283" d="" />
<glyph glyph-name="exclam" unicode="&#x21;" horiz-adv-x="214" d="M107 -5 C128 -5 149 16 149 37 C149 59 128 80 107 80 C86 80 65 59 65 37 C65 16 86 -5 107 -5 L107 -5 Z M107 799 C83 799 67 754 70 709 L100.646 233.489 C100.841 230.465 103.47 228 106.5 228 C109.529 228 112.164 230.465 112.365 233.488 L144 709 C147 754 131 799 107 799 L107 799 Z " />
<glyph glyph-name="quotedbl" unicode="&#x22;" horiz-adv-x="351" d="M215 794 C203 794 194 772 197 749 L217.427 607.959 C217.74 605.796 219.815 604 222 604 C224.185 604 226.26 605.796 226.573 607.959 L247 749 C250 772 241 794 229 794 L215 794 L215 794 Z M95 794 C83 794 74 772 77 749 L97.4267 607.959 C97.7399 605.796 99.8149 604 102 604 C104.185 604 106.26 605.796 106.573 607.959 L127 749 C130 772 121 794 109 794 L95 794 L95 794 Z " />
<glyph glyph-name="numbersign" unicode="&#x23;" horiz-adv-x="570" d="M420.5 717.536 L400.601 579.663 C396.448 550.893 368.86 527 339.791 527 L295.944 527 C257.187 527 229.598 558.857 235.134 597.217 L252.429 717.041 C252.741 719.204 251.185 721 249 721 C246.815 721 244.741 719.204 244.429 717.041 L224.601 579.663 C220.448 550.893 192.86 527 163.791 527 L94.1948 527 C81.4995 527 69.642 516.589 68 504 C66.358 491.411 75.4995 481 88.1948 481 L139.12 481 C177.848 481 205.436 449.173 199.938 410.838 L180.56 275.718 C176.43 246.914 148.841 223 119.743 223 L48.1948 223 C35.4995 223 23.642 212.589 22 200 C20.358 187.411 29.4995 177 42.1948 177 L95.8756 177 C134.717 177 162.308 145.06 156.663 106.631 L141.581 3.95753 C141.264 1.79629 142.816 0 145 0 C147.184 0 149.264 1.79629 149.581 3.95753 L167.287 124.489 C171.499 153.166 199.09 177 228.074 177 L271.876 177 C310.717 177 338.308 145.06 332.663 106.631 L317.509 3.46284 C317.231 1.57175 318.589 0 320.5 0 C322.411 0 324.231 1.57175 324.509 3.46284 L342.287 124.489 C346.499 153.166 374.09 177 403.074 177 L468.735 177 C481.431 177 493.59 187.449 495.5 200 C497.41 212.551 488.431 223 475.735 223 L426.88 223 C388.152 223 360.564 254.827 366.062 293.162 L385.44 428.282 C389.57 457.086 417.159 481 446.257 481 L520.805 481 C533.5 481 545.358 491.411 547 504 C548.642 516.589 539.5 527 526.805 527 L470.944 527 C432.187 527 404.598 558.857 410.134 597.217 L427.5 717.536 C427.773 719.428 426.412 721 424.5 721 C422.588 721 420.773 719.428 420.5 717.536 L420.5 717.536 Z M271.257 481 L315.12 481 C353.848 481 381.436 449.173 375.938 410.838 L356.56 275.718 C352.43 246.914 324.841 223 295.743 223 L251.88 223 C213.152 223 185.564 254.827 191.062 293.162 L210.44 428.282 C214.57 457.086 242.159 481 271.257 481 L271.257 481 Z " />
<glyph glyph-name="dollar" unicode="&#x24;" horiz-adv-x="574" d="M52 189.917 L52 59 L57 59 C57 64 58 74 58 79 C59 101 89 99 117 75 C145.875 50.25 179.514 28.9031 213.988 13.767 C223.55 9.56817 236 -6.85505 236 -17.2991 L236 -64 C236 -70.0717 240.928 -75 247 -75 C253.072 -75 258 -70.0717 258 -64 L258 -12.4403 C258 -7.08345 261.976 -3.22038 267.163 -4.55621 C280.813 -8.07101 294.057 -10.1479 307.227 -10.787 C312.211 -11.0288 316 -15.5104 316 -20.5 L316 -65 C316 -71.0717 320.928 -76 327 -76 C333.072 -76 338 -71.0717 338 -65 L338 -42.5 C338 -27.3011 353.666 -6.91716 368.274 -2.72 C457.86 23.02 534 108.7 534 196 C534 260.8 464.34 358 370.218 414.7 C356.159 423.17 338 454.501 338 470.915 L338 781 C340 780 363 770 362 769 C402 748 457 691 472 653 C473 649 477 643 478 639 L484.5 639 C488.088 639 491 641.912 491 645.5 L491 740 L486 740 L485 729 C484 717 461 722 440 738 C416.075 756.15 388.066 771.577 357.097 783.159 C347.818 786.63 337 800.496 337 810.402 L337 857 C337 863.072 332.072 868 326 868 C319.928 868 315 863.072 315 857 L315 806.308 C315 800.906 311.111 796.995 305.837 798.162 C292.187 801.181 278.943 803.168 265.773 803.791 C260.782 804.027 257 808.504 257 813.5 L257 858 C257 864.072 252.072 869 246 869 C239.928 869 235 864.072 235 858 L235 835.5 C235 821.498 215.979 798.301 202.889 793.332 C129.484 765.469 69 686.5 69 606 C69 551.1 125.7 471.09 207.024 410.439 C217.957 402.285 235 371.179 235 357.541 L235 27.5399 C235 21.0165 228.964 17.6318 223.098 20.4854 C203.83 29.8588 184.229 41.7429 166 55 C130 84 85 143 70 180 C69 184 65 190 64 194 L58 195 C54.7332 195.544 52 193.229 52 189.917 L52 189.917 Z M267.263 370.281 C279.666 363.608 292.334 357.539 304.737 351.279 C309.551 348.849 315 340.657 315 335.265 L315 4.5 C315 -1.07577 311.792 -5.0727 306.227 -4.71962 C293.057 -3.88393 279.813 -1.20482 266.163 2.98589 C260.596 4.69508 257 10.7714 257 16.5948 L257 365.023 C257 370.171 262.729 372.721 267.263 370.281 L267.263 370.281 Z M376.867 306.771 C435.843 261.996 476 209.65 476 175 C476 106.15 428.315 38.0225 369.178 9.9215 C347.529 -0.366063 337 12.2932 337 36.2626 L337 287.093 C337 310.367 358.33 320.843 376.867 306.771 L376.867 306.771 Z M257 487.817 L257 788.5 C257 794.069 260.214 798.069 265.773 797.723 C278.943 796.904 292.187 794.315 305.837 790.62 C311.359 789.125 315 783.281 315 777.56 L315 453.18 C315 447.543 309.656 444.686 304.705 447.38 C291.734 454.438 279.051 462.347 266.939 470.264 C262.71 473.028 257 482.764 257 487.817 L257 487.817 Z M203.489 518.218 C155.947 559.957 126 603.125 126 632 C126 694.9 162.848 756.355 210.135 783.202 C226.899 792.72 236 782.712 236 763.434 L236 533.1 C236 514.159 217.723 505.721 203.489 518.218 L203.489 518.218 Z " />
<glyph glyph-name="percent" unicode="&#x25;" horiz-adv-x="834" d="M89 599 C89 700 136 799 183 799 C234 799 284 688 284 575 C284 478 236 382 188 382 C138 382 89 489 89 599 L89 599 Z M30 587 C30 480 107 376 186 376 C264 376 340 484 340 595 C340 701 264 804 186 804 C107 804 30 697 30 587 L30 587 Z M561 216 C561 315 609 412 657 412 C712 412 765 303 765 192 C765 93 714 -4 662 -4 C611 -4 561 105 561 216 L561 216 Z M502 205 C502 96 580 -10 660 -10 C742 -10 822 100 822 213 C822 317 742 418 660 418 C580 418 502 313 502 205 L502 205 Z M192.54 2.21891 L665.693 788.169 C666.963 790.277 666.201 792.899 664 794 C661.799 795.1 658.961 794.278 657.69 792.171 L183.544 6.21656 C182.151 3.90719 183.035 1.09538 185.5 -4.44089e-016 C187.965 -1.09551 191.149 -0.0920159 192.54 2.21891 L192.54 2.21891 Z " />
<glyph glyph-name="ampersand" unicode="&#x26;" horiz-adv-x="856" d="M313.5 468.5 C315.284 466.716 320.529 466.09 322.922 466.891 C399.851 492.636 474 563.25 474 612 C474 709 395 804 315 804 C232 804 151 704 151 602 C151 574.7 196.63 510.326 250.816 443.171 C251.698 442.077 251.834 439.055 250.5 439.5 C248.876 440.041 240.045 439.078 238.43 438.512 C140.112 404.068 46 288.725 46 200 C46 94 145 -10 245 -10 C312.275 -10 402.365 52.7413 488.391 148.564 C493.142 153.856 499.398 150.829 504 145.406 C518 128.91 532 112.294 546 95 C591 41 667 -11 700 -11 C755.575 -11 818.755 63.1488 831.148 140.078 C831.67 143.321 829.587 146.878 826.5 148 C823.623 149.046 820.878 148.754 820.401 145.73 C811.653 90.2844 765.95 38 725 38 C699 38 636 82 598 127 C579.85 148.45 562.381 169.219 545.03 189.308 C539.527 195.68 540.398 210.169 545.495 216.87 C616.029 309.596 679.76 421.061 721.652 533.852 C723.016 537.527 721.42 543 717.5 543 C713.667 543 708.074 537.74 706.725 534.152 C671.256 439.805 618.859 346.497 560.798 267.03 C541.048 239.999 505.898 236.066 484.191 261.553 C399.016 361.563 337 432 337 432 C270 512 204 599 204 633 C204 712 259 789 315 789 C371 789 425 703 425 615 C425 561.375 370.814 493.015 314.347 472.947 C312.125 472.158 311.833 470.167 313.5 468.5 L313.5 468.5 Z M444.123 133.26 C384.651 78.3506 326.2 45 280 45 C194 45 109 131 109 218 C109 291.1 161.02 379.373 222.685 418.948 C243.845 432.528 263.157 425.865 279.355 406.637 C313.259 366.389 353.449 322.119 450.972 207.171 C471.268 183.249 467.174 154.542 444.123 133.26 L444.123 133.26 Z " />
<glyph glyph-name="quotesingle" unicode="&#x27;" horiz-adv-x="216" d="M95 794 C83 794 74 772 77 749 L97.4267 607.959 C97.7399 605.796 99.8149 604 102 604 C104.185 604 106.26 605.796 106.573 607.959 L127 749 C130 772 121 794 109 794 L95 794 L95 794 Z " />
<glyph glyph-name="parenleft" unicode="&#x28;" horiz-adv-x="213" d="M190.83 797.632 C123.692 712.032 60 517.3 60 295 C60 72.7 123.692 -122.032 190.83 -207.632 C192.454 -209.702 197.502 -212.712 199.5 -211 C201.328 -209.433 200.781 -205.321 199.328 -203.402 C151.63 -140.411 106 47.35 106 295 C106 542.65 151.63 730.411 199.328 793.402 C200.781 795.321 201.328 799.433 199.5 801 C197.502 802.712 192.454 799.702 190.83 797.632 L190.83 797.632 Z " />
<glyph glyph-name="parenright" unicode="&#x29;" horiz-adv-x="165" d="M10.0473 793.978 C62.6169 749.569 113 507.55 113 295 C113 82.45 62.6169 -159.569 10.0473 -203.978 C8.57561 -205.221 7.04417 -208.827 8 -210.5 C9.19531 -212.592 13.5872 -211.522 15.472 -210.021 C86.555 -153.427 155 91.225 155 295 C155 498.775 86.555 743.427 15.472 800.021 C13.5872 801.522 9.19531 802.592 8 800.5 C7.04417 798.827 8.57561 795.221 10.0473 793.978 L10.0473 793.978 Z " />
<glyph glyph-name="asterisk" unicode="&#x2a;" horiz-adv-x="276" d="M269 716 L269 716 L269 716 Z M250.584 594.795 C259.375 590.625 270.75 593.25 276 602 C280.063 609.313 277.523 619.266 270.528 624.886 C267.063 627.671 267.159 631.683 264.911 627.848 C263.912 626.144 254.784 610.554 249.729 601.236 C248.215 598.446 247.716 596.155 250.584 594.795 L250.584 594.795 Z M274.065 719.584 C279.53 724.818 282.188 732.858 280.416 740.131 C279.077 745.626 280.555 743.203 276.4 747.041 C271.04 751.993 262.667 753.459 255.504 750.465 C251.285 748.701 250.766 745.771 253.183 741.89 L266.044 721.245 C268.204 717.779 271.115 716.759 274.065 719.584 L274.065 719.584 Z M40 628 C30 623 25 610 31 600 C37 590 50 588.5 59 596.5 L103.5 632.25 C120.325 645.766 143.066 632.845 140.066 611.472 L132 554 C130 542 139 531 150 531 C161 531 170 542 168 554 C163.769 587 158.822 620 154.371 653 C153.356 660.526 161.452 663.5 167.4 658.78 L229.96 609.141 C237.628 603.056 248.084 605.034 253 613.5 C257.914 621.963 254.44 632.01 245.348 635.63 L208 650.5 C187.378 658.711 187.294 685.498 207.865 693.837 L248.39 710.266 C257.467 713.946 260.918 724.029 256 732.5 C251.08 740.974 240.604 742.99 232.89 736.948 L198.943 710.357 C180.662 696.038 156.415 710.001 159.625 733 L168 793 C170 805 161 816 150 816 C139 816 130 805 132 793 L140.596 732.827 C143.781 710.533 120.122 696.978 102.5 711 L56 748 C47 755 33 753 28 743 C23 733 28 720 39 716 L94.5166 693.541 C115.41 685.089 115.4 657.937 94.5 649.5 L40 627.5 L40 628 Z " />
<glyph glyph-name="plus" unicode="&#x2b;" horiz-adv-x="647" d="M300 469.5 L300 352.44 C300 318.527 272.473 291 238.56 291 L121.5 291 C109.633 291 100 281.367 100 269.5 C100 257.633 109.633 248 121.5 248 L238.56 248 C272.473 248 300 220.473 300 186.56 L300 69.5 C300 56.5287 310.529 46 323.5 46 C336.471 46 347 56.5287 347 69.5 L347 186.56 C347 220.473 374.527 248 408.44 248 L525.5 248 C537.367 248 547 257.633 547 269.5 C547 281.367 537.367 291 525.5 291 L408.44 291 C374.527 291 347 318.527 347 352.44 L347 469.5 C347 482.471 336.471 493 323.5 493 C310.529 493 300 482.471 300 469.5 L300 469.5 Z " />
<glyph glyph-name="comma" unicode="&#x2c;" horiz-adv-x="259" d="M174.837 26.0591 C186.743 -32.1949 147.865 -88.1129 95.5786 -104.319 C95.5786 -104.319 93.7342 -102.876 93.7342 -102.876 L94.8603 -106.714 C94.8603 -106.714 93.0159 -105.271 93.0159 -105.271 C144.927 -91.5325 189 -41.85 189 10 C189 39 179 68 165 88 C155 103 140 114 125 114 C95 114 65 84 65 54 C65 24 95 -6 125 -6 C141.774 -6 158.548 7.71696 167.653 25.7113 C169.308 28.982 174.103 29.6504 174.837 26.0591 L174.837 26.0591 Z " />
<glyph glyph-name="hyphen" unicode="&#x2d;" horiz-adv-x="457" d="M105 285 L352 285 C365.799 285 377 296.201 377 310 C377 323.799 365.799 335 352 335 L105 335 C91.2007 335 80 323.799 80 310 C80 296.201 91.2007 285 105 285 L105 285 Z " />
<glyph glyph-name="period" unicode="&#x2e;" horiz-adv-x="195" d="M125 -5 C146 -5 167 16 167 37 C167 59 146 80 125 80 C104 80 83 59 83 37 C83 16 104 -5 125 -5 L125 -5 Z " />
<glyph glyph-name="slash" unicode="&#x2f;" horiz-adv-x="382" d="M310.585 796.834 L39.4149 -62.8338 C36.5645 -71.8701 42.5248 -80 52 -80 C61.4752 -80 72.5645 -71.8701 75.4149 -62.8338 L346.585 796.834 C349.436 805.87 343.475 814 334 814 C324.525 814 313.436 805.87 310.585 796.834 L310.585 796.834 Z " />
<glyph glyph-name="zero" unicode="0" horiz-adv-x="651" d="M76 272 C76 389 200 529 327 529 C441 529 578 402 578 272 C578 155 454 15 327 15 C213 15 76 142 76 272 L76 272 Z M48 272 C48 130 200 -10 327 -10 C468 -10 606 144 606 272 C606 414 454 554 327 554 C186 554 48 400 48 272 L48 272 Z " />
<glyph glyph-name="one" unicode="1" horiz-adv-x="185" d="M123 30.5 L123 513.5 C123 530.335 109.335 544 92.5 544 C75.6649 544 62 530.335 62 513.5 L62 30.5 C62 13.6649 75.6649 0 92.5 0 C109.335 0 123 13.6649 123 30.5 L123 30.5 Z " />
<glyph glyph-name="two" unicode="2" horiz-adv-x="558" d="M58.5642 324.197 C80.6894 417.691 171.925 508 247 508 C323 508 398 434 398 359 C398 253 192 93 21 6 C19.123 5.04505 22.7863 4.72405 24.5 3.5 L25.123 3.05499 C26.2195 2.27179 25.8339 0.690561 24.5 0.5 C24.2268 0.46097 24.2595 0 24.5355 0 L453 0 C456 4 486 53 486 53 L492.123 63.0463 C492.163 63.1111 491.804 64.2904 491.738 64.2522 C482.258 58.7384 448.615 53 419 53 L223.755 53 C196.627 53 190.524 93.0376 212.975 108.265 C346.377 198.749 458 303.05 458 374 C458 465 369 555 278 555 C185.375 555 73.7375 444.728 46.8958 329.844 C46.0749 326.331 47.5771 320.141 51 319 C54.1781 317.941 57.7927 320.937 58.5642 324.197 L58.5642 324.197 Z " />
<glyph glyph-name="three" unicode="3" horiz-adv-x="443" d="M19 -226 C19.5656 -229.394 31.0541 -230.757 34.4665 -230.316 C222.381 -206.061 403 -90.475 403 8 C403 79.775 313.838 150.189 204.581 177.128 C188.054 181.203 180.322 211.788 195.184 220.087 C309.52 283.935 402 363.75 402 419 C402 488 317 555 230 555 C145.175 555 46.0906 479.901 23.5791 401.997 C22.4857 398.213 24.7357 395.158 28.5 394 C31.898 392.954 35.2003 393.155 36.1818 396.572 C53.2419 455.963 135.8 513 206 513 C273 513 338 457 338 399 C338 332.7 223.925 239.783 104.218 186.981 C101.301 185.695 95.1841 179.931 95.375 176.75 C95.571 173.483 101.813 169.627 105.041 169.09 C225.687 149.035 340 62.175 340 -9 C340 -98 181 -203 18 -220 C14.6669 -220.348 18.4491 -222.694 19 -226 L19 -226 Z " />
<glyph glyph-name="four" unicode="4" horiz-adv-x="671" d="M598 46 L503.44 46 C469.527 46 442 73.527 442 107.44 L442 572 C442 574.208 440.208 576 438 576 C436.227 576 432.674 574.212 431.617 572.787 L18.2762 15.4178 C17.199 13.9652 15 7.30835 15 5.5 C15 2.46416 17.4642 0 20.5 0 L319.56 0 C353.473 0 381 -27.527 381 -61.44 L381 -189.5 C381 -206.335 394.665 -220 411.5 -220 C428.335 -220 442 -206.335 442 -189.5 L442 -61.44 C442 -27.527 469.527 0 503.44 0 L591 0 C616 0 637 -2 640 -5 L643 -5 C644.639 -5 646.192 -3.65294 646.424 -2.03015 L650 23 C651.895 33.4211 653.789 51.9197 655.684 63.191 C655.914 64.5598 654.861 65.2278 653.5 65.5 C652.407 65.7186 650.44 64.3821 649.92 63.3963 C643.942 52.0678 623.138 46 598 46 L598 46 Z M381.836 282.977 L381.216 107.223 C381.097 73.43 353.57 46 319.776 46 L190.613 46 C136.579 46 109.096 100.398 141.157 143.894 L271.44 320.648 C307.801 369.978 382.053 344.259 381.836 282.977 L381.836 282.977 Z " />
<glyph glyph-name="five" unicode="5" horiz-adv-x="457" d="M322 544 L161.401 544 C134.118 544 106.48 521.328 101.146 494.572 L50.4663 240.355 C49.7364 236.694 52.0132 230.74 55 228.5 C56.8838 227.087 66.1415 223.802 68.4945 223.712 L87 223 C232 223 374 126 374 28 C374 -79 218 -202 59 -222 C55.9773 -222.38 59.2242 -224.466 59.5 -227.5 C59.784 -230.624 70.7672 -231.541 73.8666 -231.06 C253.986 -203.063 427 -68.025 427 48 C427 169 262 287 94 287 L87.5 287 C83.9866 287 81.6051 289.925 82.3169 293.365 L112.948 441.415 C118.372 467.631 145.842 490.186 172.612 490.405 L350.245 491.855 C359.891 491.934 369.37 499.993 371 509.5 L374 527 L378.363 547.068 C378.706 548.65 377.618 550 376 550 L373 550 C370 547 346.5 544.5 322.5 544.5 L322 544 Z " />
<glyph glyph-name="six" unicode="6" horiz-adv-x="594" d="M557.288 793.548 C301.261 781.848 56 544.825 56 304 C56 145 180 -10 307 -10 C426 -10 542 120 542 253 C542 379 421 502 297 502 C242.55 502 188.781 468.649 151.976 420.478 C148.996 416.578 138.637 415.177 140.14 419.848 C204.51 619.842 389.95 785 579 785 C581.484 785 578.539 787.075 578 789.5 C577.43 792.063 559.912 793.668 557.288 793.548 L557.288 793.548 Z M116 272 C116 385 205 496 295 496 C389 496 482 377 482 256 C482 124 395 -5 306 -5 C210 -5 116 132 116 272 L116 272 Z " />
<glyph glyph-name="seven" unicode="7" horiz-adv-x="467" d="M78 540 L78 540 L78 540 Z M113 495 L430.199 495 C433.235 495 439.214 498.045 441 500.5 C441.441 501.106 442.49 500.494 442.179 499.812 L123.541 -199.072 C118.749 -209.583 125.449 -220 137 -220 C148.778 -220 164.19 -209.589 168.586 -198.663 L458.013 520.578 C458.629 522.108 461 534.352 461 536 C461 540.416 457.416 544 453 544 L104.539 544 C91.5679 544 74.079 532.436 69 520.5 L59 497 L55.2042 489.408 C54.5418 488.084 55.1248 486.55 56.5 486 C57.3261 485.67 60.7802 486.466 61.5432 486.923 C69.7407 491.84 89 495 113 495 L113 495 Z " />
<glyph glyph-name="eight" unicode="8" horiz-adv-x="569" d="M244.154 404.76 C251.769 400.769 259.385 397.385 267 394 C375 350 481 279 481 210 C481 101 384 -6 286 -6 C190 -6 96 88 96 184 C96 263.95 160.167 363.388 233.817 403.53 C235.919 404.676 242.033 405.871 244.154 404.76 L244.154 404.76 Z M189.945 385.058 C109.025 333.407 44 248.45 44 183 C44 85 164 -11 286 -11 C408 -11 528 86 528 184 C528 275.8 457.918 354.595 370.567 408.102 C354.62 417.871 355.238 449.625 371.035 459.636 C443.827 505.765 501 576.55 501 631 C501 718 394 803 284 803 C175 803 69 710 69 615 C69 557.25 121.748 486.568 189.062 437.207 C203.874 426.345 205.428 394.94 189.945 385.058 L189.945 385.058 Z M302.5 443 L288 449 C201 484 116 572 116 638 C116 720 200 800 286 800 C368 800 449 714 449 626 C449 563.1 395.951 484.799 332.592 445.707 C325.896 441.575 309.77 439.992 302.5 443 L302.5 443 Z " />
<glyph glyph-name="nine" unicode="9" horiz-adv-x="594" d="M36.7117 -249.548 C292.739 -237.848 538 -0.825 538 240 C538 399 414 554 287 554 C168 554 52 424 52 291 C52 165 173 42 297 42 C351.45 42 405.219 75.3506 442.024 123.522 C445.004 127.422 455.363 128.823 453.86 124.152 C389.49 -75.8425 204.05 -241 15 -241 C12.5161 -241 15.4612 -243.075 16 -245.5 C16.5696 -248.063 34.0885 -249.668 36.7117 -249.548 L36.7117 -249.548 Z M478 272 C478 159 389 48 299 48 C205 48 112 167 112 288 C112 420 199 549 288 549 C384 549 478 412 478 272 L478 272 Z " />
<glyph glyph-name="colon" unicode="&#x3a;" horiz-adv-x="135" d="M125 429 C146 429 167 450 167 471 C167 493 146 514 125 514 C104 514 83 493 83 471 C83 450 104 429 125 429 L125 429 Z M125 -5 C146 -5 167 16 167 37 C167 59 146 80 125 80 C104 80 83 59 83 37 C83 16 104 -5 125 -5 L125 -5 Z " />
<glyph glyph-name="semicolon" unicode="&#x3b;" horiz-adv-x="259" d="M125 429 C146 429 167 450 167 471 C167 493 146 514 125 514 C104 514 83 493 83 471 C83 450 104 429 125 429 L125 429 Z M174.837 26.0591 C186.743 -32.1949 147.865 -88.1129 95.5786 -104.319 C95.5786 -104.319 93.7342 -102.876 93.7342 -102.876 L94.8603 -106.714 C94.8603 -106.714 93.0159 -105.271 93.0159 -105.271 C144.927 -91.5325 189 -41.85 189 10 C189 39 179 68 165 88 C155 103 140 114 125 114 C95 114 65 84 65 54 C65 24 95 -6 125 -6 C141.774 -6 158.548 7.71696 167.653 25.7113 C169.308 28.982 174.103 29.6504 174.837 26.0591 L174.837 26.0591 Z " />
<glyph glyph-name="equal" unicode="&#x3d;" horiz-adv-x="556" d="M79 222 C79 214.824 84.8244 209 92 209 L473 209 C480.176 209 486 214.824 486 222 C486 229.176 480.176 235 473 235 L92 235 C84.8244 235 79 229.176 79 222 L79 222 Z M79 322 C79 314.824 84.8244 309 92 309 L473 309 C480.176 309 486 314.824 486 322 C486 329.176 480.176 335 473 335 L92 335 C84.8244 335 79 329.176 79 322 L79 322 Z " />
<glyph glyph-name="question" unicode="&#x3f;" horiz-adv-x="303" d="M125 -5 C146 -5 167 16 167 37 C167 59 146 80 125 80 C104 80 83 59 83 37 C83 16 104 -5 125 -5 L125 -5 Z M122.002 196.339 C122.051 205.086 123.05 380.025 125 381 C198 381 251 429 282 477 C297 500 311 554 311 586 C311 697 229 805 145 805 C116 805 88 783 88 760 C88 745 104 730 121 730 C133 730 155 741 167 741 C231 741 293 661 293 579 C293 561 281 525 269 506 C248 473 198 441 104 441 C108 442 112 196 112 196 C112 196 114.195 196 117 196 C119.759 196 121.986 193.58 122.002 196.339 L122.002 196.339 Z " />
<glyph glyph-name="at" unicode="&#x40;" horiz-adv-x="1185" d="M1078.46 -9.06758 C1015.03 -126.826 782.3 -239 599 -239 C348 -239 102 18 102 281 C102 543 345 800 593 800 C840 800 1083 589 1083 373 C1083 187 987 5 889 5 C792 5 721 110 746 218 L809.605 494.227 C813.045 509.166 802.83 522 787.5 522 C772.177 522 756.018 509.165 752.551 494.239 L743.056 453.372 C741.307 445.845 727.093 446.687 723.349 453.448 C697.969 499.288 648.325 534 598 534 C450 534 305 376 305 214 C305 112 396 13 489 13 C549.35 13 620.538 61.4075 664.487 123.831 C670.916 132.964 690.536 127.485 694.181 116.928 C720.028 42.0775 792.15 -15 878 -15 C1005 -15 1130 177 1130 373 C1130 597 864 817 593 817 C321 817 55 552 55 281 C55 13 331 -250 613 -250 C797.275 -250 1031.93 -132.123 1098.24 -9.44434 C1100.7 -4.88799 1098.18 0 1093 0 C1088.46 0 1080.61 -5.06945 1078.46 -9.06758 L1078.46 -9.06758 Z M726.32 379.722 L689 218 C669 131 585 45 520 45 C445 45 371 134 371 224 C371 371 483 516 597 516 C659.7 516 721.046 459.142 727.881 396.87 C728.089 394.984 726.747 381.571 726.32 379.722 L726.32 379.722 Z " />
<glyph glyph-name="A" unicode="A" horiz-adv-x="644" d="M446.329 0.0465391 L640.421 1.47368 C640.849 1.47683 640.919 2.16029 640.5 2.25 C640.495 2.25106 634.047 3.36758 634.042 3.36875 C614.645 8 583.2 55.5 568 103 C494 340 420 577 347 814 C346.457 815.764 345.346 814 343.5 814 C341.891 814 340.256 812.66 340.244 811.05 C340.137 795.649 319.139 778.051 293.928 772.848 C291.299 772.306 289.729 769.571 290.5 767 C290.963 765.458 290.928 758.553 290.449 757.015 L87 103 C71.4 53.275 22.5281 5.45125 -13.2727 3.09114 C-13.3134 3.08846 -19.4691 2.59972 -19.5096 2.59505 L-22.5 2.25 C-22.9112 2.20255 -22.8709 1.5 -22.4569 1.5 L139.457 1.5 C139.871 1.5 139.911 2.20255 139.5 2.25 L136.51 2.59505 C136.476 2.59895 130.364 3.09058 130.33 3.09297 C96.0225 5.5 77.4 54.25 93 103 L143.655 267.629 C150.695 290.51 178.438 311 202.378 311 L384.468 311 C408.513 311 436.253 290.443 443.249 267.438 L496 94 C505.5 49.35 487.925 8.31 456.993 4.31763 C456.978 4.31563 447.193 3.23081 447.177 3.22835 L445.75 3 C445.23 2.9168 445.803 0.0426673 446.329 0.0465391 L446.329 0.0465391 Z M182.447 397.499 L234.056 565.322 C252.281 624.588 333.443 624.504 351.545 565.199 L402.771 397.377 C415.562 355.472 387.821 318 344.008 318 L241.173 318 C197.292 318 169.549 355.556 182.447 397.499 L182.447 397.499 Z " />
<glyph glyph-name="B" unicode="B" horiz-adv-x="634" d="M286 2 L236 2 C204 2 173 18 173 34 L173 375 C173 393.224 188.991 408.003 207.215 407.995 C259.759 407.969 304 407.825 304 407 C412 407 517 308 517 206 C517 67 403 2 286 2 L286 2 Z M293 0 C445 0 594 66 594 206 C594 293.55 495.74 379.655 381.513 404.131 C376.953 405.108 384.482 424.601 388.934 425.986 C493.325 458.481 575 530.4 575 603 C575 699 478 794 269 794 L163.44 794 C129.527 794 102 766.473 102 732.56 L102 61.44 C102 27.527 129.527 0 163.44 0 L293 0 L293 0 Z M271 411 L222 411 C194.953 411 173 432.953 173 460 L173 746 C173 770.287 192.713 790 217 790 L261 790 C427 790 505 693 505 595 C505 502 389 411 271 411 L271 411 Z " />
<glyph glyph-name="C" unicode="C" horiz-adv-x="748" d="M703 60 L703 166.5 C703 170.088 700.088 173 696.5 173 C693.419 173 688.915 169.734 687.756 166.878 C671.725 127.377 621.85 74.7 581 50 C528 17 465 -5 401 -5 C267 -5 135 194 135 397 C135 600 272 799 412 799 C471 799 528 777 578 745 C578 745 661 685 685 633 C686 630 690 623 691 620 L697.5 620 C701.088 620 704 622.912 704 626.5 L704 731 L699 731 C699 727 698 721 698 717 C696 701 667 706 638 727 C579 771 501 804 411 804 C233 804 59 603 59 397 C59 191 228 -10 400 -10 C493 -10 580 23 641 67 C668 87 697 90 698 74 C698 70 701 64 701 60 L703 60 Z M695 136 L695 136 L695 136 L695 136 Z " />
<glyph glyph-name="D" unicode="D" horiz-adv-x="806" d="M257 4 C193 4 173 19 173 34 L173 730.5 C173 763.342 199.658 790 232.5 790 L292 790 C504 790 673 595 673 397 C673 179 467 4 257 4 L257 4 Z M264 0 C510 0 751 176 751 397 C751 597 555 794 309 794 L163.44 794 C129.527 794 102 766.473 102 732.56 L102 61.44 C102 27.527 129.527 0 163.44 0 L264 0 L264 0 Z " />
<glyph glyph-name="E" unicode="E" horiz-adv-x="582" d="M535 0 C535 3.6 544.72 58.23 548.122 74.952 C548.547 77.0404 547.008 79 544.877 79 L544.5 79 C542.207 79 539.151 76.9626 538.269 74.8462 L535 67 C522 35 459 4 406 4 L207 4 C181 4 173 18 173 33 L173 345.56 C173 379.473 200.527 407 234.44 407 L344 407 C384 407 430 371 437 335 L438.988 326.385 C439.532 324.026 442.08 322 444.5 322 C446.984 322 449.012 324.016 449.026 326.5 L449.5 407 L449.5 412 L449.026 492.5 C449.012 494.984 446.984 497 444.5 497 C442.08 497 439.532 494.974 438.988 492.615 L437 484 C430 448 384 412 344 412 L234.44 412 C200.527 412 173 439.527 173 473.44 L173 726.56 C173 760.473 200.527 788 234.44 788 L405 788 C446 788 496 752 507 716 L510.385 707.2 C511.217 705.036 514.182 703 516.5 703 C518.948 703 520.589 706.037 520.274 708.464 C517.664 728.548 513.984 760.927 511.244 782.501 C510.471 788.586 505.032 792.012 498.898 792.027 L163.591 792.849 C129.595 792.932 102 765.405 102 731.409 L102 60.5821 C102 26.5907 129.591 -0.93628 163.582 -0.857779 L535 0 L535 0 Z " />
<glyph glyph-name="F" unicode="F" horiz-adv-x="557" d="M428.988 493.615 L427 485 C420 449 374 413 334 413 L234.44 413 C200.527 413 173 440.527 173 474.44 L173 728.56 C173 762.473 200.527 790 234.44 790 L404 790 C445 790 495 754 506 718 L509.385 709.2 C510.217 707.036 513.182 705 515.5 705 C517.936 705 519.623 707.664 519.305 710.079 C516.846 728.728 513.748 758.699 511.176 780.442 C510.421 786.828 504.583 792.025 498.153 792.057 L163.741 793.697 C129.662 793.864 102 766.337 102 732.258 L102 35.5 C102 15.9051 117.905 0 137.5 0 C157.095 0 173 15.9051 173 35.5 L173 346.56 C173 380.473 200.527 408 234.44 408 L334 408 C374 408 420 372 427 336 L428.988 327.385 C429.532 325.026 432.08 323 434.5 323 C436.984 323 439.012 325.016 439.026 327.5 L439.5 408 L439.5 413 L439.026 493.5 C439.012 495.984 436.984 498 434.5 498 C432.08 498 429.532 495.974 428.988 493.615 L428.988 493.615 Z " />
<glyph glyph-name="G" unicode="G" horiz-adv-x="775" d="M703 626.021 L703 731 L698 731 C698 727 697 721 697 717 C695 701 666 706 637 727 C578 771 500 804 410 804 C232 804 58 603 58 397 C58 191 228 -10 402 -10 C528.35 -10 665.53 23.8437 745.807 58.0936 C745.861 58.1163 749.23 59.6423 749.176 59.6204 C734.989 53.8013 717.868 48.5341 699.051 43.1996 C691.309 41.0049 684 45.995 684 54.0416 L684 308.5 C684 328.095 668.095 344 648.5 344 C628.905 344 613 328.095 613 308.5 L613 256 C613.925 256 614.85 119.1 614.984 91.4419 C614.989 90.2958 614.461 84.9402 614.094 83.8543 C600.298 43.025 508.575 5 414 5 C273 5 135 200 135 398 C135 601 272 800 412 800 C471 800 528 778 578 746 C578 746 661 686 685 634 C686 631 690 624 691 621 L697 620.5 C700.3 620.225 703 622.709 703 626.021 L703 626.021 Z M540.454 12.606 C504.728 8.31444 467.267 5.69175 429.596 5.119 C429.596 5.119 430.169 7.24942 430.169 7.24942 L430.28 3.25096 C430.28 3.25096 430.854 5.38137 430.854 5.38137 C460.556 6.53112 504.984 10.1064 542.526 13.7061 C543.07 13.7583 540.996 12.6711 540.454 12.606 L540.454 12.606 Z " />
<glyph glyph-name="H" unicode="H" horiz-adv-x="762" d="M668 35.5 L668 758.5 C668 778.095 652.095 794 632.5 794 C612.905 794 597 778.095 597 758.5 L597 472.44 C597 438.527 569.473 411 535.56 411 L270.44 411 C236.527 411 209 438.527 209 472.44 L209 758.5 C209 778.095 193.095 794 173.5 794 C153.905 794 138 778.095 138 758.5 L138 35.5 C138 15.9051 153.905 0 173.5 0 C193.095 0 209 15.9051 209 35.5 L209 343.56 C209 377.473 236.527 405 270.44 405 L535.56 405 C569.473 405 597 377.473 597 343.56 L597 35.5 C597 15.9051 612.905 0 632.5 0 C652.095 0 668 15.9051 668 35.5 L668 35.5 Z " />
<glyph glyph-name="I" unicode="I" horiz-adv-x="269" d="M175 35.5 L175 758.5 C175 778.095 159.095 794 139.5 794 C119.905 794 104 778.095 104 758.5 L104 35.5 C104 15.9051 119.905 0 139.5 0 C159.095 0 175 15.9051 175 35.5 L175 35.5 Z " />
<glyph glyph-name="J" unicode="J" horiz-adv-x="269" d="M104 -45 C104 -163 23 -212 -22 -212 C-51 -212 -46 -155 -75 -155 C-91 -155 -107 -171 -107 -187 C-107 -204 -67 -220 -27 -220 C44 -220 175 -129 175 89 L175 758.5 C175 778.095 159.095 794 139.5 794 C119.905 794 104 778.095 104 758.5 L104 -45 L104 -45 Z " />
<glyph glyph-name="K" unicode="K" horiz-adv-x="668" d="M656.433 4.17787 C637.367 8.5575 613.1 24.75 591 46 L267.669 397.991 C246.977 420.518 246.728 457.708 267.117 480.509 L492 732 C520.9 761.75 555.58 784.636 584.372 790.833 C584.372 790.833 584.139 789.677 584.139 789.677 L583.733 793.656 C583.733 793.656 583.5 792.5 583.5 792.5 L421.035 792.5 C420.621 792.5 420.588 791.789 421 791.75 L426.139 791.268 C426.157 791.266 432.126 790.908 432.144 790.907 C471.972 788.5 470.9 739.75 428 691 L280.854 521.349 C241.847 476.377 173 502.074 173 561.606 L173 758.5 C173 778.095 157.095 794 137.5 794 C117.905 794 102 778.095 102 758.5 L102 35.5 C102 15.9051 117.905 0 137.5 0 C157.095 0 173 15.9051 173 35.5 L173 239.712 C173 298.559 239.725 324.623 279.612 281.357 L520.457 20.1136 C528.064 11.8627 555.134 0.190554 566.355 0.323091 L656.001 1.3819 C656.065 1.38266 656.496 4.16348 656.433 4.17787 L656.433 4.17787 Z " />
<glyph glyph-name="L" unicode="L" horiz-adv-x="567" d="M209 12 C183 12 175 23 175 34 L175 758.5 C175 778.095 159.095 794 139.5 794 C119.905 794 104 778.095 104 758.5 L104 61.44 C104 27.527 131.527 0 165.44 0 L531.5 0 C537.243 0 543.074 5.72374 543.621 11.4401 C545.667 32.8049 552.278 61.6475 556.005 80.745 C556.479 83.1693 554.97 86 552.5 86 C550.207 86 547.151 83.9626 546.269 81.8462 L543 74 C530 42 467 11 414 11 L209 12 L209 12 Z " />
<glyph glyph-name="M" unicode="M" horiz-adv-x="806" d="M763.516 790.288 L762.875 794.237 C762.875 794.237 762.5 794 762.5 794 L713.006 794 C690.009 794 662.238 774.109 654.836 752.336 L485.513 254.287 C466.14 197.302 390.79 196.209 369.771 252.607 L183.105 753.472 C175.256 774.531 147.225 793.736 124.752 793.45 L59.9992 792.627 C59.9311 792.626 60.0468 790.726 60.1111 790.704 C74.2315 785.823 88.3519 771.459 98.4534 753.303 C100.78 749.121 103.622 729.532 103.479 724.748 C96.7488 500.451 91.825 275.275 85 52 C84.0645 28.6129 70.8772 5.22581 57.7181 2.30546 C57.7134 2.3044 52.0048 1.25119 52 1.25 C51.5984 1.1496 51.6784 0.5 52.0923 0.5 L140.908 0.5 C141.322 0.5 141.402 1.1496 141 1.25 C140.994 1.25141 135.036 2.32468 135.03 2.32593 C121.324 5.33333 110 28.6667 110 52 L119.667 571.584 C120.166 598.444 160.811 599.64 170.744 574.68 C247.231 382.481 323.275 190.4 400 -1 C401.716 -5.27998 404.389 -1 409 -1 L415.45 -1 C416.83 -1 418.229 0.146872 418.5 1.5 C418.538 1.69149 419.778 6.22211 419.842 6.40643 L560.964 409.692 C582.643 471.643 678.742 456.544 680.377 390.93 L688.924 48.0385 C688.931 47.7674 688.785 42.511 688.758 42.2411 C686.627 21.3545 678.272 6.617 665.188 2.01964 C665.188 2.01964 665.01 3.23167 665.01 3.23167 L665.678 -0.712031 C665.678 -0.712031 665.5 0.5 665.5 0.5 L792.908 0.5 C793.322 0.5 793.402 1.1496 793 1.25 C792.995 1.25119 787.287 2.3044 787.282 2.30546 C774.123 5.22581 760.935 28.6129 760 52 L741.087 745.803 C741.079 746.089 741.21 751.372 741.239 751.657 C743.316 771.778 751.033 786.064 763.891 790.525 C763.891 790.525 763.516 790.288 763.516 790.288 L762.875 794.237 C762.875 794.237 762.5 794 762.5 794 L763.516 790.288 Z " />
<glyph glyph-name="N" unicode="N" horiz-adv-x="704" d="M57.041 0.0495811 L142.908 1.44959 C143.349 1.45678 143.428 2.14306 143 2.25 C142.991 2.25234 137.122 3.30347 137.113 3.30546 C123.252 6.22581 111 29.6129 111 53 L109.441 549.625 C109.302 593.879 170.282 602.36 195.607 566.069 C331.589 371.204 467.111 175.881 603.387 -18.6903 C605.202 -21.2817 594.836 -1 598 -1 C601.864 -1 605.021 2.13623 605.047 5.99984 L610 740 C610 763.387 623.127 786.774 636.282 789.695 C636.287 789.696 641.995 790.749 642 790.75 C642.444 790.861 642.367 791.571 641.909 791.583 L615.49 792.29 C600.874 792.682 589 781.122 589 766.5 L589 740 L590.974 137.906 C590.982 135.434 587.907 134.467 586.5 136.5 L582 143 L142.635 766.553 C134.154 778.589 106.373 792.781 91.6492 792.599 L13.9992 791.636 C13.9254 791.635 13.1292 790.055 13.2004 790.035 C32.965 784.604 55.15 764.65 73 740 L81.5 728 C84.2177 724.163 89.9849 705.996 89.9779 701.295 L89 52 C89 28.6129 76.7482 5.22581 62.8872 2.30546 C62.8693 2.30168 57.0181 1.50301 57 1.5 C56.7544 1.45907 56.7921 0.0455227 57.041 0.0495811 L57.041 0.0495811 Z " />
<glyph glyph-name="O" unicode="O" horiz-adv-x="852" d="M135 397 C135 600 277 799 422 799 C572 799 720 600 720 397 C720 194 569 -5 414 -5 C273 -5 135 194 135 397 L135 397 Z M58 397 C58 191 234 -10 413 -10 C607 -10 797 191 797 397 C797 603 612 804 423 804 C239 804 58 603 58 397 L58 397 Z " />
<glyph glyph-name="P" unicode="P" horiz-adv-x="583" d="M190 35 L190 342.5 C190 358.231 202.769 371 218.5 371 L247 371 C407 371 563 455 563 572 C563 684 434 794 303 794 L181.44 794 C147.527 794 120 766.473 120 732.56 L120 35 C120 15.681 135.681 0 155 0 C174.319 0 190 15.681 190 35 L190 35 Z M190 414.5 L190 734.5 C190 760.719 211.281 782 237.5 782 L285 782 C392 782 497 684 497 584 C497 469 373 386 247 386 L218.5 386 C202.769 386 190 398.769 190 414.5 L190 414.5 Z " />
<glyph glyph-name="Q" unicode="Q" horiz-adv-x="847" d="M1164.08 -58.2695 C1114.73 -76.0703 976.75 -91 856 -91 C685.375 -91 459.614 -51.0738 376.137 -9.22248 C375.119 -8.71189 375.579 -7.08723 376.702 -7.2754 C388.737 -9.29086 401.368 -10 414 -10 C608 -10 798 191 798 397 C798 603 613 804 424 804 C240 804 59 603 59 397 C59 237.1 165.47 80.0519 296.846 18.5416 C297.089 18.4279 315.61 8.3731 315.836 8.22989 C434.382 -66.7031 694 -138 850 -138 C956.375 -138 1103.82 -100.78 1167.29 -60.3734 C1167.33 -60.3458 1164.13 -58.2521 1164.08 -58.2695 L1164.08 -58.2695 Z M137 398 C137 601 279 800 424 800 C574 800 722 601 722 398 C722 193 568 -7 410 -7 C272 -7 137 193 137 398 L137 398 Z " />
<glyph glyph-name="R" unicode="R" horiz-adv-x="673" d="M632.63 -0.796537 L633.035 3.18287 C633.035 3.18287 629.872 1.664 629.872 1.664 C591.44 6.4 574 22.4 554 64 C492.75 190 432.266 314.469 404.033 372.424 C398.742 383.286 403.117 395.048 414.629 398.715 C498.117 425.313 564 489.6 564 571 C564 684 448 794 329 794 L164.44 794 C130.527 794 103 766.473 103 732.56 L103 35.5 C103 15.9051 118.905 0 138.5 0 C158.095 0 174 15.9051 174 35.5 L174 323.56 C174 357.473 201.527 385 235.44 385 L303.64 385 C314.065 385 328.92 374.873 332.957 365.262 C356.719 308.688 415.125 182.25 472 65 C495.125 16.9 528.09 2.59719 635.793 0.722328 C635.793 0.722328 632.63 -0.796537 632.63 -0.796537 L633.035 3.18287 C633.035 3.18287 629.872 1.664 629.872 1.664 L632.63 -0.796537 Z M174 464.44 L174 719.56 C174 753.473 201.527 781 235.44 781 L308 781 C398 781 486 684 486 586 C486 480 408 403 329 403 L235.44 403 C201.527 403 174 430.527 174 464.44 L174 464.44 Z " />
<glyph glyph-name="S" unicode="S" horiz-adv-x="574" d="M260 804 C164 804 70 706 70 606 C70 534 169 418 293 360 C395 312 477 226 477 176 C477 86 396 -3 314 -3 C270 -3 215 21 167 57 C131 86 86 145 71 182 C70 186 66 192 65 196 L58.5 196 C54.9122 196 52 193.088 52 189.5 L52 59 L57 59 C57 64 58 74 58 79 C59 101 89 99 117 75 C174 26 252 -10 314 -10 C425 -10 534 92 534 197 C534 270 446 383 335 434 C219 488 126 582 126 633 C126 717 192 799 260 799 C292 799 329 788 363 770 C403 749 458 692 473 654 C474 650 478 644 479 640 L485.5 640 C489.088 640 492 642.912 492 646.5 L492 741 L487 741 L486 730 C485 718 462 723 441 739 C399 771 327 804.5 260 804.5 L260 804 Z " />
<glyph glyph-name="T" unicode="T" horiz-adv-x="801" d="M54 792 C55 793 55 794 55 794 L54 792 L54 792 Z M51 785 C52 786 53 788 53 789 L51 785 L51 785 Z M778.701 704.391 C770.735 725.071 756.265 760.929 748.299 781.609 C747.975 782.451 747 788.598 747 789.5 C747 791.984 744.984 794 742.5 794 L62 794 C58.1362 794 55 790.864 55 787 C55 785.566 52.5944 774.092 52.0565 772.763 C43.7829 752.312 32.4365 723.437 25.751 704.919 C24.9494 702.699 26.1393 700 28.5 700 C30.5667 700 34.3498 702.025 35.4962 703.744 L41 712 C61 744 122 775 165 775 L304.56 775 C338.473 775 366 747.473 366 713.56 L366 34.5 C366 14.9051 381.905 -1 401.5 -1 C421.095 -1 437 14.9051 437 34.5 L437 713.56 C437 747.473 464.527 775 498.44 775 L640 775 C683 775 744 744 764 712 L769.764 703.354 C770.868 701.698 774.025 700.253 776 700.5 C778.151 700.769 779.48 702.368 778.701 704.391 L778.701 704.391 Z M750.25 788.5 C750.296 788.382 750.09 788.297 750.039 788.412 L749.961 788.588 C749.91 788.703 750.204 788.618 750.25 788.5 L750.25 788.5 Z " />
<glyph glyph-name="U" unicode="U" horiz-adv-x="648" d="M554.424 1.30613 C561.752 3.16446 571.248 5.83554 578.576 7.69387 C580.895 8.28191 584 11.2175 584 13.6098 L584 759 C584 778.319 568.319 794 549 794 C529.681 794 514 778.319 514 759 L514 201.653 C514 197.147 510.236 180.382 507.992 176.474 C466.182 103.687 354.7 36 273 36 C205 36 138 131 138 228 L138 758.5 C138 778.095 122.095 794 102.5 794 C82.9051 794 67 778.095 67 758.5 L67 228 C67 108 155 -10 244 -10 C326.45 -10 435.633 49.245 490.483 118.605 C496.73 126.505 514 119.765 514 109.694 L514 17.5 C514 7.84052 521.841 0 531.5 0 L544.39 0 C545.101 0 553.735 1.13131 554.424 1.30613 L554.424 1.30613 Z " />
<glyph glyph-name="V" unicode="V" horiz-adv-x="704" d="M685.451 793.977 L529.537 792.568 C529.086 792.564 529.051 791.795 529.5 791.75 L533.951 791.305 C533.977 791.302 540.089 790.909 540.116 790.907 C580.173 788.5 602.525 739.75 584 691 L422.14 248.829 C401.543 192.561 326.964 192.745 306.645 249.114 L147 692 C130.425 739.775 146.171 787.55 180.336 789.909 C180.372 789.911 186.474 790.401 186.51 790.405 L189.5 790.75 C189.897 790.796 189.857 791.476 189.457 791.474 L12.5 790.772 C12.4889 790.772 10.8308 789.285 10.84 789.279 C23.89 780.608 49.9 735 67 690 L325.561 -5.43881 C326.823 -8.83336 331.378 -12 335 -12 C338.606 -12 343.218 -8.83246 344.513 -5.46658 L617 703 C637 748 669 789 684 789 L689 789 L688.5 791.5 C688.229 792.856 686.833 793.989 685.451 793.977 L685.451 793.977 Z " />
<glyph glyph-name="W" unicode="W" horiz-adv-x="1050" d="M620.954 793.951 L442.61 792.521 C442.185 792.518 442.093 791.872 442.5 791.75 C442.508 791.748 447.853 790.475 447.861 790.472 C460.255 786.183 480.05 756.375 493 724 C511.375 667.125 531.281 609.484 550.039 553.088 C552.726 545.008 552.262 515.55 548.921 507.719 L412.06 186.93 C396.245 149.86 344.146 159.882 331.308 198.085 C273.872 368.993 216.436 540.333 159 711 C145.7 749 155.865 787 178.349 790.705 C178.349 790.705 186.5 791.75 186.5 791.75 C186.897 791.816 186.84 792.481 186.438 792.479 L35.9999 791.773 C35.9882 791.773 35.4357 789.928 35.4453 789.921 C47.3125 781.574 68.75 746 81 711 C163 471 246 231 327 -10 C328.5 -14.4635 331.291 -10 336 -10 C340.549 -10 346.789 -5.92417 348.618 -1.75906 L503.835 351.829 C527.58 405.922 599.743 402.583 618.391 346.528 L734.159 -1.46017 C735.647 -5.93289 741.286 -10 746 -10 C750.758 -10 756.218 -5.93713 757.585 -1.37924 L973 717 C985.35 753.1 1012.14 787.395 1030.22 790.734 C1030.23 790.736 1036.49 791.748 1036.5 791.75 C1036.9 791.837 1036.83 792.5 1036.42 792.5 L881.04 792.5 C880.626 792.5 880.588 791.794 881 791.75 L884.737 791.35 C884.791 791.344 890.924 790.928 890.979 790.926 C929.424 789 956.7 750 945 711 L824.264 292.858 C807.03 233.172 725.457 232.107 706.672 291.324 L571.876 716.238 C571.79 716.51 570.503 721.49 570.452 721.771 C564.338 755.884 581.839 787.58 610.292 790.742 C610.295 790.742 618.792 791.474 618.796 791.474 L621 791.75 C621.384 791.798 621.341 793.955 620.954 793.951 L620.954 793.951 Z " />
<glyph glyph-name="X" unicode="X" horiz-adv-x="714" d="M681.001 793.869 L554.031 792.591 C553.567 792.586 553.538 791.789 554 791.75 L563 791 C588.257 791 598.416 768.352 586.141 743.223 C585.989 742.911 583.4 738.65 583.204 738.363 L428.446 511.038 C401.84 471.956 351.299 472.707 325.865 512.561 L182 738 C166.914 763.457 170.497 788.025 189.396 790.75 C189.417 790.753 196.979 791.746 197 791.75 C197.407 791.826 197.344 792.5 196.93 792.5 L50.5 792.5 C50.5 792.5 50.3332 793.84 50.3332 793.84 L49.6304 789.902 C49.6304 789.902 49.4636 791.242 49.4636 791.242 C62.8317 785.648 82.4359 762.154 99 736 L302.95 415.636 C314.195 397.972 313.452 364.524 301.433 347.377 L93 50 C73.45 25.35 48.8425 6.84125 26.547 1.84325 C26.547 1.84325 26.817 3.16093 26.817 3.16093 L27.23 -0.817681 C27.23 -0.817681 27.5 0.5 27.5 0.5 L152.969 0.5 C153.383 0.5 153.413 1.21562 153 1.25 L144 2 C117 2 108 27 124 54 L282.686 288.644 C309.203 327.855 359.819 327.212 385.332 287.34 L534 55 C549.086 29.5429 545.503 4.97469 526.604 2.25003 C526.583 2.24696 519.021 1.25396 519 1.25 C518.593 1.17371 518.656 0.5 519.07 0.5 L665.5 0.5 C665.5 0.5 665.667 -0.839768 665.667 -0.839768 L666.37 3.09801 C666.37 3.09801 666.536 1.75824 666.536 1.75824 C653.168 7.3524 633.564 30.8462 617 57 L402.997 392 C391.132 410.573 390.42 441.798 403.663 459.414 C472.6 551.118 540.897 643.462 610 735 C630.4 761.35 658.747 784.087 682.76 790.316 C682.829 790.334 681.072 793.87 681.001 793.869 L681.001 793.869 Z " />
<glyph glyph-name="Y" unicode="Y" horiz-adv-x="661" d="M169.176 793.963 L22.9997 792.558 C22.9693 792.557 22.7571 791.149 22.785 791.137 C34.1745 786.139 48.7273 767.909 64 745 L293.291 361.564 C295.758 357.438 302 334.838 302 330.031 L302 35.5 C302 15.9051 317.905 0 337.5 0 C357.095 0 373 15.9051 373 35.5 L373 341.339 C373 345.477 378.516 367.117 380.497 370.75 L584 744 C600.15 768.65 621.358 786.436 642.709 791.217 C642.709 791.217 642.306 789.869 642.306 789.869 L641.903 793.849 C641.903 793.849 641.5 792.5 641.5 792.5 L535.031 792.5 C534.617 792.5 534.587 791.784 535 791.75 L544 791 C572 791 585 764 571 736 L423.663 459.836 C399.354 414.272 342.594 413.124 316.462 457.667 L152 738 C138.8 763.457 143.38 788.025 162.386 790.75 C162.418 790.755 169.718 791.744 169.75 791.75 C170.136 791.827 169.57 793.967 169.176 793.963 L169.176 793.963 Z " />
<glyph glyph-name="Z" unicode="Z" horiz-adv-x="654" d="M65.5 699 C67.8564 699 70.6779 701.034 71.423 703.269 L74 711 C84 743 146 773 198 775 L441.333 777.681 C495.008 778.273 523.13 724.951 492.329 680.989 L29.0168 19.7329 C27.7445 17.9171 25 9.21713 25 7 C25 3.13621 28.1362 0 32 0 L622.206 0 C628.002 0 634.158 4.86192 635.5 10.5 L638 21 L654.005 91.6113 C654.541 93.9738 652.922 96 650.5 96 C648.278 96 644.981 93.9622 643.988 91.9751 L640 84 C626 52 560 22 508 20 L226.978 16.4872 C173.433 15.8179 145.219 68.8234 175.675 112.867 L633.019 774.242 C634.269 776.05 637 784.802 637 787 C637 790.864 633.864 794 630 794 L117.713 794 C91.4941 794 67.9728 772.602 65.5 746.5 L61.4244 703.48 C61.1912 701.018 63.0272 699 65.5 699 L65.5 699 Z " />
<glyph glyph-name="bracketleft" unicode="&#x5b;" horiz-adv-x="288" d="M189.44 776 L329 776 C333.968 776 338 780.032 338 785 C338 789.968 333.968 794 329 794 L168.44 794 C134.527 794 107 766.473 107 732.56 L107 -133.56 C107 -167.473 134.527 -195 168.44 -195 L329 -195 C333.968 -195 338 -190.968 338 -186 C338 -181.032 333.968 -177 329 -177 L189.44 -177 C155.527 -177 128 -149.473 128 -115.56 L128 714.56 C128 748.473 155.527 776 189.44 776 L189.44 776 Z " />
<glyph glyph-name="backslash" unicode="&#x5c;" horiz-adv-x="340" d="M39.0266 796.716 L288.973 -62.7161 C291.638 -71.8768 302.46 -80 312 -80 C321.54 -80 327.638 -71.8768 324.973 -62.7161 L75.0266 796.716 C72.3625 805.877 61.5402 814 52 814 C42.4598 814 36.3625 805.877 39.0266 796.716 L39.0266 796.716 Z " />
<glyph glyph-name="bracketright" unicode="&#x5d;" horiz-adv-x="291" d="M160 714.56 L160 -115.56 C160 -149.473 132.473 -177 98.56 -177 L-41 -177 C-45.9677 -177 -50 -181.032 -50 -186 C-50 -190.968 -45.9677 -195 -41 -195 L119.56 -195 C153.473 -195 181 -167.473 181 -133.56 L181 732.56 C181 766.473 153.473 794 119.56 794 L-41 794 C-45.9677 794 -50 789.968 -50 785 C-50 780.032 -45.9677 776 -41 776 L98.56 776 C132.473 776 160 748.473 160 714.56 L160 714.56 Z " />
<glyph glyph-name="asciicircum" unicode="&#x5e;" horiz-adv-x="373" d="M208 806 C205 811 193 827 187 827 C181 827 168 811 165 806 L39.8856 612.464 C38.3095 610.026 38.8153 606.412 41 604.5 C43.2078 602.568 46.5807 602.781 48.5281 604.975 L140.885 709.039 C166.148 737.505 207.769 737.432 232.933 708.878 L324.486 604.988 C326.426 602.787 329.792 602.568 332 604.5 C334.185 606.412 334.69 610.026 333.114 612.464 L208 806 L208 806 Z " />
<glyph glyph-name="underscore" unicode="&#x5f;" horiz-adv-x="515" d="M5 -66.5 C5 -75.6075 12.3925 -83 21.5 -83 L493.5 -83 C502.608 -83 510 -75.6075 510 -66.5 C510 -57.3925 502.608 -50 493.5 -50 L21.5 -50 C12.3925 -50 5 -57.3925 5 -66.5 L5 -66.5 Z " />
<glyph glyph-name="grave" unicode="&#x60;" horiz-adv-x="373" d="M-18 796 C-18 791 16 758 50 729 L185.993 610.492 C188.205 608.564 191.568 608.792 193.5 611 C195.41 613.183 195.442 616.844 193.569 619.06 L77 757 C48 792 17 826 12 826 C-2 826 -18 810 -18 796 L-18 796 Z " />
<glyph glyph-name="a" unicode="a" horiz-adv-x="539" d="M545.5 87 C543.786 87.9792 541.612 87.0091 541.073 85.1105 C534.108 60.5625 506.7 38 482 38 C454 38 427 62 427 87 L427 389 C427 485 353 554 277 554 C173 554 71 449 71 404 C71 383 86 362 102 362 C120 362 137 381 137 392 C137 405 117 432 117 443 C117 475 193 548 271 548 C319 548 367 491 367 411 L367 341.298 C367 314.32 346.967 286.488 320.559 280.971 C137.563 242.741 52 189.9 52 90 C52 40 113 -10 175 -10 C213.85 -10 286.925 22.5138 350.695 74.0865 C356.907 79.11 366.768 74.1402 368.95 66.4552 C379.8 28.235 418.9 -5 458 -5 C495.05 -5 538.754 37.7781 548.331 81.6257 C548.803 83.7871 547.421 85.9024 545.5 87 L545.5 87 Z M366 212.646 L366 119.63 C366 104.752 354.629 81.5039 342.315 73.153 C295.652 41.5075 239.85 22 205 22 C157 22 110 59 110 97 C110 188.8 168.884 238.695 293.407 270.636 C334.418 281.156 366 254.985 366 212.646 L366 212.646 Z " />
<glyph glyph-name="b" unicode="b" horiz-adv-x="526" d="M13.7092 775.409 C19.192 769.48 25 749.24 25 729 L24.0052 128.162 C24.0043 127.608 24.8246 122.526 25 122 C25.1745 121.476 26 116.39 26 115.838 L26 75 L26.75 37.5 C26.898 30.1009 37.6978 28.3272 40.2045 35.2903 L43.5963 44.712 C48.4979 58.3275 65.3187 63.6913 76.541 54.5554 C122.114 17.455 188.35 -10 247 -10 C366 -10 482 131 482 274 C482 413 362 549 240 549 C209.4 549 152.068 518.655 107.921 481.916 C98.7516 474.285 86 481.891 86 493.82 L86 780 C86 788.28 79.2796 795 71 795 L64.0513 795 C62.9062 795 49.3269 793.221 48.2205 792.925 L13.9387 783.784 C12.4614 783.39 10.7513 781.508 10.5 780 C10.3749 779.249 13.1925 775.968 13.7092 775.409 L13.7092 775.409 Z M86 124.937 L86 426.551 C86 438.73 96.0786 461.878 105.428 469.683 C144.457 502.267 194.65 529 221 529 C319 529 415 399 415 267 C415 132 333 -1 249 -1 C193.5 -1 123.454 45.2038 92.6819 98.83 C90.4429 102.732 86 120.439 86 124.937 L86 124.937 Z " />
<glyph glyph-name="c" unicode="c" horiz-adv-x="509" d="M461.828 107.114 C423.44 52.6012 344.05 6 282 6 C193 6 106 146 106 288 C106 420 197 550 290 550 C337 550 400 500 419 449 C425 434 439 419 449 419 C470 419 485 434 479 449 C460 502 367 554 292 554 C167 554 45 407 45 258 C45 123 158 -10 273 -10 C336.75 -10 420.007 42.02 461.36 103.071 C461.379 103.1 461.848 107.142 461.828 107.114 L461.828 107.114 Z " />
<glyph glyph-name="d" unicode="d" horiz-adv-x="570" d="M521 62 L521 778.998 C521 787.277 514.278 794.112 506 794.25 L499.083 794.365 C497.929 794.385 484.277 792.819 483.157 792.539 L447.532 783.633 C446.136 783.284 445.336 781.878 445.75 780.5 C445.831 780.23 448.518 776.616 448.709 776.409 C454.192 770.48 460 750.24 460 730 L460 479.643 C460 470.898 448.563 465.12 443.084 471.935 C407.538 516.153 353.35 553 310 553 C163 553 45 415 45 274 C45 133 163 -6 283 -6 C333.15 -6 402.085 21.455 441.903 54.2565 C448.395 59.6041 460 54.4828 460 46.0722 L460 14.5 C460 5.94446 466.944 -1 475.5 -1 L486.969 -1 C487.734 -1 493.646 0.383399 494.341 0.702624 C500.434 3.50146 508.933 6.00875 516.557 6.76676 C519.031 7.0128 521 9.51321 521 12 L521 61 L521 62 Z M460 397.685 L460 99.5548 C460 87.6302 454.51 72.508 445.028 65.2761 C411.828 39.9525 353.05 19 308 19 C206 19 107 154 107 291 C107 414 200 535 317 535 C366.4 535 434.753 471.825 456.897 415.78 C457.769 413.573 460 400.058 460 397.685 L460 397.685 Z " />
<glyph glyph-name="e" unicode="e" horiz-adv-x="569" d="M134.431 370 L482.731 370 C522.036 370 540.42 388.859 524.86 424.953 C490.353 504.995 401.975 554 317 554 C180 554 45 436 45 255 C45 121 167 -10 292 -10 C373.375 -10 470.445 48.1875 509.52 114.318 C509.546 114.362 507.284 112.732 507.255 112.69 C468.234 56.4075 375.35 8 298 8 C202 8 108 142 108 279 C108 306.225 111.063 331.408 116.065 355.111 C117.737 363.032 126.336 370 134.431 370 L134.431 370 Z M417.603 374.848 L176.661 374.161 C142.419 374.064 125.235 396.678 140.693 427.232 C179.731 504.398 247.525 550 316 550 C372.925 550 432.913 503.037 459.465 427.079 C470.92 394.309 452.318 374.947 417.603 374.848 L417.603 374.848 Z " />
<glyph glyph-name="f" unicode="f" horiz-adv-x="321" d="M136 30 L136 450.56 C136 484.473 163.527 512 197.44 512 L295 512 C303.832 512 311 519.168 311 528 C311 536.832 303.832 544 295 544 L195.5 544 C157.22 544 134.841 567.923 141.179 605.675 C157.079 700.367 207.775 780 268 780 C307 780 364 679 397 679 C420 679 442 701 442 724 C442 762 366 799 289 799 C185.75 799 100.109 702.531 80.3125 591.994 C76.7837 572.291 48.8804 537.22 29.4614 532.365 L-20.6045 519.849 C-22.4228 519.394 -24 517.374 -24 515.5 C-24 513.568 -22.4319 512 -20.5 512 L26 512 C53.5985 512 76 489.599 76 462 L76 30 C76 13.4409 89.4409 0 106 0 C122.559 0 136 13.4409 136 30 L136 30 Z " />
<glyph glyph-name="g" unicode="g" horiz-adv-x="547" d="M566 495 C566 514 547 532 528 532 C499.1 532 463.697 509.602 442.059 481.389 C437.052 474.861 426.048 474.322 420.716 480.586 C384.59 523.03 328.7 553 272 553 C176 553 81 467 81 380 C81 314.825 132.728 250.331 198.561 220.769 C203.717 218.454 204.846 202.611 199.285 201.602 C120.858 187.378 58 151.55 58 115 C58 76.225 92.7119 38.8113 137.429 21.2888 C143.574 18.881 146.091 5.31057 140.12 2.49925 C90.7375 -20.7525 51 -61.85 51 -95 C51 -164 165 -231 282 -231 C398 -231 512 -154 512 -76 C512 -2 435 71 316 71 L193 71 C143 71 93 102 93 133 C93 169 182 204 272 204 C368 204 462 291 462 380 C462 404.316 454.458 428.632 441.995 450.983 C438.861 456.603 438.782 465.012 443.273 469.62 C456.583 483.278 475.333 493 492 493 C504 493 529 468 541 468 C554 468 566 481.5 566 494.5 L566 495 Z M272 208 C206 208 141 293 141 380 C141 465 206 549 272 549 C337 549 401 465 401 380 C401 293 337 208 272 208 L272 208 Z M182 11.5 L191 11 L311 11 C403 11 463 -39 463 -91 C463 -160 374 -227 284 -227 C192 -227 101 -154 101 -80 C101 -47.625 129.663 -10.5441 164.83 8.29067 C167.525 9.7343 178.947 11.6696 182 11.5 L182 11.5 Z " />
<glyph glyph-name="h" unicode="h" horiz-adv-x="480" d="M26.5 777 C32.5 775 40 752 40 729 L40 30 C40 13.4409 53.4409 0 70 0 C86.5591 0 100 13.4409 100 30 L100 396.068 C100 405.5 105.871 424.515 112.398 431.324 C153.24 473.93 224.7 512 267 512 C328 512 376 456 376 399 L376 30 C376 13.4409 389.441 0 406 0 C422.559 0 436 13.4409 436 30 L436 399 C436 477 376 554 302 554 C259.5 554 180.875 507.037 126.309 452.416 C116.61 442.707 100 451.288 100 465.012 L100 779 C100 787.28 93.2796 794 85 794 L78.0513 794 C76.9062 794 63.3269 792.221 62.2205 791.925 L25 782 L25 777 L26.5 777 Z " />
<glyph glyph-name="i" unicode="i" horiz-adv-x="154" d="M80 659 C100 659 119 678 119 698 C119 718 100 737 80 737 C60 737 41 718 41 698 C41 678 60 659 80 659 L80 659 Z M36.5 527 C42.5 525 50 502 50 479 L50 30 C50 13.4409 63.4409 0 80 0 C96.5591 0 110 13.4409 110 30 L110 529 C110 537.28 103.28 544 95 544 L88.0513 544 C86.9062 544 73.3269 542.221 72.2205 541.925 L35 532 L35 527 L36.5 527 Z " />
<glyph glyph-name="j" unicode="j" horiz-adv-x="195" d="M75 659 C95 659 114 678 114 698 C114 718 95 737 75 737 C55 737 36 718 36 698 C36 678 55 659 75 659 L75 659 Z M31.5 527 C37.5 525 45 502 45 479 L45 35 C45 -24.5 28.9219 -92.4219 10.1641 -117.182 C1.87105 -128.128 3.52216 -126.084 -10.0319 -123.873 C-39.8988 -119.001 -85.5897 -100 -110 -100 C-133 -100 -155 -120 -155 -140 C-155 -165 -125 -187 -95 -185 C-90 -185 -38 -157 10 -130 C58 -102 105 -21 105 35 L105 529 C105 537.28 98.2796 544 90 544 L83.0513 544 C81.9062 544 68.3269 542.221 67.2205 541.925 L30 532 L30 527 L31.5 527 Z " />
<glyph glyph-name="k" unicode="k" horiz-adv-x="435" d="M26.5 777 C32.5 775 40 752 40 729 L40 30 C40 13.4409 53.4409 0 70 0 C86.5591 0 100 13.4409 100 30 L100 152.5 C100 206.669 163.278 229.735 198.137 188.273 L327 35 C338.565 20.1304 346.718 6.96692 344.695 2.83805 C344.683 2.81549 345.974 1.43658 345.999 1.43618 L433.172 0.0451287 C434.258 0.0277982 434.768 1.23195 434 2 L433.951 2.04858 C433.855 2.14515 430.319 6.01368 430.231 6.11851 L194.152 288.904 C171.993 315.447 175.901 354.569 202.871 376.204 L336 483 C372.55 511.05 409.1 534.404 432.139 540.779 C432.139 540.779 432.602 539.659 432.602 539.659 L432.038 543.619 C432.038 543.619 432.5 542.5 432.5 542.5 L282.527 542.5 C282.113 542.5 282.087 541.779 282.5 541.75 L293 541 C347 541 328 488 269 441 L184.5 373 C148.163 343.759 100 366.822 100 413.463 L100 779 C100 787.28 93.2796 794 85 794 L78.0513 794 C76.9062 794 63.3269 792.221 62.2205 791.925 L25 782 L25 777 L26.5 777 Z " />
<glyph glyph-name="l" unicode="l" horiz-adv-x="144" d="M26.5 777 C32.5 775 40 752 40 729 L40 30 C40 13.4409 53.4409 0 70 0 C86.5591 0 100 13.4409 100 30 L100 779 C100 787.28 93.2796 794 85 794 L78.0513 794 C76.9062 794 63.3269 792.221 62.2205 791.925 L25 782 L25 777 L26.5 777 Z " />
<glyph glyph-name="m" unicode="m" horiz-adv-x="800" d="M28.7092 525.409 C34.192 519.48 40 499.24 40 479 L40 30 C40 13.4409 53.4409 0 70 0 C86.5591 0 100 13.4409 100 30 L100 401.028 C100 411.151 107.445 431.27 114.66 438.371 C152.969 476.078 217.5 509 256 509 C324 509 368 455 368 399 L368 30 C368 13.4409 381.441 0 398 0 C414.559 0 428 13.4409 428 30 L428 399 C428 406.364 427.331 413.727 426.539 420.543 C426.345 422.218 427.6 426.945 428.703 428.221 C464.831 470.024 539.15 509 584 509 C652 509 696 455 696 399 L696 30 C696 13.4409 709.441 0 726 0 C742.559 0 756 13.4409 756 30 L756 399 C756 477 698 554 608 554 C570.375 554 496.766 507.297 445.455 452.746 C437.344 444.123 419.222 451.792 414.499 462.647 C392.365 513.524 344.35 553 280 553 C245.15 553 175.62 508.205 124.839 455.462 C115.63 445.898 100 454.331 100 467.608 L100 528 C100 536.28 93.2796 543 85 543 L79.3366 543 C77.8057 543 62.5467 540.681 61.0849 540.226 L28.0195 529.939 C27.2515 529.7 28.1632 526 28.7092 525.409 L28.7092 525.409 Z " />
<glyph glyph-name="n" unicode="n" horiz-adv-x="472" d="M26.5 527 C32.5 525 40 502 40 479 L40 30 C40 13.4409 53.4409 0 70 0 C86.5591 0 100 13.4409 100 30 L100 387.96 C100 396.635 108.677 419.831 114.471 426.286 C160.56 477.64 228.6 523 261 523 C320 523 368 446 368 367 L368 30 C368 13.4409 381.441 0 398 0 C414.559 0 428 13.4409 428 30 L428 367 C428 461 362 554 280 554 C247.7 554 178.552 505.592 125.986 449.31 C116.326 438.966 100 447.954 100 462.107 L100 529 C100 537.28 93.2796 544 85 544 L78.0513 544 C76.9062 544 63.3269 542.221 62.2205 541.925 L25 532 L25 527 L26.5 527 Z " />
<glyph glyph-name="o" unicode="o" horiz-adv-x="633" d="M111 272 C111 411 213 548 317 548 C421 548 522 411 522 272 C522 133 421 -4 317 -4 C213 -4 111 133 111 272 L111 272 Z M45 272 C45 130 180 -10 317 -10 C454 -10 588 130 588 272 C588 414 454 554 317 554 C180 554 45 414 45 272 L45 272 Z " />
<glyph glyph-name="p" unicode="p" horiz-adv-x="531" d="M11.5 527 C17.5 525 25 502 25 479 L25 -190 C25 -206.559 38.4409 -220 55 -220 C71.5591 -220 85 -206.559 85 -190 L85 28.7989 C85 39.0514 98.1883 43.6602 106.476 37.6241 C141.636 12.0156 182.7 -5 219 -5 C354 -5 486 149 486 277 C486 417 367 554 245 554 C196.55 554 135.818 526.545 100.878 492.515 C95.5385 487.314 85 492.066 85 499.52 L85 529 C85 537.28 78.2796 544 70 544 L63.0513 544 C61.9062 544 48.3269 542.221 47.2205 541.925 L10 532 L10 527 L11.5 527 Z M85 146.376 L85 432.587 C85 441.032 91.0444 459.781 96.6211 466.123 C127 500.672 178.625 529 218 529 C320 529 420 395 420 258 C420 145 322 10 223 10 C175.5 10 111.755 66.8575 88.3517 127.415 C87.5298 129.542 85 144.096 85 146.376 L85 146.376 Z " />
<glyph glyph-name="q" unicode="q" horiz-adv-x="531" d="M511.921 -189.996 L510.083 512.216 C510.068 518.055 501.429 519.511 499.5 514 L491.689 491.682 C490.988 489.679 484.565 479.935 483 478.5 C479.839 475.603 473.427 476.707 470.33 479.672 C426.725 521.413 357.85 553 298 553 C152 553 35 415 35 274 C35 133 156 -6 280 -6 C337.8 -6 402.825 17.12 436.999 45.5504 C442.016 49.7241 452 45.7258 452 39.1998 L452 -190.996 C452 -207.555 465.443 -220.776 482 -220.5 C498.557 -220.224 511.965 -206.556 511.921 -189.996 L511.921 -189.996 Z M452 417.908 L452 101.298 C452 90.258 447.135 74.8898 438.984 67.4436 C409.68 40.675 355.45 19 307 19 C202 19 100 154 100 291 C100 416 188 539 297 539 C350.65 539 416.279 494.507 445.608 443.512 C447.859 439.598 452 422.424 452 417.908 L452 417.908 Z " />
<glyph glyph-name="r" unicode="r" horiz-adv-x="361" d="M27.5 527 C33.5 525 41 502 41 479 L41 30 C41 13.4409 54.4409 0 71 0 C87.5591 0 101 13.4409 101 30 L101 397.175 C101 402.518 105.853 421.476 108.732 425.977 C142.604 478.941 200.925 526 237 526 C259 526 280 509 280 491 C280 473 298 456 316 456 C334 456 351 473 351 491 C351 523 308 554 265 554 C223.35 554 160.025 507.76 119.856 452.742 C114.226 445.03 101 451.481 101 461.03 L101 529 C101 537.28 94.2796 544 86 544 L79.0513 544 C77.9062 544 64.3269 542.221 63.2205 541.925 L26 532 L26 527 L27.5 527 Z " />
<glyph glyph-name="s" unicode="s" horiz-adv-x="450" d="M372.94 434.549 L371.5 496 C371.5 494 369 492 369 490 C369 490 299.959 528.356 279.337 539.051 C279.087 539.18 274.51 541.237 274.246 541.333 C250.91 549.838 226.313 555 205 555 C132 555 60 489 60 421 C60 365 133 283 225 250 C296 224 353 162 353 119 C353 56 296 -5 238 -5 C212 -5 180 8 151 28 C124.675 47.5 85.9919 93.6175 67.3907 126.498 C67.2159 126.806 63.7272 131.727 63.5 132 C62.6166 133.06 61 132.475 61 131.095 L61 64.1231 C61 63.5711 61.8661 63.4645 62 64 L63 68 C64 73 92 58 120 37 C156 10 201 -8 238 -8 C319 -8 399 63 399 136 C399 190 333 267 251 297 C169 327 103 396 103 443 C103 498 153 552 205 552 C226 552 250 545 273 533 C302 517 348 472 365 439 L366.86 435.28 C367.357 434.287 369.411 432.718 370.5 432.5 C371.846 432.231 372.972 433.176 372.94 434.549 L372.94 434.549 Z " />
<glyph glyph-name="t" unicode="t" horiz-adv-x="367" d="M309 544 L220.44 544 C186.527 544 159 571.527 159 605.44 L159 675 L154 675 L36.2166 534.828 C35.0744 533.469 33 527.775 33 526 C33 523.24 35.2402 521 38 521 L65.5 521 C83.439 521 98 506.439 98 488.5 L98 150 C98 53 162 -10 228 -10 C267.975 -10 329.814 33.7288 355.126 79.4776 C356.239 81.4901 355.497 83.8588 353.5 85 C351.644 86.0606 349.692 86.323 348.66 84.4505 C330.411 51.3212 280.125 19 246 19 C201 19 157 65 157 137 L158.674 450.888 C158.854 484.619 186.381 512 220.113 512 L309 512 C317.832 512 325 519.168 325 528 C325 536.832 317.832 544 309 544 L309 544 Z " />
<glyph glyph-name="u" unicode="u" horiz-adv-x="475" d="M436 62 L436 528.998 C436 537.277 429.278 544.112 421 544.25 L406 544.5 L390.5 544.75 C381.946 544.888 375 538.054 375 529.498 L375 149.232 C375 143.494 371.11 126.944 367.917 122.178 C335.69 74.07 266.5 33 211 33 C153 33 96 100 96 168 L96 515 C96 531.559 82.5591 545 66 545 C49.4409 545 36 531.559 36 515 L36 168 C36 79 109 -9 183 -9 C240.8 -9 314.495 38.685 356.183 96.5934 C361.405 103.847 375 97.5772 375 88.6395 L375 16.5 C375 7.94446 381.944 1 390.5 1 L401.969 1 C402.734 1 408.646 2.3834 409.341 2.70262 C415.434 5.50146 423.933 8.00875 431.557 8.76676 C434.031 9.0128 436 11.5132 436 14 L436 62 L436 62 Z " />
<glyph glyph-name="v" unicode="v" horiz-adv-x="458" d="M97.0004 543.952 L10.4994 542.572 C10.4628 542.571 10.1261 541.249 10.1575 541.23 C17.7929 536.654 25.5385 520.154 34 499 L194.255 -1.42877 C195.698 -5.93444 201.269 -10 206 -10 C210.673 -10 216.468 -5.92973 218.053 -1.53352 L396 492 C405.581 516.387 415.92 536.602 425.036 541.413 C425.066 541.429 424.035 542.434 424 542.433 L376 541.79 C375.981 541.79 374.505 541.009 374.517 540.995 C378.538 536.377 376.032 511.29 367 486 L253.446 154.522 C246.069 132.987 215.801 136.697 208.874 158.381 C174.011 267.519 138.825 377.1 105 486 C96.871 511.29 94.4527 536.989 98.4819 541.726 C98.4961 541.742 97.0223 543.952 97.0004 543.952 L97.0004 543.952 Z " />
<glyph glyph-name="w" unicode="w" horiz-adv-x="710" d="M99.0004 543.953 L10.9994 542.578 C10.9592 542.577 9.88162 541.385 9.91662 541.365 C18.8221 536.344 28.2903 515.258 37 490 L188.351 -1.39873 C189.748 -5.93604 195.252 -10 200 -10 C204.661 -10 210.502 -5.92888 212.116 -1.55654 L275.932 171.38 C297.082 228.695 375.162 226.12 392.489 167.536 L442.447 -1.36959 C443.798 -5.93769 449.236 -10 454 -10 C458.662 -10 465.958 -1.99634 467.573 2.37684 C527.001 163.299 585.55 325.125 646 486 C655.382 512.441 666.947 534.881 676.351 540.909 C676.38 540.928 676.035 542.433 676 542.433 L625 541.75 C630 541.75 630 521 623 498 L543.927 273.032 C523.57 215.114 444.508 217.082 427.058 275.941 L363 492 C356.75 515.214 356.479 537.233 360.763 541.685 C360.763 541.685 360.685 540.17 360.685 540.17 L359.578 544.014 C359.578 544.014 359.5 542.5 359.5 542.5 L271.5 542.5 C271.5 542.5 271.449 543.882 271.449 543.882 L270.525 539.991 C270.525 539.991 270.474 541.373 270.474 541.373 C279.306 536.024 290.97 512.364 298 486 C306.462 456.385 315.639 426.769 324.321 397.154 C325.993 391.451 324.921 369.442 322.943 363.837 L278 236.5 C261.198 188.895 196.607 190.155 181.674 238.379 L105 486 C96.871 511.29 95.6764 536.989 99.9425 541.726 C99.957 541.742 99.0221 543.953 99.0004 543.953 L99.0004 543.953 Z " />
<glyph glyph-name="x" unicode="x" horiz-adv-x="472" d="M429.961 543.876 L378 541.75 C383 541.75 376 521 363 497 L296.1 390.748 C270.191 349.597 217.887 349.646 192.054 390.845 L128 493 C114 518 106.5 541.5 111.5 541.5 L14.5 541.5 C14.5 541.5 14.9402 542.707 14.9402 542.707 L13.8787 538.85 C13.8787 538.85 14.3189 540.058 14.3189 540.058 C24.8729 534.04 43.4324 510.081 59 485 L179.948 292.16 C191.217 274.192 188.832 238.979 176.351 221.83 C136.139 166.581 96.25 111.45 55 57 C36.6923 31.7179 16.1045 7.57594 5.16325 1.80123 C5.13387 1.78572 5.46632 0.563203 5.49955 0.563673 L54 1.25 C49 1.25 62 29 81 57 L157.884 167.004 C184.884 205.634 235.232 204.386 260.285 164.465 L334 47 C346.931 24.5862 356.146 5.51665 352.676 0.6825 C352.676 0.6825 352.952 1.98719 352.952 1.98719 L354.225 -1.80469 C354.225 -1.80469 354.5 -0.5 354.5 -0.5 L446.5 -0.5 C446.5 -0.5 446.06 -1.70709 446.06 -1.70709 L447.121 2.14951 C447.121 2.14951 446.681 0.942412 446.681 0.942412 C436.127 6.95982 417.568 30.9189 402 56 L276.02 257.396 C265.449 274.295 265.912 307.407 276.95 324.004 L394 500 C409.111 520.444 421.852 534.568 430.818 537.454 C431.974 537.826 433.7 539.802 433.5 541 C433.226 542.643 431.626 543.944 429.961 543.876 L429.961 543.876 Z " />
<glyph glyph-name="y" unicode="y" horiz-adv-x="478" d="M452.004 543.799 L403.998 541.87 C403.944 541.868 402.572 540.991 402.607 540.95 C406.522 536.409 404.172 513.207 397 489 C359.875 379.275 325.472 267.508 288.177 158.753 C280.084 135.153 248.411 131.326 239.606 154.67 L115 485 C105.065 510.29 102.063 535.989 105.997 540.726 C105.997 540.726 105.785 539.186 105.785 539.186 L104.712 543.04 C104.712 543.04 104.5 541.5 104.5 541.5 L19 541.5 C19 541.5 19.4541 542.803 19.4541 542.803 L18.3486 538.959 C18.3486 538.959 18.8027 540.262 18.8027 540.262 C26.5336 535.602 36.6296 518.296 46 497 L223.96 22.4398 C226.864 14.6947 226.92 -12.7155 224.047 -20.4723 L172 -161 C166 -178 150 -195 145 -195 C126 -195 114 -173 95 -173 C74 -173 53 -194 53 -215 C53 -238 76 -261 100 -261 C119 -261 170 -215 187 -169 L245 -11 L425 496 C434.429 518.286 443.857 536.163 452.656 540.816 C452.749 540.866 452.109 543.804 452.004 543.799 L452.004 543.799 Z " />
<glyph glyph-name="z" unicode="z" horiz-adv-x="502" d="M62.5931 538.724 L60 529 L47.4047 481.318 C46.655 478.48 48.5648 476 51.5 476 L52.6988 476 C54.6307 476 58.3771 477.928 59.5 479.5 L62 483 C74 502 126 522 168 524 L279 526 C328.998 526.901 355.639 477.584 327.476 436.263 L42.9423 18.7843 C41.7168 16.9862 39 8.17604 39 6 C39 2.13621 42.1362 -1 46 -1 L450.944 -1 C453.704 -1 456.341 1.27068 456.75 4 L457.5 9 L464.295 61.5454 C464.681 64.5313 462.511 67 459.5 67 L458.031 67 C456.099 67 452.958 65.1774 452 63.5 L450 60 C440 41 392 21 350 18 L231.046 15.9923 C177.681 15.0917 149.219 67.6007 179.102 111.823 L457.081 523.2 C458.292 524.992 461 533.837 461 536 C461 539.864 457.864 543 454 543 L72 543 C69.2402 543 67 540.76 67 538 L67 536 C67 534.344 65.6559 533 64 533 C62.4078 533 61.3868 534.354 61.8242 535.885 L62.5 538.25 C62.5147 538.301 62.6069 538.776 62.5931 538.724 L62.5931 538.724 Z M59 527 L58 525 L59 527 L59 527 Z " />
<glyph glyph-name="braceleft" unicode="&#x7b;" horiz-adv-x="262" d="M238.984 794 L217 794 C147 794 78 729 78 663 L78 405 C78 369.9 51.3825 335.751 23.1727 334.065 C22.8061 334.043 18.3484 333.116 18 333 C17.0065 332.669 17.0065 331.331 18 331 C18.3134 330.896 22.8432 329.944 23.1727 329.92 C51.3825 327.849 78 285.9 78 243 L78 1 C78 -65 147 -130 217 -130 L238.997 -129.175 C239.782 -129.146 239.785 -127.783 239 -127.75 L221 -127 C173 -127 125 -64 125 1 L125 210 C125 262.7 88.875 313.955 47.3312 328.146 C47.3312 328.146 47.3714 333.773 47.3714 333.773 L47.2911 329.774 C47.2911 329.774 47.3312 335.402 47.3312 335.402 C88.875 347.922 125 393.1 125 439 L124 663 C124 728 172 791 221 791 L239 791.75 C239.414 791.767 239.398 794 238.984 794 L238.984 794 Z " />
<glyph glyph-name="bar" unicode="&#x7c;" horiz-adv-x="167" d="M60 820.5 L60 -226.5 C60 -239.471 70.5287 -250 83.5 -250 C96.4713 -250 107 -239.471 107 -226.5 L107 820.5 C107 833.471 96.4713 844 83.5 844 C70.5287 844 60 833.471 60 820.5 L60 820.5 Z " />
<glyph glyph-name="braceright" unicode="&#x7d;" horiz-adv-x="262" d="M23 791.75 L41 791 C90 791 138 728 138 663 L137 439 C137 393.1 173.125 347.923 214.669 335.402 C214.669 335.402 214.709 329.774 214.709 329.774 L214.629 333.773 C214.629 333.773 214.669 328.146 214.669 328.146 C173.125 313.955 137 262.7 137 210 L137 1 C137 -64 89 -127 41 -127 L23 -127.75 C22.2147 -127.783 22.2175 -129.146 23.003 -129.175 L45 -130 C115 -130 184 -65 184 1 L184 243 C184 285.9 210.617 327.849 238.827 329.92 C239.157 329.944 243.687 330.896 244 331 C244.994 331.331 244.994 332.669 244 333 C243.652 333.116 239.194 334.043 238.827 334.065 C210.617 335.751 184 369.9 184 405 L184 663 C184 729 115 794 45 794 L23.0156 794 C22.6016 794 22.5864 791.767 23 791.75 L23 791.75 Z " />
<glyph glyph-name="asciitilde" unicode="&#x7e;" horiz-adv-x="373" d="M23.8835 348.752 L27.8109 347.994 C27.8109 347.994 27.2494 348.628 27.2494 348.628 C34.1 374.22 55.55 396 77 396 C128 396 229 331 280 331 C312.4 331 343.18 372.31 349.012 418.48 C349.012 418.48 350.542 419.165 350.542 419.165 L346.613 419.916 C346.613 419.916 348.144 420.601 348.144 420.601 C341.322 395.675 316.8 374 293 374 C242 374 142 439 91 439 C59.5 439 30.025 396.07 24.445 348.118 C24.445 348.118 23.8835 348.752 23.8835 348.752 L27.8109 347.994 C27.8109 347.994 27.2494 348.628 27.2494 348.628 L23.8835 348.752 Z " />
<glyph glyph-name="exclamdown" unicode="&#xa1;" horiz-adv-x="214" d="M107 549 C86 549 65 528 65 507 C65 485 86 464 107 464 C128 464 149 485 149 507 C149 528 128 549 107 549 L107 549 Z M107 -255 C131 -255 147 -210 144 -165 C144 -165 114.531 177.225 113.057 306.486 C113.023 309.487 110.501 316 107.5 316 C104.5 316 101.976 309.486 101.941 306.486 C100.42 177.225 70 -165 70 -165 C67 -210 83 -255 107 -255 L107 -255 Z " />
<glyph glyph-name="cent" unicode="&#xa2;" horiz-adv-x="509" d="M266 607.898 L266 585.5 C266 571.246 245.27 547.999 231.867 543.147 C130.86 506.58 45 383.1 45 258 C45 139.2 132.48 22.02 232.353 -3.873 C245.948 -7.39769 266 -27.4553 266 -41.5 L266 -63 C266 -69.0717 270.928 -74 277 -74 C283.072 -74 288 -69.0717 288 -63 L288 -41 C288 -26.877 308.321 -4.63348 321.727 -0.193625 C375.137 17.4936 430.997 59.6564 461.867 106.744 C461.874 106.753 462.467 109.006 462.46 108.997 C432.082 65.4255 374.925 26.852 321.517 13.1705 C298.451 7.26174 288 20.2205 288 44.0312 L288 527.495 C288 544.697 294.126 553.409 310.799 549.176 C354.91 537.977 402.85 495.35 419 452 C425 437 439 422 449 422 C470 422 485 437 479 452 C462.375 499.25 387.563 545.734 317.535 555.277 C302.555 557.319 288 574.381 288 589.5 L288 610.898 C288 616.97 283.016 621.32 277 620.5 C270.984 619.68 266 613.97 266 607.898 L266 607.898 Z M229.295 24.256 C161.632 64.6225 106 176.95 106 290 C106 392.85 160.91 494.255 228.969 534.645 C253.418 549.154 266 535.255 266 506.826 L266 52.1723 C266 22.7602 254.553 9.18699 229.295 24.256 L229.295 24.256 Z " />
<glyph glyph-name="acute" unicode="&#xb4;" horiz-adv-x="373" d="M197.007 610.492 L333 729 C367 760 401 792 401 796 C401 810 385 826 371 826 C368 826 336 792 306 757 L189.431 619.06 C187.558 616.844 187.59 613.183 189.5 611 C191.432 608.792 194.795 608.564 197.007 610.492 L197.007 610.492 Z " />
<glyph glyph-name="questiondown" unicode="&#xbf;" horiz-adv-x="303" d="M178 549 C157 549 136 528 136 507 C136 485 157 464 178 464 C199 464 220 485 220 507 C220 528 199 549 178 549 L178 549 Z M180.998 347.661 C180.949 338.914 179.95 163.975 178 163 C105 163 52 115 21 67 C6 44 -8 -10 -8 -42 C-8 -153 74 -261 158 -261 C187 -261 215 -239 215 -216 C215 -201 199 -186 182 -186 C170 -186 148 -197 136 -197 C72 -197 10 -117 10 -35 C10 -17 22 19 34 38 C55 71 105 103 199 103 C195 102 191 348 191 348 C191 348 188.805 348 186 348 C183.241 348 181.014 350.42 180.998 347.661 L180.998 347.661 Z " />
<glyph glyph-name="Agrave" unicode="&#xc0;" horiz-adv-x="644" d="M446.329 0.0465391 L640.421 1.47368 C640.849 1.47683 640.919 2.16029 640.5 2.25 C640.495 2.25106 634.047 3.36758 634.042 3.36875 C614.645 8 583.2 55.5 568 103 C494 340 420 577 347 814 C346.457 815.764 345.346 814 343.5 814 C341.891 814 340.256 812.66 340.244 811.05 C340.137 795.649 319.139 778.051 293.928 772.848 C291.299 772.306 289.729 769.571 290.5 767 C290.963 765.458 290.928 758.553 290.449 757.015 L87 103 C71.4 53.275 22.5281 5.45125 -13.2727 3.09114 C-13.3134 3.08846 -19.4691 2.59972 -19.5096 2.59505 L-22.5 2.25 C-22.9112 2.20255 -22.8709 1.5 -22.4569 1.5 L139.457 1.5 C139.871 1.5 139.911 2.20255 139.5 2.25 L136.51 2.59505 C136.476 2.59895 130.364 3.09058 130.33 3.09297 C96.0225 5.5 77.4 54.25 93 103 L143.655 267.629 C150.695 290.51 178.438 311 202.378 311 L384.468 311 C408.513 311 436.253 290.443 443.249 267.438 L496 94 C505.5 49.35 487.925 8.31 456.993 4.31763 C456.978 4.31563 447.193 3.23081 447.177 3.22835 L445.75 3 C445.23 2.9168 445.803 0.0426673 446.329 0.0465391 L446.329 0.0465391 Z M119 1047 C119 1042 153 1009 187 980 L322.993 861.492 C325.205 859.564 328.568 859.792 330.5 862 C332.41 864.183 332.442 867.844 330.569 870.06 L214 1008 C185 1043 154 1077 149 1077 C135 1077 119 1061 119 1047 L119 1047 Z M182.447 397.499 L234.056 565.322 C252.281 624.588 333.443 624.504 351.545 565.199 L402.771 397.377 C415.562 355.472 387.821 318 344.008 318 L241.173 318 C197.292 318 169.549 355.556 182.447 397.499 L182.447 397.499 Z " />
<glyph glyph-name="Aacute" unicode="&#xc1;" horiz-adv-x="644" d="M335.007 860.492 L471 979 C505 1010 539 1042 539 1046 C539 1060 523 1076 509 1076 C506 1076 474 1042 444 1007 L327.431 869.06 C325.558 866.844 325.59 863.183 327.5 861 C329.432 858.792 332.795 858.564 335.007 860.492 L335.007 860.492 Z M446.329 0.0465391 L640.421 1.47368 C640.849 1.47683 640.919 2.16029 640.5 2.25 C640.495 2.25106 634.047 3.36758 634.042 3.36875 C614.645 8 583.2 55.5 568 103 C494 340 420 577 347 814 C346.457 815.764 345.346 814 343.5 814 C341.891 814 340.256 812.66 340.244 811.05 C340.137 795.649 319.139 778.051 293.928 772.848 C291.299 772.306 289.729 769.571 290.5 767 C290.963 765.458 290.928 758.553 290.449 757.015 L87 103 C71.4 53.275 22.5281 5.45125 -13.2727 3.09114 C-13.3134 3.08846 -19.4691 2.59972 -19.5096 2.59505 L-22.5 2.25 C-22.9112 2.20255 -22.8709 1.5 -22.4569 1.5 L139.457 1.5 C139.871 1.5 139.911 2.20255 139.5 2.25 L136.51 2.59505 C136.476 2.59895 130.364 3.09058 130.33 3.09297 C96.0225 5.5 77.4 54.25 93 103 L143.655 267.629 C150.695 290.51 178.438 311 202.378 311 L384.468 311 C408.513 311 436.253 290.443 443.249 267.438 L496 94 C505.5 49.35 487.925 8.31 456.993 4.31763 C456.978 4.31563 447.193 3.23081 447.177 3.22835 L445.75 3 C445.23 2.9168 445.803 0.0426673 446.329 0.0465391 L446.329 0.0465391 Z M182.447 397.499 L234.056 565.322 C252.281 624.588 333.443 624.504 351.545 565.199 L402.771 397.377 C415.562 355.472 387.821 318 344.008 318 L241.173 318 C197.292 318 169.549 355.556 182.447 397.499 L182.447 397.499 Z " />
<glyph glyph-name="Acircumflex" unicode="&#xc2;" horiz-adv-x="644" d="M446.329 0.0465391 L640.421 1.47368 C640.849 1.47683 640.919 2.16029 640.5 2.25 C640.495 2.25106 634.047 3.36758 634.042 3.36875 C614.645 8 583.2 55.5 568 103 C494 340 420 577 347 814 C346.457 815.764 345.346 814 343.5 814 C341.891 814 340.256 812.66 340.244 811.05 C340.137 795.649 319.139 778.051 293.928 772.848 C291.299 772.306 289.729 769.571 290.5 767 C290.963 765.458 290.928 758.553 290.449 757.015 L87 103 C71.4 53.275 22.5281 5.45125 -13.2727 3.09114 C-13.3134 3.08846 -19.4691 2.59972 -19.5096 2.59505 L-22.5 2.25 C-22.9112 2.20255 -22.8709 1.5 -22.4569 1.5 L139.457 1.5 C139.871 1.5 139.911 2.20255 139.5 2.25 L136.51 2.59505 C136.476 2.59895 130.364 3.09058 130.33 3.09297 C96.0225 5.5 77.4 54.25 93 103 L143.655 267.629 C150.695 290.51 178.438 311 202.378 311 L384.468 311 C408.513 311 436.253 290.443 443.249 267.438 L496 94 C505.5 49.35 487.925 8.31 456.993 4.31763 C456.978 4.31563 447.193 3.23081 447.177 3.22835 L445.75 3 C445.23 2.9168 445.803 0.0426673 446.329 0.0465391 L446.329 0.0465391 Z M345 1057 C342 1062 330 1078 324 1078 C318 1078 305 1062 302 1057 L176.886 863.464 C175.31 861.026 175.815 857.412 178 855.5 C180.208 853.568 183.581 853.781 185.528 855.975 L277.885 960.039 C303.148 988.505 344.769 988.432 369.933 959.878 L461.486 855.988 C463.426 853.787 466.792 853.568 469 855.5 C471.185 857.412 471.69 861.026 470.114 863.464 L345 1057 L345 1057 Z M182.447 397.499 L234.056 565.322 C252.281 624.588 333.443 624.504 351.545 565.199 L402.771 397.377 C415.562 355.472 387.821 318 344.008 318 L241.173 318 C197.292 318 169.549 355.556 182.447 397.499 L182.447 397.499 Z " />
<glyph glyph-name="Atilde" unicode="&#xc3;" horiz-adv-x="644" d="M161.641 930.754 L165.568 929.993 C165.568 929.993 165.249 930.628 165.249 930.628 C172.1 956.22 193.55 978 215 978 C266 978 366 913 417 913 C450.3 913 481.17 954.31 487.011 1000.48 C487.011 1000.48 488.51 1001.16 488.51 1001.16 L484.584 1001.92 C484.584 1001.92 486.083 1002.6 486.083 1002.6 C479.045 977.675 453.8 956 430 956 C379 956 280 1021 229 1021 C197.5 1021 167.62 978.07 161.959 930.118 C161.959 930.118 161.641 930.754 161.641 930.754 L165.568 929.993 C165.568 929.993 165.249 930.628 165.249 930.628 L161.641 930.754 Z M446.329 0.0465391 L640.421 1.47368 C640.849 1.47683 640.919 2.16029 640.5 2.25 C640.495 2.25106 634.047 3.36758 634.042 3.36875 C614.645 8 583.2 55.5 568 103 C494 340 420 577 347 814 C346.457 815.764 345.346 814 343.5 814 C341.891 814 340.256 812.66 340.244 811.05 C340.137 795.649 319.139 778.051 293.928 772.848 C291.299 772.306 289.729 769.571 290.5 767 C290.963 765.458 290.928 758.553 290.449 757.015 L87 103 C71.4 53.275 22.5281 5.45125 -13.2727 3.09114 C-13.3134 3.08846 -19.4691 2.59972 -19.5096 2.59505 L-22.5 2.25 C-22.9112 2.20255 -22.8709 1.5 -22.4569 1.5 L139.457 1.5 C139.871 1.5 139.911 2.20255 139.5 2.25 L136.51 2.59505 C136.476 2.59895 130.364 3.09058 130.33 3.09297 C96.0225 5.5 77.4 54.25 93 103 L143.655 267.629 C150.695 290.51 178.438 311 202.378 311 L384.468 311 C408.513 311 436.253 290.443 443.249 267.438 L496 94 C505.5 49.35 487.925 8.31 456.993 4.31763 C456.978 4.31563 447.193 3.23081 447.177 3.22835 L445.75 3 C445.23 2.9168 445.803 0.0426673 446.329 0.0465391 L446.329 0.0465391 Z M182.447 397.499 L234.056 565.322 C252.281 624.588 333.443 624.504 351.545 565.199 L402.771 397.377 C415.562 355.472 387.821 318 344.008 318 L241.173 318 C197.292 318 169.549 355.556 182.447 397.499 L182.447 397.499 Z " />
<glyph glyph-name="Adieresis" unicode="&#xc4;" horiz-adv-x="644" d="M397 909 C416 909 435 928 435 948 C435 968 416 987 397 987 C377 987 358 968 358 948 C358 928 377 909 397 909 L397 909 Z M252 909 C272 909 291 928 291 948 C291 968 272 987 252 987 C233 987 214 968 214 948 C214 928 233 909 252 909 L252 909 Z M446.329 0.0465391 L640.421 1.47368 C640.849 1.47683 640.919 2.16029 640.5 2.25 C640.495 2.25106 634.047 3.36758 634.042 3.36875 C614.645 8 583.2 55.5 568 103 C494 340 420 577 347 814 C346.457 815.764 345.346 814 343.5 814 C341.891 814 340.256 812.66 340.244 811.05 C340.137 795.649 319.139 778.051 293.928 772.848 C291.299 772.306 289.729 769.571 290.5 767 C290.963 765.458 290.928 758.553 290.449 757.015 L87 103 C71.4 53.275 22.5281 5.45125 -13.2727 3.09114 C-13.3134 3.08846 -19.4691 2.59972 -19.5096 2.59505 L-22.5 2.25 C-22.9112 2.20255 -22.8709 1.5 -22.4569 1.5 L139.457 1.5 C139.871 1.5 139.911 2.20255 139.5 2.25 L136.51 2.59505 C136.476 2.59895 130.364 3.09058 130.33 3.09297 C96.0225 5.5 77.4 54.25 93 103 L143.655 267.629 C150.695 290.51 178.438 311 202.378 311 L384.468 311 C408.513 311 436.253 290.443 443.249 267.438 L496 94 C505.5 49.35 487.925 8.31 456.993 4.31763 C456.978 4.31563 447.193 3.23081 447.177 3.22835 L445.75 3 C445.23 2.9168 445.803 0.0426673 446.329 0.0465391 L446.329 0.0465391 Z M182.447 397.499 L234.056 565.322 C252.281 624.588 333.443 624.504 351.545 565.199 L402.771 397.377 C415.562 355.472 387.821 318 344.008 318 L241.173 318 C197.292 318 169.549 355.556 182.447 397.499 L182.447 397.499 Z " />
<glyph glyph-name="Aring" unicode="&#xc5;" horiz-adv-x="644" d="M245 949 C245 990 285 1030 325 1030 C365 1030 404 990 404 949 C404 912 361 868 325 868 C289 868 245 912 245 949 L245 949 Z M228 949 C228 906 281 854 325 854 C369 854 421 906 421 949 C421 997 373 1044 325 1044 C276 1044 228 997 228 949 L228 949 Z M446.329 0.0465391 L640.421 1.47368 C640.849 1.47683 640.919 2.16029 640.5 2.25 C640.495 2.25106 634.047 3.36758 634.042 3.36875 C614.645 8 583.2 55.5 568 103 C494 340 420 577 347 814 C346.457 815.764 345.346 814 343.5 814 C341.891 814 340.256 812.66 340.244 811.05 C340.137 795.649 319.139 778.051 293.928 772.848 C291.299 772.306 289.729 769.571 290.5 767 C290.963 765.458 290.928 758.553 290.449 757.015 L87 103 C71.4 53.275 22.5281 5.45125 -13.2727 3.09114 C-13.3134 3.08846 -19.4691 2.59972 -19.5096 2.59505 L-22.5 2.25 C-22.9112 2.20255 -22.8709 1.5 -22.4569 1.5 L139.457 1.5 C139.871 1.5 139.911 2.20255 139.5 2.25 L136.51 2.59505 C136.476 2.59895 130.364 3.09058 130.33 3.09297 C96.0225 5.5 77.4 54.25 93 103 L143.655 267.629 C150.695 290.51 178.438 311 202.378 311 L384.468 311 C408.513 311 436.253 290.443 443.249 267.438 L496 94 C505.5 49.35 487.925 8.31 456.993 4.31763 C456.978 4.31563 447.193 3.23081 447.177 3.22835 L445.75 3 C445.23 2.9168 445.803 0.0426673 446.329 0.0465391 L446.329 0.0465391 Z M182.447 397.499 L234.056 565.322 C252.281 624.588 333.443 624.504 351.545 565.199 L402.771 397.377 C415.562 355.472 387.821 318 344.008 318 L241.173 318 C197.292 318 169.549 355.556 182.447 397.499 L182.447 397.499 Z " />
<glyph glyph-name="Egrave" unicode="&#xc8;" horiz-adv-x="582" d="M101 1046 C101 1041 135 1008 169 979 L304.735 860.716 C307.084 858.67 310.797 858.797 313 861 C315.2 863.2 315.357 866.944 313.349 869.321 L197 1007 C168 1042 136 1076 131 1076 C117 1076 101 1060 101 1046 L101 1046 Z M535 0 C535 3.6 544.72 58.23 548.122 74.952 C548.547 77.0404 547.008 79 544.877 79 L544.5 79 C542.207 79 539.151 76.9626 538.269 74.8462 L535 67 C522 35 459 4 406 4 L207 4 C181 4 173 18 173 33 L173 345.56 C173 379.473 200.527 407 234.44 407 L344 407 C384 407 430 371 437 335 L438.988 326.385 C439.532 324.026 442.08 322 444.5 322 C446.984 322 449.012 324.016 449.026 326.5 L449.5 407 L449.5 412 L449.026 492.5 C449.012 494.984 446.984 497 444.5 497 C442.08 497 439.532 494.974 438.988 492.615 L437 484 C430 448 384 412 344 412 L234.44 412 C200.527 412 173 439.527 173 473.44 L173 726.56 C173 760.473 200.527 788 234.44 788 L405 788 C446 788 496 752 507 716 L510.385 707.2 C511.217 705.036 514.182 703 516.5 703 C518.948 703 520.589 706.037 520.274 708.464 C517.664 728.548 513.984 760.927 511.244 782.501 C510.471 788.586 505.032 792.012 498.898 792.027 L163.591 792.849 C129.595 792.932 102 765.405 102 731.409 L102 60.5821 C102 26.5907 129.591 -0.93628 163.582 -0.857779 L535 0 L535 0 Z " />
<glyph glyph-name="Eacute" unicode="&#xc9;" horiz-adv-x="582" d="M317.265 860.716 L453 979 C487 1010 521 1042 521 1046 C521 1060 505 1076 491 1076 C487 1076 455 1042 425 1007 L308.651 869.321 C306.643 866.944 306.8 863.2 309 861 C311.203 858.797 314.916 858.67 317.265 860.716 L317.265 860.716 Z M535 0 C535 3.6 544.72 58.23 548.122 74.952 C548.547 77.0404 547.008 79 544.877 79 L544.5 79 C542.207 79 539.151 76.9626 538.269 74.8462 L535 67 C522 35 459 4 406 4 L207 4 C181 4 173 18 173 33 L173 345.56 C173 379.473 200.527 407 234.44 407 L344 407 C384 407 430 371 437 335 L438.988 326.385 C439.532 324.026 442.08 322 444.5 322 C446.984 322 449.012 324.016 449.026 326.5 L449.5 407 L449.5 412 L449.026 492.5 C449.012 494.984 446.984 497 444.5 497 C442.08 497 439.532 494.974 438.988 492.615 L437 484 C430 448 384 412 344 412 L234.44 412 C200.527 412 173 439.527 173 473.44 L173 726.56 C173 760.473 200.527 788 234.44 788 L405 788 C446 788 496 752 507 716 L510.385 707.2 C511.217 705.036 514.182 703 516.5 703 C518.948 703 520.589 706.037 520.274 708.464 C517.664 728.548 513.984 760.927 511.244 782.501 C510.471 788.586 505.032 792.012 498.898 792.027 L163.591 792.849 C129.595 792.932 102 765.405 102 731.409 L102 60.5821 C102 26.5907 129.591 -0.93628 163.582 -0.857779 L535 0 L535 0 Z " />
<glyph glyph-name="Ecircumflex" unicode="&#xca;" horiz-adv-x="582" d="M327 1056 C324 1061 312 1077 306 1077 C300 1077 288 1061 285 1056 L158.901 862.453 C157.316 860.02 157.814 856.413 160 854.5 C162.208 852.568 165.575 852.786 167.516 854.986 L259.922 959.756 C285.156 988.367 326.844 988.367 352.078 959.756 L444.484 854.986 C446.425 852.786 449.792 852.568 452 854.5 C454.186 856.413 454.684 860.02 453.099 862.453 L327 1056 L327 1056 Z M535 0 C535 3.6 544.72 58.23 548.122 74.952 C548.547 77.0404 547.008 79 544.877 79 L544.5 79 C542.207 79 539.151 76.9626 538.269 74.8462 L535 67 C522 35 459 4 406 4 L207 4 C181 4 173 18 173 33 L173 345.56 C173 379.473 200.527 407 234.44 407 L344 407 C384 407 430 371 437 335 L438.988 326.385 C439.532 324.026 442.08 322 444.5 322 C446.984 322 449.012 324.016 449.026 326.5 L449.5 407 L449.5 412 L449.026 492.5 C449.012 494.984 446.984 497 444.5 497 C442.08 497 439.532 494.974 438.988 492.615 L437 484 C430 448 384 412 344 412 L234.44 412 C200.527 412 173 439.527 173 473.44 L173 726.56 C173 760.473 200.527 788 234.44 788 L405 788 C446 788 496 752 507 716 L510.385 707.2 C511.217 705.036 514.182 703 516.5 703 C518.948 703 520.589 706.037 520.274 708.464 C517.664 728.548 513.984 760.927 511.244 782.501 C510.471 788.586 505.032 792.012 498.898 792.027 L163.591 792.849 C129.595 792.932 102 765.405 102 731.409 L102 60.5821 C102 26.5907 129.591 -0.93628 163.582 -0.857779 L535 0 L535 0 Z " />
<glyph glyph-name="Edieresis" unicode="&#xcb;" horiz-adv-x="582" d="M378 909 C398 909 417 928 417 948 C417 968 398 987 378 987 C358 987 339 968 339 948 C339 928 358 909 378 909 L378 909 Z M234 909 C254 909 273 928 273 948 C273 968 254 987 234 987 C214 987 195 968 195 948 C195 928 214 909 234 909 L234 909 Z M535 0 C535 3.6 544.72 58.23 548.122 74.952 C548.547 77.0404 547.008 79 544.877 79 L544.5 79 C542.207 79 539.151 76.9626 538.269 74.8462 L535 67 C522 35 459 4 406 4 L207 4 C181 4 173 18 173 33 L173 345.56 C173 379.473 200.527 407 234.44 407 L344 407 C384 407 430 371 437 335 L438.988 326.385 C439.532 324.026 442.08 322 444.5 322 C446.984 322 449.012 324.016 449.026 326.5 L449.5 407 L449.5 412 L449.026 492.5 C449.012 494.984 446.984 497 444.5 497 C442.08 497 439.532 494.974 438.988 492.615 L437 484 C430 448 384 412 344 412 L234.44 412 C200.527 412 173 439.527 173 473.44 L173 726.56 C173 760.473 200.527 788 234.44 788 L405 788 C446 788 496 752 507 716 L510.385 707.2 C511.217 705.036 514.182 703 516.5 703 C518.948 703 520.589 706.037 520.274 708.464 C517.664 728.548 513.984 760.927 511.244 782.501 C510.471 788.586 505.032 792.012 498.898 792.027 L163.591 792.849 C129.595 792.932 102 765.405 102 731.409 L102 60.5821 C102 26.5907 129.591 -0.93628 163.582 -0.857779 L535 0 L535 0 Z " />
<glyph glyph-name="Igrave" unicode="&#xcc;" horiz-adv-x="269" d="M-65 1046 C-65 1041 -31 1008 3 979 L138.735 860.716 C141.084 858.67 144.797 858.797 147 861 C149.2 863.2 149.357 866.944 147.349 869.321 L31 1007 C2 1042 -30 1076 -35 1076 C-49 1076 -65 1060 -65 1046 L-65 1046 Z M175 35.5 L175 758.5 C175 778.095 159.095 794 139.5 794 C119.905 794 104 778.095 104 758.5 L104 35.5 C104 15.9051 119.905 0 139.5 0 C159.095 0 175 15.9051 175 35.5 L175 35.5 Z " />
<glyph glyph-name="Iacute" unicode="&#xcd;" horiz-adv-x="269" d="M151.265 860.716 L287 979 C321 1010 355 1042 355 1046 C355 1060 339 1076 325 1076 C321 1076 289 1042 259 1007 L142.651 869.321 C140.643 866.944 140.8 863.2 143 861 C145.203 858.797 148.916 858.67 151.265 860.716 L151.265 860.716 Z M175 35.5 L175 758.5 C175 778.095 159.095 794 139.5 794 C119.905 794 104 778.095 104 758.5 L104 35.5 C104 15.9051 119.905 0 139.5 0 C159.095 0 175 15.9051 175 35.5 L175 35.5 Z " />
<glyph glyph-name="Icircumflex" unicode="&#xce;" horiz-adv-x="269" d="M161 1056 C158 1061 146 1077 140 1077 C134 1077 122 1061 119 1056 L-7.09861 862.453 C-8.68411 860.02 -8.18585 856.413 -6 854.5 C-3.79214 852.568 -0.424824 852.786 1.51575 854.986 L93.9216 959.756 C119.156 988.367 160.844 988.367 186.078 959.756 L278.484 854.986 C280.425 852.786 283.792 852.568 286 854.5 C288.186 856.413 288.684 860.02 287.099 862.453 L161 1056 L161 1056 Z M175 35.5 L175 758.5 C175 778.095 159.095 794 139.5 794 C119.905 794 104 778.095 104 758.5 L104 35.5 C104 15.9051 119.905 0 139.5 0 C159.095 0 175 15.9051 175 35.5 L175 35.5 Z " />
<glyph glyph-name="Idieresis" unicode="&#xcf;" horiz-adv-x="269" d="M212 909 C232 909 251 928 251 948 C251 968 232 987 212 987 C192 987 173 968 173 948 C173 928 192 909 212 909 L212 909 Z M68 909 C88 909 107 928 107 948 C107 968 88 987 68 987 C48 987 29 968 29 948 C29 928 48 909 68 909 L68 909 Z M175 35.5 L175 758.5 C175 778.095 159.095 794 139.5 794 C119.905 794 104 778.095 104 758.5 L104 35.5 C104 15.9051 119.905 0 139.5 0 C159.095 0 175 15.9051 175 35.5 L175 35.5 Z " />
<glyph glyph-name="Ntilde" unicode="&#xd1;" horiz-adv-x="704" d="M186.641 930.754 L190.568 929.993 C190.568 929.993 190.249 930.628 190.249 930.628 C197.1 956.22 218.55 978 240 978 C291 978 391 913 442 913 C475.3 913 506.17 954.31 512.011 1000.48 C512.011 1000.48 513.51 1001.16 513.51 1001.16 L509.584 1001.92 C509.584 1001.92 511.083 1002.6 511.083 1002.6 C504.045 977.675 478.8 956 455 956 C404 956 305 1021 254 1021 C222.5 1021 192.62 978.07 186.959 930.118 C186.959 930.118 186.641 930.754 186.641 930.754 L190.568 929.993 C190.568 929.993 190.249 930.628 190.249 930.628 L186.641 930.754 Z M57.041 0.0495811 L142.908 1.44959 C143.349 1.45678 143.428 2.14306 143 2.25 C142.991 2.25234 137.122 3.30347 137.113 3.30546 C123.252 6.22581 111 29.6129 111 53 L109.441 549.625 C109.302 593.879 170.282 602.36 195.607 566.069 C331.589 371.204 467.111 175.881 603.387 -18.6903 C605.202 -21.2817 594.836 -1 598 -1 C601.864 -1 605.021 2.13623 605.047 5.99984 L610 740 C610 763.387 623.127 786.774 636.282 789.695 C636.287 789.696 641.995 790.749 642 790.75 C642.444 790.861 642.367 791.571 641.909 791.583 L615.49 792.29 C600.874 792.682 589 781.122 589 766.5 L589 740 L590.974 137.906 C590.982 135.434 587.907 134.467 586.5 136.5 L582 143 L142.635 766.553 C134.154 778.589 106.373 792.781 91.6492 792.599 L13.9992 791.636 C13.9254 791.635 13.1292 790.055 13.2004 790.035 C32.965 784.604 55.15 764.65 73 740 L81.5 728 C84.2177 724.163 89.9849 705.996 89.9779 701.295 L89 52 C89 28.6129 76.7482 5.22581 62.8872 2.30546 C62.8693 2.30168 57.0181 1.50301 57 1.5 C56.7544 1.45907 56.7921 0.0455227 57.041 0.0495811 L57.041 0.0495811 Z " />
<glyph glyph-name="Ograve" unicode="&#xd2;" horiz-adv-x="852" d="M135 397 C135 600 277 799 422 799 C572 799 720 600 720 397 C720 194 569 -5 414 -5 C273 -5 135 194 135 397 L135 397 Z M58 397 C58 191 234 -10 413 -10 C607 -10 797 191 797 397 C797 603 612 804 423 804 C239 804 58 603 58 397 L58 397 Z M218 1046 C218 1041 252 1008 286 979 L421.735 860.716 C424.084 858.67 427.797 858.797 430 861 C432.2 863.2 432.357 866.944 430.349 869.321 L314 1007 C285 1042 253 1076 248 1076 C234 1076 218 1060 218 1046 L218 1046 Z " />
<glyph glyph-name="Oacute" unicode="&#xd3;" horiz-adv-x="852" d="M434.265 860.716 L570 979 C604 1010 638 1042 638 1046 C638 1060 622 1076 608 1076 C604 1076 572 1042 542 1007 L425.651 869.321 C423.643 866.944 423.8 863.2 426 861 C428.203 858.797 431.916 858.67 434.265 860.716 L434.265 860.716 Z M135 397 C135 600 277 799 422 799 C572 799 720 600 720 397 C720 194 569 -5 414 -5 C273 -5 135 194 135 397 L135 397 Z M58 397 C58 191 234 -10 413 -10 C607 -10 797 191 797 397 C797 603 612 804 423 804 C239 804 58 603 58 397 L58 397 Z " />
<glyph glyph-name="Ocircumflex" unicode="&#xd4;" horiz-adv-x="852" d="M135 397 C135 600 277 799 422 799 C572 799 720 600 720 397 C720 194 569 -5 414 -5 C273 -5 135 194 135 397 L135 397 Z M58 397 C58 191 234 -10 413 -10 C607 -10 797 191 797 397 C797 603 612 804 423 804 C239 804 58 603 58 397 L58 397 Z M444 1056 C441 1061 429 1077 423 1077 C417 1077 405 1061 402 1056 L275.901 862.453 C274.316 860.02 274.814 856.413 277 854.5 C279.208 852.568 282.575 852.786 284.516 854.986 L376.922 959.756 C402.156 988.367 443.844 988.367 469.078 959.756 L561.484 854.986 C563.425 852.786 566.792 852.568 569 854.5 C571.186 856.413 571.684 860.02 570.099 862.453 L444 1056 L444 1056 Z " />
<glyph glyph-name="Otilde" unicode="&#xd5;" horiz-adv-x="852" d="M259.886 930.753 L263.813 929.993 C263.813 929.993 263.255 930.628 263.255 930.628 C270.131 956.22 291.725 978 314 978 C365 978 465 913 516 913 C548.4 913 579.585 954.31 585.498 1000.48 C585.498 1000.48 587.019 1001.16 587.019 1001.16 L583.092 1001.92 C583.092 1001.92 584.613 1002.6 584.613 1002.6 C577.684 977.675 552.8 956 529 956 C478 956 378 1021 327 1021 C295.5 1021 266.025 978.07 260.445 930.118 C260.445 930.118 259.886 930.753 259.886 930.753 L263.813 929.993 C263.813 929.993 263.255 930.628 263.255 930.628 L259.886 930.753 Z M135 397 C135 600 277 799 422 799 C572 799 720 600 720 397 C720 194 569 -5 414 -5 C273 -5 135 194 135 397 L135 397 Z M58 397 C58 191 234 -10 413 -10 C607 -10 797 191 797 397 C797 603 612 804 423 804 C239 804 58 603 58 397 L58 397 Z " />
<glyph glyph-name="Odieresis" unicode="&#xd6;" horiz-adv-x="852" d="M495 909 C515 909 534 928 534 948 C534 968 515 987 495 987 C475 987 456 968 456 948 C456 928 475 909 495 909 L495 909 Z M351 909 C371 909 390 928 390 948 C390 968 371 987 351 987 C331 987 312 968 312 948 C312 928 331 909 351 909 L351 909 Z M135 397 C135 600 277 799 422 799 C572 799 720 600 720 397 C720 194 569 -5 414 -5 C273 -5 135 194 135 397 L135 397 Z M58 397 C58 191 234 -10 413 -10 C607 -10 797 191 797 397 C797 603 612 804 423 804 C239 804 58 603 58 397 L58 397 Z " />
<glyph glyph-name="Oslash" unicode="&#xd8;" horiz-adv-x="852" d="M62.0785 -12.914 C63.7515 -11.0815 92.0805 19.951 139.898 72.5035 C156.17 90.388 192.211 90.0432 210.386 74.0951 C270.131 21.67 341.225 -11 413 -11 C607 -11 797 190 797 396 C797 479.325 767.053 561.969 718.388 630.457 C704.374 650.179 702.745 691.58 718.991 709.508 L797.642 796.295 C799.488 798.331 799.198 801.351 797 803 C794.801 804.649 791.489 804.33 789.645 802.292 L713.171 717.767 C696.391 699.222 659.517 700.37 640.341 716.424 C576.769 769.649 500.725 803 424 803 C240 803 59 602 59 396 C59 311.85 88.2669 228.381 135.57 159.068 C149.076 139.279 149.554 96.7318 133.459 78.9839 C83.5862 23.9894 55 -8 55 -8 C55 -8 56.768 -9.26288 58.5 -10.5 C60.4182 -11.8701 60.4892 -14.6548 62.0785 -12.914 L62.0785 -12.914 Z M621.995 616.31 C470.882 449.627 330.489 295.271 227.611 181.377 C212.551 164.705 191.794 170.716 182.432 191.14 C154.016 253.131 137 324.225 137 396 C137 599 279 798 424 798 C495.4 798 566.077 752.844 620.679 683.411 C638.138 661.21 640.965 637.235 621.995 616.31 L621.995 616.31 Z M673.526 596.947 C703.304 535.219 721 464.95 721 394 C721 191 570 -8 415 -8 C348.7 -8 283.123 36.0725 232.392 103.951 C215.966 125.931 223.067 159.675 241.507 179.995 C343.439 292.323 479.834 443.304 627.356 605.303 C642.86 622.328 663.522 617.686 673.526 596.947 L673.526 596.947 Z " />
<glyph glyph-name="Ugrave" unicode="&#xd9;" horiz-adv-x="648" d="M121 1046 C121 1041 155 1008 189 979 L324.993 860.492 C327.205 858.564 330.568 858.792 332.5 861 C334.41 863.183 334.442 866.844 332.569 869.06 L216 1007 C187 1042 156 1076 151 1076 C137 1076 121 1060 121 1046 L121 1046 Z M554.424 1.30613 C561.752 3.16446 571.248 5.83554 578.576 7.69387 C580.895 8.28191 584 11.2175 584 13.6098 L584 759 C584 778.319 568.319 794 549 794 C529.681 794 514 778.319 514 759 L514 201.653 C514 197.147 510.236 180.382 507.992 176.474 C466.182 103.687 354.7 36 273 36 C205 36 138 131 138 228 L138 758.5 C138 778.095 122.095 794 102.5 794 C82.9051 794 67 778.095 67 758.5 L67 228 C67 108 155 -10 244 -10 C326.45 -10 435.633 49.245 490.483 118.605 C496.73 126.505 514 119.765 514 109.694 L514 17.5 C514 7.84052 521.841 0 531.5 0 L544.39 0 C545.101 0 553.735 1.13131 554.424 1.30613 L554.424 1.30613 Z " />
<glyph glyph-name="Uacute" unicode="&#xda;" horiz-adv-x="648" d="M336.007 860.492 L472 979 C506 1010 540 1042 540 1046 C540 1060 524 1076 510 1076 C507 1076 475 1042 445 1007 L328.431 869.06 C326.558 866.844 326.59 863.183 328.5 861 C330.432 858.792 333.795 858.564 336.007 860.492 L336.007 860.492 Z M554.424 1.30613 C561.752 3.16446 571.248 5.83554 578.576 7.69387 C580.895 8.28191 584 11.2175 584 13.6098 L584 759 C584 778.319 568.319 794 549 794 C529.681 794 514 778.319 514 759 L514 201.653 C514 197.147 510.236 180.382 507.992 176.474 C466.182 103.687 354.7 36 273 36 C205 36 138 131 138 228 L138 758.5 C138 778.095 122.095 794 102.5 794 C82.9051 794 67 778.095 67 758.5 L67 228 C67 108 155 -10 244 -10 C326.45 -10 435.633 49.245 490.483 118.605 C496.73 126.505 514 119.765 514 109.694 L514 17.5 C514 7.84052 521.841 0 531.5 0 L544.39 0 C545.101 0 553.735 1.13131 554.424 1.30613 L554.424 1.30613 Z " />
<glyph glyph-name="Ucircumflex" unicode="&#xdb;" horiz-adv-x="648" d="M347 1056 C344 1061 332 1077 326 1077 C320 1077 307 1061 304 1056 L178.886 862.464 C177.31 860.026 177.815 856.412 180 854.5 C182.208 852.568 185.581 852.781 187.528 854.975 L279.885 959.039 C305.148 987.505 346.769 987.432 371.933 958.878 L463.486 854.988 C465.426 852.787 468.792 852.568 471 854.5 C473.185 856.412 473.69 860.026 472.114 862.464 L347 1056 L347 1056 Z M554.424 1.30613 C561.752 3.16446 571.248 5.83554 578.576 7.69387 C580.895 8.28191 584 11.2175 584 13.6098 L584 759 C584 778.319 568.319 794 549 794 C529.681 794 514 778.319 514 759 L514 201.653 C514 197.147 510.236 180.382 507.992 176.474 C466.182 103.687 354.7 36 273 36 C205 36 138 131 138 228 L138 758.5 C138 778.095 122.095 794 102.5 794 C82.9051 794 67 778.095 67 758.5 L67 228 C67 108 155 -10 244 -10 C326.45 -10 435.633 49.245 490.483 118.605 C496.73 126.505 514 119.765 514 109.694 L514 17.5 C514 7.84052 521.841 0 531.5 0 L544.39 0 C545.101 0 553.735 1.13131 554.424 1.30613 L554.424 1.30613 Z " />
<glyph glyph-name="Udieresis" unicode="&#xdc;" horiz-adv-x="648" d="M398 909 C417 909 436 928 436 948 C436 968 417 987 398 987 C378 987 359 968 359 948 C359 928 378 909 398 909 L398 909 Z M253 909 C273 909 292 928 292 948 C292 968 273 987 253 987 C234 987 215 968 215 948 C215 928 234 909 253 909 L253 909 Z M554.424 1.30613 C561.752 3.16446 571.248 5.83554 578.576 7.69387 C580.895 8.28191 584 11.2175 584 13.6098 L584 759 C584 778.319 568.319 794 549 794 C529.681 794 514 778.319 514 759 L514 201.653 C514 197.147 510.236 180.382 507.992 176.474 C466.182 103.687 354.7 36 273 36 C205 36 138 131 138 228 L138 758.5 C138 778.095 122.095 794 102.5 794 C82.9051 794 67 778.095 67 758.5 L67 228 C67 108 155 -10 244 -10 C326.45 -10 435.633 49.245 490.483 118.605 C496.73 126.505 514 119.765 514 109.694 L514 17.5 C514 7.84052 521.841 0 531.5 0 L544.39 0 C545.101 0 553.735 1.13131 554.424 1.30613 L554.424 1.30613 Z " />
<glyph glyph-name="Yacute" unicode="&#xdd;" horiz-adv-x="639" d="M337.007 860.492 L473 979 C507 1010 541 1042 541 1046 C541 1060 525 1076 511 1076 C508 1076 476 1042 446 1007 L329.431 869.06 C327.558 866.844 327.59 863.183 329.5 861 C331.432 858.792 334.795 858.564 337.007 860.492 L337.007 860.492 Z M158.176 793.963 L11.9997 792.558 C11.9693 792.557 11.7571 791.149 11.785 791.137 C23.1745 786.139 37.7273 767.909 53 745 L282.291 361.564 C284.758 357.438 291 334.838 291 330.031 L291 35.5 C291 15.9051 306.905 0 326.5 0 C346.095 0 362 15.9051 362 35.5 L362 341.339 C362 345.477 367.516 367.117 369.497 370.75 L573 744 C589.15 768.65 610.357 786.436 631.709 791.217 C631.709 791.217 631.306 789.869 631.306 789.869 L630.903 793.849 C630.903 793.849 630.5 792.5 630.5 792.5 L524.031 792.5 C523.617 792.5 523.587 791.784 524 791.75 L533 791 C561 791 574 764 560 736 L412.663 459.836 C388.354 414.272 331.594 413.124 305.462 457.667 L141 738 C127.8 763.457 132.38 788.025 151.386 790.75 C151.418 790.755 158.718 791.744 158.75 791.75 C159.136 791.827 158.57 793.967 158.176 793.963 L158.176 793.963 Z " />
<glyph glyph-name="agrave" unicode="&#xe0;" horiz-adv-x="539" d="M545.5 87 C543.786 87.9792 541.612 87.0091 541.073 85.1105 C534.108 60.5625 506.7 38 482 38 C454 38 427 62 427 87 L427 389 C427 485 353 554 277 554 C173 554 71 449 71 404 C71 383 86 362 102 362 C120 362 137 381 137 392 C137 405 117 432 117 443 C117 475 193 548 271 548 C319 548 367 491 367 411 L367 341.298 C367 314.32 346.967 286.488 320.559 280.971 C137.563 242.741 52 189.9 52 90 C52 40 113 -10 175 -10 C213.85 -10 286.925 22.5138 350.695 74.0865 C356.907 79.11 366.768 74.1402 368.95 66.4552 C379.8 28.235 418.9 -5 458 -5 C495.05 -5 538.754 37.7781 548.331 81.6257 C548.803 83.7871 547.421 85.9024 545.5 87 L545.5 87 Z M72 796 C72 791 106 758 140 729 L275.735 610.716 C278.084 608.67 281.797 608.797 284 611 C286.2 613.2 286.357 616.944 284.349 619.321 L168 757 C139 792 107 826 102 826 C88 826 72 810 72 796 L72 796 Z M366 212.646 L366 119.63 C366 104.752 354.629 81.5039 342.315 73.153 C295.652 41.5075 239.85 22 205 22 C157 22 110 59 110 97 C110 188.8 168.884 238.695 293.407 270.636 C334.418 281.156 366 254.985 366 212.646 L366 212.646 Z " />
<glyph glyph-name="aacute" unicode="&#xe1;" horiz-adv-x="539" d="M288.265 610.716 L424 729 C458 760 492 792 492 796 C492 810 476 826 462 826 C458 826 426 792 396 757 L279.651 619.321 C277.643 616.944 277.8 613.2 280 611 C282.203 608.797 285.916 608.67 288.265 610.716 L288.265 610.716 Z M545.5 87 C543.786 87.9792 541.612 87.0091 541.073 85.1105 C534.108 60.5625 506.7 38 482 38 C454 38 427 62 427 87 L427 389 C427 485 353 554 277 554 C173 554 71 449 71 404 C71 383 86 362 102 362 C120 362 137 381 137 392 C137 405 117 432 117 443 C117 475 193 548 271 548 C319 548 367 491 367 411 L367 341.298 C367 314.32 346.967 286.488 320.559 280.971 C137.563 242.741 52 189.9 52 90 C52 40 113 -10 175 -10 C213.85 -10 286.925 22.5138 350.695 74.0865 C356.907 79.11 366.768 74.1402 368.95 66.4552 C379.8 28.235 418.9 -5 458 -5 C495.05 -5 538.754 37.7781 548.331 81.6257 C548.803 83.7871 547.421 85.9024 545.5 87 L545.5 87 Z M366 212.646 L366 119.63 C366 104.752 354.629 81.5039 342.315 73.153 C295.652 41.5075 239.85 22 205 22 C157 22 110 59 110 97 C110 188.8 168.884 238.695 293.407 270.636 C334.418 281.156 366 254.985 366 212.646 L366 212.646 Z " />
<glyph glyph-name="acircumflex" unicode="&#xe2;" horiz-adv-x="539" d="M545.5 87 C543.786 87.9792 541.612 87.0091 541.073 85.1105 C534.108 60.5625 506.7 38 482 38 C454 38 427 62 427 87 L427 389 C427 485 353 554 277 554 C173 554 71 449 71 404 C71 383 86 362 102 362 C120 362 137 381 137 392 C137 405 117 432 117 443 C117 475 193 548 271 548 C319 548 367 491 367 411 L367 341.298 C367 314.32 346.967 286.488 320.559 280.971 C137.563 242.741 52 189.9 52 90 C52 40 113 -10 175 -10 C213.85 -10 286.925 22.5138 350.695 74.0865 C356.907 79.11 366.768 74.1402 368.95 66.4552 C379.8 28.235 418.9 -5 458 -5 C495.05 -5 538.754 37.7781 548.331 81.6257 C548.803 83.7871 547.421 85.9024 545.5 87 L545.5 87 Z M298 806 C295 811 283 827 277 827 C271 827 259 811 256 806 L129.901 612.453 C128.316 610.02 128.814 606.413 131 604.5 C133.208 602.568 136.575 602.786 138.516 604.986 L230.922 709.756 C256.156 738.367 297.844 738.367 323.078 709.756 L415.484 604.986 C417.425 602.786 420.792 602.568 423 604.5 C425.186 606.413 425.684 610.02 424.099 612.453 L298 806 L298 806 Z M366 212.646 L366 119.63 C366 104.752 354.629 81.5039 342.315 73.153 C295.652 41.5075 239.85 22 205 22 C157 22 110 59 110 97 C110 188.8 168.884 238.695 293.407 270.636 C334.418 281.156 366 254.985 366 212.646 L366 212.646 Z " />
<glyph glyph-name="atilde" unicode="&#xe3;" horiz-adv-x="539" d="M113.886 680.753 L117.813 679.993 C117.813 679.993 117.255 680.628 117.255 680.628 C124.131 706.22 145.725 728 168 728 C219 728 319 663 370 663 C402.4 663 433.585 704.31 439.498 750.48 C439.498 750.48 441.019 751.16 441.019 751.16 L437.092 751.921 C437.092 751.921 438.613 752.601 438.613 752.601 C431.684 727.675 406.8 706 383 706 C332 706 232 771 181 771 C149.5 771 120.025 728.07 114.445 680.118 C114.445 680.118 113.886 680.753 113.886 680.753 L117.813 679.993 C117.813 679.993 117.255 680.628 117.255 680.628 L113.886 680.753 Z M545.5 87 C543.786 87.9792 541.612 87.0091 541.073 85.1105 C534.108 60.5625 506.7 38 482 38 C454 38 427 62 427 87 L427 389 C427 485 353 554 277 554 C173 554 71 449 71 404 C71 383 86 362 102 362 C120 362 137 381 137 392 C137 405 117 432 117 443 C117 475 193 548 271 548 C319 548 367 491 367 411 L367 341.298 C367 314.32 346.967 286.488 320.559 280.971 C137.563 242.741 52 189.9 52 90 C52 40 113 -10 175 -10 C213.85 -10 286.925 22.5138 350.695 74.0865 C356.907 79.11 366.768 74.1402 368.95 66.4552 C379.8 28.235 418.9 -5 458 -5 C495.05 -5 538.754 37.7781 548.331 81.6257 C548.803 83.7871 547.421 85.9024 545.5 87 L545.5 87 Z M366 212.646 L366 119.63 C366 104.752 354.629 81.5039 342.315 73.153 C295.652 41.5075 239.85 22 205 22 C157 22 110 59 110 97 C110 188.8 168.884 238.695 293.407 270.636 C334.418 281.156 366 254.985 366 212.646 L366 212.646 Z " />
<glyph glyph-name="adieresis" unicode="&#xe4;" horiz-adv-x="539" d="M349 659 C369 659 388 678 388 698 C388 718 369 737 349 737 C329 737 310 718 310 698 C310 678 329 659 349 659 L349 659 Z M205 659 C225 659 244 678 244 698 C244 718 225 737 205 737 C185 737 166 718 166 698 C166 678 185 659 205 659 L205 659 Z M545.5 87 C543.786 87.9792 541.612 87.0091 541.073 85.1105 C534.108 60.5625 506.7 38 482 38 C454 38 427 62 427 87 L427 389 C427 485 353 554 277 554 C173 554 71 449 71 404 C71 383 86 362 102 362 C120 362 137 381 137 392 C137 405 117 432 117 443 C117 475 193 548 271 548 C319 548 367 491 367 411 L367 341.298 C367 314.32 346.967 286.488 320.559 280.971 C137.563 242.741 52 189.9 52 90 C52 40 113 -10 175 -10 C213.85 -10 286.925 22.5138 350.695 74.0865 C356.907 79.11 366.768 74.1402 368.95 66.4552 C379.8 28.235 418.9 -5 458 -5 C495.05 -5 538.754 37.7781 548.331 81.6257 C548.803 83.7871 547.421 85.9024 545.5 87 L545.5 87 Z M366 212.646 L366 119.63 C366 104.752 354.629 81.5039 342.315 73.153 C295.652 41.5075 239.85 22 205 22 C157 22 110 59 110 97 C110 188.8 168.884 238.695 293.407 270.636 C334.418 281.156 366 254.985 366 212.646 L366 212.646 Z " />
<glyph glyph-name="aring" unicode="&#xe5;" horiz-adv-x="539" d="M198 699 C198 740 237 780 277 780 C317 780 356 740 356 699 C356 662 313 618 277 618 C241 618 198 662 198 699 L198 699 Z M180 699 C180 656 233 604 277 604 C321 604 374 656 374 699 C374 747 326 794 277 794 C228 794 180 747 180 699 L180 699 Z M545.5 87 C543.786 87.9792 541.612 87.0091 541.073 85.1105 C534.108 60.5625 506.7 38 482 38 C454 38 427 62 427 87 L427 389 C427 485 353 554 277 554 C173 554 71 449 71 404 C71 383 86 362 102 362 C120 362 137 381 137 392 C137 405 117 432 117 443 C117 475 193 548 271 548 C319 548 367 491 367 411 L367 341.298 C367 314.32 346.967 286.488 320.559 280.971 C137.563 242.741 52 189.9 52 90 C52 40 113 -10 175 -10 C213.85 -10 286.925 22.5138 350.695 74.0865 C356.907 79.11 366.768 74.1402 368.95 66.4552 C379.8 28.235 418.9 -5 458 -5 C495.05 -5 538.754 37.7781 548.331 81.6257 C548.803 83.7871 547.421 85.9024 545.5 87 L545.5 87 Z M366 212.646 L366 119.63 C366 104.752 354.629 81.5039 342.315 73.153 C295.652 41.5075 239.85 22 205 22 C157 22 110 59 110 97 C110 188.8 168.884 238.695 293.407 270.636 C334.418 281.156 366 254.985 366 212.646 L366 212.646 Z " />
<glyph glyph-name="egrave" unicode="&#xe8;" horiz-adv-x="569" d="M112 796 C112 791 146 758 180 729 L315.735 610.716 C318.084 608.67 321.797 608.797 324 611 C326.2 613.2 326.357 616.944 324.349 619.321 L208 757 C179 792 147 826 142 826 C128 826 112 810 112 796 L112 796 Z M134.431 370 L482.731 370 C522.036 370 540.42 388.859 524.86 424.953 C490.353 504.995 401.975 554 317 554 C180 554 45 436 45 255 C45 121 167 -10 292 -10 C373.375 -10 470.445 48.1875 509.52 114.318 C509.546 114.362 507.284 112.732 507.255 112.69 C468.234 56.4075 375.35 8 298 8 C202 8 108 142 108 279 C108 306.225 111.063 331.408 116.065 355.111 C117.737 363.032 126.336 370 134.431 370 L134.431 370 Z M417.603 374.848 L176.661 374.161 C142.419 374.064 125.235 396.678 140.693 427.232 C179.731 504.398 247.525 550 316 550 C372.925 550 432.913 503.037 459.465 427.079 C470.92 394.309 452.318 374.947 417.603 374.848 L417.603 374.848 Z " />
<glyph glyph-name="eacute" unicode="&#xe9;" horiz-adv-x="569" d="M328.265 610.716 L464 729 C498 760 532 792 532 796 C532 810 516 826 502 826 C498 826 466 792 436 757 L319.651 619.321 C317.643 616.944 317.8 613.2 320 611 C322.203 608.797 325.916 608.67 328.265 610.716 L328.265 610.716 Z M134.431 370 L482.731 370 C522.036 370 540.42 388.859 524.86 424.953 C490.353 504.995 401.975 554 317 554 C180 554 45 436 45 255 C45 121 167 -10 292 -10 C373.375 -10 470.445 48.1875 509.52 114.318 C509.546 114.362 507.284 112.732 507.255 112.69 C468.234 56.4075 375.35 8 298 8 C202 8 108 142 108 279 C108 306.225 111.063 331.408 116.065 355.111 C117.737 363.032 126.336 370 134.431 370 L134.431 370 Z M417.603 374.848 L176.661 374.161 C142.419 374.064 125.235 396.678 140.693 427.232 C179.731 504.398 247.525 550 316 550 C372.925 550 432.913 503.037 459.465 427.079 C470.92 394.309 452.318 374.947 417.603 374.848 L417.603 374.848 Z " />
<glyph glyph-name="ecircumflex" unicode="&#xea;" horiz-adv-x="569" d="M338 806 C335 811 323 827 317 827 C311 827 299 811 296 806 L169.901 612.453 C168.316 610.02 168.814 606.413 171 604.5 C173.208 602.568 176.575 602.786 178.516 604.986 L270.922 709.756 C296.156 738.367 337.844 738.367 363.078 709.756 L455.484 604.986 C457.425 602.786 460.792 602.568 463 604.5 C465.186 606.413 465.684 610.02 464.099 612.453 L338 806 L338 806 Z M134.431 370 L482.731 370 C522.036 370 540.42 388.859 524.86 424.953 C490.353 504.995 401.975 554 317 554 C180 554 45 436 45 255 C45 121 167 -10 292 -10 C373.375 -10 470.445 48.1875 509.52 114.318 C509.546 114.362 507.284 112.732 507.255 112.69 C468.234 56.4075 375.35 8 298 8 C202 8 108 142 108 279 C108 306.225 111.063 331.408 116.065 355.111 C117.737 363.032 126.336 370 134.431 370 L134.431 370 Z M417.603 374.848 L176.661 374.161 C142.419 374.064 125.235 396.678 140.693 427.232 C179.731 504.398 247.525 550 316 550 C372.925 550 432.913 503.037 459.465 427.079 C470.92 394.309 452.318 374.947 417.603 374.848 L417.603 374.848 Z " />
<glyph glyph-name="edieresis" unicode="&#xeb;" horiz-adv-x="569" d="M389 659 C409 659 428 678 428 698 C428 718 409 737 389 737 C369 737 350 718 350 698 C350 678 369 659 389 659 L389 659 Z M245 659 C265 659 284 678 284 698 C284 718 265 737 245 737 C225 737 206 718 206 698 C206 678 225 659 245 659 L245 659 Z M134.431 370 L482.731 370 C522.036 370 540.42 388.859 524.86 424.953 C490.353 504.995 401.975 554 317 554 C180 554 45 436 45 255 C45 121 167 -10 292 -10 C373.375 -10 470.445 48.1875 509.52 114.318 C509.546 114.362 507.284 112.732 507.255 112.69 C468.234 56.4075 375.35 8 298 8 C202 8 108 142 108 279 C108 306.225 111.063 331.408 116.065 355.111 C117.737 363.032 126.336 370 134.431 370 L134.431 370 Z M417.603 374.848 L176.661 374.161 C142.419 374.064 125.235 396.678 140.693 427.232 C179.731 504.398 247.525 550 316 550 C372.925 550 432.913 503.037 459.465 427.079 C470.92 394.309 452.318 374.947 417.603 374.848 L417.603 374.848 Z " />
<glyph glyph-name="igrave" unicode="&#xec;" horiz-adv-x="200" d="M-94 796 C-94 791 -60 758 -26 729 L109.735 610.716 C112.084 608.67 115.797 608.797 118 611 C120.2 613.2 120.357 616.944 118.349 619.321 L2 757 C-27 792 -59 826 -64 826 C-78 826 -94 810 -94 796 L-94 796 Z M106.925 542.949 C99.5699 541.01 89.7565 538.252 82.9472 536.495 C80.83 535.949 81 534.063 81 531.877 L81 30 C81 13.4409 94.4409 0 111 0 C127.559 0 141 13.4409 141 30 L141 529 C141 537.28 134.28 544 126 544 L115.123 544 C114.512 544 107.516 543.105 106.925 542.949 L106.925 542.949 Z " />
<glyph glyph-name="iacute" unicode="&#xed;" horiz-adv-x="200" d="M-94 796 C-94 791 -60 758 -26 729 L109.735 610.716 C112.084 608.67 115.797 608.797 118 611 C120.2 613.2 120.357 616.944 118.349 619.321 L2 757 C-27 792 -59 826 -64 826 C-78 826 -94 810 -94 796 L-94 796 Z M106.925 542.949 C99.5699 541.01 89.7565 538.252 82.9472 536.495 C80.83 535.949 81 534.063 81 531.877 L81 30 C81 13.4409 94.4409 0 111 0 C127.559 0 141 13.4409 141 30 L141 529 C141 537.28 134.28 544 126 544 L115.123 544 C114.512 544 107.516 543.105 106.925 542.949 L106.925 542.949 Z " />
<glyph glyph-name="icircumflex" unicode="&#xee;" horiz-adv-x="200" d="M132 806 C129 811 117 827 111 827 C105 827 93 811 90 806 L-36.0986 612.453 C-37.6841 610.02 -37.1858 606.413 -35 604.5 C-32.7921 602.568 -29.4248 602.786 -27.4843 604.986 L64.9216 709.756 C90.1563 738.367 131.844 738.367 157.078 709.756 L249.484 604.986 C251.425 602.786 254.792 602.568 257 604.5 C259.186 606.413 259.684 610.02 258.099 612.453 L132 806 L132 806 Z M106.925 542.949 C99.5699 541.01 89.7565 538.252 82.9472 536.495 C80.83 535.949 81 534.063 81 531.877 L81 30 C81 13.4409 94.4409 0 111 0 C127.559 0 141 13.4409 141 30 L141 529 C141 537.28 134.28 544 126 544 L115.123 544 C114.512 544 107.516 543.105 106.925 542.949 L106.925 542.949 Z " />
<glyph glyph-name="idieresis" unicode="&#xef;" horiz-adv-x="200" d="M183 659 C203 659 222 678 222 698 C222 718 203 737 183 737 C163 737 144 718 144 698 C144 678 163 659 183 659 L183 659 Z M39 659 C59 659 78 678 78 698 C78 718 59 737 39 737 C19 737 0 718 0 698 C0 678 19 659 39 659 L39 659 Z M106.925 542.949 C99.5699 541.01 89.7565 538.252 82.9472 536.495 C80.83 535.949 81 534.063 81 531.877 L81 30 C81 13.4409 94.4409 0 111 0 C127.559 0 141 13.4409 141 30 L141 529 C141 537.28 134.28 544 126 544 L115.123 544 C114.512 544 107.516 543.105 106.925 542.949 L106.925 542.949 Z " />
<glyph glyph-name="ntilde" unicode="&#xf1;" horiz-adv-x="472" d="M70.8863 680.753 L74.8134 679.993 C74.8134 679.993 74.2548 680.628 74.2548 680.628 C81.1306 706.22 102.725 728 125 728 C176 728 276 663 327 663 C359.4 663 390.585 704.31 396.498 750.48 C396.498 750.48 398.019 751.16 398.019 751.16 L394.092 751.921 C394.092 751.921 395.613 752.601 395.613 752.601 C388.684 727.675 363.8 706 340 706 C289 706 189 771 138 771 C106.5 771 77.025 728.07 71.445 680.118 C71.445 680.118 70.8863 680.753 70.8863 680.753 L74.8134 679.993 C74.8134 679.993 74.2548 680.628 74.2548 680.628 L70.8863 680.753 Z M26.5 527 C32.5 525 40 502 40 479 L40 30 C40 13.4409 53.4409 0 70 0 C86.5591 0 100 13.4409 100 30 L100 387.96 C100 396.635 108.677 419.831 114.471 426.286 C160.56 477.64 228.6 523 261 523 C320 523 368 446 368 367 L368 30 C368 13.4409 381.441 0 398 0 C414.559 0 428 13.4409 428 30 L428 367 C428 461 362 554 280 554 C247.7 554 178.552 505.592 125.986 449.31 C116.326 438.966 100 447.954 100 462.107 L100 529 C100 537.28 93.2796 544 85 544 L78.0513 544 C76.9062 544 63.3269 542.221 62.2205 541.925 L25 532 L25 527 L26.5 527 Z " />
<glyph glyph-name="ograve" unicode="&#xf2;" horiz-adv-x="633" d="M111 272 C111 411 213 548 317 548 C421 548 522 411 522 272 C522 133 421 -4 317 -4 C213 -4 111 133 111 272 L111 272 Z M45 272 C45 130 180 -10 317 -10 C454 -10 588 130 588 272 C588 414 454 554 317 554 C180 554 45 414 45 272 L45 272 Z M112 796 C112 791 146 758 180 729 L315.735 610.716 C318.084 608.67 321.797 608.797 324 611 C326.2 613.2 326.357 616.944 324.349 619.321 L208 757 C179 792 147 826 142 826 C128 826 112 810 112 796 L112 796 Z " />
<glyph glyph-name="oacute" unicode="&#xf3;" horiz-adv-x="633" d="M328.265 610.716 L464 729 C498 760 532 792 532 796 C532 810 516 826 502 826 C498 826 466 792 436 757 L319.651 619.321 C317.643 616.944 317.8 613.2 320 611 C322.203 608.797 325.916 608.67 328.265 610.716 L328.265 610.716 Z M111 272 C111 411 213 548 317 548 C421 548 522 411 522 272 C522 133 421 -4 317 -4 C213 -4 111 133 111 272 L111 272 Z M45 272 C45 130 180 -10 317 -10 C454 -10 588 130 588 272 C588 414 454 554 317 554 C180 554 45 414 45 272 L45 272 Z " />
<glyph glyph-name="ocircumflex" unicode="&#xf4;" horiz-adv-x="633" d="M111 272 C111 411 213 548 317 548 C421 548 522 411 522 272 C522 133 421 -4 317 -4 C213 -4 111 133 111 272 L111 272 Z M45 272 C45 130 180 -10 317 -10 C454 -10 588 130 588 272 C588 414 454 554 317 554 C180 554 45 414 45 272 L45 272 Z M338 806 C335 811 323 827 317 827 C311 827 299 811 296 806 L169.901 612.453 C168.316 610.02 168.814 606.413 171 604.5 C173.208 602.568 176.575 602.786 178.516 604.986 L270.922 709.756 C296.156 738.367 337.844 738.367 363.078 709.756 L455.484 604.986 C457.425 602.786 460.792 602.568 463 604.5 C465.186 606.413 465.684 610.02 464.099 612.453 L338 806 L338 806 Z " />
<glyph glyph-name="otilde" unicode="&#xf5;" horiz-adv-x="633" d="M153.886 680.753 L157.813 679.993 C157.813 679.993 157.255 680.628 157.255 680.628 C164.131 706.22 185.725 728 208 728 C259 728 359 663 410 663 C442.4 663 473.585 704.31 479.498 750.48 C479.498 750.48 481.019 751.16 481.019 751.16 L477.092 751.921 C477.092 751.921 478.613 752.601 478.613 752.601 C471.684 727.675 446.8 706 423 706 C372 706 272 771 221 771 C189.5 771 160.025 728.07 154.445 680.118 C154.445 680.118 153.886 680.753 153.886 680.753 L157.813 679.993 C157.813 679.993 157.255 680.628 157.255 680.628 L153.886 680.753 Z M111 272 C111 411 213 548 317 548 C421 548 522 411 522 272 C522 133 421 -4 317 -4 C213 -4 111 133 111 272 L111 272 Z M45 272 C45 130 180 -10 317 -10 C454 -10 588 130 588 272 C588 414 454 554 317 554 C180 554 45 414 45 272 L45 272 Z " />
<glyph glyph-name="odieresis" unicode="&#xf6;" horiz-adv-x="633" d="M389 659 C409 659 428 678 428 698 C428 718 409 737 389 737 C369 737 350 718 350 698 C350 678 369 659 389 659 L389 659 Z M245 659 C265 659 284 678 284 698 C284 718 265 737 245 737 C225 737 206 718 206 698 C206 678 225 659 245 659 L245 659 Z M111 272 C111 411 213 548 317 548 C421 548 522 411 522 272 C522 133 421 -4 317 -4 C213 -4 111 133 111 272 L111 272 Z M45 272 C45 130 180 -10 317 -10 C454 -10 588 130 588 272 C588 414 454 554 317 554 C180 554 45 414 45 272 L45 272 Z " />
<glyph glyph-name="oslash" unicode="&#xf8;" horiz-adv-x="633" d="M47.0598 -11.9383 C48.3343 -10.6238 69.9128 11.6347 106.163 49.2052 C118.519 62.0106 146.306 61.6002 160.165 50.4395 C206.481 13.1412 261.9 -10 318 -10 C455 -10 589 130 589 272 C589 329.75 566.539 387.5 530.602 435.704 C520.044 449.867 519.035 478.501 531.305 491.209 L588.035 549.965 C589.12 551.088 589.104 552.896 588 554 C586.896 555.104 585.12 555.088 584.035 553.965 L527.054 494.948 C514.846 482.305 487.896 483.456 474.274 494.56 C428.519 531.859 373.1 555 317 555 C180 555 45 415 45 273 C45 215.25 67.4606 157.5 103.398 109.296 C113.962 95.1252 114.436 65.9249 102.163 53.2052 C64.78 14.4606 43 -8 43 -8 C43 -8 43.8789 -8.87895 45 -10 C46.1039 -11.1039 45.9731 -13.0591 47.0598 -11.9383 L47.0598 -11.9383 Z M446.487 410.363 C343.204 302.84 247.779 203.282 175.563 128.271 C164.792 117.083 150.016 120.56 143.262 134.546 C123.251 175.981 111 223.15 111 271 C111 410 213 547 317 547 C365.675 547 414.01 516.712 451.335 470.174 C465.965 451.934 462.686 427.227 446.487 410.363 L446.487 410.363 Z M489.657 407.454 C509.429 366.019 521 318.85 521 271 C521 132 420 -5 316 -5 C267.325 -5 218.65 25.6281 181.205 72.285 C166.563 90.5295 167.765 113.092 183.995 129.939 C257.563 206.303 353.889 306.437 457.621 414.374 C468.407 425.598 482.953 421.503 489.657 407.454 L489.657 407.454 Z " />
<glyph glyph-name="ugrave" unicode="&#xf9;" horiz-adv-x="475" d="M31 797 C31 792 65 759 99 730 L234.993 611.492 C237.205 609.564 240.568 609.792 242.5 612 C244.41 614.183 244.442 617.844 242.569 620.06 L126 758 C97 793 66 827 61 827 C47 827 31 811 31 797 L31 797 Z M436 62 L436 528.998 C436 537.277 429.278 544.112 421 544.25 L406 544.5 L390.5 544.75 C381.946 544.888 375 538.054 375 529.498 L375 149.232 C375 143.494 371.11 126.944 367.917 122.178 C335.69 74.07 266.5 33 211 33 C153 33 96 100 96 168 L96 515 C96 531.559 82.5591 545 66 545 C49.4409 545 36 531.559 36 515 L36 168 C36 79 109 -9 183 -9 C240.8 -9 314.495 38.685 356.183 96.5934 C361.405 103.847 375 97.5772 375 88.6395 L375 16.5 C375 7.94446 381.944 1 390.5 1 L401.969 1 C402.734 1 408.646 2.3834 409.341 2.70262 C415.434 5.50146 423.933 8.00875 431.557 8.76676 C434.031 9.0128 436 11.5132 436 14 L436 62 L436 62 Z " />
<glyph glyph-name="uacute" unicode="&#xfa;" horiz-adv-x="475" d="M246.007 611.492 L382 730 C416 761 450 793 450 797 C450 811 434 827 420 827 C417 827 385 793 355 758 L238.431 620.06 C236.558 617.844 236.59 614.183 238.5 612 C240.432 609.792 243.795 609.564 246.007 611.492 L246.007 611.492 Z M436 62 L436 528.998 C436 537.277 429.278 544.112 421 544.25 L406 544.5 L390.5 544.75 C381.946 544.888 375 538.054 375 529.498 L375 149.232 C375 143.494 371.11 126.944 367.917 122.178 C335.69 74.07 266.5 33 211 33 C153 33 96 100 96 168 L96 515 C96 531.559 82.5591 545 66 545 C49.4409 545 36 531.559 36 515 L36 168 C36 79 109 -9 183 -9 C240.8 -9 314.495 38.685 356.183 96.5934 C361.405 103.847 375 97.5772 375 88.6395 L375 16.5 C375 7.94446 381.944 1 390.5 1 L401.969 1 C402.734 1 408.646 2.3834 409.341 2.70262 C415.434 5.50146 423.933 8.00875 431.557 8.76676 C434.031 9.0128 436 11.5132 436 14 L436 62 L436 62 Z " />
<glyph glyph-name="ucircumflex" unicode="&#xfb;" horiz-adv-x="475" d="M257 807 C254 812 242 828 236 828 C230 828 217 812 214 807 L88.8856 613.464 C87.3095 611.026 87.8153 607.412 90 605.5 C92.2078 603.568 95.5807 603.781 97.5281 605.975 L189.885 710.039 C215.148 738.505 256.769 738.432 281.933 709.878 L373.486 605.988 C375.426 603.787 378.792 603.568 381 605.5 C383.185 607.412 383.69 611.026 382.114 613.464 L257 807 L257 807 Z M436 62 L436 528.998 C436 537.277 429.278 544.112 421 544.25 L406 544.5 L390.5 544.75 C381.946 544.888 375 538.054 375 529.498 L375 149.232 C375 143.494 371.11 126.944 367.917 122.178 C335.69 74.07 266.5 33 211 33 C153 33 96 100 96 168 L96 515 C96 531.559 82.5591 545 66 545 C49.4409 545 36 531.559 36 515 L36 168 C36 79 109 -9 183 -9 C240.8 -9 314.495 38.685 356.183 96.5934 C361.405 103.847 375 97.5772 375 88.6395 L375 16.5 C375 7.94446 381.944 1 390.5 1 L401.969 1 C402.734 1 408.646 2.3834 409.341 2.70262 C415.434 5.50146 423.933 8.00875 431.557 8.76676 C434.031 9.0128 436 11.5132 436 14 L436 62 L436 62 Z " />
<glyph glyph-name="udieresis" unicode="&#xfc;" horiz-adv-x="475" d="M308 660 C327 660 346 679 346 699 C346 719 327 738 308 738 C288 738 269 719 269 699 C269 679 288 660 308 660 L308 660 Z M163 660 C183 660 202 679 202 699 C202 719 183 738 163 738 C144 738 125 719 125 699 C125 679 144 660 163 660 L163 660 Z M436 62 L436 528.998 C436 537.277 429.278 544.112 421 544.25 L406 544.5 L390.5 544.75 C381.946 544.888 375 538.054 375 529.498 L375 149.232 C375 143.494 371.11 126.944 367.917 122.178 C335.69 74.07 266.5 33 211 33 C153 33 96 100 96 168 L96 515 C96 531.559 82.5591 545 66 545 C49.4409 545 36 531.559 36 515 L36 168 C36 79 109 -9 183 -9 C240.8 -9 314.495 38.685 356.183 96.5934 C361.405 103.847 375 97.5772 375 88.6395 L375 16.5 C375 7.94446 381.944 1 390.5 1 L401.969 1 C402.734 1 408.646 2.3834 409.341 2.70262 C415.434 5.50146 423.933 8.00875 431.557 8.76676 C434.031 9.0128 436 11.5132 436 14 L436 62 L436 62 Z " />
<glyph glyph-name="ydieresis" unicode="&#xff;" horiz-adv-x="454" d="M318 659 C338 659 357 678 357 698 C357 718 338 737 318 737 C298 737 279 718 279 698 C279 678 298 659 318 659 L318 659 Z M174 659 C194 659 213 678 213 698 C213 718 194 737 174 737 C154 737 135 718 135 698 C135 678 154 659 174 659 L174 659 Z M444.004 543.799 L395.998 541.87 C395.944 541.868 394.572 540.991 394.607 540.95 C398.522 536.409 396.172 513.207 389 489 C351.875 379.275 317.473 267.508 280.177 158.753 C272.084 135.153 240.411 131.326 231.606 154.67 L107 485 C97.0645 510.29 94.0635 535.989 97.9969 540.726 C97.9969 540.726 97.7846 539.186 97.7846 539.186 L96.7123 543.04 C96.7123 543.04 96.5 541.5 96.5 541.5 L11 541.5 C11 541.5 11.4541 542.803 11.4541 542.803 L10.3486 538.959 C10.3486 538.959 10.8027 540.262 10.8027 540.262 C18.5336 535.602 28.6296 518.296 38 497 L215.96 22.4398 C218.864 14.6947 218.92 -12.7155 216.047 -20.4723 L164 -161 C158 -178 142 -195 137 -195 C118 -195 106 -173 87 -173 C66 -173 45 -194 45 -215 C45 -238 68 -261 92 -261 C111 -261 162 -215 179 -169 L237 -11 L417 496 C426.429 518.286 435.857 536.163 444.656 540.816 C444.749 540.866 444.109 543.804 444.004 543.799 L444.004 543.799 Z " />
<glyph glyph-name="Amacron" unicode="&#x100;" horiz-adv-x="644" d="M175.5 944 L473.5 944 C484.815 944 494 953.185 494 964.5 C494 975.815 484.815 985 473.5 985 L175.5 985 C164.185 985 155 975.815 155 964.5 C155 953.185 164.185 944 175.5 944 L175.5 944 Z M446.329 0.0465391 L640.421 1.47368 C640.849 1.47683 640.919 2.16029 640.5 2.25 C640.495 2.25106 634.047 3.36758 634.042 3.36875 C614.645 8 583.2 55.5 568 103 C494 340 420 577 347 814 C346.457 815.764 345.346 814 343.5 814 C341.891 814 340.256 812.66 340.244 811.05 C340.137 795.649 319.139 778.051 293.928 772.848 C291.299 772.306 289.729 769.571 290.5 767 C290.963 765.458 290.928 758.553 290.449 757.015 L87 103 C71.4 53.275 22.5281 5.45125 -13.2727 3.09114 C-13.3134 3.08846 -19.4691 2.59972 -19.5096 2.59505 L-22.5 2.25 C-22.9112 2.20255 -22.8709 1.5 -22.4569 1.5 L139.457 1.5 C139.871 1.5 139.911 2.20255 139.5 2.25 L136.51 2.59505 C136.476 2.59895 130.364 3.09058 130.33 3.09297 C96.0225 5.5 77.4 54.25 93 103 L143.655 267.629 C150.695 290.51 178.438 311 202.378 311 L384.468 311 C408.513 311 436.253 290.443 443.249 267.438 L496 94 C505.5 49.35 487.925 8.31 456.993 4.31763 C456.978 4.31563 447.193 3.23081 447.177 3.22835 L445.75 3 C445.23 2.9168 445.803 0.0426673 446.329 0.0465391 L446.329 0.0465391 Z M182.447 397.499 L234.056 565.322 C252.281 624.588 333.443 624.504 351.545 565.199 L402.771 397.377 C415.562 355.472 387.821 318 344.008 318 L241.173 318 C197.292 318 169.549 355.556 182.447 397.499 L182.447 397.499 Z " />
<glyph glyph-name="amacron" unicode="&#x101;" horiz-adv-x="539" d="M127.5 694 L426.5 694 C437.815 694 447 703.185 447 714.5 C447 725.815 437.815 735 426.5 735 L127.5 735 C116.185 735 107 725.815 107 714.5 C107 703.185 116.185 694 127.5 694 L127.5 694 Z M545.5 87 C543.786 87.9792 541.612 87.0091 541.073 85.1105 C534.108 60.5625 506.7 38 482 38 C454 38 427 62 427 87 L427 389 C427 485 353 554 277 554 C173 554 71 449 71 404 C71 383 86 362 102 362 C120 362 137 381 137 392 C137 405 117 432 117 443 C117 475 193 548 271 548 C319 548 367 491 367 411 L367 341.298 C367 314.32 346.967 286.488 320.559 280.971 C137.563 242.741 52 189.9 52 90 C52 40 113 -10 175 -10 C213.85 -10 286.925 22.5138 350.695 74.0865 C356.907 79.11 366.768 74.1402 368.95 66.4552 C379.8 28.235 418.9 -5 458 -5 C495.05 -5 538.754 37.7781 548.331 81.6257 C548.803 83.7871 547.421 85.9024 545.5 87 L545.5 87 Z M366 212.646 L366 119.63 C366 104.752 354.629 81.5039 342.315 73.153 C295.652 41.5075 239.85 22 205 22 C157 22 110 59 110 97 C110 188.8 168.884 238.695 293.407 270.636 C334.418 281.156 366 254.985 366 212.646 L366 212.646 Z " />
<glyph glyph-name="Abreve" unicode="&#x102;" horiz-adv-x="644" d="M183.351 1034.73 C189.548 979.284 258.7 927 325 927 C389.6 927 456.907 975.735 466.049 1028.62 C466.744 1032.64 464.536 1037.38 460.5 1038 C457.482 1038.46 453.93 1036.74 453.243 1033.76 C445.602 1000.68 384.85 970 325 970 C265.15 970 203.495 1001.59 195.764 1034.75 C195.136 1037.45 191.758 1039.73 189 1039.5 C185.489 1039.21 182.96 1038.23 183.351 1034.73 L183.351 1034.73 Z M446.329 0.0465391 L640.421 1.47368 C640.849 1.47683 640.919 2.16029 640.5 2.25 C640.495 2.25106 634.047 3.36758 634.042 3.36875 C614.645 8 583.2 55.5 568 103 C494 340 420 577 347 814 C346.457 815.764 345.346 814 343.5 814 C341.891 814 340.256 812.66 340.244 811.05 C340.137 795.649 319.139 778.051 293.928 772.848 C291.299 772.306 289.729 769.571 290.5 767 C290.963 765.458 290.928 758.553 290.449 757.015 L87 103 C71.4 53.275 22.5281 5.45125 -13.2727 3.09114 C-13.3134 3.08846 -19.4691 2.59972 -19.5096 2.59505 L-22.5 2.25 C-22.9112 2.20255 -22.8709 1.5 -22.4569 1.5 L139.457 1.5 C139.871 1.5 139.911 2.20255 139.5 2.25 L136.51 2.59505 C136.476 2.59895 130.364 3.09058 130.33 3.09297 C96.0225 5.5 77.4 54.25 93 103 L143.655 267.629 C150.695 290.51 178.438 311 202.378 311 L384.468 311 C408.513 311 436.253 290.443 443.249 267.438 L496 94 C505.5 49.35 487.925 8.31 456.993 4.31763 C456.978 4.31563 447.193 3.23081 447.177 3.22835 L445.75 3 C445.23 2.9168 445.803 0.0426673 446.329 0.0465391 L446.329 0.0465391 Z M182.447 397.499 L234.056 565.322 C252.281 624.588 333.443 624.504 351.545 565.199 L402.771 397.377 C415.562 355.472 387.821 318 344.008 318 L241.173 318 C197.292 318 169.549 355.556 182.447 397.499 L182.447 397.499 Z " />
<glyph glyph-name="abreve" unicode="&#x103;" horiz-adv-x="539" d="M135.951 780.472 C145.092 726.637 212.4 677 277 677 C341.6 677 408.908 725.735 418.049 778.621 C418.744 782.645 416.536 787.379 412.5 788 C409.482 788.464 405.93 786.737 405.243 783.762 C397.602 750.685 336.85 720 277 720 C217.15 720 156.398 751.587 148.757 784.754 C148.083 787.68 144.493 789.73 141.5 789.5 C137.489 789.191 135.278 784.438 135.951 780.472 L135.951 780.472 Z M545.5 87 C543.786 87.9792 541.612 87.0091 541.073 85.1105 C534.108 60.5625 506.7 38 482 38 C454 38 427 62 427 87 L427 389 C427 485 353 554 277 554 C173 554 71 449 71 404 C71 383 86 362 102 362 C120 362 137 381 137 392 C137 405 117 432 117 443 C117 475 193 548 271 548 C319 548 367 491 367 411 L367 341.298 C367 314.32 346.967 286.488 320.559 280.971 C137.563 242.741 52 189.9 52 90 C52 40 113 -10 175 -10 C213.85 -10 286.925 22.5138 350.695 74.0865 C356.907 79.11 366.768 74.1402 368.95 66.4552 C379.8 28.235 418.9 -5 458 -5 C495.05 -5 538.754 37.7781 548.331 81.6257 C548.803 83.7871 547.421 85.9024 545.5 87 L545.5 87 Z M366 212.646 L366 119.63 C366 104.752 354.629 81.5039 342.315 73.153 C295.652 41.5075 239.85 22 205 22 C157 22 110 59 110 97 C110 188.8 168.884 238.695 293.407 270.636 C334.418 281.156 366 254.985 366 212.646 L366 212.646 Z " />
<glyph glyph-name="Cacute" unicode="&#x106;" horiz-adv-x="748" d="M421.265 860.716 L557 979 C591 1010 625 1042 625 1046 C625 1060 609 1076 595 1076 C591 1076 559 1042 529 1007 L412.651 869.321 C410.643 866.944 410.8 863.2 413 861 C415.203 858.797 418.916 858.67 421.265 860.716 L421.265 860.716 Z M703 60 L703 166.5 C703 170.088 700.088 173 696.5 173 C693.419 173 688.915 169.734 687.756 166.878 C671.725 127.377 621.85 74.7 581 50 C528 17 465 -5 401 -5 C267 -5 135 194 135 397 C135 600 272 799 412 799 C471 799 528 777 578 745 C578 745 661 685 685 633 C686 630 690 623 691 620 L697.5 620 C701.088 620 704 622.912 704 626.5 L704 731 L699 731 C699 727 698 721 698 717 C696 701 667 706 638 727 C579 771 501 804 411 804 C233 804 59 603 59 397 C59 191 228 -10 400 -10 C493 -10 580 23 641 67 C668 87 697 90 698 74 C698 70 701 64 701 60 L703 60 Z M695 136 L695 136 L695 136 L695 136 Z " />
<glyph glyph-name="Ccircumflex" unicode="&#x108;" horiz-adv-x="748" d="M703 60 L703 166.5 C703 170.088 700.088 173 696.5 173 C693.419 173 688.915 169.734 687.756 166.878 C671.725 127.377 621.85 74.7 581 50 C528 17 465 -5 401 -5 C267 -5 135 194 135 397 C135 600 272 799 412 799 C471 799 528 777 578 745 C578 745 661 685 685 633 C686 630 690 623 691 620 L697.5 620 C701.088 620 704 622.912 704 626.5 L704 731 L699 731 C699 727 698 721 698 717 C696 701 667 706 638 727 C579 771 501 804 411 804 C233 804 59 603 59 397 C59 191 228 -10 400 -10 C493 -10 580 23 641 67 C668 87 697 90 698 74 C698 70 701 64 701 60 L703 60 Z M432 1056 C429 1061 417 1077 411 1077 C405 1077 393 1061 390 1056 L263.901 862.453 C262.316 860.02 262.814 856.413 265 854.5 C267.208 852.568 270.575 852.786 272.516 854.986 L364.922 959.756 C390.156 988.367 431.844 988.367 457.078 959.756 L549.484 854.986 C551.425 852.786 554.792 852.568 557 854.5 C559.186 856.413 559.684 860.02 558.099 862.453 L432 1056 L432 1056 Z M695 136 L695 136 L695 136 L695 136 Z " />
<glyph glyph-name="Cdot" unicode="&#x10a;" horiz-adv-x="748" d="M410 909 C430 909 449 928 449 948 C449 968 430 987 410 987 C390 987 371 968 371 948 C371 928 390 909 410 909 L410 909 Z M703 60 L703 166.5 C703 170.088 700.088 173 696.5 173 C693.419 173 688.915 169.734 687.756 166.878 C671.725 127.377 621.85 74.7 581 50 C528 17 465 -5 401 -5 C267 -5 135 194 135 397 C135 600 272 799 412 799 C471 799 528 777 578 745 C578 745 661 685 685 633 C686 630 690 623 691 620 L697.5 620 C701.088 620 704 622.912 704 626.5 L704 731 L699 731 C699 727 698 721 698 717 C696 701 667 706 638 727 C579 771 501 804 411 804 C233 804 59 603 59 397 C59 191 228 -10 400 -10 C493 -10 580 23 641 67 C668 87 697 90 698 74 C698 70 701 64 701 60 L703 60 Z M695 136 L695 136 L695 136 L695 136 Z " />
<glyph glyph-name="cdot" unicode="&#x10b;" horiz-adv-x="509" d="M292 659 C312 659 331 678 331 698 C331 718 312 737 292 737 C272 737 253 718 253 698 C253 678 272 659 292 659 L292 659 Z M461.828 107.114 C423.44 52.6012 344.05 6 282 6 C193 6 106 146 106 288 C106 420 197 550 290 550 C337 550 400 500 419 449 C425 434 439 419 449 419 C470 419 485 434 479 449 C460 502 367 554 292 554 C167 554 45 407 45 258 C45 123 158 -10 273 -10 C336.75 -10 420.007 42.02 461.36 103.071 C461.379 103.1 461.848 107.142 461.828 107.114 L461.828 107.114 Z " />
<glyph glyph-name="Ccaron" unicode="&#x10c;" horiz-adv-x="748" d="M548.484 1083.01 L456.078 978.244 C430.844 949.633 389.156 949.633 363.922 978.244 L271.516 1083.01 C269.575 1085.21 266.208 1085.43 264 1083.5 C261.814 1081.59 261.316 1077.98 262.901 1075.55 L389 882 C392 877 404 861 410 861 C416 861 428 877 431 882 L557.099 1075.55 C558.684 1077.98 558.186 1081.59 556 1083.5 C553.792 1085.43 550.425 1085.21 548.484 1083.01 L548.484 1083.01 Z M703 60 L703 166.5 C703 170.088 700.088 173 696.5 173 C693.419 173 688.915 169.734 687.756 166.878 C671.725 127.377 621.85 74.7 581 50 C528 17 465 -5 401 -5 C267 -5 135 194 135 397 C135 600 272 799 412 799 C471 799 528 777 578 745 C578 745 661 685 685 633 C686 630 690 623 691 620 L697.5 620 C701.088 620 704 622.912 704 626.5 L704 731 L699 731 C699 727 698 721 698 717 C696 701 667 706 638 727 C579 771 501 804 411 804 C233 804 59 603 59 397 C59 191 228 -10 400 -10 C493 -10 580 23 641 67 C668 87 697 90 698 74 C698 70 701 64 701 60 L703 60 Z M695 136 L695 136 L695 136 L695 136 Z " />
<glyph glyph-name="ccaron" unicode="&#x10d;" horiz-adv-x="509" d="M430.484 833.014 L338.078 728.244 C312.844 699.633 271.156 699.633 245.922 728.244 L153.516 833.014 C151.575 835.214 148.208 835.432 146 833.5 C143.814 831.587 143.316 827.98 144.901 825.547 L271 632 C274 627 286 611 292 611 C298 611 310 627 313 632 L439.099 825.547 C440.684 827.98 440.186 831.587 438 833.5 C435.792 835.432 432.425 835.214 430.484 833.014 L430.484 833.014 Z M461.828 107.114 C423.44 52.6012 344.05 6 282 6 C193 6 106 146 106 288 C106 420 197 550 290 550 C337 550 400 500 419 449 C425 434 439 419 449 419 C470 419 485 434 479 449 C460 502 367 554 292 554 C167 554 45 407 45 258 C45 123 158 -10 273 -10 C336.75 -10 420.007 42.02 461.36 103.071 C461.379 103.1 461.848 107.142 461.828 107.114 L461.828 107.114 Z " />
<glyph glyph-name="Dcaron" unicode="&#x10e;" horiz-adv-x="806" d="M525.486 1083.01 L433.933 979.122 C408.769 950.568 367.148 950.495 341.885 978.961 L249.528 1083.02 C247.581 1085.22 244.208 1085.43 242 1083.5 C239.815 1081.59 239.31 1077.97 240.886 1075.54 L366 882 C369 877 382 861 388 861 C394 861 406 877 409 882 L534.114 1075.54 C535.69 1077.97 535.185 1081.59 533 1083.5 C530.792 1085.43 527.426 1085.21 525.486 1083.01 L525.486 1083.01 Z M257 4 C193 4 173 19 173 34 L173 730.5 C173 763.342 199.658 790 232.5 790 L292 790 C504 790 673 595 673 397 C673 179 467 4 257 4 L257 4 Z M264 0 C510 0 751 176 751 397 C751 597 555 794 309 794 L163.44 794 C129.527 794 102 766.473 102 732.56 L102 61.44 C102 27.527 129.527 0 163.44 0 L264 0 L264 0 Z " />
<glyph glyph-name="dcaron" unicode="&#x10f;" horiz-adv-x="570" d="M610 803 C600 803 586 734 582 696 L568.713 590.656 C568.324 587.565 570.494 584.32 573.5 583.5 C576.533 582.673 579.774 584.437 580.726 587.433 L613 689 C625 726 637 778 637 794 C637 799 624 803 610 803 L610 803 Z M521 62 L521 778.998 C521 787.277 514.278 794.112 506 794.25 L499.083 794.365 C497.929 794.385 484.277 792.819 483.157 792.539 L447.532 783.633 C446.136 783.284 445.336 781.878 445.75 780.5 C445.831 780.23 448.518 776.616 448.709 776.409 C454.192 770.48 460 750.24 460 730 L460 479.643 C460 470.898 448.563 465.12 443.084 471.935 C407.538 516.153 353.35 553 310 553 C163 553 45 415 45 274 C45 133 163 -6 283 -6 C333.15 -6 402.085 21.455 441.903 54.2565 C448.395 59.6041 460 54.4828 460 46.0722 L460 14.5 C460 5.94446 466.944 -1 475.5 -1 L486.969 -1 C487.734 -1 493.646 0.383399 494.341 0.702624 C500.434 3.50146 508.933 6.00875 516.557 6.76676 C519.031 7.0128 521 9.51321 521 12 L521 61 L521 62 Z M460 397.685 L460 99.5548 C460 87.6302 454.51 72.508 445.028 65.2761 C411.828 39.9525 353.05 19 308 19 C206 19 107 154 107 291 C107 414 200 535 317 535 C366.4 535 434.753 471.825 456.897 415.78 C457.769 413.573 460 400.058 460 397.685 L460 397.685 Z " />
<glyph glyph-name="Emacron" unicode="&#x112;" horiz-adv-x="582" d="M156.5 944 L455.5 944 C466.815 944 476 953.185 476 964.5 C476 975.815 466.815 985 455.5 985 L156.5 985 C145.185 985 136 975.815 136 964.5 C136 953.185 145.185 944 156.5 944 L156.5 944 Z M535 0 C535 3.6 544.72 58.23 548.122 74.952 C548.547 77.0404 547.008 79 544.877 79 L544.5 79 C542.207 79 539.151 76.9626 538.269 74.8462 L535 67 C522 35 459 4 406 4 L207 4 C181 4 173 18 173 33 L173 345.56 C173 379.473 200.527 407 234.44 407 L344 407 C384 407 430 371 437 335 L438.988 326.385 C439.532 324.026 442.08 322 444.5 322 C446.984 322 449.012 324.016 449.026 326.5 L449.5 407 L449.5 412 L449.026 492.5 C449.012 494.984 446.984 497 444.5 497 C442.08 497 439.532 494.974 438.988 492.615 L437 484 C430 448 384 412 344 412 L234.44 412 C200.527 412 173 439.527 173 473.44 L173 726.56 C173 760.473 200.527 788 234.44 788 L405 788 C446 788 496 752 507 716 L510.385 707.2 C511.217 705.036 514.182 703 516.5 703 C518.948 703 520.589 706.037 520.274 708.464 C517.664 728.548 513.984 760.927 511.244 782.501 C510.471 788.586 505.032 792.012 498.898 792.027 L163.591 792.849 C129.595 792.932 102 765.405 102 731.409 L102 60.5821 C102 26.5907 129.591 -0.93628 163.582 -0.857779 L535 0 L535 0 Z " />
<glyph glyph-name="emacron" unicode="&#x113;" horiz-adv-x="569" d="M167.5 694 L466.5 694 C477.815 694 487 703.185 487 714.5 C487 725.815 477.815 735 466.5 735 L167.5 735 C156.185 735 147 725.815 147 714.5 C147 703.185 156.185 694 167.5 694 L167.5 694 Z M134.431 370 L482.731 370 C522.036 370 540.42 388.859 524.86 424.953 C490.353 504.995 401.975 554 317 554 C180 554 45 436 45 255 C45 121 167 -10 292 -10 C373.375 -10 470.445 48.1875 509.52 114.318 C509.546 114.362 507.284 112.732 507.255 112.69 C468.234 56.4075 375.35 8 298 8 C202 8 108 142 108 279 C108 306.225 111.063 331.408 116.065 355.111 C117.737 363.032 126.336 370 134.431 370 L134.431 370 Z M417.603 374.848 L176.661 374.161 C142.419 374.064 125.235 396.678 140.693 427.232 C179.731 504.398 247.525 550 316 550 C372.925 550 432.913 503.037 459.465 427.079 C470.92 394.309 452.318 374.947 417.603 374.848 L417.603 374.848 Z " />
<glyph glyph-name="Ebreve" unicode="&#x114;" horiz-adv-x="582" d="M164.951 1030.47 C174.092 976.637 241.4 927 306 927 C370.6 927 437.907 975.735 447.049 1028.62 C447.744 1032.64 445.536 1037.38 441.5 1038 C438.482 1038.46 434.93 1036.74 434.243 1033.76 C426.602 1000.68 365.85 970 306 970 C246.15 970 185.398 1001.59 177.757 1034.75 C177.083 1037.68 173.493 1039.73 170.5 1039.5 C166.489 1039.19 164.278 1034.44 164.951 1030.47 L164.951 1030.47 Z M535 0 C535 3.6 544.72 58.23 548.122 74.952 C548.547 77.0404 547.008 79 544.877 79 L544.5 79 C542.207 79 539.151 76.9626 538.269 74.8462 L535 67 C522 35 459 4 406 4 L207 4 C181 4 173 18 173 33 L173 345.56 C173 379.473 200.527 407 234.44 407 L344 407 C384 407 430 371 437 335 L438.988 326.385 C439.532 324.026 442.08 322 444.5 322 C446.984 322 449.012 324.016 449.026 326.5 L449.5 407 L449.5 412 L449.026 492.5 C449.012 494.984 446.984 497 444.5 497 C442.08 497 439.532 494.974 438.988 492.615 L437 484 C430 448 384 412 344 412 L234.44 412 C200.527 412 173 439.527 173 473.44 L173 726.56 C173 760.473 200.527 788 234.44 788 L405 788 C446 788 496 752 507 716 L510.385 707.2 C511.217 705.036 514.182 703 516.5 703 C518.948 703 520.589 706.037 520.274 708.464 C517.664 728.548 513.984 760.927 511.244 782.501 C510.471 788.586 505.032 792.012 498.898 792.027 L163.591 792.849 C129.595 792.932 102 765.405 102 731.409 L102 60.5821 C102 26.5907 129.591 -0.93628 163.582 -0.857779 L535 0 L535 0 Z " />
<glyph glyph-name="ebreve" unicode="&#x115;" horiz-adv-x="569" d="M175.951 780.472 C185.092 726.637 252.4 677 317 677 C381.6 677 448.908 725.735 458.049 778.621 C458.744 782.645 456.536 787.379 452.5 788 C449.482 788.464 445.93 786.737 445.243 783.762 C437.602 750.685 376.85 720 317 720 C257.15 720 196.398 751.587 188.757 784.754 C188.083 787.68 184.493 789.73 181.5 789.5 C177.489 789.191 175.278 784.438 175.951 780.472 L175.951 780.472 Z M134.431 370 L482.731 370 C522.036 370 540.42 388.859 524.86 424.953 C490.353 504.995 401.975 554 317 554 C180 554 45 436 45 255 C45 121 167 -10 292 -10 C373.375 -10 470.445 48.1875 509.52 114.318 C509.546 114.362 507.284 112.732 507.255 112.69 C468.234 56.4075 375.35 8 298 8 C202 8 108 142 108 279 C108 306.225 111.063 331.408 116.065 355.111 C117.737 363.032 126.336 370 134.431 370 L134.431 370 Z M417.603 374.848 L176.661 374.161 C142.419 374.064 125.235 396.678 140.693 427.232 C179.731 504.398 247.525 550 316 550 C372.925 550 432.913 503.037 459.465 427.079 C470.92 394.309 452.318 374.947 417.603 374.848 L417.603 374.848 Z " />
<glyph glyph-name="Edot" unicode="&#x116;" horiz-adv-x="582" d="M306 909 C326 909 345 928 345 948 C345 968 326 987 306 987 C286 987 267 968 267 948 C267 928 286 909 306 909 L306 909 Z M535 0 C535 3.6 544.72 58.23 548.122 74.952 C548.547 77.0404 547.008 79 544.877 79 L544.5 79 C542.207 79 539.151 76.9626 538.269 74.8462 L535 67 C522 35 459 4 406 4 L207 4 C181 4 173 18 173 33 L173 345.56 C173 379.473 200.527 407 234.44 407 L344 407 C384 407 430 371 437 335 L438.988 326.385 C439.532 324.026 442.08 322 444.5 322 C446.984 322 449.012 324.016 449.026 326.5 L449.5 407 L449.5 412 L449.026 492.5 C449.012 494.984 446.984 497 444.5 497 C442.08 497 439.532 494.974 438.988 492.615 L437 484 C430 448 384 412 344 412 L234.44 412 C200.527 412 173 439.527 173 473.44 L173 726.56 C173 760.473 200.527 788 234.44 788 L405 788 C446 788 496 752 507 716 L510.385 707.2 C511.217 705.036 514.182 703 516.5 703 C518.948 703 520.589 706.037 520.274 708.464 C517.664 728.548 513.984 760.927 511.244 782.501 C510.471 788.586 505.032 792.012 498.898 792.027 L163.591 792.849 C129.595 792.932 102 765.405 102 731.409 L102 60.5821 C102 26.5907 129.591 -0.93628 163.582 -0.857779 L535 0 L535 0 Z " />
<glyph glyph-name="edot" unicode="&#x117;" horiz-adv-x="569" d="M317 659 C337 659 356 678 356 698 C356 718 337 737 317 737 C297 737 278 718 278 698 C278 678 297 659 317 659 L317 659 Z M134.431 370 L482.731 370 C522.036 370 540.42 388.859 524.86 424.953 C490.353 504.995 401.975 554 317 554 C180 554 45 436 45 255 C45 121 167 -10 292 -10 C373.375 -10 470.445 48.1875 509.52 114.318 C509.546 114.362 507.284 112.732 507.255 112.69 C468.234 56.4075 375.35 8 298 8 C202 8 108 142 108 279 C108 306.225 111.063 331.408 116.065 355.111 C117.737 363.032 126.336 370 134.431 370 L134.431 370 Z M417.603 374.848 L176.661 374.161 C142.419 374.064 125.235 396.678 140.693 427.232 C179.731 504.398 247.525 550 316 550 C372.925 550 432.913 503.037 459.465 427.079 C470.92 394.309 452.318 374.947 417.603 374.848 L417.603 374.848 Z " />
<glyph glyph-name="Ecaron" unicode="&#x11a;" horiz-adv-x="582" d="M444.484 1083.01 L352.078 978.244 C326.844 949.633 285.156 949.633 259.922 978.244 L167.516 1083.01 C165.575 1085.21 162.208 1085.43 160 1083.5 C157.814 1081.59 157.316 1077.98 158.901 1075.55 L285 882 C288 877 300 861 306 861 C312 861 324 877 327 882 L453.099 1075.55 C454.684 1077.98 454.186 1081.59 452 1083.5 C449.792 1085.43 446.425 1085.21 444.484 1083.01 L444.484 1083.01 Z M535 0 C535 3.6 544.72 58.23 548.122 74.952 C548.547 77.0404 547.008 79 544.877 79 L544.5 79 C542.207 79 539.151 76.9626 538.269 74.8462 L535 67 C522 35 459 4 406 4 L207 4 C181 4 173 18 173 33 L173 345.56 C173 379.473 200.527 407 234.44 407 L344 407 C384 407 430 371 437 335 L438.988 326.385 C439.532 324.026 442.08 322 444.5 322 C446.984 322 449.012 324.016 449.026 326.5 L449.5 407 L449.5 412 L449.026 492.5 C449.012 494.984 446.984 497 444.5 497 C442.08 497 439.532 494.974 438.988 492.615 L437 484 C430 448 384 412 344 412 L234.44 412 C200.527 412 173 439.527 173 473.44 L173 726.56 C173 760.473 200.527 788 234.44 788 L405 788 C446 788 496 752 507 716 L510.385 707.2 C511.217 705.036 514.182 703 516.5 703 C518.948 703 520.589 706.037 520.274 708.464 C517.664 728.548 513.984 760.927 511.244 782.501 C510.471 788.586 505.032 792.012 498.898 792.027 L163.591 792.849 C129.595 792.932 102 765.405 102 731.409 L102 60.5821 C102 26.5907 129.591 -0.93628 163.582 -0.857779 L535 0 L535 0 Z " />
<glyph glyph-name="ecaron" unicode="&#x11b;" horiz-adv-x="569" d="M455.484 833.014 L363.078 728.244 C337.844 699.633 296.156 699.633 270.922 728.244 L178.516 833.014 C176.575 835.214 173.208 835.432 171 833.5 C168.814 831.587 168.316 827.98 169.901 825.547 L296 632 C299 627 311 611 317 611 C323 611 335 627 338 632 L464.099 825.547 C465.684 827.98 465.186 831.587 463 833.5 C460.792 835.432 457.425 835.214 455.484 833.014 L455.484 833.014 Z M134.431 370 L482.731 370 C522.036 370 540.42 388.859 524.86 424.953 C490.353 504.995 401.975 554 317 554 C180 554 45 436 45 255 C45 121 167 -10 292 -10 C373.375 -10 470.445 48.1875 509.52 114.318 C509.546 114.362 507.284 112.732 507.255 112.69 C468.234 56.4075 375.35 8 298 8 C202 8 108 142 108 279 C108 306.225 111.063 331.408 116.065 355.111 C117.737 363.032 126.336 370 134.431 370 L134.431 370 Z M417.603 374.848 L176.661 374.161 C142.419 374.064 125.235 396.678 140.693 427.232 C179.731 504.398 247.525 550 316 550 C372.925 550 432.913 503.037 459.465 427.079 C470.92 394.309 452.318 374.947 417.603 374.848 L417.603 374.848 Z " />
<glyph glyph-name="Gcircumflex" unicode="&#x11c;" horiz-adv-x="775" d="M703 626.021 L703 731 L698 731 C698 727 697 721 697 717 C695 701 666 706 637 727 C578 771 500 804 410 804 C232 804 58 603 58 397 C58 191 228 -10 402 -10 C528.35 -10 665.53 23.8437 745.807 58.0936 C745.861 58.1163 749.23 59.6423 749.176 59.6204 C734.989 53.8013 717.868 48.5341 699.051 43.1996 C691.309 41.0049 684 45.995 684 54.0416 L684 308.5 C684 328.095 668.095 344 648.5 344 C628.905 344 613 328.095 613 308.5 L613 256 C613.925 256 614.85 119.1 614.984 91.4419 C614.989 90.2958 614.461 84.9402 614.094 83.8543 C600.298 43.025 508.575 5 414 5 C273 5 135 200 135 398 C135 601 272 800 412 800 C471 800 528 778 578 746 C578 746 661 686 685 634 C686 631 690 624 691 621 L697 620.5 C700.3 620.225 703 622.709 703 626.021 L703 626.021 Z M432 1057 C429 1062 417 1078 411 1078 C405 1078 393 1062 390 1057 L263.901 863.453 C262.316 861.02 262.814 857.413 265 855.5 C267.208 853.568 270.575 853.786 272.516 855.986 L364.922 960.756 C390.156 989.367 431.844 989.367 457.078 960.756 L549.484 855.986 C551.425 853.786 554.792 853.568 557 855.5 C559.186 857.413 559.684 861.02 558.099 863.453 L432 1057 L432 1057 Z M540.454 12.606 C504.728 8.31444 467.267 5.69175 429.596 5.119 C429.596 5.119 430.169 7.24942 430.169 7.24942 L430.28 3.25096 C430.28 3.25096 430.854 5.38137 430.854 5.38137 C460.556 6.53112 504.984 10.1064 542.526 13.7061 C543.07 13.7583 540.996 12.6711 540.454 12.606 L540.454 12.606 Z " />
<glyph glyph-name="Gbreve" unicode="&#x11e;" horiz-adv-x="775" d="M268.951 1030.47 C278.092 976.637 345.4 927 410 927 C474.6 927 541.907 975.735 551.049 1028.62 C551.744 1032.64 549.536 1037.38 545.5 1038 C542.482 1038.46 538.93 1036.74 538.243 1033.76 C530.602 1000.68 469.85 970 410 970 C350.15 970 289.397 1001.59 281.757 1034.75 C281.083 1037.68 277.493 1039.73 274.5 1039.5 C270.489 1039.19 268.278 1034.44 268.951 1030.47 L268.951 1030.47 Z M703 626.021 L703 731 L698 731 C698 727 697 721 697 717 C695 701 666 706 637 727 C578 771 500 804 410 804 C232 804 58 603 58 397 C58 191 228 -10 402 -10 C528.35 -10 665.53 23.8437 745.807 58.0936 C745.861 58.1163 749.23 59.6423 749.176 59.6204 C734.989 53.8013 717.868 48.5341 699.051 43.1996 C691.309 41.0049 684 45.995 684 54.0416 L684 308.5 C684 328.095 668.095 344 648.5 344 C628.905 344 613 328.095 613 308.5 L613 256 C613.925 256 614.85 119.1 614.984 91.4419 C614.989 90.2958 614.461 84.9402 614.094 83.8543 C600.298 43.025 508.575 5 414 5 C273 5 135 200 135 398 C135 601 272 800 412 800 C471 800 528 778 578 746 C578 746 661 686 685 634 C686 631 690 624 691 621 L697 620.5 C700.3 620.225 703 622.709 703 626.021 L703 626.021 Z M540.454 12.606 C504.728 8.31444 467.267 5.69175 429.596 5.119 C429.596 5.119 430.169 7.24942 430.169 7.24942 L430.28 3.25096 C430.28 3.25096 430.854 5.38137 430.854 5.38137 C460.556 6.53112 504.984 10.1064 542.526 13.7061 C543.07 13.7583 540.996 12.6711 540.454 12.606 L540.454 12.606 Z " />
<glyph glyph-name="gbreve" unicode="&#x11f;" horiz-adv-x="547" d="M130.951 780.472 C140.093 726.637 207.4 677 272 677 C336.6 677 403.907 725.735 413.049 778.621 C413.744 782.645 411.536 787.379 407.5 788 C404.482 788.464 400.93 786.737 400.243 783.762 C392.602 750.685 331.85 720 272 720 C212.15 720 151.398 751.587 143.757 784.754 C143.083 787.68 139.493 789.73 136.5 789.5 C132.489 789.191 130.278 784.438 130.951 780.472 L130.951 780.472 Z M566 495 C566 514 547 532 528 532 C499.1 532 463.697 509.602 442.059 481.389 C437.052 474.861 426.048 474.322 420.716 480.586 C384.59 523.03 328.7 553 272 553 C176 553 81 467 81 380 C81 314.825 132.728 250.331 198.561 220.769 C203.717 218.454 204.846 202.611 199.285 201.602 C120.858 187.378 58 151.55 58 115 C58 76.225 92.7119 38.8113 137.429 21.2888 C143.574 18.881 146.091 5.31057 140.12 2.49925 C90.7375 -20.7525 51 -61.85 51 -95 C51 -164 165 -231 282 -231 C398 -231 512 -154 512 -76 C512 -2 435 71 316 71 L193 71 C143 71 93 102 93 133 C93 169 182 204 272 204 C368 204 462 291 462 380 C462 404.316 454.458 428.632 441.995 450.983 C438.861 456.603 438.782 465.012 443.273 469.62 C456.583 483.278 475.333 493 492 493 C504 493 529 468 541 468 C554 468 566 481.5 566 494.5 L566 495 Z M272 208 C206 208 141 293 141 380 C141 465 206 549 272 549 C337 549 401 465 401 380 C401 293 337 208 272 208 L272 208 Z M182 11.5 L191 11 L311 11 C403 11 463 -39 463 -91 C463 -160 374 -227 284 -227 C192 -227 101 -154 101 -80 C101 -47.625 129.663 -10.5441 164.83 8.29067 C167.525 9.7343 178.947 11.6696 182 11.5 L182 11.5 Z " />
<glyph glyph-name="Gdot" unicode="&#x120;" horiz-adv-x="775" d="M410 909 C430 909 449 928 449 948 C449 968 430 987 410 987 C390 987 371 968 371 948 C371 928 390 909 410 909 L410 909 Z M703 626.021 L703 731 L698 731 C698 727 697 721 697 717 C695 701 666 706 637 727 C578 771 500 804 410 804 C232 804 58 603 58 397 C58 191 228 -10 402 -10 C528.35 -10 665.53 23.8437 745.807 58.0936 C745.861 58.1163 749.23 59.6423 749.176 59.6204 C734.989 53.8013 717.868 48.5341 699.051 43.1996 C691.309 41.0049 684 45.995 684 54.0416 L684 308.5 C684 328.095 668.095 344 648.5 344 C628.905 344 613 328.095 613 308.5 L613 256 C613.925 256 614.85 119.1 614.984 91.4419 C614.989 90.2958 614.461 84.9402 614.094 83.8543 C600.298 43.025 508.575 5 414 5 C273 5 135 200 135 398 C135 601 272 800 412 800 C471 800 528 778 578 746 C578 746 661 686 685 634 C686 631 690 624 691 621 L697 620.5 C700.3 620.225 703 622.709 703 626.021 L703 626.021 Z M540.454 12.606 C504.728 8.31444 467.267 5.69175 429.596 5.119 C429.596 5.119 430.169 7.24942 430.169 7.24942 L430.28 3.25096 C430.28 3.25096 430.854 5.38137 430.854 5.38137 C460.556 6.53112 504.984 10.1064 542.526 13.7061 C543.07 13.7583 540.996 12.6711 540.454 12.606 L540.454 12.606 Z " />
<glyph glyph-name="gdot" unicode="&#x121;" horiz-adv-x="547" d="M272 659 C292 659 311 678 311 698 C311 718 292 737 272 737 C252 737 233 718 233 698 C233 678 252 659 272 659 L272 659 Z M566 495 C566 514 547 532 528 532 C499.1 532 463.697 509.602 442.059 481.389 C437.052 474.861 426.048 474.322 420.716 480.586 C384.59 523.03 328.7 553 272 553 C176 553 81 467 81 380 C81 314.825 132.728 250.331 198.561 220.769 C203.717 218.454 204.846 202.611 199.285 201.602 C120.858 187.378 58 151.55 58 115 C58 76.225 92.7119 38.8113 137.429 21.2888 C143.574 18.881 146.091 5.31057 140.12 2.49925 C90.7375 -20.7525 51 -61.85 51 -95 C51 -164 165 -231 282 -231 C398 -231 512 -154 512 -76 C512 -2 435 71 316 71 L193 71 C143 71 93 102 93 133 C93 169 182 204 272 204 C368 204 462 291 462 380 C462 404.316 454.458 428.632 441.995 450.983 C438.861 456.603 438.782 465.012 443.273 469.62 C456.583 483.278 475.333 493 492 493 C504 493 529 468 541 468 C554 468 566 481.5 566 494.5 L566 495 Z M272 208 C206 208 141 293 141 380 C141 465 206 549 272 549 C337 549 401 465 401 380 C401 293 337 208 272 208 L272 208 Z M182 11.5 L191 11 L311 11 C403 11 463 -39 463 -91 C463 -160 374 -227 284 -227 C192 -227 101 -154 101 -80 C101 -47.625 129.663 -10.5441 164.83 8.29067 C167.525 9.7343 178.947 11.6696 182 11.5 L182 11.5 Z " />
<glyph glyph-name="Hcircumflex" unicode="&#x124;" horiz-adv-x="762" d="M424 1056 C421 1061 409 1077 403 1077 C397 1077 385 1061 382 1056 L255.901 862.453 C254.316 860.02 254.814 856.413 257 854.5 C259.208 852.568 262.575 852.786 264.516 854.986 L356.922 959.756 C382.156 988.367 423.844 988.367 449.078 959.756 L541.484 854.986 C543.425 852.786 546.792 852.568 549 854.5 C551.186 856.413 551.684 860.02 550.099 862.453 L424 1056 L424 1056 Z M668 35.5 L668 758.5 C668 778.095 652.095 794 632.5 794 C612.905 794 597 778.095 597 758.5 L597 472.44 C597 438.527 569.473 411 535.56 411 L270.44 411 C236.527 411 209 438.527 209 472.44 L209 758.5 C209 778.095 193.095 794 173.5 794 C153.905 794 138 778.095 138 758.5 L138 35.5 C138 15.9051 153.905 0 173.5 0 C193.095 0 209 15.9051 209 35.5 L209 343.56 C209 377.473 236.527 405 270.44 405 L535.56 405 C569.473 405 597 377.473 597 343.56 L597 35.5 C597 15.9051 612.905 0 632.5 0 C652.095 0 668 15.9051 668 35.5 L668 35.5 Z " />
<glyph glyph-name="Itilde" unicode="&#x128;" horiz-adv-x="269" d="M-23.1137 930.753 L-19.1866 929.993 C-19.1866 929.993 -19.7452 930.628 -19.7452 930.628 C-12.8694 956.22 8.725 978 31 978 C82 978 182 913 233 913 C265.4 913 296.585 954.31 302.498 1000.48 C302.498 1000.48 304.019 1001.16 304.019 1001.16 L300.092 1001.92 C300.092 1001.92 301.613 1002.6 301.613 1002.6 C294.684 977.675 269.8 956 246 956 C195 956 95 1021 44 1021 C12.5 1021 -16.975 978.07 -22.555 930.118 C-22.555 930.118 -23.1137 930.753 -23.1137 930.753 L-19.1866 929.993 C-19.1866 929.993 -19.7452 930.628 -19.7452 930.628 L-23.1137 930.753 Z M175 35.5 L175 758.5 C175 778.095 159.095 794 139.5 794 C119.905 794 104 778.095 104 758.5 L104 35.5 C104 15.9051 119.905 0 139.5 0 C159.095 0 175 15.9051 175 35.5 L175 35.5 Z " />
<glyph glyph-name="itilde" unicode="&#x129;" horiz-adv-x="200" d="M-52.1137 680.753 L-48.1866 679.993 C-48.1866 679.993 -48.7452 680.628 -48.7452 680.628 C-41.8694 706.22 -20.275 728 2 728 C53 728 153 663 204 663 C236.4 663 267.585 704.31 273.498 750.48 C273.498 750.48 275.019 751.16 275.019 751.16 L271.092 751.921 C271.092 751.921 272.613 752.601 272.613 752.601 C265.684 727.675 240.8 706 217 706 C166 706 66 771 15 771 C-16.5 771 -45.975 728.07 -51.555 680.118 C-51.555 680.118 -52.1137 680.753 -52.1137 680.753 L-48.1866 679.993 C-48.1866 679.993 -48.7452 680.628 -48.7452 680.628 L-52.1137 680.753 Z M106.925 542.949 C99.5699 541.01 89.7565 538.252 82.9472 536.495 C80.83 535.949 81 534.063 81 531.877 L81 30 C81 13.4409 94.4409 0 111 0 C127.559 0 141 13.4409 141 30 L141 529 C141 537.28 134.28 544 126 544 L115.123 544 C114.512 544 107.516 543.105 106.925 542.949 L106.925 542.949 Z " />
<glyph glyph-name="Imacron" unicode="&#x12a;" horiz-adv-x="269" d="M-9.5 944 L289.5 944 C300.815 944 310 953.185 310 964.5 C310 975.815 300.815 985 289.5 985 L-9.5 985 C-20.8154 985 -30 975.815 -30 964.5 C-30 953.185 -20.8154 944 -9.5 944 L-9.5 944 Z M175 35.5 L175 758.5 C175 778.095 159.095 794 139.5 794 C119.905 794 104 778.095 104 758.5 L104 35.5 C104 15.9051 119.905 0 139.5 0 C159.095 0 175 15.9051 175 35.5 L175 35.5 Z " />
<glyph glyph-name="imacron" unicode="&#x12b;" horiz-adv-x="200" d="M-38.5 694 L260.5 694 C271.815 694 281 703.185 281 714.5 C281 725.815 271.815 735 260.5 735 L-38.5 735 C-49.8154 735 -59 725.815 -59 714.5 C-59 703.185 -49.8154 694 -38.5 694 L-38.5 694 Z M106.925 542.949 C99.5699 541.01 89.7565 538.252 82.9472 536.495 C80.83 535.949 81 534.063 81 531.877 L81 30 C81 13.4409 94.4409 0 111 0 C127.559 0 141 13.4409 141 30 L141 529 C141 537.28 134.28 544 126 544 L115.123 544 C114.512 544 107.516 543.105 106.925 542.949 L106.925 542.949 Z " />
<glyph glyph-name="Ibreve" unicode="&#x12c;" horiz-adv-x="269" d="M-1.04887 1030.47 C8.0925 976.637 75.4 927 140 927 C204.6 927 271.908 975.735 281.049 1028.62 C281.744 1032.64 279.536 1037.38 275.5 1038 C272.482 1038.46 268.93 1036.74 268.243 1033.76 C260.603 1000.68 199.85 970 140 970 C80.15 970 19.3975 1001.59 11.7571 1034.75 C11.0832 1037.68 7.4934 1039.73 4.5 1039.5 C0.488746 1039.19 -1.72238 1034.44 -1.04887 1030.47 L-1.04887 1030.47 Z M175 35.5 L175 758.5 C175 778.095 159.095 794 139.5 794 C119.905 794 104 778.095 104 758.5 L104 35.5 C104 15.9051 119.905 0 139.5 0 C159.095 0 175 15.9051 175 35.5 L175 35.5 Z " />
<glyph glyph-name="ibreve" unicode="&#x12d;" horiz-adv-x="200" d="M-30.0489 780.472 C-20.9075 726.637 46.4 677 111 677 C175.6 677 242.908 725.735 252.049 778.621 C252.744 782.645 250.536 787.379 246.5 788 C243.482 788.464 239.93 786.737 239.243 783.762 C231.602 750.685 170.85 720 111 720 C51.15 720 -9.6025 751.587 -17.2429 784.754 C-17.9168 787.68 -21.5066 789.73 -24.5 789.5 C-28.5113 789.191 -30.7224 784.438 -30.0489 780.472 L-30.0489 780.472 Z M106.925 542.949 C99.5699 541.01 89.7565 538.252 82.9472 536.495 C80.83 535.949 81 534.063 81 531.877 L81 30 C81 13.4409 94.4409 0 111 0 C127.559 0 141 13.4409 141 30 L141 529 C141 537.28 134.28 544 126 544 L115.123 544 C114.512 544 107.516 543.105 106.925 542.949 L106.925 542.949 Z " />
<glyph glyph-name="Idot" unicode="&#x130;" horiz-adv-x="269" d="M140 909 C160 909 179 928 179 948 C179 968 160 987 140 987 C120 987 101 968 101 948 C101 928 120 909 140 909 L140 909 Z M175 35.5 L175 758.5 C175 778.095 159.095 794 139.5 794 C119.905 794 104 778.095 104 758.5 L104 35.5 C104 15.9051 119.905 0 139.5 0 C159.095 0 175 15.9051 175 35.5 L175 35.5 Z " />
<glyph glyph-name="dotlessi" unicode="&#x131;" horiz-adv-x="200" d="M106.925 542.949 C99.5699 541.01 89.7565 538.252 82.9472 536.495 C80.83 535.949 81 534.063 81 531.877 L81 30 C81 13.4409 94.4409 0 111 0 C127.559 0 141 13.4409 141 30 L141 529 C141 537.28 134.28 544 126 544 L115.123 544 C114.512 544 107.516 543.105 106.925 542.949 L106.925 542.949 Z " />
<glyph glyph-name="Jcircumflex" unicode="&#x134;" horiz-adv-x="269" d="M161 1056 C158 1061 146 1077 140 1077 C134 1077 122 1061 119 1056 L-7.09861 862.453 C-8.68411 860.02 -8.18585 856.413 -6 854.5 C-3.79214 852.568 -0.424824 852.786 1.51575 854.986 L93.9216 959.756 C119.156 988.367 160.844 988.367 186.078 959.756 L278.484 854.986 C280.425 852.786 283.792 852.568 286 854.5 C288.186 856.413 288.684 860.02 287.099 862.453 L161 1056 L161 1056 Z M104 -45 C104 -163 23 -212 -22 -212 C-51 -212 -46 -155 -75 -155 C-91 -155 -107 -171 -107 -187 C-107 -204 -67 -220 -27 -220 C44 -220 175 -129 175 89 L175 758.5 C175 778.095 159.095 794 139.5 794 C119.905 794 104 778.095 104 758.5 L104 -45 L104 -45 Z " />
<glyph glyph-name="Lacute" unicode="&#x139;" horiz-adv-x="567" d="M151.265 860.716 L287 979 C321 1010 355 1042 355 1046 C355 1060 339 1076 325 1076 C321 1076 289 1042 259 1007 L142.651 869.321 C140.643 866.944 140.8 863.2 143 861 C145.203 858.797 148.916 858.67 151.265 860.716 L151.265 860.716 Z M209 12 C183 12 175 23 175 34 L175 758.5 C175 778.095 159.095 794 139.5 794 C119.905 794 104 778.095 104 758.5 L104 61.44 C104 27.527 131.527 0 165.44 0 L531.5 0 C537.243 0 543.074 5.72374 543.621 11.4401 C545.667 32.8049 552.278 61.6475 556.005 80.745 C556.479 83.1693 554.97 86 552.5 86 C550.207 86 547.151 83.9626 546.269 81.8462 L543 74 C530 42 467 11 414 11 L209 12 L209 12 Z " />
<glyph glyph-name="Lcaron" unicode="&#x13d;" horiz-adv-x="567" d="M313 852 C302 852 289 783 285 745 L272.607 639.185 C272.277 636.367 274.282 633.315 277 632.5 C279.759 631.672 282.708 633.229 283.581 635.975 L316 738 C328 775 340 827 340 843 C340 848 327 852 313 852 L313 852 Z M209 12 C183 12 175 23 175 34 L175 758.5 C175 778.095 159.095 794 139.5 794 C119.905 794 104 778.095 104 758.5 L104 61.44 C104 27.527 131.527 0 165.44 0 L531.5 0 C537.243 0 543.074 5.72374 543.621 11.4401 C545.667 32.8049 552.278 61.6475 556.005 80.745 C556.479 83.1693 554.97 86 552.5 86 C550.207 86 547.151 83.9626 546.269 81.8462 L543 74 C530 42 467 11 414 11 L209 12 L209 12 Z " />
<glyph glyph-name="lcaron" unicode="&#x13e;" horiz-adv-x="144" d="M189 802 C179 802 165 733 161 695 L147.713 589.656 C147.324 586.565 149.494 583.32 152.5 582.5 C155.533 581.673 158.774 583.437 159.726 586.433 L192 688 C204 725 216 777 216 793 C216 798 203 802 189 802 L189 802 Z M26.5 777 C32.5 775 40 752 40 729 L40 30 C40 13.4409 53.4409 0 70 0 C86.5591 0 100 13.4409 100 30 L100 779 C100 787.28 93.2796 794 85 794 L78.0513 794 C76.9062 794 63.3269 792.221 62.2205 791.925 L25 782 L25 777 L26.5 777 Z " />
<glyph glyph-name="Nacute" unicode="&#x143;" horiz-adv-x="704" d="M260.007 860.492 L396 979 C430 1010 464 1042 464 1046 C464 1060 448 1076 434 1076 C431 1076 399 1042 369 1007 L252.431 869.06 C250.558 866.844 250.59 863.183 252.5 861 C254.432 858.792 257.795 858.564 260.007 860.492 L260.007 860.492 Z M57.041 0.0495811 L142.908 1.44959 C143.349 1.45678 143.428 2.14306 143 2.25 C142.991 2.25234 137.122 3.30347 137.113 3.30546 C123.252 6.22581 111 29.6129 111 53 L109.441 549.625 C109.302 593.879 170.282 602.36 195.607 566.069 C331.589 371.204 467.111 175.881 603.387 -18.6903 C605.202 -21.2817 594.836 -1 598 -1 C601.864 -1 605.021 2.13623 605.047 5.99984 L610 740 C610 763.387 623.127 786.774 636.282 789.695 C636.287 789.696 641.995 790.749 642 790.75 C642.444 790.861 642.367 791.571 641.909 791.583 L615.49 792.29 C600.874 792.682 589 781.122 589 766.5 L589 740 L590.974 137.906 C590.982 135.434 587.907 134.467 586.5 136.5 L582 143 L142.635 766.553 C134.154 778.589 106.373 792.781 91.6492 792.599 L13.9992 791.636 C13.9254 791.635 13.1292 790.055 13.2004 790.035 C32.965 784.604 55.15 764.65 73 740 L81.5 728 C84.2177 724.163 89.9849 705.996 89.9779 701.295 L89 52 C89 28.6129 76.7482 5.22581 62.8872 2.30546 C62.8693 2.30168 57.0181 1.50301 57 1.5 C56.7544 1.45907 56.7921 0.0455227 57.041 0.0495811 L57.041 0.0495811 Z " />
<glyph glyph-name="Ncaron" unicode="&#x147;" horiz-adv-x="704" d="M487.486 1083.01 L395.933 979.122 C370.769 950.568 329.148 950.495 303.885 978.961 L211.528 1083.02 C209.581 1085.22 206.208 1085.43 204 1083.5 C201.815 1081.59 201.31 1077.97 202.886 1075.54 L328 882 C331 877 344 861 350 861 C356 861 368 877 371 882 L496.114 1075.54 C497.69 1077.97 497.185 1081.59 495 1083.5 C492.792 1085.43 489.426 1085.21 487.486 1083.01 L487.486 1083.01 Z M57.041 0.0495811 L142.908 1.44959 C143.349 1.45678 143.428 2.14306 143 2.25 C142.991 2.25234 137.122 3.30347 137.113 3.30546 C123.252 6.22581 111 29.6129 111 53 L109.441 549.625 C109.302 593.879 170.282 602.36 195.607 566.069 C331.589 371.204 467.111 175.881 603.387 -18.6903 C605.202 -21.2817 594.836 -1 598 -1 C601.864 -1 605.021 2.13623 605.047 5.99984 L610 740 C610 763.387 623.127 786.774 636.282 789.695 C636.287 789.696 641.995 790.749 642 790.75 C642.444 790.861 642.367 791.571 641.909 791.583 L615.49 792.29 C600.874 792.682 589 781.122 589 766.5 L589 740 L590.974 137.906 C590.982 135.434 587.907 134.467 586.5 136.5 L582 143 L142.635 766.553 C134.154 778.589 106.373 792.781 91.6492 792.599 L13.9992 791.636 C13.9254 791.635 13.1292 790.055 13.2004 790.035 C32.965 784.604 55.15 764.65 73 740 L81.5 728 C84.2177 724.163 89.9849 705.996 89.9779 701.295 L89 52 C89 28.6129 76.7482 5.22581 62.8872 2.30546 C62.8693 2.30168 57.0181 1.50301 57 1.5 C56.7544 1.45907 56.7921 0.0455227 57.041 0.0495811 L57.041 0.0495811 Z " />
<glyph glyph-name="ncaron" unicode="&#x148;" horiz-adv-x="472" d="M372.484 833.014 L280.078 728.244 C254.844 699.633 213.156 699.633 187.922 728.244 L95.5157 833.014 C93.5752 835.214 90.2079 835.432 88 833.5 C85.8142 831.587 85.3159 827.98 86.9014 825.547 L213 632 C216 627 228 611 234 611 C240 611 252 627 255 632 L381.099 825.547 C382.684 827.98 382.186 831.587 380 833.5 C377.792 835.432 374.425 835.214 372.484 833.014 L372.484 833.014 Z M26.5 527 C32.5 525 40 502 40 479 L40 30 C40 13.4409 53.4409 0 70 0 C86.5591 0 100 13.4409 100 30 L100 387.96 C100 396.635 108.677 419.831 114.471 426.286 C160.56 477.64 228.6 523 261 523 C320 523 368 446 368 367 L368 30 C368 13.4409 381.441 0 398 0 C414.559 0 428 13.4409 428 30 L428 367 C428 461 362 554 280 554 C247.7 554 178.552 505.592 125.986 449.31 C116.326 438.966 100 447.954 100 462.107 L100 529 C100 537.28 93.2796 544 85 544 L78.0513 544 C76.9062 544 63.3269 542.221 62.2205 541.925 L25 532 L25 527 L26.5 527 Z " />
<glyph glyph-name="Omacron" unicode="&#x14c;" horiz-adv-x="852" d="M273.5 944 L572.5 944 C583.815 944 593 953.185 593 964.5 C593 975.815 583.815 985 572.5 985 L273.5 985 C262.185 985 253 975.815 253 964.5 C253 953.185 262.185 944 273.5 944 L273.5 944 Z M135 397 C135 600 277 799 422 799 C572 799 720 600 720 397 C720 194 569 -5 414 -5 C273 -5 135 194 135 397 L135 397 Z M58 397 C58 191 234 -10 413 -10 C607 -10 797 191 797 397 C797 603 612 804 423 804 C239 804 58 603 58 397 L58 397 Z " />
<glyph glyph-name="omacron" unicode="&#x14d;" horiz-adv-x="633" d="M167.5 694 L466.5 694 C477.815 694 487 703.185 487 714.5 C487 725.815 477.815 735 466.5 735 L167.5 735 C156.185 735 147 725.815 147 714.5 C147 703.185 156.185 694 167.5 694 L167.5 694 Z M111 272 C111 411 213 548 317 548 C421 548 522 411 522 272 C522 133 421 -4 317 -4 C213 -4 111 133 111 272 L111 272 Z M45 272 C45 130 180 -10 317 -10 C454 -10 588 130 588 272 C588 414 454 554 317 554 C180 554 45 414 45 272 L45 272 Z " />
<glyph glyph-name="Obreve" unicode="&#x14e;" horiz-adv-x="852" d="M281.951 1030.47 C291.093 976.637 358.4 927 423 927 C487.6 927 554.908 975.735 564.049 1028.62 C564.744 1032.64 562.536 1037.38 558.5 1038 C555.482 1038.46 551.93 1036.74 551.243 1033.76 C543.602 1000.68 482.85 970 423 970 C363.15 970 302.398 1001.59 294.757 1034.75 C294.083 1037.68 290.493 1039.73 287.5 1039.5 C283.489 1039.19 281.278 1034.44 281.951 1030.47 L281.951 1030.47 Z M135 397 C135 600 277 799 422 799 C572 799 720 600 720 397 C720 194 569 -5 414 -5 C273 -5 135 194 135 397 L135 397 Z M58 397 C58 191 234 -10 413 -10 C607 -10 797 191 797 397 C797 603 612 804 423 804 C239 804 58 603 58 397 L58 397 Z " />
<glyph glyph-name="obreve" unicode="&#x14f;" horiz-adv-x="633" d="M175.951 780.472 C185.092 726.637 252.4 677 317 677 C381.6 677 448.908 725.735 458.049 778.621 C458.744 782.645 456.536 787.379 452.5 788 C449.482 788.464 445.93 786.737 445.243 783.762 C437.602 750.685 376.85 720 317 720 C257.15 720 196.398 751.587 188.757 784.754 C188.083 787.68 184.493 789.73 181.5 789.5 C177.489 789.191 175.278 784.438 175.951 780.472 L175.951 780.472 Z M111 272 C111 411 213 548 317 548 C421 548 522 411 522 272 C522 133 421 -4 317 -4 C213 -4 111 133 111 272 L111 272 Z M45 272 C45 130 180 -10 317 -10 C454 -10 588 130 588 272 C588 414 454 554 317 554 C180 554 45 414 45 272 L45 272 Z " />
<glyph glyph-name="Racute" unicode="&#x154;" horiz-adv-x="673" d="M304.007 860.492 L440 979 C474 1010 508 1042 508 1046 C508 1060 492 1076 478 1076 C475 1076 443 1042 413 1007 L296.431 869.06 C294.558 866.844 294.59 863.183 296.5 861 C298.432 858.792 301.795 858.564 304.007 860.492 L304.007 860.492 Z M632.63 -0.796537 L633.035 3.18287 C633.035 3.18287 629.872 1.664 629.872 1.664 C591.44 6.4 574 22.4 554 64 C492.75 190 432.266 314.469 404.033 372.424 C398.742 383.286 403.117 395.048 414.629 398.715 C498.117 425.313 564 489.6 564 571 C564 684 448 794 329 794 L164.44 794 C130.527 794 103 766.473 103 732.56 L103 35.5 C103 15.9051 118.905 0 138.5 0 C158.095 0 174 15.9051 174 35.5 L174 323.56 C174 357.473 201.527 385 235.44 385 L303.64 385 C314.065 385 328.92 374.873 332.957 365.262 C356.719 308.688 415.125 182.25 472 65 C495.125 16.9 528.09 2.59719 635.793 0.722328 C635.793 0.722328 632.63 -0.796537 632.63 -0.796537 L633.035 3.18287 C633.035 3.18287 629.872 1.664 629.872 1.664 L632.63 -0.796537 Z M174 464.44 L174 719.56 C174 753.473 201.527 781 235.44 781 L308 781 C398 781 486 684 486 586 C486 480 408 403 329 403 L235.44 403 C201.527 403 174 430.527 174 464.44 L174 464.44 Z " />
<glyph glyph-name="Rcaron" unicode="&#x158;" horiz-adv-x="673" d="M431.486 1083.01 L339.933 979.122 C314.769 950.568 273.148 950.495 247.885 978.961 L155.528 1083.02 C153.581 1085.22 150.208 1085.43 148 1083.5 C145.815 1081.59 145.31 1077.97 146.886 1075.54 L272 882 C275 877 288 861 294 861 C300 861 312 877 315 882 L440.114 1075.54 C441.69 1077.97 441.185 1081.59 439 1083.5 C436.792 1085.43 433.426 1085.21 431.486 1083.01 L431.486 1083.01 Z M632.63 -0.796537 L633.035 3.18287 C633.035 3.18287 629.872 1.664 629.872 1.664 C591.44 6.4 574 22.4 554 64 C492.75 190 432.266 314.469 404.033 372.424 C398.742 383.286 403.117 395.048 414.629 398.715 C498.117 425.313 564 489.6 564 571 C564 684 448 794 329 794 L164.44 794 C130.527 794 103 766.473 103 732.56 L103 35.5 C103 15.9051 118.905 0 138.5 0 C158.095 0 174 15.9051 174 35.5 L174 323.56 C174 357.473 201.527 385 235.44 385 L303.64 385 C314.065 385 328.92 374.873 332.957 365.262 C356.719 308.688 415.125 182.25 472 65 C495.125 16.9 528.09 2.59719 635.793 0.722328 C635.793 0.722328 632.63 -0.796537 632.63 -0.796537 L633.035 3.18287 C633.035 3.18287 629.872 1.664 629.872 1.664 L632.63 -0.796537 Z M174 464.44 L174 719.56 C174 753.473 201.527 781 235.44 781 L308 781 C398 781 486 684 486 586 C486 480 408 403 329 403 L235.44 403 C201.527 403 174 430.527 174 464.44 L174 464.44 Z " />
<glyph glyph-name="rcaron" unicode="&#x159;" horiz-adv-x="361" d="M328.486 833.012 L236.933 729.122 C211.769 700.568 170.148 700.495 144.885 728.961 L52.5281 833.025 C50.5807 835.219 47.2078 835.432 45 833.5 C42.8153 831.588 42.3095 827.974 43.8856 825.536 L169 632 C172 627 185 611 191 611 C197 611 209 627 212 632 L337.114 825.536 C338.69 827.974 338.185 831.588 336 833.5 C333.792 835.432 330.426 835.213 328.486 833.012 L328.486 833.012 Z M27.5 527 C33.5 525 41 502 41 479 L41 30 C41 13.4409 54.4409 0 71 0 C87.5591 0 101 13.4409 101 30 L101 397.175 C101 402.518 105.853 421.476 108.732 425.977 C142.604 478.941 200.925 526 237 526 C259 526 280 509 280 491 C280 473 298 456 316 456 C334 456 351 473 351 491 C351 523 308 554 265 554 C223.35 554 160.025 507.76 119.856 452.742 C114.226 445.03 101 451.481 101 461.03 L101 529 C101 537.28 94.2796 544 86 544 L79.0513 544 C77.9062 544 64.3269 542.221 63.2205 541.925 L26 532 L26 527 L27.5 527 Z " />
<glyph glyph-name="Sacute" unicode="&#x15a;" horiz-adv-x="574" d="M298.265 860.716 L434 979 C468 1010 502 1042 502 1046 C502 1060 486 1076 472 1076 C468 1076 436 1042 406 1007 L289.651 869.321 C287.643 866.944 287.8 863.2 290 861 C292.203 858.797 295.916 858.67 298.265 860.716 L298.265 860.716 Z M260 804 C164 804 70 706 70 606 C70 534 169 418 293 360 C395 312 477 226 477 176 C477 86 396 -3 314 -3 C270 -3 215 21 167 57 C131 86 86 145 71 182 C70 186 66 192 65 196 L58.5 196 C54.9122 196 52 193.088 52 189.5 L52 59 L57 59 C57 64 58 74 58 79 C59 101 89 99 117 75 C174 26 252 -10 314 -10 C425 -10 534 92 534 197 C534 270 446 383 335 434 C219 488 126 582 126 633 C126 717 192 799 260 799 C292 799 329 788 363 770 C403 749 458 692 473 654 C474 650 478 644 479 640 L485.5 640 C489.088 640 492 642.912 492 646.5 L492 741 L487 741 L486 730 C485 718 462 723 441 739 C399 771 327 804.5 260 804.5 L260 804 Z " />
<glyph glyph-name="Scircumflex" unicode="&#x15c;" horiz-adv-x="574" d="M260 804 C164 804 70 706 70 606 C70 534 169 418 293 360 C395 312 477 226 477 176 C477 86 396 -3 314 -3 C270 -3 215 21 167 57 C131 86 86 145 71 182 C70 186 66 192 65 196 L58.5 196 C54.9122 196 52 193.088 52 189.5 L52 59 L57 59 C57 64 58 74 58 79 C59 101 89 99 117 75 C174 26 252 -10 314 -10 C425 -10 534 92 534 197 C534 270 446 383 335 434 C219 488 126 582 126 633 C126 717 192 799 260 799 C292 799 329 788 363 770 C403 749 458 692 473 654 C474 650 478 644 479 640 L485.5 640 C489.088 640 492 642.912 492 646.5 L492 741 L487 741 L486 730 C485 718 462 723 441 739 C399 771 327 804.5 260 804.5 L260 804 Z M308 1057 C305 1062 293 1078 287 1078 C281 1078 269 1062 266 1057 L139.901 863.453 C138.316 861.02 138.814 857.413 141 855.5 C143.208 853.568 146.575 853.786 148.516 855.986 L240.922 960.756 C266.156 989.367 307.844 989.367 333.078 960.756 L425.484 855.986 C427.425 853.786 430.792 853.568 433 855.5 C435.186 857.413 435.684 861.02 434.099 863.453 L308 1057 L308 1057 Z " />
<glyph glyph-name="Scaron" unicode="&#x160;" horiz-adv-x="574" d="M425.484 1083.01 L333.078 978.244 C307.844 949.633 266.156 949.633 240.922 978.244 L148.516 1083.01 C146.575 1085.21 143.208 1085.43 141 1083.5 C138.814 1081.59 138.316 1077.98 139.901 1075.55 L266 882 C269 877 281 861 287 861 C293 861 305 877 308 882 L434.099 1075.55 C435.684 1077.98 435.186 1081.59 433 1083.5 C430.792 1085.43 427.425 1085.21 425.484 1083.01 L425.484 1083.01 Z M260 804 C164 804 70 706 70 606 C70 534 169 418 293 360 C395 312 477 226 477 176 C477 86 396 -3 314 -3 C270 -3 215 21 167 57 C131 86 86 145 71 182 C70 186 66 192 65 196 L58.5 196 C54.9122 196 52 193.088 52 189.5 L52 59 L57 59 C57 64 58 74 58 79 C59 101 89 99 117 75 C174 26 252 -10 314 -10 C425 -10 534 92 534 197 C534 270 446 383 335 434 C219 488 126 582 126 633 C126 717 192 799 260 799 C292 799 329 788 363 770 C403 749 458 692 473 654 C474 650 478 644 479 640 L485.5 640 C489.088 640 492 642.912 492 646.5 L492 741 L487 741 L486 730 C485 718 462 723 441 739 C399 771 327 804.5 260 804.5 L260 804 Z " />
<glyph glyph-name="scaron" unicode="&#x161;" horiz-adv-x="450" d="M377.484 833.014 L285.078 728.244 C259.844 699.633 218.156 699.633 192.922 728.244 L100.516 833.014 C98.5752 835.214 95.2079 835.432 93 833.5 C90.8142 831.587 90.3159 827.98 91.9014 825.547 L218 632 C221 627 233 611 239 611 C245 611 257 627 260 632 L386.099 825.547 C387.684 827.98 387.186 831.587 385 833.5 C382.792 835.432 379.425 835.214 377.484 833.014 L377.484 833.014 Z M372.94 434.549 L371.5 496 C371.5 494 369 492 369 490 C369 490 299.959 528.356 279.337 539.051 C279.087 539.18 274.51 541.237 274.246 541.333 C250.91 549.838 226.313 555 205 555 C132 555 60 489 60 421 C60 365 133 283 225 250 C296 224 353 162 353 119 C353 56 296 -5 238 -5 C212 -5 180 8 151 28 C124.675 47.5 85.9919 93.6175 67.3907 126.498 C67.2159 126.806 63.7272 131.727 63.5 132 C62.6166 133.06 61 132.475 61 131.095 L61 64.1231 C61 63.5711 61.8661 63.4645 62 64 L63 68 C64 73 92 58 120 37 C156 10 201 -8 238 -8 C319 -8 399 63 399 136 C399 190 333 267 251 297 C169 327 103 396 103 443 C103 498 153 552 205 552 C226 552 250 545 273 533 C302 517 348 472 365 439 L366.86 435.28 C367.357 434.287 369.411 432.718 370.5 432.5 C371.846 432.231 372.972 433.176 372.94 434.549 L372.94 434.549 Z " />
<glyph glyph-name="Tcaron" unicode="&#x164;" horiz-adv-x="801" d="M541.484 1083.01 L449.078 978.244 C423.844 949.633 382.156 949.633 356.922 978.244 L264.516 1083.01 C262.575 1085.21 259.208 1085.43 257 1083.5 C254.814 1081.59 254.316 1077.98 255.901 1075.55 L382 882 C385 877 397 861 403 861 C409 861 421 877 424 882 L550.099 1075.55 C551.684 1077.98 551.186 1081.59 549 1083.5 C546.792 1085.43 543.425 1085.21 541.484 1083.01 L541.484 1083.01 Z M54 792 C55 793 55 794 55 794 L54 792 L54 792 Z M51 785 C52 786 53 788 53 789 L51 785 L51 785 Z M778.701 704.391 C770.735 725.071 756.265 760.929 748.299 781.609 C747.975 782.451 747 788.598 747 789.5 C747 791.984 744.984 794 742.5 794 L62 794 C58.1362 794 55 790.864 55 787 C55 785.566 52.5944 774.092 52.0565 772.763 C43.7829 752.312 32.4365 723.437 25.751 704.919 C24.9494 702.699 26.1393 700 28.5 700 C30.5667 700 34.3498 702.025 35.4962 703.744 L41 712 C61 744 122 775 165 775 L304.56 775 C338.473 775 366 747.473 366 713.56 L366 34.5 C366 14.9051 381.905 -1 401.5 -1 C421.095 -1 437 14.9051 437 34.5 L437 713.56 C437 747.473 464.527 775 498.44 775 L640 775 C683 775 744 744 764 712 L769.764 703.354 C770.868 701.698 774.025 700.253 776 700.5 C778.151 700.769 779.48 702.368 778.701 704.391 L778.701 704.391 Z M750.25 788.5 C750.296 788.382 750.09 788.297 750.039 788.412 L749.961 788.588 C749.91 788.703 750.204 788.618 750.25 788.5 L750.25 788.5 Z " />
<glyph glyph-name="tcaron" unicode="&#x165;" horiz-adv-x="367" d="M309 544 L220.44 544 C186.527 544 159 571.527 159 605.44 L159 675 L154 675 L36.2166 534.828 C35.0744 533.469 33 527.775 33 526 C33 523.24 35.2402 521 38 521 L65.5 521 C83.439 521 98 506.439 98 488.5 L98 150 C98 53 162 -10 228 -10 C267.975 -10 329.814 33.7288 355.126 79.4776 C356.239 81.4901 355.497 83.8588 353.5 85 C351.644 86.0606 349.692 86.323 348.66 84.4505 C330.411 51.3212 280.125 19 246 19 C201 19 157 65 157 137 L158.674 450.888 C158.854 484.619 186.381 512 220.113 512 L309 512 C317.832 512 325 519.168 325 528 C325 536.832 317.832 544 309 544 L309 544 Z M416 802 C406 802 392 733 388 695 L374.713 589.656 C374.324 586.565 376.494 583.32 379.5 582.5 C382.533 581.673 385.774 583.437 386.726 586.433 L419 688 C431 725 443 777 443 793 C443 798 430 802 416 802 L416 802 Z " />
<glyph glyph-name="Utilde" unicode="&#x168;" horiz-adv-x="648" d="M162.641 930.754 L166.568 929.993 C166.568 929.993 166.249 930.628 166.249 930.628 C173.1 956.22 194.55 978 216 978 C267 978 367 913 418 913 C451.3 913 482.17 954.31 488.011 1000.48 C488.011 1000.48 489.51 1001.16 489.51 1001.16 L485.584 1001.92 C485.584 1001.92 487.083 1002.6 487.083 1002.6 C480.045 977.675 454.8 956 431 956 C380 956 281 1021 230 1021 C198.5 1021 168.62 978.07 162.959 930.118 C162.959 930.118 162.641 930.754 162.641 930.754 L166.568 929.993 C166.568 929.993 166.249 930.628 166.249 930.628 L162.641 930.754 Z M554.424 1.30613 C561.752 3.16446 571.248 5.83554 578.576 7.69387 C580.895 8.28191 584 11.2175 584 13.6098 L584 759 C584 778.319 568.319 794 549 794 C529.681 794 514 778.319 514 759 L514 201.653 C514 197.147 510.236 180.382 507.992 176.474 C466.182 103.687 354.7 36 273 36 C205 36 138 131 138 228 L138 758.5 C138 778.095 122.095 794 102.5 794 C82.9051 794 67 778.095 67 758.5 L67 228 C67 108 155 -10 244 -10 C326.45 -10 435.633 49.245 490.483 118.605 C496.73 126.505 514 119.765 514 109.694 L514 17.5 C514 7.84052 521.841 0 531.5 0 L544.39 0 C545.101 0 553.735 1.13131 554.424 1.30613 L554.424 1.30613 Z " />
<glyph glyph-name="utilde" unicode="&#x169;" horiz-adv-x="475" d="M72.6407 681.754 L76.5677 680.993 C76.5677 680.993 76.2494 681.628 76.2494 681.628 C83.1 707.22 104.55 729 126 729 C177 729 277 664 328 664 C361.3 664 392.17 705.31 398.011 751.48 C398.011 751.48 399.51 752.158 399.51 752.158 L395.584 752.923 C395.584 752.923 397.083 753.601 397.083 753.601 C390.045 728.675 364.8 707 341 707 C290 707 191 772 140 772 C108.5 772 78.62 729.07 72.959 681.118 C72.959 681.118 72.6407 681.754 72.6407 681.754 L76.5677 680.993 C76.5677 680.993 76.2494 681.628 76.2494 681.628 L72.6407 681.754 Z M436 62 L436 528.998 C436 537.277 429.278 544.112 421 544.25 L406 544.5 L390.5 544.75 C381.946 544.888 375 538.054 375 529.498 L375 149.232 C375 143.494 371.11 126.944 367.917 122.178 C335.69 74.07 266.5 33 211 33 C153 33 96 100 96 168 L96 515 C96 531.559 82.5591 545 66 545 C49.4409 545 36 531.559 36 515 L36 168 C36 79 109 -9 183 -9 C240.8 -9 314.495 38.685 356.183 96.5934 C361.405 103.847 375 97.5772 375 88.6395 L375 16.5 C375 7.94446 381.944 1 390.5 1 L401.969 1 C402.734 1 408.646 2.3834 409.341 2.70262 C415.434 5.50146 423.933 8.00875 431.557 8.76676 C434.031 9.0128 436 11.5132 436 14 L436 62 L436 62 Z " />
<glyph glyph-name="Umacron" unicode="&#x16a;" horiz-adv-x="648" d="M176.5 944 L474.5 944 C485.815 944 495 953.185 495 964.5 C495 975.815 485.815 985 474.5 985 L176.5 985 C165.185 985 156 975.815 156 964.5 C156 953.185 165.185 944 176.5 944 L176.5 944 Z M554.424 1.30613 C561.752 3.16446 571.248 5.83554 578.576 7.69387 C580.895 8.28191 584 11.2175 584 13.6098 L584 759 C584 778.319 568.319 794 549 794 C529.681 794 514 778.319 514 759 L514 201.653 C514 197.147 510.236 180.382 507.992 176.474 C466.182 103.687 354.7 36 273 36 C205 36 138 131 138 228 L138 758.5 C138 778.095 122.095 794 102.5 794 C82.9051 794 67 778.095 67 758.5 L67 228 C67 108 155 -10 244 -10 C326.45 -10 435.633 49.245 490.483 118.605 C496.73 126.505 514 119.765 514 109.694 L514 17.5 C514 7.84052 521.841 0 531.5 0 L544.39 0 C545.101 0 553.735 1.13131 554.424 1.30613 L554.424 1.30613 Z " />
<glyph glyph-name="umacron" unicode="&#x16b;" horiz-adv-x="475" d="M86.5 695 L384.5 695 C395.815 695 405 704.185 405 715.5 C405 726.815 395.815 736 384.5 736 L86.5 736 C75.1846 736 66 726.815 66 715.5 C66 704.185 75.1846 695 86.5 695 L86.5 695 Z M436 62 L436 528.998 C436 537.277 429.278 544.112 421 544.25 L406 544.5 L390.5 544.75 C381.946 544.888 375 538.054 375 529.498 L375 149.232 C375 143.494 371.11 126.944 367.917 122.178 C335.69 74.07 266.5 33 211 33 C153 33 96 100 96 168 L96 515 C96 531.559 82.5591 545 66 545 C49.4409 545 36 531.559 36 515 L36 168 C36 79 109 -9 183 -9 C240.8 -9 314.495 38.685 356.183 96.5934 C361.405 103.847 375 97.5772 375 88.6395 L375 16.5 C375 7.94446 381.944 1 390.5 1 L401.969 1 C402.734 1 408.646 2.3834 409.341 2.70262 C415.434 5.50146 423.933 8.00875 431.557 8.76676 C434.031 9.0128 436 11.5132 436 14 L436 62 L436 62 Z " />
<glyph glyph-name="Ubreve" unicode="&#x16c;" horiz-adv-x="648" d="M184.351 1034.73 C190.548 979.284 259.7 927 326 927 C390.6 927 457.908 975.735 467.049 1028.62 C467.744 1032.64 465.536 1037.38 461.5 1038 C458.482 1038.46 454.93 1036.74 454.243 1033.76 C446.602 1000.68 385.85 970 326 970 C266.15 970 204.495 1001.59 196.764 1034.75 C196.136 1037.45 192.758 1039.73 190 1039.5 C186.489 1039.21 183.96 1038.23 184.351 1034.73 L184.351 1034.73 Z M554.424 1.30613 C561.752 3.16446 571.248 5.83554 578.576 7.69387 C580.895 8.28191 584 11.2175 584 13.6098 L584 759 C584 778.319 568.319 794 549 794 C529.681 794 514 778.319 514 759 L514 201.653 C514 197.147 510.236 180.382 507.992 176.474 C466.182 103.687 354.7 36 273 36 C205 36 138 131 138 228 L138 758.5 C138 778.095 122.095 794 102.5 794 C82.9051 794 67 778.095 67 758.5 L67 228 C67 108 155 -10 244 -10 C326.45 -10 435.633 49.245 490.483 118.605 C496.73 126.505 514 119.765 514 109.694 L514 17.5 C514 7.84052 521.841 0 531.5 0 L544.39 0 C545.101 0 553.735 1.13131 554.424 1.30613 L554.424 1.30613 Z " />
<glyph glyph-name="ubreve" unicode="&#x16d;" horiz-adv-x="475" d="M94.3514 785.73 C100.548 730.284 169.7 678 236 678 C300.6 678 367.908 726.735 377.049 779.621 C377.744 783.645 375.536 788.379 371.5 789 C368.482 789.464 364.93 787.737 364.243 784.762 C356.602 751.685 295.85 721 236 721 C176.15 721 114.495 752.587 106.764 785.754 C106.136 788.449 102.758 790.73 100 790.5 C96.4893 790.207 93.9601 789.231 94.3514 785.73 L94.3514 785.73 Z M436 62 L436 528.998 C436 537.277 429.278 544.112 421 544.25 L406 544.5 L390.5 544.75 C381.946 544.888 375 538.054 375 529.498 L375 149.232 C375 143.494 371.11 126.944 367.917 122.178 C335.69 74.07 266.5 33 211 33 C153 33 96 100 96 168 L96 515 C96 531.559 82.5591 545 66 545 C49.4409 545 36 531.559 36 515 L36 168 C36 79 109 -9 183 -9 C240.8 -9 314.495 38.685 356.183 96.5934 C361.405 103.847 375 97.5772 375 88.6395 L375 16.5 C375 7.94446 381.944 1 390.5 1 L401.969 1 C402.734 1 408.646 2.3834 409.341 2.70262 C415.434 5.50146 423.933 8.00875 431.557 8.76676 C434.031 9.0128 436 11.5132 436 14 L436 62 L436 62 Z " />
<glyph glyph-name="Uring" unicode="&#x16e;" horiz-adv-x="648" d="M246 949 C246 990 286 1030 326 1030 C366 1030 405 990 405 949 C405 912 362 868 326 868 C290 868 246 912 246 949 L246 949 Z M229 949 C229 906 282 854 326 854 C370 854 422 906 422 949 C422 997 374 1044 326 1044 C277 1044 229 997 229 949 L229 949 Z M554.424 1.30613 C561.752 3.16446 571.248 5.83554 578.576 7.69387 C580.895 8.28191 584 11.2175 584 13.6098 L584 759 C584 778.319 568.319 794 549 794 C529.681 794 514 778.319 514 759 L514 201.653 C514 197.147 510.236 180.382 507.992 176.474 C466.182 103.687 354.7 36 273 36 C205 36 138 131 138 228 L138 758.5 C138 778.095 122.095 794 102.5 794 C82.9051 794 67 778.095 67 758.5 L67 228 C67 108 155 -10 244 -10 C326.45 -10 435.633 49.245 490.483 118.605 C496.73 126.505 514 119.765 514 109.694 L514 17.5 C514 7.84052 521.841 0 531.5 0 L544.39 0 C545.101 0 553.735 1.13131 554.424 1.30613 L554.424 1.30613 Z " />
<glyph glyph-name="uring" unicode="&#x16f;" horiz-adv-x="475" d="M156 700 C156 741 196 781 236 781 C276 781 315 741 315 700 C315 663 272 619 236 619 C200 619 156 663 156 700 L156 700 Z M139 700 C139 657 192 605 236 605 C280 605 332 657 332 700 C332 748 284 795 236 795 C187 795 139 748 139 700 L139 700 Z M436 62 L436 528.998 C436 537.277 429.278 544.112 421 544.25 L406 544.5 L390.5 544.75 C381.946 544.888 375 538.054 375 529.498 L375 149.232 C375 143.494 371.11 126.944 367.917 122.178 C335.69 74.07 266.5 33 211 33 C153 33 96 100 96 168 L96 515 C96 531.559 82.5591 545 66 545 C49.4409 545 36 531.559 36 515 L36 168 C36 79 109 -9 183 -9 C240.8 -9 314.495 38.685 356.183 96.5934 C361.405 103.847 375 97.5772 375 88.6395 L375 16.5 C375 7.94446 381.944 1 390.5 1 L401.969 1 C402.734 1 408.646 2.3834 409.341 2.70262 C415.434 5.50146 423.933 8.00875 431.557 8.76676 C434.031 9.0128 436 11.5132 436 14 L436 62 L436 62 Z " />
<glyph glyph-name="Wcircumflex" unicode="&#x174;" horiz-adv-x="1028" d="M598.954 793.951 L420.61 792.521 C420.185 792.518 420.093 791.872 420.5 791.75 C420.508 791.748 425.853 790.475 425.861 790.472 C438.255 786.183 458.05 756.375 471 724 C489.375 667.125 509.281 609.484 528.039 553.088 C530.726 545.008 530.262 515.55 526.921 507.719 L390.06 186.93 C374.245 149.86 322.146 159.882 309.308 198.085 C251.872 368.993 194.436 540.333 137 711 C123.7 749 133.865 787 156.349 790.705 C156.349 790.705 164.5 791.75 164.5 791.75 C164.897 791.816 164.84 792.481 164.438 792.479 L13.9999 791.773 C13.9882 791.773 13.4357 789.928 13.4453 789.921 C25.3125 781.574 46.75 746 59 711 C141 471 224 231 305 -10 C306.5 -14.4635 309.291 -10 314 -10 C318.549 -10 324.789 -5.92417 326.618 -1.75906 L481.835 351.829 C505.58 405.922 577.743 402.583 596.391 346.528 L712.159 -1.46017 C713.647 -5.93289 719.286 -10 724 -10 C728.758 -10 734.218 -5.93713 735.585 -1.37924 L951 717 C963.35 753.1 990.14 787.395 1008.22 790.734 C1008.23 790.736 1014.49 791.748 1014.5 791.75 C1014.9 791.837 1014.83 792.5 1014.42 792.5 L859.04 792.5 C858.626 792.5 858.588 791.794 859 791.75 L862.737 791.35 C862.791 791.344 868.924 790.928 868.979 790.926 C907.424 789 934.7 750 923 711 L802.264 292.858 C785.03 233.172 703.457 232.107 684.672 291.324 L549.876 716.238 C549.79 716.51 548.503 721.49 548.452 721.771 C542.338 755.884 559.839 787.58 588.292 790.742 C588.295 790.742 596.792 791.474 596.796 791.474 L599 791.75 C599.384 791.798 599.341 793.955 598.954 793.951 L598.954 793.951 Z M523 1056 C520 1061 508 1077 502 1077 C496 1077 484 1061 481 1056 L354.901 862.453 C353.316 860.02 353.814 856.413 356 854.5 C358.208 852.568 361.575 852.786 363.516 854.986 L455.922 959.756 C481.156 988.367 522.844 988.367 548.078 959.756 L640.484 854.986 C642.425 852.786 645.792 852.568 648 854.5 C650.186 856.413 650.684 860.02 649.099 862.453 L523 1056 L523 1056 Z " />
<glyph glyph-name="Ycircumflex" unicode="&#x176;" horiz-adv-x="639" d="M348 1056 C345 1061 333 1077 327 1077 C321 1077 308 1061 305 1056 L179.886 862.464 C178.31 860.026 178.815 856.412 181 854.5 C183.208 852.568 186.581 852.781 188.528 854.975 L280.885 959.039 C306.148 987.505 347.769 987.432 372.933 958.878 L464.486 854.988 C466.426 852.787 469.792 852.568 472 854.5 C474.185 856.412 474.69 860.026 473.114 862.464 L348 1056 L348 1056 Z M158.176 793.963 L11.9997 792.558 C11.9693 792.557 11.7571 791.149 11.785 791.137 C23.1745 786.139 37.7273 767.909 53 745 L282.291 361.564 C284.758 357.438 291 334.838 291 330.031 L291 35.5 C291 15.9051 306.905 0 326.5 0 C346.095 0 362 15.9051 362 35.5 L362 341.339 C362 345.477 367.516 367.117 369.497 370.75 L573 744 C589.15 768.65 610.357 786.436 631.709 791.217 C631.709 791.217 631.306 789.869 631.306 789.869 L630.903 793.849 C630.903 793.849 630.5 792.5 630.5 792.5 L524.031 792.5 C523.617 792.5 523.587 791.784 524 791.75 L533 791 C561 791 574 764 560 736 L412.663 459.836 C388.354 414.272 331.594 413.124 305.462 457.667 L141 738 C127.8 763.457 132.38 788.025 151.386 790.75 C151.418 790.755 158.718 791.744 158.75 791.75 C159.136 791.827 158.57 793.967 158.176 793.963 L158.176 793.963 Z " />
<glyph glyph-name="Ydieresis" unicode="&#x178;" horiz-adv-x="639" d="M399 909 C418 909 437 928 437 948 C437 968 418 987 399 987 C379 987 360 968 360 948 C360 928 379 909 399 909 L399 909 Z M254 909 C274 909 293 928 293 948 C293 968 274 987 254 987 C235 987 216 968 216 948 C216 928 235 909 254 909 L254 909 Z M158.176 793.963 L11.9997 792.558 C11.9693 792.557 11.7571 791.149 11.785 791.137 C23.1745 786.139 37.7273 767.909 53 745 L282.291 361.564 C284.758 357.438 291 334.838 291 330.031 L291 35.5 C291 15.9051 306.905 0 326.5 0 C346.095 0 362 15.9051 362 35.5 L362 341.339 C362 345.477 367.516 367.117 369.497 370.75 L573 744 C589.15 768.65 610.357 786.436 631.709 791.217 C631.709 791.217 631.306 789.869 631.306 789.869 L630.903 793.849 C630.903 793.849 630.5 792.5 630.5 792.5 L524.031 792.5 C523.617 792.5 523.587 791.784 524 791.75 L533 791 C561 791 574 764 560 736 L412.663 459.836 C388.354 414.272 331.594 413.124 305.462 457.667 L141 738 C127.8 763.457 132.38 788.025 151.386 790.75 C151.418 790.755 158.718 791.744 158.75 791.75 C159.136 791.827 158.57 793.967 158.176 793.963 L158.176 793.963 Z " />
<glyph glyph-name="Zacute" unicode="&#x179;" horiz-adv-x="654" d="M364.007 860.492 L500 979 C534 1010 568 1042 568 1046 C568 1060 552 1076 538 1076 C535 1076 503 1042 473 1007 L356.431 869.06 C354.558 866.844 354.59 863.183 356.5 861 C358.432 858.792 361.795 858.564 364.007 860.492 L364.007 860.492 Z M65.5 699 C67.8564 699 70.6779 701.034 71.423 703.269 L74 711 C84 743 146 773 198 775 L441.333 777.681 C495.008 778.273 523.13 724.951 492.329 680.989 L29.0168 19.7329 C27.7445 17.9171 25 9.21713 25 7 C25 3.13621 28.1362 0 32 0 L622.206 0 C628.002 0 634.158 4.86192 635.5 10.5 L638 21 L654.005 91.6113 C654.541 93.9738 652.922 96 650.5 96 C648.278 96 644.981 93.9622 643.988 91.9751 L640 84 C626 52 560 22 508 20 L226.978 16.4872 C173.433 15.8179 145.219 68.8234 175.675 112.867 L633.019 774.242 C634.269 776.05 637 784.802 637 787 C637 790.864 633.864 794 630 794 L117.713 794 C91.4941 794 67.9728 772.602 65.5 746.5 L61.4244 703.48 C61.1912 701.018 63.0272 699 65.5 699 L65.5 699 Z " />
<glyph glyph-name="Zdot" unicode="&#x17b;" horiz-adv-x="654" d="M354 909 C373 909 392 928 392 948 C392 968 373 987 354 987 C334 987 315 968 315 948 C315 928 334 909 354 909 L354 909 Z M65.5 699 C67.8564 699 70.6779 701.034 71.423 703.269 L74 711 C84 743 146 773 198 775 L441.333 777.681 C495.008 778.273 523.13 724.951 492.329 680.989 L29.0168 19.7329 C27.7445 17.9171 25 9.21713 25 7 C25 3.13621 28.1362 0 32 0 L622.206 0 C628.002 0 634.158 4.86192 635.5 10.5 L638 21 L654.005 91.6113 C654.541 93.9738 652.922 96 650.5 96 C648.278 96 644.981 93.9622 643.988 91.9751 L640 84 C626 52 560 22 508 20 L226.978 16.4872 C173.433 15.8179 145.219 68.8234 175.675 112.867 L633.019 774.242 C634.269 776.05 637 784.802 637 787 C637 790.864 633.864 794 630 794 L117.713 794 C91.4941 794 67.9728 772.602 65.5 746.5 L61.4244 703.48 C61.1912 701.018 63.0272 699 65.5 699 L65.5 699 Z " />
<glyph glyph-name="zdot" unicode="&#x17c;" horiz-adv-x="502" d="M265 659 C285 659 304 678 304 698 C304 718 285 737 265 737 C245 737 226 718 226 698 C226 678 245 659 265 659 L265 659 Z M62.5931 538.724 L60 529 L47.4047 481.318 C46.655 478.48 48.5648 476 51.5 476 L52.6988 476 C54.6307 476 58.3771 477.928 59.5 479.5 L62 483 C74 502 126 522 168 524 L279 526 C328.998 526.901 355.639 477.584 327.476 436.263 L42.9423 18.7843 C41.7168 16.9862 39 8.17604 39 6 C39 2.13621 42.1362 -1 46 -1 L450.944 -1 C453.704 -1 456.341 1.27068 456.75 4 L457.5 9 L464.295 61.5454 C464.681 64.5313 462.511 67 459.5 67 L458.031 67 C456.099 67 452.958 65.1774 452 63.5 L450 60 C440 41 392 21 350 18 L231.046 15.9923 C177.681 15.0917 149.219 67.6007 179.102 111.823 L457.081 523.2 C458.292 524.992 461 533.837 461 536 C461 539.864 457.864 543 454 543 L72 543 C69.2402 543 67 540.76 67 538 L67 536 C67 534.344 65.6559 533 64 533 C62.4078 533 61.3868 534.354 61.8242 535.885 L62.5 538.25 C62.5147 538.301 62.6069 538.776 62.5931 538.724 L62.5931 538.724 Z M59 527 L58 525 L59 527 L59 527 Z " />
<glyph glyph-name="Zcaron" unicode="&#x17d;" horiz-adv-x="654" d="M491.486 1083.01 L399.933 979.122 C374.769 950.568 333.148 950.495 307.885 978.961 L215.528 1083.02 C213.581 1085.22 210.208 1085.43 208 1083.5 C205.815 1081.59 205.31 1077.97 206.886 1075.54 L332 882 C335 877 348 861 354 861 C360 861 372 877 375 882 L500.114 1075.54 C501.69 1077.97 501.185 1081.59 499 1083.5 C496.792 1085.43 493.426 1085.21 491.486 1083.01 L491.486 1083.01 Z M65.5 699 C67.8564 699 70.6779 701.034 71.423 703.269 L74 711 C84 743 146 773 198 775 L441.333 777.681 C495.008 778.273 523.13 724.951 492.329 680.989 L29.0168 19.7329 C27.7445 17.9171 25 9.21713 25 7 C25 3.13621 28.1362 0 32 0 L622.206 0 C628.002 0 634.158 4.86192 635.5 10.5 L638 21 L654.005 91.6113 C654.541 93.9738 652.922 96 650.5 96 C648.278 96 644.981 93.9622 643.988 91.9751 L640 84 C626 52 560 22 508 20 L226.978 16.4872 C173.433 15.8179 145.219 68.8234 175.675 112.867 L633.019 774.242 C634.269 776.05 637 784.802 637 787 C637 790.864 633.864 794 630 794 L117.713 794 C91.4941 794 67.9728 772.602 65.5 746.5 L61.4244 703.48 C61.1912 701.018 63.0272 699 65.5 699 L65.5 699 Z " />
<glyph glyph-name="zcaron" unicode="&#x17e;" horiz-adv-x="502" d="M403.484 833.014 L311.078 728.244 C285.844 699.633 244.156 699.633 218.922 728.244 L126.516 833.014 C124.575 835.214 121.208 835.432 119 833.5 C116.814 831.587 116.316 827.98 117.901 825.547 L244 632 C247 627 259 611 265 611 C271 611 283 627 286 632 L412.099 825.547 C413.684 827.98 413.186 831.587 411 833.5 C408.792 835.432 405.425 835.214 403.484 833.014 L403.484 833.014 Z M62.5931 538.724 L60 529 L47.4047 481.318 C46.655 478.48 48.5648 476 51.5 476 L52.6988 476 C54.6307 476 58.3771 477.928 59.5 479.5 L62 483 C74 502 126 522 168 524 L279 526 C328.998 526.901 355.639 477.584 327.476 436.263 L42.9423 18.7843 C41.7168 16.9862 39 8.17604 39 6 C39 2.13621 42.1362 -1 46 -1 L450.944 -1 C453.704 -1 456.341 1.27068 456.75 4 L457.5 9 L464.295 61.5454 C464.681 64.5313 462.511 67 459.5 67 L458.031 67 C456.099 67 452.958 65.1774 452 63.5 L450 60 C440 41 392 21 350 18 L231.046 15.9923 C177.681 15.0917 149.219 67.6007 179.102 111.823 L457.081 523.2 C458.292 524.992 461 533.837 461 536 C461 539.864 457.864 543 454 543 L72 543 C69.2402 543 67 540.76 67 538 L67 536 C67 534.344 65.6559 533 64 533 C62.4078 533 61.3868 534.354 61.8242 535.885 L62.5 538.25 C62.5147 538.301 62.6069 538.776 62.5931 538.724 L62.5931 538.724 Z M59 527 L58 525 L59 527 L59 527 Z " />
<glyph glyph-name="oogonek" unicode="&#x1eb;" horiz-adv-x="755" d="M988.295 -58.791 C944.477 -76.6875 830.125 -92 733 -92 C601.375 -92 414.614 -53.0244 334.917 -10.2938 C333.752 -9.66938 334.571 -7.79931 335.882 -7.9654 C346.588 -9.3218 357.294 -10 368 -10 C538 -10 705 150 705 314 C705 477 543 637 378 637 C217 637 60 477 60 314 C60 189.2 148.408 66.3013 259.417 14.8182 C259.692 14.6908 276.209 5.61959 276.464 5.45669 C389.234 -66.5056 607.025 -134 725 -134 C809.175 -134 933.564 -98.9194 990.53 -61.2077 C990.545 -61.1983 988.311 -58.7845 988.295 -58.791 L988.295 -58.791 Z M129 314 C129 475 252 632 377 632 C507 632 635 475 635 314 C635 151 500 -8 363 -8 C245 -8 129 151 129 314 L129 314 Z " />
<glyph glyph-name="Adotabove" unicode="&#x226;" horiz-adv-x="644" d="M325 909 C344 909 363 928 363 948 C363 968 344 987 325 987 C305 987 286 968 286 948 C286 928 305 909 325 909 L325 909 Z M446.329 0.0465391 L640.421 1.47368 C640.849 1.47683 640.919 2.16029 640.5 2.25 C640.495 2.25106 634.047 3.36758 634.042 3.36875 C614.645 8 583.2 55.5 568 103 C494 340 420 577 347 814 C346.457 815.764 345.346 814 343.5 814 C341.891 814 340.256 812.66 340.244 811.05 C340.137 795.649 319.139 778.051 293.928 772.848 C291.299 772.306 289.729 769.571 290.5 767 C290.963 765.458 290.928 758.553 290.449 757.015 L87 103 C71.4 53.275 22.5281 5.45125 -13.2727 3.09114 C-13.3134 3.08846 -19.4691 2.59972 -19.5096 2.59505 L-22.5 2.25 C-22.9112 2.20255 -22.8709 1.5 -22.4569 1.5 L139.457 1.5 C139.871 1.5 139.911 2.20255 139.5 2.25 L136.51 2.59505 C136.476 2.59895 130.364 3.09058 130.33 3.09297 C96.0225 5.5 77.4 54.25 93 103 L143.655 267.629 C150.695 290.51 178.438 311 202.378 311 L384.468 311 C408.513 311 436.253 290.443 443.249 267.438 L496 94 C505.5 49.35 487.925 8.31 456.993 4.31763 C456.978 4.31563 447.193 3.23081 447.177 3.22835 L445.75 3 C445.23 2.9168 445.803 0.0426673 446.329 0.0465391 L446.329 0.0465391 Z M182.447 397.499 L234.056 565.322 C252.281 624.588 333.443 624.504 351.545 565.199 L402.771 397.377 C415.562 355.472 387.821 318 344.008 318 L241.173 318 C197.292 318 169.549 355.556 182.447 397.499 L182.447 397.499 Z " />
<glyph glyph-name="G_sc" unicode="&#x262;" horiz-adv-x="684" d="M612 489.576 L612 592 L607 592 C607 588 606 582 606 578 C605 563 578 565 551 581 C503 613 439 637 364 637 C210 637 60 477 60 314 C60 150 209 -10 362 -10 C428 -10 506 5 574 26 L593 31.5 C617 39.2143 638.796 49.1327 658.388 58.1064 C658.409 58.1159 658.821 58.6256 658.8 58.6172 C644.135 52.7835 626.994 47.4344 608.615 41.6411 C601.275 39.3275 594 44.0097 594 51.7054 L594 239.491 C594 256.878 579.882 270.664 562.5 270.25 C545.118 269.836 531 255.378 531 237.991 L531 183 L531 82.3973 C531 80.1279 530.122 72.4368 529.306 70.3192 C515.495 34.49 444.15 2 371 2 C249 2 130 156 130 313 C130 474 246 631 365 631 C411 631 455 617 493 596 C535.75 571.3 581.207 525.842 596.792 487.063 C598.022 484.003 602.24 481.498 605.5 482 C609.046 482.546 612 485.989 612 489.576 L612 489.576 Z M439.426 4.58796 C419.725 2.6821 399.677 1.38477 380.034 1.0727 C380.034 1.0727 379.352 3.08951 379.352 3.08951 L379.431 -0.909702 C379.431 -0.909702 378.749 1.1071 378.749 1.1071 C394.155 1.48822 416.981 2.8624 439.842 4.84104 C439.948 4.85021 439.532 4.5982 439.426 4.58796 L439.426 4.58796 Z " />
<glyph glyph-name="I_sc" unicode="&#x26a;" horiz-adv-x="265" d="M171 31.5 L171 595.5 C171 612.887 156.887 627 139.5 627 C122.113 627 108 612.887 108 595.5 L108 31.5 C108 14.1129 122.113 0 139.5 0 C156.887 0 171 14.1129 171 31.5 L171 31.5 Z " />
<glyph glyph-name="N_sc" unicode="&#x274;" horiz-adv-x="616" d="M20.8752 622.633 C40.2425 617.565 63.15 598.95 81 576 L86 569.5 C87.687 567.307 90.9893 557.566 90.9839 554.799 L90 54 C90 30.6129 77.7482 7.22581 63.8872 4.30546 C63.8778 4.30347 58.0094 3.25234 58 3.25 C57.5984 3.1496 57.6784 2.5 58.0923 2.5 L140.908 2.5 C141.322 2.5 141.402 3.1496 141 3.25 C140.991 3.25234 135.122 4.30347 135.113 4.30546 C121.252 7.22581 109 30.6129 109 54 L107.776 352.013 C107.524 413.355 182.485 438.066 218.761 388.598 L499.156 6.24163 C500.867 3.90852 506.607 1 509.5 1 C513.088 1 516.025 3.91222 516.057 7.49975 L521 575 C521 598.387 534.127 621.774 547.282 624.695 C547.287 624.696 552.995 625.749 553 625.75 C553.445 625.861 553.368 626.572 552.909 626.584 L527.49 627.278 C512.874 627.676 501 616.122 501 601.5 L501 575 L502.546 200.027 C502.691 164.884 456.273 155.43 435.887 184.056 C336.934 323.005 238.477 462.344 140.05 601.143 C131.489 613.215 103.353 627.681 88.5559 627.413 L20.9983 626.19 C20.8954 626.188 20.7757 622.659 20.8752 622.633 L20.8752 622.633 Z " />
<glyph glyph-name="R_sc" unicode="&#x280;" horiz-adv-x="570" d="M534.885 -1.39507 L535.117 2.5982 C535.117 2.5982 534.223 1.02594 534.223 1.02594 C498.258 4.41875 482.15 17 464 50 C410.625 147.125 358.016 243.484 332.299 290.844 C327.244 300.152 331.025 309.675 341.191 312.649 C414.818 334.19 473 385.25 473 450 C473 539 369 626 263 626 L166.44 626 C132.527 626 105 598.473 105 564.56 L105 30.5 C105 13.1129 119.113 -1 136.5 -1 C153.887 -1 168 13.1129 168 30.5 L168 255 C168 280.391 188.609 301 214 301 L242.536 301 C250.94 301 263.614 292.923 267.227 285.334 C288.5 240.641 339.25 141.875 390 50 C410.35 13 439.684 1.66875 535.778 0.177187 C535.778 0.177187 534.885 -1.39507 534.885 -1.39507 L535.117 2.5982 C535.117 2.5982 534.223 1.02594 534.223 1.02594 L534.885 -1.39507 Z M168 365.5 L168 577 C168 597.975 185.025 615 206 615 L244 615 C324 615 403 540 403 463 C403 379 334 318 263 318 L215.5 318 C189.281 318 168 339.281 168 365.5 L168 365.5 Z " />
<glyph glyph-name="Y_sc" unicode="&#x28f;" horiz-adv-x="548" d="M539.001 626.848 L433.031 625.606 C432.558 625.6 432.529 624.789 433 624.75 L442 624 C469 624 481 599 468 572 L336.777 335.301 C323.895 312.064 293.439 313.829 279.474 336.431 C231.411 414.219 183.025 492.45 136 570 C119.944 596.444 123.512 621.997 143.334 624.754 C143.361 624.758 150.974 625.745 151 625.75 C151.407 625.826 151.344 626.5 150.93 626.5 L13 626.5 C13 626.5 12.9576 627.836 12.9576 627.836 L12.2115 623.906 C12.2115 623.906 12.1692 625.242 12.1692 625.242 C25.0552 619.648 45.3077 596.154 61 570 L237.582 288.988 C240.348 284.586 247 261.497 247 256.299 L247 33 C247 15.337 261.337 1 279 1 C296.663 1 311 15.337 311 33 L311 265.733 C311 270.176 316.851 292.275 319.05 296.136 L475 570 C490.3 597.2 515.715 618.62 538.962 624.434 C539.043 624.454 539.084 626.849 539.001 626.848 L539.001 626.848 Z " />
</font>
</svg>
